<svg width="121" height="179" viewBox="0 0 121 179" fill="none" xmlns="http://www.w3.org/2000/svg">
<g clip-path="url(#clip0_73_1627)">
<path d="M56.7708 68.8991C56.7708 68.8991 54.6228 97.5656 91.0839 107.248" stroke="#3A3A3B" stroke-width="17.01" stroke-miterlimit="10"/>
<g style="mix-blend-mode:multiply" opacity="0.08">
<path d="M62.2005 179C87.5415 179 108.084 178.41 108.084 177.682C108.084 176.954 87.5415 176.364 62.2005 176.364C36.8596 176.364 16.3167 176.954 16.3167 177.682C16.3167 178.41 36.8596 179 62.2005 179Z" fill="#231F20"/>
</g>
<path d="M4.97531 34.1144C4.97531 34.1144 11.915 59.2395 0 59.1715C3.89671 65.5751 49.9917 83.1282 73.2664 48.4929C67.8184 49.29 62.7788 36.3335 62.1317 24.8035C46.375 27.0769 4.97531 34.1144 4.97531 34.1144Z" fill="#CB7133"/>
<path d="M58.6997 28.3806C62.243 26.9067 63.2794 21.4147 61.0145 16.114C58.7496 10.8132 54.0411 7.71102 50.4977 9.18499C46.9544 10.659 45.918 16.1509 48.1829 21.4517C50.4478 26.7524 55.1563 29.8546 58.6997 28.3806Z" fill="#CB7133"/>
<path d="M33.6934 168.503L32.9086 177.388L34.4048 177.456V174.286L38.6182 177.143C39.4422 177.347 40.2885 177.451 41.138 177.451H44.9613C44.9613 176.378 44.5528 175.431 43.9561 175.123L43.7266 175.001C42.5608 174.394 39.9217 173.19 38.6228 171.537L37.3652 168.503H33.6934Z" fill="#414042"/>
<path d="M33.5375 172.728C35.4055 172.728 37.783 175.807 38.8937 176.278C40.0045 176.749 44.8604 176.731 44.8604 176.731" stroke="#6D6E71" stroke-width="0.85" stroke-linecap="round" stroke-linejoin="round"/>
<path d="M48.8351 106.822C48.8718 107.175 48.7157 125.055 48.9406 133.179C49.0095 135.674 48.578 136.92 48.5689 139.415C48.5689 139.442 46.5218 147.268 45.3101 150.981L37.5075 168.955H33.5282L37.9481 145.982C38.1306 144.336 38.5096 142.717 39.0772 141.158C39.9172 138.844 40.4542 138.985 40.2889 138.133C40.0044 136.775 36.3325 111.061 36.3325 111.061L48.8351 106.822Z" fill="url(#paint0_linear_73_1627)"/>
<path d="M35.2219 170.165L37.8978 169.793L38.6229 171.541C39.853 173.099 42.4508 174.258 43.5386 174.897C43.0016 175.481 41.1244 175.803 39.5042 174.693C36.2913 172.501 35.2219 170.165 35.2219 170.165Z" fill="#EFC7B0"/>
<path d="M52.8466 168.503L52.0618 177.388L53.558 177.456V174.286L57.776 177.143C58.5984 177.347 59.4432 177.451 60.2912 177.451H64.1191C64.1191 176.378 63.7106 175.431 63.1093 175.123L62.8798 175.001C61.714 174.394 59.0795 173.19 57.776 171.537L56.5184 168.503H52.8466Z" fill="#414042"/>
<path d="M52.6951 172.728C54.5585 172.728 56.936 175.807 58.0467 176.278C59.1575 176.749 64.0134 176.731 64.0134 176.731" stroke="#6D6E71" stroke-width="0.85" stroke-linecap="round" stroke-linejoin="round"/>
<path d="M64.5872 105.156C64.6193 105.509 66.3864 123.922 66.6113 132.047C66.6801 134.542 66.0238 140.425 66.0146 142.916V143.002C65.9917 146.896 56.6744 168.951 56.6744 168.951H52.6997L55.4077 149.478C55.5903 147.831 55.9677 146.21 56.5322 144.65C57.3767 142.336 59.5522 137.137 59.3686 136.281C59.0841 134.945 52.3096 109.965 52.3096 109.965L64.5872 105.156Z" fill="url(#paint1_linear_73_1627)"/>
<path d="M54.375 170.165L57.0508 169.793L57.776 171.541C59.0061 173.099 61.6085 174.258 62.6962 174.897C62.1547 175.481 60.2774 175.803 58.6618 174.693C55.449 172.501 54.375 170.165 54.375 170.165Z" fill="#EFC7B0"/>
<path d="M66.9142 135.054L39.9769 137.649C36.0251 128.302 34.5747 116.966 35.5523 104.63L64.7891 101.813C68.1672 113.733 68.9612 125.132 66.9142 135.054Z" fill="url(#paint2_linear_73_1627)"/>
<g style="mix-blend-mode:multiply" opacity="0.1">
<path d="M66.5746 109.403C64.2567 97.6063 56.7708 84.446 59.8597 69.2886C60.3187 67.1012 58.9693 65.4709 56.9085 65.6656L53.838 65.96L48.7892 83.101L39.6694 67.3276L36.3739 67.6446C34.3131 67.8439 33.2896 69.7097 34.1846 71.7612C40.2936 85.7276 35.1025 109.802 35.3504 112.293C41.0371 111.745 51.1713 104.657 51.1713 104.657C51.1713 104.657 61.4845 109.893 66.5746 109.403Z" fill="#414042"/>
</g>
<path d="M51.6116 56.5101L40.6893 57.5611L42.2187 73.0346L53.141 71.9836L51.6116 56.5101Z" fill="#E4B69D"/>
<path d="M36.7365 104.789C39.0883 93.731 38.3248 82.2489 34.5288 71.5891C33.7761 69.5557 34.6573 67.7986 36.6585 67.6039L45.581 66.748C46.2006 66.6846 48.0181 72.4269 48.0181 72.4269C48.0181 72.4269 48.5368 66.4627 49.0875 66.4083L56.6239 65.6837C58.6251 65.489 59.8368 67.0423 59.4925 69.1844C57.8562 80.3626 59.3547 91.7695 63.8253 102.167L36.7365 104.789Z" fill="#F1F2F2"/>
<path d="M51.0428 103.036C50.9373 102.37 48.0044 72.3092 48.0044 72.3092" stroke="#BCBEC0" stroke-width="0.85" stroke-miterlimit="10" stroke-linecap="round"/>
<path d="M67.9469 107.701C61.9802 96.2251 58.7031 80.2479 60.5757 69.0938C60.9612 66.9518 59.6577 65.403 57.4868 65.6113L54.2464 65.9238L48.7387 82.5666L39.27 67.3684L35.7864 67.7035C33.6108 67.9119 32.6424 69.678 33.441 71.7069C37.4616 82.2904 37.3974 98.589 33.7715 110.989C39.7795 110.413 51.0886 103.408 51.0886 103.408C51.0886 103.408 62.5631 108.217 67.9469 107.701Z" fill="url(#paint3_linear_73_1627)"/>
<path d="M37.1128 98.6252L45.8655 97.7829C45.8655 97.7829 47.3158 103.104 42.29 104.345C37.2643 105.586 37.1128 98.6252 37.1128 98.6252Z" stroke="#58595B" stroke-width="0.85" stroke-miterlimit="10" stroke-linecap="round"/>
<path d="M53.48 97.0492L62.251 96.2069C62.251 96.2069 63.6968 101.528 58.671 102.769C53.6452 104.01 53.48 97.0492 53.48 97.0492Z" stroke="#58595B" stroke-width="0.85" stroke-miterlimit="10" stroke-linecap="round"/>
<path d="M48.7433 82.5621L51.0932 103.408" stroke="#58595B" stroke-width="0.85" stroke-miterlimit="10" stroke-linecap="round"/>
<path d="M70.4345 28.1547C71.7426 31.2161 70.5722 34.6307 67.8184 35.7764C65.0645 36.9222 61.769 35.3689 60.4747 32.3029C59.1804 29.237 60.3416 25.8315 63.0955 24.6857C65.8493 23.54 69.1356 25.0933 70.4345 28.1547Z" fill="#E4B69D"/>
<path d="M60.8741 16.0088C62.5218 19.0883 62.7513 25.8768 63.6279 27.1493C64.5046 28.4219 66.5241 30.0386 66.8821 26.615C68.5757 29.0197 65.6336 34.1778 60.8603 29.6129C56.0869 25.048 57.2573 17.698 57.2573 17.698" fill="#CB7133"/>
<path d="M50.391 62.5589C50.391 62.5589 24.3441 66.1275 18.8914 53.3703L14.4256 42.9136C11.8073 36.7869 11.7628 29.8849 14.302 23.7258C16.8412 17.5668 21.7561 12.6553 27.9654 10.0717C34.1755 7.48977 41.1706 7.44717 47.4125 9.95332C53.6544 12.4595 58.6319 17.3091 61.2504 23.4358L65.7162 33.8925C71.1689 46.6497 50.391 62.5589 50.391 62.5589Z" fill="#EFC7B0"/>
<g style="mix-blend-mode:multiply" opacity="0.1">
<path d="M19.2036 50.3904C19.2036 50.3904 25.207 41.786 18.359 31.755C35.3412 30.4824 50.1065 23.1143 53.0118 11.8288C54.0812 8.7403 52.8695 7.75305 52.8695 7.75305L11.8553 26.5425L19.2036 50.3904Z" fill="#96514A"/>
</g>
<path d="M39.3343 39.5171C41.1014 43.6518 37.76 43.8828 33.5696 45.6263C29.3791 47.3698 25.9276 49.9602 24.1651 45.8256C23.436 43.8667 23.4992 41.706 24.3417 39.7918C25.1842 37.8777 26.7412 36.3571 28.6897 35.5455C30.6382 34.734 32.8286 34.6938 34.8063 35.4333C36.7841 36.1728 38.3973 37.6352 39.3114 39.5171H39.3343Z" fill="white"/>
<path d="M61.0623 30.4779C61.6951 31.9585 61.8687 33.591 61.5611 35.169C61.2536 36.747 60.4787 38.1995 59.3345 39.343C58.1902 40.4864 56.7281 41.2694 55.1328 41.5928C53.5376 41.9163 51.881 41.7658 50.3725 41.1603C48.864 40.5548 47.5713 39.5215 46.658 38.1911C45.7447 36.8607 45.2517 35.2929 45.2414 33.6861C45.2311 32.0792 45.7039 30.5055 46.6002 29.1638C47.4964 27.8221 48.7757 26.7728 50.2763 26.1485C52.2885 25.3114 54.5553 25.2973 56.578 26.1092C58.6007 26.9211 60.2138 28.4926 61.0623 30.4779Z" fill="white"/>
<path d="M44.1123 46.3056C45.0302 46.6226 45.9941 46.4052 46.9717 45.9161C49.9459 44.4307 48.3165 41.8041 48.3165 41.8041C47.5971 42.175 46.7966 42.3662 45.9849 42.3611C45.6265 42.3773 45.2715 42.2866 44.9661 42.1008C44.6607 41.915 44.4192 41.6427 44.2729 41.3195L42.5288 37.2437" fill="url(#paint4_linear_73_1627)"/>
<path d="M44.1123 46.3056C45.0302 46.6226 45.9941 46.4052 46.9717 45.9161C49.9459 44.4307 48.3165 41.8041 48.3165 41.8041C47.5971 42.175 46.7966 42.3662 45.9849 42.3611C45.6265 42.3773 45.2715 42.2866 44.9661 42.1008C44.6607 41.915 44.4192 41.6427 44.2729 41.3195L42.5288 37.2437" stroke="#96514A" stroke-width="0.85" stroke-linecap="round" stroke-linejoin="round"/>
<path d="M53.8609 48.271C51.6073 43.8329 47.5545 47.0121 48.959 50.3497" stroke="#96514A" stroke-width="0.85" stroke-linecap="round" stroke-linejoin="round"/>
<path d="M19.3045 49.4258C20.6126 52.4872 19.4422 55.8973 16.6838 57.0431C13.9253 58.1888 10.639 56.6355 9.34014 53.5741C8.04123 50.5127 9.20244 47.1026 11.9563 45.9569C14.7102 44.8111 17.9964 46.3645 19.3045 49.4258Z" fill="#EFC7B0"/>
<mask id="mask0_73_1627" style="mask-type:luminance" maskUnits="userSpaceOnUse" x="23" y="34" width="17" height="15">
<path d="M39.3343 39.5171C41.1014 43.6518 37.76 43.8828 33.5696 45.6263C29.3791 47.3698 25.9276 49.9602 24.1651 45.8256C23.436 43.8667 23.4992 41.706 24.3417 39.7918C25.1842 37.8777 26.7412 36.3571 28.6897 35.5455C30.6382 34.734 32.8286 34.6938 34.8063 35.4333C36.7841 36.1728 38.3973 37.6352 39.3114 39.5171H39.3343Z" fill="white"/>
</mask>
<g mask="url(#mask0_73_1627)">
<path d="M34.6527 37.049C35.1647 38.2478 35.3048 39.5696 35.0553 40.847C34.8057 42.1244 34.1778 43.3001 33.2509 44.2253C32.3239 45.1505 31.1397 45.7836 29.848 46.0445C28.5563 46.3054 27.2152 46.1824 25.9944 45.6911C24.7735 45.1997 23.7279 44.3621 22.9896 43.2842C22.2514 42.2064 21.8538 40.9366 21.8471 39.6357C21.8405 38.3348 22.2251 37.0611 22.9522 35.976C23.6794 34.8908 24.7164 34.0428 25.9322 33.5393C27.5605 32.8662 29.393 32.8577 31.0277 33.5156C32.6624 34.1735 33.966 35.4442 34.6527 37.049Z" fill="#414042"/>
</g>
<mask id="mask1_73_1627" style="mask-type:luminance" maskUnits="userSpaceOnUse" x="45" y="25" width="17" height="17">
<path d="M61.0623 30.4779C61.6951 31.9585 61.8687 33.591 61.5611 35.169C61.2536 36.747 60.4787 38.1995 59.3345 39.343C58.1902 40.4864 56.7281 41.2694 55.1328 41.5928C53.5376 41.9163 51.881 41.7658 50.3725 41.1603C48.864 40.5548 47.5713 39.5215 46.658 38.1911C45.7447 36.8607 45.2517 35.2929 45.2414 33.6861C45.2311 32.0792 45.7039 30.5055 46.6002 29.1638C47.4964 27.8221 48.7757 26.7728 50.2763 26.1485C52.2885 25.3114 54.5553 25.2973 56.578 26.1092C58.6007 26.9211 60.2138 28.4926 61.0623 30.4779Z" fill="white"/>
</mask>
<g mask="url(#mask1_73_1627)">
<path d="M53.0894 36.5056C56.4184 34.9508 57.8397 31.0276 56.2639 27.7429C54.6882 24.4581 50.712 23.0557 47.383 24.6105C44.054 26.1653 42.6326 30.0885 44.2084 33.3732C45.7842 36.658 49.7603 38.0604 53.0894 36.5056Z" fill="#414042"/>
</g>
<path d="M27.8002 30.4688C28.0205 30.7496 27.0383 31.8727 25.6063 32.9777C24.1742 34.0827 22.8524 34.753 22.6137 34.4767C22.3751 34.2005 23.3756 33.0728 24.803 31.9678C26.2305 30.8628 27.5753 30.1881 27.8002 30.4688Z" fill="url(#paint5_linear_73_1627)"/>
<path d="M53.4983 22.1995C53.4983 22.5527 52.0433 22.8788 50.2258 22.9286C48.4082 22.9784 46.9257 22.7339 46.912 22.3806C46.8982 22.0274 48.3715 21.6968 50.1891 21.647C52.0066 21.5972 53.4891 21.8417 53.4983 22.1995Z" fill="url(#paint6_linear_73_1627)"/>
<path d="M39.3848 135.996L67.2538 133.315" stroke="#BCBEC0" stroke-width="0.85" stroke-miterlimit="10" stroke-linecap="round"/>
<path d="M13.9346 45.8391C13.9346 45.8391 17.409 47.3608 17.1933 49.5798C16.9776 51.7989 18.919 53.6103 21.4205 52.0796C21.0166 51.9211 17.8909 50.4357 19.2036 46.1199C20.5163 41.8041 18.327 31.2478 15.8255 29.6673C24.6149 28.4717 43.8644 24.5589 50.2121 14.528C52.406 10.3389 58.5333 9.91777 58.5333 9.91777C48.0916 -7.50853 7.91738 -1.27708 6.38439 23.1324C0.399339 26.5878 7.68789 48.7013 13.9346 45.8391Z" fill="url(#paint7_linear_73_1627)"/>
<path d="M39.3343 39.5171C38.3177 37.6886 36.6595 36.2891 34.6711 35.5817C32.768 34.9083 30.677 34.9717 28.8194 35.7591C26.9618 36.5466 25.4758 37.9995 24.6608 39.8251C23.8443 41.6902 23.7576 43.7878 24.4176 45.7123V45.7486C24.4284 45.7795 24.433 45.8122 24.431 45.8449C24.4291 45.8776 24.4206 45.9095 24.4061 45.939C24.3916 45.9684 24.3714 45.9948 24.3466 46.0165C24.3218 46.0382 24.2928 46.0549 24.2615 46.0656C23.3114 46.3871 22.3522 46.6905 21.3883 46.9713C22.2665 46.4882 23.1523 46.0218 24.0458 45.5719L23.9035 45.9252C23.3914 44.9182 23.0979 43.8169 23.0418 42.6917C22.9857 41.5664 23.1682 40.442 23.5776 39.3903L23.9219 38.6069C24.0641 38.3578 24.2018 38.1042 24.3487 37.8596C24.4956 37.6151 24.6792 37.4068 24.8536 37.1622C25.028 36.9177 25.2299 36.7093 25.4319 36.5191C26.2388 35.6883 27.2149 35.0354 28.2959 34.6035C29.364 34.165 30.5121 33.948 31.6689 33.9659C32.8256 33.9838 33.9663 34.2363 35.0199 34.7077C36.0439 35.1611 36.9583 35.8245 37.7022 36.6538C38.4461 37.4831 39.0025 38.4592 39.3343 39.5171Z" fill="#414042"/>
<path d="M45.8884 36.7908C45.3482 35.8181 45.0253 34.7426 44.9414 33.6365C44.8575 32.5305 45.0145 31.4195 45.4019 30.3783C45.8927 29.0297 46.7275 27.8287 47.8257 26.8911C48.9239 25.9536 50.2484 25.3111 51.6716 25.0257C53.0947 24.7404 54.5683 24.8217 55.9503 25.2619C57.3323 25.7021 58.576 26.4863 59.5614 27.5388C60.321 28.3597 60.898 29.3285 61.255 30.3828L60.9796 30.2741C61.6451 30.0613 62.3106 29.8575 62.9853 29.6627C62.3749 30.0069 61.7599 30.333 61.1494 30.6545C61.1271 30.6664 61.1027 30.6739 61.0774 30.6765C61.0522 30.6791 61.0267 30.6767 61.0024 30.6696C60.9781 30.6624 60.9555 30.6506 60.9358 30.6348C60.9161 30.619 60.8998 30.5996 60.8878 30.5775V30.5458C59.9328 28.7318 58.3302 27.3313 56.3898 26.6149C55.4502 26.272 54.4541 26.1046 53.4524 26.1213C51.423 26.1519 49.4816 26.9437 48.0227 28.3358C47.2971 29.0306 46.706 29.8501 46.2786 30.7541C45.416 32.6544 45.2775 34.7979 45.8884 36.7908Z" fill="#414042"/>
<path d="M38.5219 49.5617C38.6275 50.1323 37.5259 50.8161 36.0618 51.0833C34.5976 51.3505 33.3079 51.106 33.2161 50.5354C33.1243 49.9647 34.2075 49.2854 35.6762 49.0137C37.145 48.742 38.4117 48.9911 38.5219 49.5617Z" fill="#F6AFCE"/>
<path d="M60.0801 42.2434C60.3095 42.7778 59.3824 43.6744 58.0101 44.245C56.6377 44.8157 55.3388 44.8428 55.1093 44.3084C54.8799 43.7741 55.807 42.8774 57.1793 42.3068C58.5517 41.7362 59.8506 41.6999 60.0801 42.2434Z" fill="#F6AFCE"/>
<path d="M11.2083 26.144C14.9994 27.1448 34.7308 25.8179 40.5828 17.6165C46.4347 9.41507 51.5431 6.54843 54.1409 7.67607" stroke="#CB7133" stroke-width="0.85" stroke-linecap="round" stroke-linejoin="round"/>
<path d="M9.4917 23.2954C9.4917 23.2954 31.2059 23.1098 33.5421 18.0829C35.8783 13.0561 36.888 2.30055 46.6091 4.65999" stroke="#CB7133" stroke-width="0.85" stroke-linecap="round" stroke-linejoin="round"/>
<path d="M8.81238 21.1217C9.32643 21.1534 28.1858 21.2938 28.6172 14.7227C29.0487 8.15157 31.0544 2.65377 37.3378 2.49527" stroke="#CB7133" stroke-width="0.85" stroke-linecap="round" stroke-linejoin="round"/>
<path d="M10.5013 28.2815C10.5013 28.2815 16.8444 31.1708 16.5185 37.6966" stroke="#CB7133" stroke-width="0.85" stroke-linecap="round" stroke-linejoin="round"/>
<path d="M7.48127 27.326C7.25574 28.1128 7.2974 28.9509 7.5999 29.7122C7.90239 30.4735 8.4491 31.1162 9.15654 31.5421C11.6809 33.0728 14.0033 37.6377 13.7188 41.9309" stroke="#CB7133" stroke-width="0.85" stroke-linecap="round" stroke-linejoin="round"/>
<path d="M62.6044 104.159C62.6044 104.159 64.2016 98.5482 65.8172 99.1506C67.4328 99.7529 64.5734 103.679 65.8447 105.672" fill="#EFC7B0"/>
<path d="M90.5285 105.101C90.5285 105.101 93.7414 107.932 98.0007 107.008C102.847 105.957 102.549 109.055 102.398 109.802C100.598 118.47 88.5779 109.118 88.5779 109.118L90.5285 105.101Z" fill="url(#paint8_linear_73_1627)"/>
<path d="M89.1332 102.801L86.1361 109.598" stroke="#58595B" stroke-width="0.85" stroke-miterlimit="10" stroke-linecap="round"/>
<path d="M63.7886 111.124L83.7495 115.236L110.173 108.131L90.0145 103.829L63.7886 111.124Z" fill="#E6E7E8"/>
<path d="M64.7616 109.893L85.03 114.073L111.853 106.858L91.3868 102.488L64.7616 109.893Z" fill="#D1D3D4"/>
<path d="M63.9125 108.163L84.5251 112.411L111.811 105.074L90.9921 100.631L63.9125 108.163Z" fill="white"/>
<path d="M65.2206 106.849L85.5624 111.038L112.477 103.797L91.9422 99.4178L65.2206 106.849Z" fill="#E6E7E8"/>
<path d="M63.7473 105.409L84.3737 109.657L111.674 102.316L90.8453 97.8735L63.7473 105.409Z" fill="#D1D3D4"/>
<path d="M62.8523 103.503L83.5154 107.764L110.866 100.405L90.0008 95.9533L62.8523 103.503Z" fill="white"/>
<path d="M62.5861 102.488L83.2859 106.754L110.682 99.3861L89.7804 94.9253L62.5861 102.488Z" fill="#E6E7E8"/>
<path d="M64.6331 100.958L85.4293 108.045L113.207 97.8237L92.0982 93.3177L64.6331 100.958Z" fill="#F8C1D9"/>
<path d="M64.959 98.9966L85.6497 103.258L113.032 95.8945L92.1396 91.4383L64.959 98.9966Z" fill="white"/>
<path d="M65.2848 97.6516L85.3329 101.786L111.866 94.6491L91.6209 90.3287L65.2848 97.6516Z" fill="#E6E7E8"/>
<path d="M64.4495 96.4062L84.8877 100.622L111.935 93.3448L91.2996 88.943L64.4495 96.4062Z" fill="#D1D3D4"/>
<path d="M65.3674 94.6083L86.0535 98.8743L113.427 91.5107L92.5434 87.0545L65.3674 94.6083Z" fill="white"/>
<path d="M64.0181 93.0459L83.956 97.1534L110.343 90.057L90.2073 85.7639L64.0181 93.0459Z" fill="#E6E7E8"/>
<path d="M64.4357 91.6556L84.5847 95.8084L111.26 88.635L90.9094 84.292L64.4357 91.6556Z" fill="#D1D3D4"/>
<path d="M60.3967 91.0533L81.0231 95.3057L108.318 87.9648L87.4901 83.5222L60.3967 91.0533Z" fill="#FFC20E"/>
<path d="M64.9406 88.6577L85.4522 92.8874L112.601 85.5827L91.8917 81.1627L64.9406 88.6577Z" fill="#E6E7E8"/>
<path d="M63.683 87.3851L84.3048 91.6375L111.6 84.2966L90.7764 79.8494L63.683 87.3851Z" fill="#D1D3D4"/>
<path d="M66.0742 85.6053L85.9846 89.7083L112.334 82.621L92.2313 78.3323L66.0742 85.6053Z" fill="white"/>
<path d="M63.7977 84.2648L83.878 88.404L110.457 81.2578L90.1797 76.9284L63.7977 84.2648Z" fill="#E6E7E8"/>
<path d="M63.7839 82.6617L84.4792 86.9277L111.871 79.5596L90.9737 75.0988L63.7839 82.6617Z" fill="#D1D3D4"/>
<path d="M105.395 80.497C105.087 81.5522 90.6295 86.7601 88.7936 93.7796C83.9743 86.7601 70.205 81.7786 66.5332 85.1751C67.2217 77.4764 85.5807 72.7213 85.5807 72.7213L105.395 80.497Z" fill="#FFF79D"/>
<path d="M63.8345 81.2895L84.2039 85.4876L111.164 78.2372L90.5928 73.8489L63.8345 81.2895Z" fill="white"/>
<path d="M64.2429 79.7226L84.9932 83.9976L112.454 76.6114L91.5015 72.1416L64.2429 79.7226Z" fill="#E6E7E8"/>
<path d="M63.0725 78.1195L83.9146 82.4172L111.499 74.9947L90.4551 70.5068L63.0725 78.1195Z" fill="#D1D3D4"/>
<path d="M63.7014 76.6159L84.2269 80.8457L111.389 73.541L90.6663 69.1165L63.7014 76.6159Z" fill="white"/>
<path d="M64.2567 75.0762L87.9537 80.42L110.857 72.0692L90.6066 67.7488L64.2567 75.0762Z" fill="#FFC20E"/>
<path d="M65.014 73.6587L84.9107 77.7617L111.247 70.6743L91.1528 66.3902L65.014 73.6587Z" fill="#D1D3D4"/>
<path d="M65.6887 72.2458L86.0719 76.4484L113.055 69.1889L92.47 64.7961L65.6887 72.2458Z" fill="white"/>
<path d="M63.761 70.7921L83.6898 74.8996L110.063 67.8077L89.941 63.5145L63.761 70.7921Z" fill="#E6E7E8"/>
<path d="M64.2384 69.2569L85.0897 73.5546L112.683 66.1321L91.6301 61.6396L64.2384 69.2569Z" fill="#D1D3D4"/>
<path d="M65.7576 67.699L85.8791 71.8472L112.514 64.6829L92.1946 60.349L65.7576 67.699Z" fill="white"/>
<path d="M62.4071 66.1004L83.2768 70.4026L110.903 62.9711L89.8264 58.4741L62.4071 66.1004Z" fill="#E6E7E8"/>
<path d="M64.5597 64.5742L85.1494 68.8176L112.403 61.4857L91.6118 57.0476L64.5597 64.5742Z" fill="#D1D3D4"/>
<path d="M63.9401 63.0526L84.5619 67.3005L111.853 59.9595L91.0289 55.5169L63.9401 63.0526Z" fill="white"/>
<path d="M64.5504 61.8389L84.5205 65.9554L110.953 58.8454L90.7855 54.5432L64.5504 61.8389Z" fill="#E6E7E8"/>
<path d="M63.2516 60.3082L84.0157 64.5878L111.504 57.197L90.5332 52.7227L63.2516 60.3082Z" fill="#D1D3D4"/>
<path d="M65.8999 58.6145L86.0444 62.7673L112.711 55.5984L92.3645 51.2554L65.8999 58.6145Z" fill="white"/>
<path d="M64.6515 57.1698L85.1173 61.3906L112.201 54.1039L91.5337 49.693L64.6515 57.1698Z" fill="#E6E7E8"/>
<path d="M63.908 55.6301L88.4127 60.9468L110.912 52.5959L90.4873 48.2393L63.908 55.6301Z" fill="#FFED6C"/>
<path d="M62.7559 54.0632L83.6806 58.3745L111.375 50.9248L90.244 46.4143L62.7559 54.0632Z" fill="white"/>
<path d="M63.9263 52.8087L84.6858 57.0883L112.165 49.6976L91.1987 45.2232L63.9263 52.8087Z" fill="#E6E7E8"/>
<path d="M82.1384 49.0228C82.4459 50.078 96.9037 55.2859 98.7396 62.3054C103.559 55.2859 117.328 50.3044 121 53.7009C120.312 46.0022 101.952 41.2471 101.952 41.2471L82.1384 49.0228Z" fill="white"/>
<path d="M63.2607 51.2237L83.4833 55.3946L110.251 48.194L89.8309 43.8375L63.2607 51.2237Z" fill="#D1D3D4"/>
<path d="M63.6279 49.6477L83.7632 53.796L110.416 46.6271L90.0833 42.2887L63.6279 49.6477Z" fill="white"/>
<path d="M65.877 48.0989L85.8149 52.211L112.201 45.11L92.0708 40.8168L65.877 48.0989Z" fill="#E6E7E8"/>
<path d="M64.7662 46.609L85.4569 50.8705L112.839 43.5069L91.9468 39.0461L64.7662 46.609Z" fill="#D1D3D4"/>
<path d="M65.34 44.8473L85.3422 48.9684L111.816 41.8494L91.6164 37.5381L65.34 44.8473Z" fill="white"/>
<path d="M63.2148 43.5204L87.2652 51.2101L110.122 40.4953L89.7345 36.1432L63.2148 43.5204Z" fill="#7FC6E2"/>
<path d="M63.5867 41.9762L83.9147 46.1652L110.82 38.9329L90.2945 34.5492L63.5867 41.9762Z" fill="#D1D3D4"/>
<path d="M65.418 40.3414L85.9709 44.5802L113.17 37.2619L92.415 32.8328L65.418 40.3414Z" fill="white"/>
<path d="M64.7111 39.2318L84.8647 43.3846L111.536 36.2112L91.1848 31.8682L64.7111 39.2318Z" fill="#E6E7E8"/>
<path d="M64.8855 37.7102L85.6312 41.9898L113.092 34.6035L92.1395 30.1292L64.8855 37.7102Z" fill="#D1D3D4"/>
<path d="M63.8253 35.8036L84.2498 40.0107L111.288 32.7422L90.6617 28.3404L63.8253 35.8036Z" fill="white"/>
<path d="M58.3497 103.616C58.3497 103.616 64.9406 101.841 65.5648 104.069C66.1891 106.297 66.1982 108.086 70.2556 107.692C72.3623 107.13 72.6698 109.471 70.6136 109.666C73.7346 109.974 72.6514 111.401 71.0221 111.795C74.088 111.949 73.317 113.266 71.481 113.561C74.7627 113.814 72.6331 115.78 70.8798 115.341C69.1265 114.901 63.2654 114.856 63.4168 108.86C61.8717 108.888 60.3337 109.073 58.8271 109.413L58.3497 103.616Z" fill="#EFC7B0"/>
<path d="M70.9257 109.539C70.9257 109.539 66.3359 111.315 65.2894 108.883" stroke="#96514A" stroke-width="0.85" stroke-linecap="round" stroke-linejoin="round"/>
<path d="M71.022 111.776C69.6451 112.089 66.9417 112.501 65.6979 111.016" stroke="#96514A" stroke-width="0.85" stroke-linecap="round" stroke-linejoin="round"/>
<path d="M71.4764 113.543C71.4764 113.543 67.8046 114.448 66.3726 113.14" stroke="#96514A" stroke-width="0.85" stroke-linecap="round" stroke-linejoin="round"/>
<path d="M36.7961 71.1363C24.0641 97.4025 27.9884 108.647 60.6032 106.107" stroke="#414042" stroke-width="17.01" stroke-miterlimit="10"/>
<path d="M57.3767 102.719L57.9826 109.639" stroke="#58595B" stroke-width="0.85" stroke-miterlimit="10" stroke-linecap="round"/>
<path d="M38.7927 67.4137L41.4089 65.2309L45.5718 66.7751L40.7112 73.6089L38.7927 67.4137Z" fill="#E6E7E8"/>
<path d="M49.2573 66.3811L52.3554 64.0262L55.5958 65.7924L54.4529 72.0601L49.2573 66.3811Z" fill="#E6E7E8"/>
<path d="M56.8351 65.874L57.2941 70.9959C57.2941 70.9959 54.1776 72.7168 54.4668 72.7439C55.1724 73.013 55.8593 73.3277 56.523 73.6859L48.8076 82.8791L40.344 76.8333L40.9728 75.0219C40.9728 75.0219 37.6912 74.4875 37.6682 74.261C37.6453 74.0346 37.4846 67.7488 37.4846 67.7488" stroke="#58595B" stroke-width="0.85" stroke-miterlimit="10" stroke-linecap="round"/>
<path d="M97.4728 107.098C96.6191 105.119 98.9278 104.494 99.4051 106.478C99.2858 103.385 100.865 104.245 101.484 105.785C101.218 102.769 102.645 103.335 103.196 105.097C102.994 101.859 105.266 103.666 105.064 105.441C104.862 107.216 105.629 112.949 99.5841 113.624C94.0121 114.227 98.4459 110.989 97.4728 107.098Z" fill="#EFC7B0"/>
<path d="M99.2491 106.188C99.2491 106.188 101.668 110.427 99.3731 111.786" stroke="#96514A" stroke-width="0.85" stroke-linecap="round" stroke-linejoin="round"/>
<path d="M101.484 105.785C101.989 107.103 102.779 109.675 101.452 111.093" stroke="#96514A" stroke-width="0.85" stroke-linecap="round" stroke-linejoin="round"/>
<path d="M103.196 105.101C103.196 105.101 104.628 108.548 103.495 110.146" stroke="#96514A" stroke-width="0.85" stroke-linecap="round" stroke-linejoin="round"/>
</g>
<defs>
<linearGradient id="paint0_linear_73_1627" x1="41.2436" y1="168.955" x2="41.2436" y2="106.822" gradientUnits="userSpaceOnUse">
<stop stop-color="#EFC7B0"/>
<stop offset="0.99" stop-color="#E2A495"/>
</linearGradient>
<linearGradient id="paint1_linear_73_1627" x1="59.4604" y1="168.955" x2="59.4604" y2="105.156" gradientUnits="userSpaceOnUse">
<stop stop-color="#EFC7B0"/>
<stop offset="0.99" stop-color="#E2A495"/>
</linearGradient>
<linearGradient id="paint2_linear_73_1627" x1="53.4382" y1="136.351" x2="50.2501" y2="103.219" gradientUnits="userSpaceOnUse">
<stop stop-color="#58595B"/>
<stop offset="0.99" stop-color="#3E3D3E"/>
</linearGradient>
<linearGradient id="paint3_linear_73_1627" x1="46.6331" y1="66.6606" x2="50.7418" y2="109.36" gradientUnits="userSpaceOnUse">
<stop offset="0.22" stop-color="#414042"/>
<stop offset="0.99" stop-color="#343435"/>
</linearGradient>
<linearGradient id="paint4_linear_73_1627" x1="42.4882" y1="42.5249" x2="47.6942" y2="40.3005" gradientUnits="userSpaceOnUse">
<stop offset="0.47" stop-color="#EFC7B0"/>
<stop offset="0.99" stop-color="#ECADA4"/>
</linearGradient>
<linearGradient id="paint5_linear_73_1627" x1="22.5816" y1="32.4705" x2="27.8277" y2="32.4705" gradientUnits="userSpaceOnUse">
<stop stop-color="#E38F3B"/>
<stop offset="0.99" stop-color="#E5A43C"/>
</linearGradient>
<linearGradient id="paint6_linear_73_1627" x1="46.912" y1="22.2901" x2="53.4983" y2="22.2901" gradientUnits="userSpaceOnUse">
<stop stop-color="#E38F3B"/>
<stop offset="0.99" stop-color="#E5A43C"/>
</linearGradient>
<linearGradient id="paint7_linear_73_1627" x1="4.15377" y1="26.3251" x2="58.5333" y2="26.3251" gradientUnits="userSpaceOnUse">
<stop stop-color="#E38F3B"/>
<stop offset="0.99" stop-color="#E5A43C"/>
</linearGradient>
<linearGradient id="paint8_linear_73_1627" x1="89.7985" y1="106.395" x2="101.768" y2="111.67" gradientUnits="userSpaceOnUse">
<stop offset="0.14" stop-color="#E4B69D"/>
<stop offset="0.27" stop-color="#E8BCA4"/>
<stop offset="0.58" stop-color="#EDC4AD"/>
<stop offset="1" stop-color="#EFC7B0"/>
</linearGradient>
<clipPath id="clip0_73_1627">
<rect width="121" height="179" fill="white"/>
</clipPath>
</defs>
</svg>
