<svg width="1980" height="1084" viewBox="0 0 1980 1084" fill="none" xmlns="http://www.w3.org/2000/svg">
<rect x="0.15" y="72.15" width="197.7" height="71.7" rx="9.85" fill="#E2E2E2" stroke="black" stroke-width="0.3"/>
<rect x="198.15" y="72.15" width="197.7" height="71.7" rx="9.85" fill="#E2E2E2" stroke="black" stroke-width="0.3"/>
<rect x="396.15" y="72.15" width="197.7" height="71.7" rx="9.85" fill="#E2E2E2" stroke="black" stroke-width="0.3"/>
<path d="M594.15 82C594.15 76.56 598.56 72.15 604 72.15H782C787.44 72.15 791.85 76.56 791.85 82V134C791.85 139.44 787.44 143.85 782 143.85H604C598.56 143.85 594.15 139.44 594.15 134V82Z" fill="#E2E2E2" stroke="black" stroke-width="0.3"/>
<path d="M792.15 82C792.15 76.56 796.56 72.15 802 72.15H980C985.44 72.15 989.85 76.56 989.85 82V134C989.85 139.44 985.44 143.85 980 143.85H802C796.56 143.85 792.15 139.44 792.15 134V82Z" fill="#E2E2E2" stroke="black" stroke-width="0.3"/>
<rect x="1188.15" y="74.15" width="197.7" height="71.7" rx="9.85" fill="#E2E2E2" stroke="black" stroke-width="0.3"/>
<rect x="1386.15" y="74.15" width="197.7" height="71.7" rx="9.85" fill="#E2E2E2" stroke="black" stroke-width="0.3"/>
<path d="M1584.15 84C1584.15 78.56 1588.56 74.15 1594 74.15H1772C1777.44 74.15 1781.85 78.56 1781.85 84V136C1781.85 141.44 1777.44 145.85 1772 145.85H1594C1588.56 145.85 1584.15 141.44 1584.15 136V84Z" fill="#E2E2E2" stroke="black" stroke-width="0.3"/>
<rect x="990.15" y="74.15" width="197.7" height="71.7" rx="9.85" fill="#E2E2E2" stroke="black" stroke-width="0.3"/>
<path d="M1782.15 84C1782.15 78.56 1786.56 74.15 1792 74.15H1970C1975.44 74.15 1979.85 78.56 1979.85 84V136C1979.85 141.44 1975.44 145.85 1970 145.85H1792C1786.56 145.85 1782.15 141.44 1782.15 136V84Z" fill="#E2E2E2" stroke="black" stroke-width="0.3"/>
<rect x="0.15" y="144.15" width="197.7" height="71.7" rx="9.85" fill="#E2E2E2" stroke="black" stroke-width="0.3"/>
<rect x="198.15" y="144.15" width="197.7" height="71.7" rx="9.85" fill="#E2E2E2" stroke="black" stroke-width="0.3"/>
<rect x="396.15" y="144.15" width="197.7" height="71.7" rx="9.85" fill="#E2E2E2" stroke="black" stroke-width="0.3"/>
<path d="M594.15 154C594.15 148.56 598.56 144.15 604 144.15H782C787.44 144.15 791.85 148.56 791.85 154V206C791.85 211.44 787.44 215.85 782 215.85H604C598.56 215.85 594.15 211.44 594.15 206V154Z" fill="#E2E2E2" stroke="black" stroke-width="0.3"/>
<path d="M792.15 154C792.15 148.56 796.56 144.15 802 144.15H980C985.44 144.15 989.85 148.56 989.85 154V206C989.85 211.44 985.44 215.85 980 215.85H802C796.56 215.85 792.15 211.44 792.15 206V154Z" fill="#E2E2E2" stroke="black" stroke-width="0.3"/>
<rect x="1188.15" y="146.15" width="197.7" height="71.7" rx="9.85" fill="#E2E2E2" stroke="black" stroke-width="0.3"/>
<rect x="1386.15" y="146.15" width="197.7" height="71.7" rx="9.85" fill="#E2E2E2" stroke="black" stroke-width="0.3"/>
<path d="M1584.15 156C1584.15 150.56 1588.56 146.15 1594 146.15H1772C1777.44 146.15 1781.85 150.56 1781.85 156V208C1781.85 213.44 1777.44 217.85 1772 217.85H1594C1588.56 217.85 1584.15 213.44 1584.15 208V156Z" fill="#E2E2E2" stroke="black" stroke-width="0.3"/>
<rect x="990.15" y="146.15" width="197.7" height="71.7" rx="9.85" fill="#E2E2E2" stroke="black" stroke-width="0.3"/>
<path d="M1782.15 156C1782.15 150.56 1786.56 146.15 1792 146.15H1970C1975.44 146.15 1979.85 150.56 1979.85 156V208C1979.85 213.44 1975.44 217.85 1970 217.85H1792C1786.56 217.85 1782.15 213.44 1782.15 208V156Z" fill="#E2E2E2" stroke="black" stroke-width="0.3"/>
<rect x="0.15" y="216.15" width="197.7" height="71.7" rx="9.85" fill="#E2E2E2" stroke="black" stroke-width="0.3"/>
<rect x="198.15" y="216.15" width="197.7" height="71.7" rx="9.85" fill="#E2E2E2" stroke="black" stroke-width="0.3"/>
<rect x="396.15" y="216.15" width="197.7" height="71.7" rx="9.85" fill="#E2E2E2" stroke="black" stroke-width="0.3"/>
<path d="M594.15 226C594.15 220.56 598.56 216.15 604 216.15H782C787.44 216.15 791.85 220.56 791.85 226V278C791.85 283.44 787.44 287.85 782 287.85H604C598.56 287.85 594.15 283.44 594.15 278V226Z" fill="#E2E2E2" stroke="black" stroke-width="0.3"/>
<path d="M792.15 226C792.15 220.56 796.56 216.15 802 216.15H980C985.44 216.15 989.85 220.56 989.85 226V278C989.85 283.44 985.44 287.85 980 287.85H802C796.56 287.85 792.15 283.44 792.15 278V226Z" fill="#E2E2E2" stroke="black" stroke-width="0.3"/>
<rect x="1188.15" y="218.15" width="197.7" height="71.7" rx="9.85" fill="#E2E2E2" stroke="black" stroke-width="0.3"/>
<rect x="1386.15" y="218.15" width="197.7" height="71.7" rx="9.85" fill="#E2E2E2" stroke="black" stroke-width="0.3"/>
<path d="M1584.15 228C1584.15 222.56 1588.56 218.15 1594 218.15H1772C1777.44 218.15 1781.85 222.56 1781.85 228V280C1781.85 285.44 1777.44 289.85 1772 289.85H1594C1588.56 289.85 1584.15 285.44 1584.15 280V228Z" fill="#E2E2E2" stroke="black" stroke-width="0.3"/>
<rect x="990.15" y="218.15" width="197.7" height="71.7" rx="9.85" fill="#E2E2E2" stroke="black" stroke-width="0.3"/>
<path d="M1782.15 228C1782.15 222.56 1786.56 218.15 1792 218.15H1970C1975.44 218.15 1979.85 222.56 1979.85 228V280C1979.85 285.44 1975.44 289.85 1970 289.85H1792C1786.56 289.85 1782.15 285.44 1782.15 280V228Z" fill="#E2E2E2" stroke="black" stroke-width="0.3"/>
<rect x="0.15" y="288.15" width="197.7" height="71.7" rx="9.85" fill="#E2E2E2" stroke="black" stroke-width="0.3"/>
<rect x="198.15" y="288.15" width="197.7" height="71.7" rx="9.85" fill="#E2E2E2" stroke="black" stroke-width="0.3"/>
<rect x="396.15" y="288.15" width="197.7" height="71.7" rx="9.85" fill="#E2E2E2" stroke="black" stroke-width="0.3"/>
<path d="M594.15 298C594.15 292.56 598.56 288.15 604 288.15H782C787.44 288.15 791.85 292.56 791.85 298V350C791.85 355.44 787.44 359.85 782 359.85H604C598.56 359.85 594.15 355.44 594.15 350V298Z" fill="#E2E2E2" stroke="black" stroke-width="0.3"/>
<path d="M792.15 298C792.15 292.56 796.56 288.15 802 288.15H980C985.44 288.15 989.85 292.56 989.85 298V350C989.85 355.44 985.44 359.85 980 359.85H802C796.56 359.85 792.15 355.44 792.15 350V298Z" fill="#E2E2E2" stroke="black" stroke-width="0.3"/>
<rect x="1188.15" y="290.15" width="197.7" height="71.7" rx="9.85" fill="#E2E2E2" stroke="black" stroke-width="0.3"/>
<rect x="1386.15" y="290.15" width="197.7" height="71.7" rx="9.85" fill="#E2E2E2" stroke="black" stroke-width="0.3"/>
<path d="M1584.15 300C1584.15 294.56 1588.56 290.15 1594 290.15H1772C1777.44 290.15 1781.85 294.56 1781.85 300V352C1781.85 357.44 1777.44 361.85 1772 361.85H1594C1588.56 361.85 1584.15 357.44 1584.15 352V300Z" fill="#E2E2E2" stroke="black" stroke-width="0.3"/>
<rect x="990.15" y="290.15" width="197.7" height="71.7" rx="9.85" fill="#E2E2E2" stroke="black" stroke-width="0.3"/>
<path d="M1782.15 300C1782.15 294.56 1786.56 290.15 1792 290.15H1970C1975.44 290.15 1979.85 294.56 1979.85 300V352C1979.85 357.44 1975.44 361.85 1970 361.85H1792C1786.56 361.85 1782.15 357.44 1782.15 352V300Z" fill="#E2E2E2" stroke="black" stroke-width="0.3"/>
<rect x="0.15" y="360.15" width="197.7" height="71.7" rx="9.85" fill="#E2E2E2" stroke="black" stroke-width="0.3"/>
<rect x="198.15" y="360.15" width="197.7" height="71.7" rx="9.85" fill="#E2E2E2" stroke="black" stroke-width="0.3"/>
<rect x="396.15" y="360.15" width="197.7" height="71.7" rx="9.85" fill="#E2E2E2" stroke="black" stroke-width="0.3"/>
<path d="M594.15 370C594.15 364.56 598.56 360.15 604 360.15H782C787.44 360.15 791.85 364.56 791.85 370V422C791.85 427.44 787.44 431.85 782 431.85H604C598.56 431.85 594.15 427.44 594.15 422V370Z" fill="#E2E2E2" stroke="black" stroke-width="0.3"/>
<path d="M792.15 370C792.15 364.56 796.56 360.15 802 360.15H980C985.44 360.15 989.85 364.56 989.85 370V422C989.85 427.44 985.44 431.85 980 431.85H802C796.56 431.85 792.15 427.44 792.15 422V370Z" fill="#E2E2E2" stroke="black" stroke-width="0.3"/>
<rect x="1188.15" y="362.15" width="197.7" height="71.7" rx="9.85" fill="#E2E2E2" stroke="black" stroke-width="0.3"/>
<rect x="1386.15" y="362.15" width="197.7" height="71.7" rx="9.85" fill="#E2E2E2" stroke="black" stroke-width="0.3"/>
<path d="M1584.15 372C1584.15 366.56 1588.56 362.15 1594 362.15H1772C1777.44 362.15 1781.85 366.56 1781.85 372V424C1781.85 429.44 1777.44 433.85 1772 433.85H1594C1588.56 433.85 1584.15 429.44 1584.15 424V372Z" fill="#E2E2E2" stroke="black" stroke-width="0.3"/>
<rect x="990.15" y="362.15" width="197.7" height="71.7" rx="9.85" fill="#E2E2E2" stroke="black" stroke-width="0.3"/>
<path d="M1782.15 372C1782.15 366.56 1786.56 362.15 1792 362.15H1970C1975.44 362.15 1979.85 366.56 1979.85 372V424C1979.85 429.44 1975.44 433.85 1970 433.85H1792C1786.56 433.85 1782.15 429.44 1782.15 424V372Z" fill="#E2E2E2" stroke="black" stroke-width="0.3"/>
<rect x="0.15" y="432.15" width="197.7" height="71.7" rx="9.85" fill="#E2E2E2" stroke="black" stroke-width="0.3"/>
<rect x="198.15" y="432.15" width="197.7" height="71.7" rx="9.85" fill="#E2E2E2" stroke="black" stroke-width="0.3"/>
<rect x="396.15" y="432.15" width="197.7" height="71.7" rx="9.85" fill="#E2E2E2" stroke="black" stroke-width="0.3"/>
<path d="M594.15 442C594.15 436.56 598.56 432.15 604 432.15H782C787.44 432.15 791.85 436.56 791.85 442V494C791.85 499.44 787.44 503.85 782 503.85H604C598.56 503.85 594.15 499.44 594.15 494V442Z" fill="#E2E2E2" stroke="black" stroke-width="0.3"/>
<path d="M792.15 442C792.15 436.56 796.56 432.15 802 432.15H980C985.44 432.15 989.85 436.56 989.85 442V494C989.85 499.44 985.44 503.85 980 503.85H802C796.56 503.85 792.15 499.44 792.15 494V442Z" fill="#E2E2E2" stroke="black" stroke-width="0.3"/>
<rect x="1188.15" y="434.15" width="197.7" height="71.7" rx="9.85" fill="#E2E2E2" stroke="black" stroke-width="0.3"/>
<rect x="1386.15" y="434.15" width="197.7" height="71.7" rx="9.85" fill="#E2E2E2" stroke="black" stroke-width="0.3"/>
<path d="M1584.15 444C1584.15 438.56 1588.56 434.15 1594 434.15H1772C1777.44 434.15 1781.85 438.56 1781.85 444V496C1781.85 501.44 1777.44 505.85 1772 505.85H1594C1588.56 505.85 1584.15 501.44 1584.15 496V444Z" fill="#E2E2E2" stroke="black" stroke-width="0.3"/>
<rect x="990.15" y="434.15" width="197.7" height="71.7" rx="9.85" fill="#E2E2E2" stroke="black" stroke-width="0.3"/>
<path d="M1782.15 444C1782.15 438.56 1786.56 434.15 1792 434.15H1970C1975.44 434.15 1979.85 438.56 1979.85 444V496C1979.85 501.44 1975.44 505.85 1970 505.85H1792C1786.56 505.85 1782.15 501.44 1782.15 496V444Z" fill="#E2E2E2" stroke="black" stroke-width="0.3"/>
<rect x="0.15" y="504.15" width="197.7" height="71.7" rx="9.85" fill="#E2E2E2" stroke="black" stroke-width="0.3"/>
<rect x="198.15" y="504.15" width="197.7" height="71.7" rx="9.85" fill="#E2E2E2" stroke="black" stroke-width="0.3"/>
<rect x="396.15" y="504.15" width="197.7" height="71.7" rx="9.85" fill="#E2E2E2" stroke="black" stroke-width="0.3"/>
<path d="M594.15 514C594.15 508.56 598.56 504.15 604 504.15H782C787.44 504.15 791.85 508.56 791.85 514V566C791.85 571.44 787.44 575.85 782 575.85H604C598.56 575.85 594.15 571.44 594.15 566V514Z" fill="#E2E2E2" stroke="black" stroke-width="0.3"/>
<path d="M792.15 514C792.15 508.56 796.56 504.15 802 504.15H980C985.44 504.15 989.85 508.56 989.85 514V566C989.85 571.44 985.44 575.85 980 575.85H802C796.56 575.85 792.15 571.44 792.15 566V514Z" fill="#E2E2E2" stroke="black" stroke-width="0.3"/>
<rect x="1188.15" y="506.15" width="197.7" height="71.7" rx="9.85" fill="#E2E2E2" stroke="black" stroke-width="0.3"/>
<rect x="1386.15" y="506.15" width="197.7" height="71.7" rx="9.85" fill="#E2E2E2" stroke="black" stroke-width="0.3"/>
<path d="M1584.15 516C1584.15 510.56 1588.56 506.15 1594 506.15H1772C1777.44 506.15 1781.85 510.56 1781.85 516V568C1781.85 573.44 1777.44 577.85 1772 577.85H1594C1588.56 577.85 1584.15 573.44 1584.15 568V516Z" fill="#E2E2E2" stroke="black" stroke-width="0.3"/>
<rect x="990.15" y="506.15" width="197.7" height="71.7" rx="9.85" fill="#E2E2E2" stroke="black" stroke-width="0.3"/>
<path d="M1782.15 516C1782.15 510.56 1786.56 506.15 1792 506.15H1970C1975.44 506.15 1979.85 510.56 1979.85 516V568C1979.85 573.44 1975.44 577.85 1970 577.85H1792C1786.56 577.85 1782.15 573.44 1782.15 568V516Z" fill="#E2E2E2" stroke="black" stroke-width="0.3"/>
<rect x="0.15" y="576.15" width="197.7" height="71.7" rx="9.85" fill="#E2E2E2" stroke="black" stroke-width="0.3"/>
<rect x="198.15" y="576.15" width="197.7" height="71.7" rx="9.85" fill="#E2E2E2" stroke="black" stroke-width="0.3"/>
<rect x="396.15" y="576.15" width="197.7" height="71.7" rx="9.85" fill="#E2E2E2" stroke="black" stroke-width="0.3"/>
<path d="M594.15 586C594.15 580.56 598.56 576.15 604 576.15H782C787.44 576.15 791.85 580.56 791.85 586V638C791.85 643.44 787.44 647.85 782 647.85H604C598.56 647.85 594.15 643.44 594.15 638V586Z" fill="#E2E2E2" stroke="black" stroke-width="0.3"/>
<path d="M792.15 586C792.15 580.56 796.56 576.15 802 576.15H980C985.44 576.15 989.85 580.56 989.85 586V638C989.85 643.44 985.44 647.85 980 647.85H802C796.56 647.85 792.15 643.44 792.15 638V586Z" fill="#E2E2E2" stroke="black" stroke-width="0.3"/>
<rect x="1188.15" y="578.15" width="197.7" height="71.7" rx="9.85" fill="#E2E2E2" stroke="black" stroke-width="0.3"/>
<rect x="1386.15" y="578.15" width="197.7" height="71.7" rx="9.85" fill="#E2E2E2" stroke="black" stroke-width="0.3"/>
<path d="M1584.15 588C1584.15 582.56 1588.56 578.15 1594 578.15H1772C1777.44 578.15 1781.85 582.56 1781.85 588V640C1781.85 645.44 1777.44 649.85 1772 649.85H1594C1588.56 649.85 1584.15 645.44 1584.15 640V588Z" fill="#E2E2E2" stroke="black" stroke-width="0.3"/>
<rect x="990.15" y="578.15" width="197.7" height="71.7" rx="9.85" fill="#E2E2E2" stroke="black" stroke-width="0.3"/>
<path d="M1782.15 588C1782.15 582.56 1786.56 578.15 1792 578.15H1970C1975.44 578.15 1979.85 582.56 1979.85 588V640C1979.85 645.44 1975.44 649.85 1970 649.85H1792C1786.56 649.85 1782.15 645.44 1782.15 640V588Z" fill="#E2E2E2" stroke="black" stroke-width="0.3"/>
<rect x="0.15" y="648.15" width="197.7" height="71.7" rx="9.85" fill="#E2E2E2" stroke="black" stroke-width="0.3"/>
<rect x="198.15" y="648.15" width="197.7" height="71.7" rx="9.85" fill="#E2E2E2" stroke="black" stroke-width="0.3"/>
<rect x="396.15" y="648.15" width="197.7" height="71.7" rx="9.85" fill="#E2E2E2" stroke="black" stroke-width="0.3"/>
<path d="M594.15 658C594.15 652.56 598.56 648.15 604 648.15H782C787.44 648.15 791.85 652.56 791.85 658V710C791.85 715.44 787.44 719.85 782 719.85H604C598.56 719.85 594.15 715.44 594.15 710V658Z" fill="#E2E2E2" stroke="black" stroke-width="0.3"/>
<path d="M792.15 658C792.15 652.56 796.56 648.15 802 648.15H980C985.44 648.15 989.85 652.56 989.85 658V710C989.85 715.44 985.44 719.85 980 719.85H802C796.56 719.85 792.15 715.44 792.15 710V658Z" fill="#E2E2E2" stroke="black" stroke-width="0.3"/>
<rect x="1188.15" y="650.15" width="197.7" height="71.7" rx="9.85" fill="#E2E2E2" stroke="black" stroke-width="0.3"/>
<rect x="1386.15" y="650.15" width="197.7" height="71.7" rx="9.85" fill="#E2E2E2" stroke="black" stroke-width="0.3"/>
<path d="M1584.15 660C1584.15 654.56 1588.56 650.15 1594 650.15H1772C1777.44 650.15 1781.85 654.56 1781.85 660V712C1781.85 717.44 1777.44 721.85 1772 721.85H1594C1588.56 721.85 1584.15 717.44 1584.15 712V660Z" fill="#E2E2E2" stroke="black" stroke-width="0.3"/>
<rect x="990.15" y="650.15" width="197.7" height="71.7" rx="9.85" fill="#E2E2E2" stroke="black" stroke-width="0.3"/>
<path d="M1782.15 660C1782.15 654.56 1786.56 650.15 1792 650.15H1970C1975.44 650.15 1979.85 654.56 1979.85 660V712C1979.85 717.44 1975.44 721.85 1970 721.85H1792C1786.56 721.85 1782.15 717.44 1782.15 712V660Z" fill="#E2E2E2" stroke="black" stroke-width="0.3"/>
<rect x="0.15" y="720.15" width="197.7" height="71.7" rx="9.85" fill="#E2E2E2" stroke="black" stroke-width="0.3"/>
<rect x="198.15" y="720.15" width="197.7" height="71.7" rx="9.85" fill="#E2E2E2" stroke="black" stroke-width="0.3"/>
<rect x="396.15" y="720.15" width="197.7" height="71.7" rx="9.85" fill="#E2E2E2" stroke="black" stroke-width="0.3"/>
<path d="M594.15 730C594.15 724.56 598.56 720.15 604 720.15H782C787.44 720.15 791.85 724.56 791.85 730V782C791.85 787.44 787.44 791.85 782 791.85H604C598.56 791.85 594.15 787.44 594.15 782V730Z" fill="#E2E2E2" stroke="black" stroke-width="0.3"/>
<path d="M792.15 730C792.15 724.56 796.56 720.15 802 720.15H980C985.44 720.15 989.85 724.56 989.85 730V782C989.85 787.44 985.44 791.85 980 791.85H802C796.56 791.85 792.15 787.44 792.15 782V730Z" fill="#E2E2E2" stroke="black" stroke-width="0.3"/>
<rect x="1188.15" y="722.15" width="197.7" height="71.7" rx="9.85" fill="#E2E2E2" stroke="black" stroke-width="0.3"/>
<rect x="1386.15" y="722.15" width="197.7" height="71.7" rx="9.85" fill="#E2E2E2" stroke="black" stroke-width="0.3"/>
<path d="M1584.15 732C1584.15 726.56 1588.56 722.15 1594 722.15H1772C1777.44 722.15 1781.85 726.56 1781.85 732V784C1781.85 789.44 1777.44 793.85 1772 793.85H1594C1588.56 793.85 1584.15 789.44 1584.15 784V732Z" fill="#E2E2E2" stroke="black" stroke-width="0.3"/>
<rect x="990.15" y="722.15" width="197.7" height="71.7" rx="9.85" fill="#E2E2E2" stroke="black" stroke-width="0.3"/>
<path d="M1782.15 732C1782.15 726.56 1786.56 722.15 1792 722.15H1970C1975.44 722.15 1979.85 726.56 1979.85 732V784C1979.85 789.44 1975.44 793.85 1970 793.85H1792C1786.56 793.85 1782.15 789.44 1782.15 784V732Z" fill="#E2E2E2" stroke="black" stroke-width="0.3"/>
<rect x="0.15" y="792.15" width="197.7" height="71.7" rx="9.85" fill="#E2E2E2" stroke="black" stroke-width="0.3"/>
<rect x="198.15" y="792.15" width="197.7" height="71.7" rx="9.85" fill="#E2E2E2" stroke="black" stroke-width="0.3"/>
<rect x="396.15" y="792.15" width="197.7" height="71.7" rx="9.85" fill="#E2E2E2" stroke="black" stroke-width="0.3"/>
<path d="M594.15 802C594.15 796.56 598.56 792.15 604 792.15H782C787.44 792.15 791.85 796.56 791.85 802V854C791.85 859.44 787.44 863.85 782 863.85H604C598.56 863.85 594.15 859.44 594.15 854V802Z" fill="#E2E2E2" stroke="black" stroke-width="0.3"/>
<path d="M792.15 802C792.15 796.56 796.56 792.15 802 792.15H980C985.44 792.15 989.85 796.56 989.85 802V854C989.85 859.44 985.44 863.85 980 863.85H802C796.56 863.85 792.15 859.44 792.15 854V802Z" fill="#E2E2E2" stroke="black" stroke-width="0.3"/>
<rect x="1188.15" y="794.15" width="197.7" height="71.7" rx="9.85" fill="#E2E2E2" stroke="black" stroke-width="0.3"/>
<rect x="1386.15" y="794.15" width="197.7" height="71.7" rx="9.85" fill="#E2E2E2" stroke="black" stroke-width="0.3"/>
<path d="M1584.15 804C1584.15 798.56 1588.56 794.15 1594 794.15H1772C1777.44 794.15 1781.85 798.56 1781.85 804V856C1781.85 861.44 1777.44 865.85 1772 865.85H1594C1588.56 865.85 1584.15 861.44 1584.15 856V804Z" fill="#E2E2E2" stroke="black" stroke-width="0.3"/>
<rect x="990.15" y="794.15" width="197.7" height="71.7" rx="9.85" fill="#E2E2E2" stroke="black" stroke-width="0.3"/>
<path d="M1782.15 804C1782.15 798.56 1786.56 794.15 1792 794.15H1970C1975.44 794.15 1979.85 798.56 1979.85 804V856C1979.85 861.44 1975.44 865.85 1970 865.85H1792C1786.56 865.85 1782.15 861.44 1782.15 856V804Z" fill="#E2E2E2" stroke="black" stroke-width="0.3"/>
<rect x="0.15" y="864.15" width="197.7" height="71.7" rx="9.85" fill="#E2E2E2" stroke="black" stroke-width="0.3"/>
<rect x="198.15" y="864.15" width="197.7" height="71.7" rx="9.85" fill="#E2E2E2" stroke="black" stroke-width="0.3"/>
<rect x="396.15" y="864.15" width="197.7" height="71.7" rx="9.85" fill="#E2E2E2" stroke="black" stroke-width="0.3"/>
<path d="M594.15 874C594.15 868.56 598.56 864.15 604 864.15H782C787.44 864.15 791.85 868.56 791.85 874V926C791.85 931.44 787.44 935.85 782 935.85H604C598.56 935.85 594.15 931.44 594.15 926V874Z" fill="#E2E2E2" stroke="black" stroke-width="0.3"/>
<path d="M792.15 874C792.15 868.56 796.56 864.15 802 864.15H980C985.44 864.15 989.85 868.56 989.85 874V926C989.85 931.44 985.44 935.85 980 935.85H802C796.56 935.85 792.15 931.44 792.15 926V874Z" fill="#E2E2E2" stroke="black" stroke-width="0.3"/>
<rect x="1188.15" y="866.15" width="197.7" height="71.7" rx="9.85" fill="#E2E2E2" stroke="black" stroke-width="0.3"/>
<rect x="1386.15" y="866.15" width="197.7" height="71.7" rx="9.85" fill="#E2E2E2" stroke="black" stroke-width="0.3"/>
<path d="M1584.15 876C1584.15 870.56 1588.56 866.15 1594 866.15H1772C1777.44 866.15 1781.85 870.56 1781.85 876V928C1781.85 933.44 1777.44 937.85 1772 937.85H1594C1588.56 937.85 1584.15 933.44 1584.15 928V876Z" fill="#E2E2E2" stroke="black" stroke-width="0.3"/>
<rect x="990.15" y="866.15" width="197.7" height="71.7" rx="9.85" fill="#E2E2E2" stroke="black" stroke-width="0.3"/>
<path d="M1782.15 876C1782.15 870.56 1786.56 866.15 1792 866.15H1970C1975.44 866.15 1979.85 870.56 1979.85 876V928C1979.85 933.44 1975.44 937.85 1970 937.85H1792C1786.56 937.85 1782.15 933.44 1782.15 928V876Z" fill="#E2E2E2" stroke="black" stroke-width="0.3"/>
<rect x="0.15" y="938.15" width="197.7" height="71.7" rx="9.85" fill="#E2E2E2" stroke="black" stroke-width="0.3"/>
<rect x="198.15" y="938.15" width="197.7" height="71.7" rx="9.85" fill="#E2E2E2" stroke="black" stroke-width="0.3"/>
<rect x="396.15" y="938.15" width="197.7" height="71.7" rx="9.85" fill="#E2E2E2" stroke="black" stroke-width="0.3"/>
<path d="M594.15 948C594.15 942.56 598.56 938.15 604 938.15H782C787.44 938.15 791.85 942.56 791.85 948V1000C791.85 1005.44 787.44 1009.85 782 1009.85H604C598.56 1009.85 594.15 1005.44 594.15 1000V948Z" fill="#E2E2E2" stroke="black" stroke-width="0.3"/>
<path d="M792.15 948C792.15 942.56 796.56 938.15 802 938.15H980C985.44 938.15 989.85 942.56 989.85 948V1000C989.85 1005.44 985.44 1009.85 980 1009.85H802C796.56 1009.85 792.15 1005.44 792.15 1000V948Z" fill="#E2E2E2" stroke="black" stroke-width="0.3"/>
<rect x="1188.15" y="940.15" width="197.7" height="71.7" rx="9.85" fill="#E2E2E2" stroke="black" stroke-width="0.3"/>
<rect x="1386.15" y="940.15" width="197.7" height="71.7" rx="9.85" fill="#E2E2E2" stroke="black" stroke-width="0.3"/>
<path d="M1584.15 950C1584.15 944.56 1588.56 940.15 1594 940.15H1772C1777.44 940.15 1781.85 944.56 1781.85 950V1002C1781.85 1007.44 1777.44 1011.85 1772 1011.85H1594C1588.56 1011.85 1584.15 1007.44 1584.15 1002V950Z" fill="#E2E2E2" stroke="black" stroke-width="0.3"/>
<rect x="990.15" y="940.15" width="197.7" height="71.7" rx="9.85" fill="#E2E2E2" stroke="black" stroke-width="0.3"/>
<path d="M1782.15 950C1782.15 944.56 1786.56 940.15 1792 940.15H1970C1975.44 940.15 1979.85 944.56 1979.85 950V1002C1979.85 1007.44 1975.44 1011.85 1970 1011.85H1792C1786.56 1011.85 1782.15 1007.44 1782.15 1002V950Z" fill="#E2E2E2" stroke="black" stroke-width="0.3"/>
<rect x="0.15" y="1010.15" width="197.7" height="71.7" rx="9.85" fill="#E2E2E2" stroke="black" stroke-width="0.3"/>
<rect x="198.15" y="1010.15" width="197.7" height="71.7" rx="9.85" fill="#E2E2E2" stroke="black" stroke-width="0.3"/>
<rect x="396.15" y="1010.15" width="197.7" height="71.7" rx="9.85" fill="#E2E2E2" stroke="black" stroke-width="0.3"/>
<path d="M594.15 1020C594.15 1014.56 598.56 1010.15 604 1010.15H782C787.44 1010.15 791.85 1014.56 791.85 1020V1072C791.85 1077.44 787.44 1081.85 782 1081.85H604C598.56 1081.85 594.15 1077.44 594.15 1072V1020Z" fill="#E2E2E2" stroke="black" stroke-width="0.3"/>
<path d="M792.15 1020C792.15 1014.56 796.56 1010.15 802 1010.15H980C985.44 1010.15 989.85 1014.56 989.85 1020V1072C989.85 1077.44 985.44 1081.85 980 1081.85H802C796.56 1081.85 792.15 1077.44 792.15 1072V1020Z" fill="#E2E2E2" stroke="black" stroke-width="0.3"/>
<rect x="1188.15" y="1012.15" width="197.7" height="71.7" rx="9.85" fill="#E2E2E2" stroke="black" stroke-width="0.3"/>
<rect x="1386.15" y="1012.15" width="197.7" height="71.7" rx="9.85" fill="#E2E2E2" stroke="black" stroke-width="0.3"/>
<path d="M1584.15 1022C1584.15 1016.56 1588.56 1012.15 1594 1012.15H1772C1777.44 1012.15 1781.85 1016.56 1781.85 1022V1074C1781.85 1079.44 1777.44 1083.85 1772 1083.85H1594C1588.56 1083.85 1584.15 1079.44 1584.15 1074V1022Z" fill="#E2E2E2" stroke="black" stroke-width="0.3"/>
<rect x="990.15" y="1012.15" width="197.7" height="71.7" rx="9.85" fill="#E2E2E2" stroke="black" stroke-width="0.3"/>
<path d="M1782.15 1022C1782.15 1016.56 1786.56 1012.15 1792 1012.15H1970C1975.44 1012.15 1979.85 1016.56 1979.85 1022V1074C1979.85 1079.44 1975.44 1083.85 1970 1083.85H1792C1786.56 1083.85 1782.15 1079.44 1782.15 1074V1022Z" fill="#E2E2E2" stroke="black" stroke-width="0.3"/>
<rect x="0.15" y="0.15" width="197.7" height="71.7" rx="9.85" fill="#91B2C2" stroke="black" stroke-width="0.3"/>
<rect x="198.15" y="0.15" width="197.7" height="71.7" rx="9.85" fill="#91B2C2" stroke="black" stroke-width="0.3"/>
<rect x="396.15" y="0.15" width="197.7" height="71.7" rx="9.85" fill="#91B2C2" stroke="black" stroke-width="0.3"/>
<path d="M594.15 10C594.15 4.56 598.56 0.15 604 0.15H782C787.44 0.15 791.85 4.56 791.85 10V62C791.85 67.44 787.44 71.85 782 71.85H604C598.56 71.85 594.15 67.44 594.15 62V10Z" fill="#91B2C2" stroke="black" stroke-width="0.3"/>
<path d="M792.15 10C792.15 4.56 796.56 0.15 802 0.15H980C985.44 0.15 989.85 4.56 989.85 10V62C989.85 67.44 985.44 71.85 980 71.85H802C796.56 71.85 792.15 67.44 792.15 62V10Z" fill="#91B2C2" stroke="black" stroke-width="0.3"/>
<rect x="1188.15" y="2.15" width="197.7" height="71.7" rx="9.85" fill="#91B2C2" stroke="black" stroke-width="0.3"/>
<rect x="1386.15" y="2.15" width="197.7" height="71.7" rx="9.85" fill="#91B2C2" stroke="black" stroke-width="0.3"/>
<path d="M1584.15 12C1584.15 6.56 1588.56 2.15 1594 2.15H1772C1777.44 2.15 1781.85 6.56 1781.85 12V64C1781.85 69.44 1777.44 73.85 1772 73.85H1594C1588.56 73.85 1584.15 69.44 1584.15 64V12Z" fill="#91B2C2" stroke="black" stroke-width="0.3"/>
<rect x="990.15" y="2.15" width="197.7" height="71.7" rx="9.85" fill="#91B2C2" stroke="black" stroke-width="0.3"/>
<path d="M1782.15 12C1782.15 6.56 1786.56 2.15 1792 2.15H1970C1975.44 2.15 1979.85 6.56 1979.85 12V64C1979.85 69.44 1975.44 73.85 1970 73.85H1792C1786.56 73.85 1782.15 69.44 1782.15 64V12Z" fill="#91B2C2" stroke="black" stroke-width="0.3"/>
</svg>
