<svg width="160" height="162" viewBox="0 0 160 162" fill="none" xmlns="http://www.w3.org/2000/svg">
<g clip-path="url(#clip0_73_175)">
<path d="M2.71142 75.2346L27.4415 72.4705L24.7413 47.1466L0 49.6559L0.334744 51.6162L1.07862 51.3378C1.56586 51.3143 1.7853 51.6476 1.85597 52.1573C1.85415 52.1676 1.85415 52.1783 1.85597 52.1886C1.91176 52.7062 1.79646 53.1884 1.31294 53.2982L0.383096 53.2394L0.572784 55.0194C0.572784 55.0194 2.21303 54.6273 2.29113 55.7251C2.29113 55.7251 2.21675 56.7445 0.743875 56.6347L0.900089 58.1168C0.900089 58.1168 2.54033 57.6463 2.63332 58.7872C2.71142 59.7556 1.75554 59.8301 1.08606 59.8576L1.25343 61.4258C1.25343 61.4258 2.88623 61.0691 2.86392 62.2414C2.8416 63.4137 1.44312 63.1902 1.44312 63.1902L1.65512 65.1858C1.65512 65.1858 3.16519 64.4879 3.29165 65.6798C3.4181 66.8717 2.20187 66.7815 1.8039 66.6874L1.96383 68.2048C1.96383 68.2048 3.50737 67.5069 3.57804 69.0359C3.63011 70.1847 2.12748 69.7142 2.12748 69.7142L2.35064 71.8275C2.35064 71.8275 3.86443 71.1492 3.98345 72.2862C4.06899 73.0939 3.14287 73.4624 2.4957 73.0939L2.71142 75.2346Z" fill="#F5F5F5"/>
<path d="M21.2876 45.3036L6.46082 45.8712L6.60823 50.1498L21.435 49.5822L21.2876 45.3036Z" fill="#E0E0E0"/>
<path d="M21.7249 53.804C21.5242 53.8499 21.3201 53.8775 21.1149 53.8863L19.4486 54.0274C18.0427 54.1372 16.1012 54.2745 13.9551 54.4195C11.809 54.5646 9.86381 54.6744 8.45417 54.7489L6.78417 54.8234C6.5813 54.8437 6.37706 54.8437 6.17419 54.8234C6.37426 54.7821 6.57686 54.7559 6.78045 54.7449L8.44673 54.6038C9.85265 54.494 11.7942 54.3568 13.944 54.2117C16.0938 54.0667 18.0353 53.9569 19.4412 53.8824L21.1112 53.8079C21.3154 53.7904 21.5205 53.7891 21.7249 53.804Z" fill="#E0E0E0"/>
<path d="M22.3162 56.9798C22.1156 57.0261 21.9115 57.0537 21.7062 57.0621L20.0399 57.1993C18.634 57.313 16.6925 57.4503 14.5464 57.5914C12.4004 57.7326 10.4551 57.8463 9.04548 57.9207L7.3792 57.9952C7.17498 58.0131 6.96972 58.0131 6.7655 57.9952C6.96519 57.9515 7.16797 57.9253 7.37176 57.9168L9.03804 57.7757C10.444 57.6659 12.3855 57.5248 14.5353 57.3836C16.6851 57.2425 18.6266 57.1248 20.0325 57.0543L21.7025 56.9759C21.9069 56.9619 22.112 56.9632 22.3162 56.9798Z" fill="#E0E0E0"/>
<path d="M22.5283 60.2418C22.3282 60.2831 22.1256 60.3093 21.922 60.3202L20.2558 60.4614C18.8498 60.5711 16.9083 60.7084 14.7623 60.8534C12.6162 60.9985 10.6709 61.1083 9.2613 61.1828L7.5913 61.2612C7.38824 61.2766 7.18439 61.2766 6.98132 61.2612C7.18064 61.2145 7.38356 61.187 7.58758 61.1789L9.25386 61.0377C10.6598 60.9279 12.6013 60.7907 14.7474 60.6456C16.8935 60.5006 18.8387 60.3908 20.2483 60.3163L21.9183 60.2418C22.1212 60.2213 22.3254 60.2213 22.5283 60.2418Z" fill="#E0E0E0"/>
<path d="M22.9076 63.4999C22.707 63.5459 22.5028 63.5721 22.2977 63.5783L20.6351 63.7195C19.2292 63.8332 17.2877 63.9704 15.1379 64.1115C12.9881 64.2527 11.0466 64.3664 9.63691 64.437L7.97063 64.5154C7.76641 64.5332 7.56115 64.5332 7.35693 64.5154C7.55629 64.4696 7.75924 64.4433 7.96319 64.437L9.62947 64.2958C11.0354 64.186 12.9769 64.0449 15.1267 63.9037C17.2765 63.7626 19.218 63.645 20.6239 63.5744L22.2939 63.496C22.4983 63.4821 22.7034 63.4834 22.9076 63.4999Z" fill="#E0E0E0"/>
<path d="M23.7668 67.0129C23.5662 67.0589 23.362 67.0851 23.1568 67.0913L21.4942 67.2324C20.0883 67.3422 18.1468 67.4834 15.997 67.6245C13.8472 67.7657 11.9057 67.8833 10.496 67.9539L8.82976 68.0323C8.62545 68.0476 8.42037 68.0476 8.21606 68.0323C8.41665 67.9863 8.62085 67.96 8.82604 67.9539L10.4886 67.8127C11.8945 67.699 13.836 67.5618 15.9858 67.4206C18.1356 67.2795 20.0771 67.1658 21.4868 67.0913L23.1531 67.0168C23.3572 66.9977 23.5624 66.9964 23.7668 67.0129Z" fill="#E0E0E0"/>
<path d="M19.1511 7.05342L18.9949 33.2673H43.1708L43.5688 7.05342L41.6793 7.18672L41.8579 7.97086C41.8244 8.4884 41.4859 8.68051 40.9987 8.6962H40.9689C40.4743 8.6962 40.0317 8.52368 39.9833 8.00615L40.1432 7.03381H38.4435C38.4435 7.03381 38.6332 8.79813 37.5843 8.75501C37.5843 8.75501 36.6321 8.56681 36.9037 7.03381H35.4866C35.4866 7.03381 35.7469 8.80598 34.6609 8.77461C33.7385 8.74717 33.7794 7.73954 33.824 7.03381H32.3363C32.3363 7.03381 32.4888 8.78245 31.3878 8.62954C30.2869 8.47664 30.644 7.03381 30.644 7.03381H28.7471C28.7471 7.03381 29.2343 8.69227 28.0999 8.69227C26.9655 8.69227 27.1812 7.42981 27.3151 7.03381H25.8646C25.8646 7.03381 26.3481 8.72364 24.9012 8.62954C23.8115 8.55897 24.4214 7.03381 24.4214 7.03381H22.4055C22.4055 7.03381 22.8779 8.69227 21.7918 8.69227C21.0182 8.69227 20.7579 7.68073 21.1967 7.03381L19.1511 7.05342Z" fill="#FAFAFA"/>
<path d="M24.5352 3.30414L14.9266 10.5475L16.8068 13.3189L26.4153 6.0755L24.5352 3.30414Z" fill="#EBEBEB"/>
<path d="M46.0801 27.2993L36.4716 34.5427L38.3517 37.314L47.9602 30.0706L46.0801 27.2993Z" fill="#EBEBEB"/>
<path d="M41.021 13.9774C40.9581 13.988 40.8941 13.988 40.8313 13.9774H40.2882L38.2984 14.0127C36.6172 14.0127 34.2926 14.0401 31.73 14.0401C29.1673 14.0401 26.839 14.0401 25.1578 14.0127L23.168 14.0166H22.6249C22.5634 14.0275 22.5005 14.0275 22.439 14.0166C22.5007 14.0084 22.5632 14.0084 22.6249 14.0166H23.168L25.1578 13.9852C26.839 13.9852 29.1636 13.9539 31.73 13.9539C34.2963 13.9539 36.6172 13.9539 38.2984 13.9852L40.2882 14.0166H40.8313C40.8927 13.9953 40.9564 13.9821 41.021 13.9774Z" fill="#E0E0E0"/>
<path d="M40.5709 18.6822C40.5119 18.6932 40.4515 18.6932 40.3924 18.6822H39.8754L37.9748 18.7136C36.3718 18.7332 34.155 18.745 31.704 18.745C29.2529 18.745 27.0399 18.745 25.4368 18.7136L23.5399 18.7332H23.0229C22.9626 18.7439 22.901 18.7439 22.8407 18.7332C22.901 18.7225 22.9626 18.7225 23.0229 18.7332H23.5399L25.4405 18.7018C27.0436 18.7018 29.2603 18.6705 31.7077 18.6705C34.155 18.6705 36.3755 18.6705 37.9785 18.7018L39.8791 18.7332H40.3961C40.4511 18.7054 40.5103 18.6881 40.5709 18.6822Z" fill="#E0E0E0"/>
<path d="M32.1316 23.2459C31.7001 23.3048 31.2649 23.3297 30.8298 23.3204C30.0265 23.3204 28.9181 23.3479 27.6944 23.3479C26.4707 23.3479 25.3586 23.3479 24.559 23.3204C24.1239 23.3297 23.6888 23.3048 23.2572 23.2459C23.689 23.1899 24.124 23.1663 24.559 23.1753C25.3586 23.1753 26.4707 23.144 27.6944 23.144C28.9181 23.144 30.0265 23.144 30.8298 23.1753C31.2648 23.1663 31.6998 23.1899 32.1316 23.2459Z" fill="#E0E0E0"/>
<path d="M159.996 161.733C159.996 161.788 125.521 161.835 83.0053 161.835C40.4892 161.835 6.01428 161.788 6.01428 161.733C6.01428 161.679 40.4854 161.631 83.0053 161.631C125.525 161.631 159.996 161.679 159.996 161.733Z" fill="#263238"/>
<path d="M128.073 146.529C127.415 147.521 126.131 147.191 125.54 146.588C124.949 145.984 124.696 145.102 124.465 144.267C123.944 142.353 123.42 140.346 123.807 138.386C123.901 137.796 124.146 137.246 124.517 136.794C124.705 136.571 124.945 136.404 125.213 136.31C125.482 136.215 125.769 136.197 126.046 136.257C126.693 136.437 127.095 137.103 127.385 137.735C128.238 139.607 128.685 141.656 128.694 143.733C128.756 144.705 128.54 145.673 128.073 146.513" fill="#E8505B"/>
<path opacity="0.2" d="M128.073 146.529C127.415 147.521 126.131 147.191 125.54 146.588C124.949 145.984 124.696 145.102 124.465 144.267C123.944 142.353 123.42 140.346 123.807 138.386C123.901 137.796 124.146 137.246 124.517 136.794C124.705 136.571 124.945 136.404 125.213 136.31C125.482 136.215 125.769 136.197 126.046 136.257C126.693 136.437 127.095 137.103 127.385 137.735C128.238 139.607 128.685 141.656 128.694 143.733C128.756 144.705 128.54 145.673 128.073 146.513" fill="black"/>
<path d="M125.603 151.551C124.499 151.006 123.259 150.846 122.062 151.097C121.408 151.16 120.792 151.449 120.311 151.92C119.875 152.43 119.794 153.323 120.311 153.763C120.638 153.996 121.033 154.1 121.426 154.057C122.364 154.057 123.401 153.872 124.149 154.449C124.577 154.79 124.863 155.35 125.373 155.519C125.628 155.581 125.896 155.554 126.135 155.441C126.375 155.329 126.573 155.137 126.7 154.896C126.943 154.401 126.996 153.827 126.849 153.292C126.783 152.92 126.636 152.57 126.42 152.268C126.204 151.966 125.924 151.72 125.603 151.551Z" fill="#E8505B"/>
<path d="M129.88 147.952C129.542 147.486 129.317 146.94 129.224 146.361C129.132 145.782 129.174 145.189 129.349 144.631C129.709 143.518 130.352 142.531 131.208 141.777C132.185 140.861 133.322 140.155 134.556 139.699C135.027 139.497 135.535 139.405 136.043 139.428C136.298 139.442 136.546 139.52 136.765 139.657C136.985 139.794 137.17 139.984 137.304 140.213C137.658 140.922 137.304 141.781 136.955 142.479C136.311 143.713 135.577 144.893 134.76 146.007C134.102 146.901 133.351 147.78 132.346 148.187C131.342 148.595 130.301 148.54 129.773 147.795" fill="#E8505B"/>
<path d="M128.118 161.49C128.081 161.343 128.061 161.192 128.058 161.039C128.028 160.71 127.987 160.298 127.943 159.808C127.885 159.203 127.799 158.601 127.682 158.005C127.528 157.279 127.32 156.567 127.058 155.876C126.803 155.186 126.456 154.537 126.027 153.951C125.678 153.473 125.234 153.082 124.726 152.806C124.374 152.625 123.997 152.503 123.61 152.445C123.478 152.436 123.347 152.414 123.219 152.379C123.363 152.36 123.507 152.36 123.651 152.379C124.047 152.411 124.435 152.517 124.796 152.692C125.333 152.959 125.804 153.354 126.172 153.845C126.619 154.439 126.979 155.099 127.24 155.805C127.506 156.506 127.714 157.23 127.861 157.97C127.969 158.574 128.045 159.184 128.088 159.797C128.125 160.318 128.136 160.741 128.144 161.035C128.15 161.188 128.141 161.34 128.118 161.49Z" fill="#263238"/>
<path d="M128.054 160.545C128.05 160.475 128.05 160.404 128.054 160.334C128.054 160.177 128.054 159.981 128.054 159.738C128.054 159.216 128.054 158.467 128.028 157.538C127.984 155.684 127.831 153.123 127.541 150.308C127.251 147.493 126.853 144.961 126.5 143.145C126.414 142.69 126.328 142.279 126.25 141.922C126.172 141.565 126.109 141.252 126.046 141.001C125.983 140.75 125.949 140.573 125.912 140.42C125.893 140.353 125.882 140.283 125.878 140.213C125.909 140.275 125.931 140.34 125.945 140.409L126.113 140.981C126.183 141.232 126.262 141.538 126.343 141.898C126.425 142.259 126.529 142.683 126.619 143.118C127.094 145.486 127.449 147.88 127.682 150.289C127.976 153.108 128.106 155.676 128.117 157.538C128.117 158.467 128.117 159.22 128.088 159.738C128.073 159.981 128.062 160.181 128.054 160.338C128.062 160.407 128.062 160.476 128.054 160.545Z" fill="#263238"/>
<path d="M128.025 155.59C128.009 155.382 128.009 155.174 128.025 154.966C128.047 154.574 128.099 153.986 128.207 153.272C128.335 152.441 128.509 151.617 128.727 150.806C128.989 149.811 129.316 148.837 129.706 147.889C130.386 146.15 131.36 144.556 132.581 143.184C132.791 142.949 133.016 142.727 133.254 142.522C133.358 142.428 133.451 142.338 133.544 142.263L133.804 142.071C133.964 141.946 134.132 141.833 134.307 141.734C133.732 142.212 133.185 142.726 132.67 143.275C131.488 144.663 130.541 146.254 129.869 147.98C129.481 148.919 129.151 149.884 128.884 150.869C128.627 151.775 128.46 152.61 128.33 153.312C128.199 154.014 128.136 154.59 128.095 154.986C128.085 155.189 128.061 155.39 128.025 155.59Z" fill="#263238"/>
<path d="M128.642 126.968L48.1771 116.183L62.1917 0L144.658 11.0564C145.09 11.1141 145.483 11.3506 145.75 11.7138C146.018 12.0771 146.137 12.5373 146.082 12.9932L132.733 123.628C132.673 124.131 132.52 124.616 132.281 125.056C132.043 125.496 131.725 125.882 131.345 126.192C130.965 126.503 130.53 126.731 130.067 126.864C129.603 126.997 129.119 127.033 128.642 126.968Z" fill="#455A64"/>
<path d="M139.341 30.5284L138.659 36.1797L148.636 37.5176L149.318 31.8663L139.341 30.5284Z" fill="#E8505B"/>
<path opacity="0.3" d="M139.341 30.5284L138.659 36.1797L148.636 37.5176L149.318 31.8663L139.341 30.5284Z" fill="black"/>
<path d="M143.095 14.0436L65.2802 3.60852L51.9469 114.09L129.761 124.525L143.095 14.0436Z" fill="#E0E0E0"/>
<path d="M139.79 12.2264L61.9756 1.79132L48.6423 112.273L126.457 122.708L139.79 12.2264Z" fill="#FAFAFA"/>
<path d="M63.1587 12.7227L140.7 23.1165" stroke="#E0E0E0" stroke-miterlimit="10"/>
<path d="M62.9839 18.2823L140.529 28.6761" stroke="#E0E0E0" stroke-miterlimit="10"/>
<path d="M62.3219 23.7752L139.867 34.1729" stroke="#E0E0E0" stroke-miterlimit="10"/>
<path d="M61.6598 29.2681L139.205 39.6659" stroke="#E0E0E0" stroke-miterlimit="10"/>
<path d="M60.9978 34.765L138.539 45.1588" stroke="#E0E0E0" stroke-miterlimit="10"/>
<path d="M60.3357 40.2579L137.877 50.6517" stroke="#E0E0E0" stroke-miterlimit="10"/>
<path d="M59.6737 45.7508L137.215 56.1446" stroke="#E0E0E0" stroke-miterlimit="10"/>
<path d="M59.0079 51.2437L136.553 61.6375" stroke="#E0E0E0" stroke-miterlimit="10"/>
<path d="M58.3458 56.7367L135.891 67.1344" stroke="#E0E0E0" stroke-miterlimit="10"/>
<path d="M57.6838 62.2296L135.225 72.6274" stroke="#E0E0E0" stroke-miterlimit="10"/>
<path d="M57.0217 67.7264L134.563 78.1203" stroke="#E0E0E0" stroke-miterlimit="10"/>
<path d="M56.3597 73.2194L133.901 83.6132" stroke="#E0E0E0" stroke-miterlimit="10"/>
<path d="M55.694 78.7123L133.239 89.1061" stroke="#E0E0E0" stroke-miterlimit="10"/>
<path d="M54.3699 89.6981L131.915 100.096" stroke="#E0E0E0" stroke-miterlimit="10"/>
<path d="M53.7078 95.191L131.249 105.589" stroke="#E0E0E0" stroke-miterlimit="10"/>
<path d="M53.0458 100.688L130.587 111.082" stroke="#E0E0E0" stroke-miterlimit="10"/>
<path d="M52.38 106.181L129.925 116.575" stroke="#E0E0E0" stroke-miterlimit="10"/>
<path d="M74.3206 4.03052L61.0387 114.132" stroke="#E8505B" stroke-miterlimit="10"/>
<path d="M68.7527 8.60597C68.7127 8.93582 68.5809 9.24578 68.3739 9.49669C68.1669 9.74759 67.894 9.92818 67.5896 10.0156C67.2853 10.1031 66.9631 10.0935 66.664 9.98804C66.3648 9.8826 66.102 9.68604 65.9088 9.4232C65.7155 9.16037 65.6005 8.84305 65.5783 8.51134C65.5561 8.17964 65.6276 7.84844 65.7839 7.55959C65.9402 7.27073 66.1742 7.03719 66.4563 6.88847C66.7385 6.73975 67.0561 6.68253 67.3691 6.72403C67.5773 6.75163 67.7782 6.82223 67.9604 6.93179C68.1427 7.04136 68.3026 7.18773 68.4311 7.36253C68.5597 7.53733 68.6542 7.73713 68.7094 7.9505C68.7646 8.16386 68.7793 8.3866 68.7527 8.60597Z" fill="#455A64"/>
<path d="M67.2724 20.8621C67.233 21.1924 67.1016 21.5029 66.8947 21.7544C66.6878 22.0058 66.4148 22.187 66.1102 22.2748C65.8056 22.3626 65.4832 22.3532 65.1837 22.2477C64.8842 22.1423 64.6211 21.9455 64.4278 21.6823C64.2344 21.4192 64.1195 21.1015 64.0975 20.7694C64.0755 20.4374 64.1475 20.1059 64.3043 19.817C64.4612 19.5281 64.6958 19.2947 64.9785 19.1465C65.2612 18.9982 65.5793 18.9417 65.8925 18.9841C66.3111 19.0418 66.691 19.2716 66.9495 19.6234C67.208 19.9752 67.3241 20.4205 67.2724 20.8621Z" fill="#455A64"/>
<path d="M65.792 33.1222C65.7513 33.451 65.6192 33.7597 65.4122 34.0093C65.2052 34.259 64.9328 34.4385 64.6291 34.525C64.3255 34.6116 64.0043 34.6014 63.7062 34.4958C63.4081 34.3901 63.1463 34.1937 62.954 33.9314C62.7616 33.6691 62.6473 33.3525 62.6254 33.0218C62.6036 32.691 62.6752 32.3608 62.8312 32.0729C62.9872 31.785 63.2206 31.5523 63.502 31.4041C63.7833 31.2559 64.1 31.1989 64.4121 31.2402C64.6201 31.2678 64.8209 31.3384 65.003 31.448C65.1851 31.5577 65.3448 31.7041 65.473 31.879C65.6012 32.0538 65.6954 32.2537 65.7501 32.467C65.8049 32.6804 65.8191 32.903 65.792 33.1222Z" fill="#455A64"/>
<path d="M64.3154 45.3784C64.2762 45.7085 64.1449 46.0189 63.9382 46.2704C63.7316 46.5219 63.4588 46.7031 63.1544 46.7911C62.85 46.8792 62.5277 46.8701 62.2283 46.765C61.9288 46.6599 61.6656 46.4636 61.472 46.2008C61.2784 45.938 61.1631 45.6206 61.1406 45.2887C61.1182 44.9569 61.1896 44.6254 61.3459 44.3364C61.5022 44.0473 61.7362 43.8136 62.0185 43.6647C62.3008 43.5159 62.6187 43.4587 62.9318 43.5003C63.3511 43.5571 63.7319 43.7865 63.9912 44.1384C64.2505 44.4903 64.367 44.9361 64.3154 45.3784Z" fill="#455A64"/>
<path d="M62.8351 57.6384C62.7958 57.9687 62.6643 58.2792 62.4574 58.5307C62.2506 58.7822 61.9775 58.9633 61.673 59.0511C61.3684 59.1389 61.0459 59.1295 60.7464 59.024C60.4469 58.9186 60.1839 58.7218 59.9905 58.4586C59.7971 58.1955 59.6822 57.8778 59.6602 57.5457C59.6383 57.2137 59.7103 56.8822 59.8671 56.5933C60.0239 56.3044 60.2586 56.071 60.5413 55.9228C60.824 55.7745 61.1421 55.718 61.4553 55.7604C61.6629 55.788 61.8634 55.8585 62.0452 55.9679C62.227 56.0772 62.3865 56.2233 62.5147 56.3977C62.6429 56.5722 62.7371 56.7716 62.7921 56.9844C62.8471 57.1973 62.8617 57.4196 62.8351 57.6384Z" fill="#455A64"/>
<path d="M61.3549 69.8985C61.3142 70.2273 61.182 70.536 60.9751 70.7856C60.7681 71.0353 60.4956 71.2148 60.192 71.3013C59.8884 71.3879 59.5672 71.3777 59.2691 71.2721C58.9709 71.1664 58.7092 70.97 58.5168 70.7077C58.3245 70.4454 58.2101 70.1288 58.1883 69.7981C58.1664 69.4673 58.238 69.1371 58.394 68.8492C58.55 68.5613 58.7835 68.3286 59.0648 68.1804C59.3462 68.0322 59.6629 67.9752 59.975 68.0165C60.183 68.0441 60.3838 68.1147 60.5659 68.2244C60.7479 68.334 60.9076 68.4804 61.0359 68.6553C61.1641 68.8301 61.2583 69.03 61.313 69.2433C61.3678 69.4567 61.382 69.6793 61.3549 69.8985Z" fill="#455A64"/>
<path d="M59.8783 82.1547C59.8388 82.4851 59.7072 82.7957 59.5001 83.0471C59.293 83.2986 59.0197 83.4796 58.7149 83.5672C58.4102 83.6548 58.0876 83.645 57.7881 83.5392C57.4885 83.4334 57.2256 83.2362 57.0324 82.9727C56.8393 82.7091 56.7248 82.3911 56.7033 82.0588C56.6818 81.7266 56.7543 81.3951 56.9117 81.1064C57.0691 80.8177 57.3043 80.5847 57.5874 80.437C57.8705 80.2893 58.1889 80.2335 58.5021 80.2767C58.9204 80.3343 59.3001 80.5643 59.558 80.9162C59.8159 81.2682 59.931 81.7135 59.8783 82.1547Z" fill="#455A64"/>
<path d="M58.3979 94.4148C58.3578 94.7447 58.2258 95.0548 58.0186 95.3057C57.8114 95.5566 57.5382 95.737 57.2336 95.8243C56.9291 95.9115 56.6069 95.9016 56.3077 95.7958C56.0085 95.69 55.7457 95.493 55.5528 95.2298C55.3598 94.9665 55.2451 94.6489 55.2234 94.317C55.2017 93.9851 55.2738 93.6539 55.4306 93.3652C55.5874 93.0766 55.822 92.8434 56.1045 92.6952C56.3871 92.547 56.705 92.4905 57.018 92.5328C57.226 92.5604 57.4269 92.631 57.6089 92.7406C57.791 92.8502 57.9507 92.9967 58.0789 93.1716C58.2071 93.3464 58.3013 93.5463 58.3561 93.7596C58.4108 93.973 58.425 94.1956 58.3979 94.4148Z" fill="#455A64"/>
<path d="M56.9214 106.671C56.8821 107.001 56.7509 107.311 56.5442 107.563C56.3375 107.814 56.0648 107.996 55.7604 108.084C55.456 108.172 55.1337 108.163 54.8342 108.058C54.5347 107.952 54.2716 107.756 54.078 107.493C53.8844 107.231 53.769 106.913 53.7466 106.581C53.7241 106.249 53.7956 105.918 53.9518 105.629C54.1081 105.34 54.3422 105.106 54.6245 104.957C54.9068 104.808 55.2246 104.751 55.5378 104.793C55.957 104.85 56.3379 105.079 56.5972 105.431C56.8564 105.783 56.973 106.229 56.9214 106.671Z" fill="#455A64"/>
<path d="M60.8528 13.4716C60.8528 13.4912 60.7895 13.4912 60.678 13.4716C60.5143 13.4435 60.3536 13.3989 60.1982 13.3383C59.9498 13.235 59.7128 13.1036 59.4915 12.9462C59.1964 12.7338 58.9331 12.4761 58.7104 12.1816C58.4451 11.8189 58.239 11.4121 58.1004 10.978C57.9431 10.4811 57.8615 9.96101 57.8587 9.43715C57.8375 8.84089 57.9523 8.24797 58.1934 7.70812C58.4767 7.1398 58.8911 6.65577 59.3985 6.30058C59.8957 5.94777 60.4588 5.71116 61.0499 5.60661C61.593 5.51248 62.147 5.51248 62.6901 5.60661C63.5912 5.77352 64.4505 6.13239 65.2156 6.66128C65.7223 7.00333 66.1957 7.39731 66.629 7.8375C66.9302 8.15115 67.0753 8.34719 67.0492 8.37856C67.0232 8.40992 66.8261 8.27662 66.4839 8.02177C66.0053 7.66189 65.5087 7.32945 64.9961 7.02591C64.2568 6.58323 63.4459 6.28941 62.6046 6.15943C62.1188 6.08979 61.6256 6.10038 61.1429 6.1908C60.6317 6.28796 60.1453 6.49626 59.7146 6.80243C59.2877 7.10176 58.9355 7.50524 58.6881 7.97864C58.4838 8.43295 58.3807 8.9305 58.3868 9.43323C58.3792 9.90065 58.4356 10.3668 58.5542 10.8172C58.659 11.2085 58.8208 11.5802 59.034 11.919C59.2167 12.197 59.4344 12.4476 59.6812 12.6639C59.8705 12.83 60.0734 12.9783 60.2874 13.1069C60.4622 13.2167 60.611 13.2755 60.7077 13.3383C60.8044 13.401 60.8602 13.452 60.8528 13.4716Z" fill="#E8505B"/>
<path d="M59.3762 25.7395C59.3762 25.763 59.3092 25.7395 59.1976 25.7395C59.0341 25.7093 58.8735 25.6633 58.7178 25.6023C58.4696 25.5013 58.2337 25.3697 58.0149 25.2102C57.7174 25.0026 57.4537 24.7458 57.2338 24.4496C56.9658 24.0887 56.7594 23.6814 56.6238 23.2459C56.4665 22.7477 56.3849 22.2263 56.3821 21.7012C56.358 21.1051 56.4716 20.5117 56.7131 19.9721C56.9987 19.4066 57.4127 18.9244 57.9182 18.5685C58.4162 18.2138 58.9806 17.9758 59.5733 17.8706C60.1164 17.7764 60.6704 17.7764 61.2135 17.8706C62.1139 18.0358 62.9724 18.3948 63.7353 18.9253C64.242 19.2674 64.7154 19.6613 65.1486 20.1015C65.4536 20.4152 65.5987 20.6112 65.5726 20.6426C65.5466 20.674 65.3495 20.5367 65.0036 20.2858C64.5261 19.9242 64.0293 19.5917 63.5158 19.2899C62.7765 18.8465 61.9656 18.5514 61.1243 18.4195C60.6372 18.3499 60.1428 18.3605 59.6588 18.4509C59.1518 18.5531 58.6704 18.7654 58.2455 19.0743C57.8185 19.3736 57.4664 19.7771 57.2189 20.2505C57.0136 20.7045 56.9105 21.2023 56.9177 21.7051C56.9073 22.1737 56.9625 22.6414 57.0813 23.093C57.1855 23.4852 57.3488 23.8571 57.5648 24.1948C57.7442 24.4732 57.961 24.7228 58.2083 24.9358C58.3973 25.1024 58.6002 25.2507 58.8145 25.3788C58.9893 25.4925 59.1418 25.5513 59.2348 25.6141C59.3278 25.6768 59.3799 25.7082 59.3762 25.7395Z" fill="#E8505B"/>
<path d="M57.8959 37.9878C57.8959 37.9878 57.8289 37.9878 57.7173 37.9878C57.555 37.9591 57.3956 37.9145 57.2412 37.8545C56.6563 37.6216 56.1421 37.226 55.7535 36.7096C55.4862 36.3468 55.2799 35.9383 55.1435 35.502C54.9862 35.0051 54.9046 34.4851 54.9018 33.9612C54.8806 33.3649 54.9954 32.772 55.2365 32.2322C55.5176 31.6645 55.931 31.1815 56.4379 30.8286C56.9365 30.4751 57.5007 30.2373 58.093 30.1307C58.6361 30.0365 59.1901 30.0365 59.7332 30.1307C60.635 30.297 61.4947 30.6574 62.2587 31.1893C62.7644 31.5311 63.2366 31.9251 63.6683 32.3655C63.9733 32.6752 64.1184 32.8712 64.0923 32.9026C64.0663 32.934 63.8692 32.8007 63.527 32.5458C63.0476 32.1884 62.551 31.8573 62.0392 31.5539C61.3009 31.1081 60.4896 30.8129 59.6477 30.6835C59.1619 30.6138 58.6687 30.6244 58.186 30.7148C57.6748 30.812 57.1884 31.0203 56.7577 31.3265C56.3308 31.6258 55.9786 32.0293 55.7312 32.5027C55.5269 32.957 55.4238 33.4545 55.4299 33.9573C55.4187 34.4249 55.4751 34.8916 55.5973 35.3413C55.7003 35.7332 55.8623 36.1052 56.0771 36.443C56.2586 36.7208 56.4751 36.9714 56.7205 37.1879C56.9112 37.3523 57.1139 37.5004 57.3268 37.631C57.5053 37.7408 57.6541 37.8035 57.7471 37.8662C57.8401 37.929 57.9033 37.9682 57.8959 37.9878Z" fill="#E8505B"/>
<path d="M56.4155 50.2479C56.4155 50.2675 56.3523 50.2675 56.2407 50.2479C56.077 50.2181 55.9164 50.1722 55.7609 50.1107C55.512 50.0113 55.2759 49.8796 55.0579 49.7186C54.7601 49.5101 54.4952 49.2534 54.2732 48.958C54.0079 48.5952 53.8018 48.1884 53.6632 47.7543C53.5091 47.2552 53.4276 46.7344 53.4214 46.2095C53.4009 45.6133 53.5156 45.0206 53.7562 44.4805C54.0418 43.915 54.4558 43.4327 54.9612 43.0769C55.4576 42.7224 56.0211 42.4857 56.6126 42.3829C57.1557 42.2888 57.7098 42.2888 58.2529 42.3829C59.1546 42.5473 60.0144 42.9064 60.7783 43.4376C61.2851 43.7796 61.7585 44.1736 62.1917 44.6138C62.493 44.9275 62.638 45.1235 62.6157 45.1549C62.5934 45.1862 62.3888 45.0529 62.0466 44.7981C61.5685 44.4374 61.0719 44.105 60.5589 43.8022C59.8189 43.3605 59.0083 43.0655 58.1673 42.9318C57.6802 42.8641 57.1861 42.8747 56.7019 42.9632C56.191 43.0635 55.7049 43.273 55.2737 43.5787C54.8523 43.8543 54.5075 44.2424 54.2743 44.7037C54.0411 45.1651 53.9278 45.6832 53.9458 46.2056C53.9385 46.6743 53.9949 47.1417 54.1132 47.5936C54.218 47.9848 54.3799 48.3565 54.593 48.6953C54.7748 48.973 54.9926 49.2224 55.2402 49.4363C55.4292 49.6029 55.6321 49.7512 55.8464 49.8793C56.0213 49.993 56.17 50.0518 56.2667 50.1146C56.3634 50.1773 56.4229 50.2243 56.4155 50.2479Z" fill="#E8505B"/>
<path d="M54.9389 62.504C54.9389 62.504 54.8719 62.504 54.7604 62.504C54.5972 62.4719 54.4368 62.426 54.2806 62.3668C54.0331 62.2642 53.7973 62.1327 53.5776 61.9747C53.2801 61.7671 53.0164 61.5103 52.7965 61.2141C52.5285 60.8518 52.3221 60.4432 52.1865 60.0065C52.0292 59.5096 51.9476 58.9896 51.9448 58.4657C51.9241 57.8699 52.0375 57.2774 52.2758 56.7367C52.5604 56.1704 52.9746 55.6879 53.4809 55.3331C53.9792 54.979 54.5435 54.7411 55.136 54.6352C55.6791 54.541 56.2332 54.541 56.7763 54.6352C57.6767 54.8003 58.5351 55.1594 59.298 55.6898C59.8047 56.0319 60.2781 56.4259 60.7114 56.8661C61.0163 57.1797 61.1614 57.3757 61.1354 57.4032C61.1093 57.4306 60.9122 57.3013 60.57 57.0503C60.0918 56.6899 59.5951 56.3575 59.0823 56.0545C58.343 55.611 57.5321 55.3159 56.6907 55.1841C56.2049 55.1144 55.7117 55.1249 55.229 55.2154C54.7178 55.3126 54.2314 55.5209 53.8008 55.8271C53.3738 56.1264 53.0217 56.5299 52.7742 57.0033C52.5681 57.4569 52.465 57.9549 52.4729 58.4579C52.4626 58.9265 52.5178 59.3941 52.6366 59.8458C52.7432 60.2358 52.9063 60.6061 53.1201 60.9436C53.2997 61.2231 53.5164 61.4739 53.7636 61.6885C53.9536 61.8538 54.1564 62.002 54.3698 62.1316C54.5446 62.2414 54.6971 62.3041 54.7901 62.3668C54.8831 62.4295 54.9426 62.4844 54.9389 62.504Z" fill="#E8505B"/>
<path d="M53.4586 74.7484C53.4586 74.768 53.3954 74.768 53.2838 74.7484C53.1206 74.7184 52.96 74.6738 52.804 74.6151C52.555 74.5132 52.318 74.3816 52.0973 74.223C51.8014 74.0133 51.538 73.7567 51.3162 73.4624C51.051 73.0996 50.8448 72.6929 50.7063 72.2587C50.5489 71.7618 50.4673 71.2418 50.4645 70.7179C50.4434 70.1216 50.5582 69.5287 50.7992 68.9889C51.0826 68.4206 51.497 67.9365 52.0043 67.5813C52.5056 67.2322 53.0729 67.0022 53.6669 66.907C54.21 66.8128 54.764 66.8128 55.3071 66.907C56.2082 67.0739 57.0675 67.4327 57.8326 67.9616C58.3393 68.3037 58.8127 68.6977 59.2459 69.1379C59.5472 69.4515 59.6923 69.6475 59.6662 69.6789C59.6402 69.7103 59.4431 69.577 59.1009 69.3221C58.6223 68.9622 58.1257 68.6298 57.6131 68.3263C56.8738 67.8836 56.0628 67.5898 55.2216 67.4598C54.736 67.3888 54.2428 67.398 53.7599 67.4872C53.2489 67.5875 52.7629 67.797 52.3316 68.1028C51.9089 68.3778 51.5631 68.7663 51.3297 69.2286C51.0964 69.6909 50.9839 70.2103 51.0038 70.7336C50.9944 71.2011 51.0508 71.6675 51.1712 72.1176C51.2742 72.5095 51.4362 72.8815 51.651 73.2193C51.8337 73.4974 52.0514 73.748 52.2982 73.9643C52.486 74.1295 52.6877 74.2765 52.9007 74.4034C53.0792 74.5171 53.228 74.5759 53.3247 74.6386C53.4214 74.7013 53.466 74.7484 53.4586 74.7484Z" fill="#E8505B"/>
<path d="M51.982 87.0202C51.982 87.0438 51.915 87.0398 51.8035 87.0202C51.6403 86.9881 51.4799 86.9422 51.3237 86.883C51.0755 86.7821 50.8395 86.6505 50.6207 86.4909C50.3225 86.2812 50.0577 86.0232 49.8359 85.7264C49.5705 85.3644 49.3655 84.9573 49.2297 84.5227C49.0727 84.0244 48.9911 83.5031 48.9879 82.978C48.9638 82.3819 49.0774 81.7885 49.3189 81.2489C49.6046 80.6834 50.0186 80.2012 50.524 79.8453C51.022 79.4906 51.5864 79.2526 52.1791 79.1474C52.7222 79.0532 53.2763 79.0532 53.8194 79.1474C54.7198 79.3126 55.5782 79.6716 56.3411 80.2021C56.8478 80.5442 57.3212 80.9381 57.7545 81.3783C58.0595 81.692 58.2045 81.888 58.1785 81.9194C58.1524 81.9508 57.9516 81.8135 57.6094 81.5626C57.1319 81.201 56.6352 80.8685 56.1217 80.5667C55.3824 80.1233 54.5715 79.8281 53.7301 79.6963C53.243 79.6267 52.7487 79.6373 52.2647 79.7277C51.7546 79.8247 51.2694 80.0331 50.8401 80.3393C50.4132 80.6387 50.0611 81.0422 49.8136 81.5156C49.6079 81.9694 49.5048 82.4672 49.5123 82.9701C49.502 83.4387 49.5572 83.9064 49.676 84.3581C49.7802 84.7502 49.9435 85.1222 50.1595 85.4598C50.3389 85.7383 50.5557 85.9878 50.803 86.2008C51.0004 86.3755 51.212 86.5316 51.4352 86.6674C51.6101 86.7771 51.7626 86.8399 51.8555 86.9026C51.9485 86.9653 51.9857 87.0006 51.982 87.0202Z" fill="#E8505B"/>
<path d="M50.5017 99.2803C50.5017 99.2999 50.4347 99.2999 50.3232 99.2803C50.1609 99.2517 50.0015 99.2071 49.8471 99.147C49.5987 99.0438 49.3617 98.9123 49.1404 98.755C48.8445 98.5437 48.5811 98.2858 48.3593 97.9904C48.0913 97.6295 47.8849 97.2222 47.7494 96.7868C47.592 96.2898 47.5104 95.7698 47.5076 95.2459C47.4865 94.6497 47.6013 94.0567 47.8423 93.5169C48.1244 92.9488 48.5375 92.4648 49.0437 92.1094C49.5426 91.7571 50.1067 91.5206 50.6988 91.4154C51.2419 91.3213 51.796 91.3213 52.3391 91.4154C53.2401 91.5823 54.0995 91.9412 54.8645 92.4701C55.3702 92.8119 55.8424 93.206 56.2742 93.6463C56.5791 93.9599 56.7242 94.156 56.6982 94.1873C56.6721 94.2187 56.475 94.0854 56.1328 93.8306C55.6537 93.4716 55.1571 93.1391 54.6451 92.8347C53.9058 92.392 53.0948 92.0982 52.2535 91.9682C51.7677 91.8985 51.2745 91.9091 50.7918 91.9996C50.2806 92.0967 49.7942 92.305 49.3636 92.6112C48.9366 92.9105 48.5845 93.314 48.337 93.7874C48.1327 94.2417 48.0297 94.7393 48.0357 95.242C48.0245 95.7096 48.0809 96.1763 48.2031 96.626C48.3061 97.0179 48.4681 97.3899 48.6829 97.7277C48.8644 98.0056 49.0809 98.2562 49.3264 98.4727C49.517 98.637 49.7197 98.7852 49.9326 98.9157C50.1074 99.0255 50.2599 99.0843 50.3529 99.147C50.4459 99.2098 50.5091 99.2607 50.5017 99.2803Z" fill="#E8505B"/>
<path d="M49.0214 111.536C49.0214 111.56 48.9582 111.556 48.8466 111.536C48.6829 111.507 48.5223 111.461 48.3668 111.399C48.117 111.299 47.8797 111.168 47.6601 111.007C47.3642 110.797 47.1008 110.541 46.879 110.247C46.6138 109.884 46.4076 109.477 46.2691 109.043C46.1153 108.544 46.0338 108.023 46.0273 107.498C46.0065 106.902 46.1212 106.309 46.362 105.769C46.6477 105.204 47.0617 104.721 47.5671 104.365C48.0642 104.011 48.6272 103.774 49.2185 103.668C49.7616 103.573 50.3157 103.573 50.8588 103.668C51.7605 103.832 52.6203 104.191 53.3842 104.722C53.8909 105.064 54.3644 105.458 54.7976 105.898C55.0989 106.212 55.2439 106.408 55.2179 106.44C55.1918 106.471 54.9947 106.334 54.6525 106.083C54.1744 105.722 53.6778 105.39 53.1648 105.087C52.4244 104.643 51.6122 104.348 50.7695 104.216C50.2837 104.147 49.7905 104.157 49.3078 104.248C48.7966 104.345 48.3102 104.553 47.8796 104.859C47.4527 105.158 47.1016 105.562 46.8567 106.036C46.6502 106.489 46.5459 106.987 46.5517 107.49C46.5444 107.959 46.6008 108.426 46.7191 108.878C46.8239 109.269 46.9858 109.641 47.1989 109.98C47.3807 110.258 47.5985 110.507 47.8461 110.721C48.0351 110.888 48.238 111.036 48.4523 111.164C48.6271 111.278 48.7759 111.336 48.8726 111.399C48.9693 111.462 49.0288 111.517 49.0214 111.536Z" fill="#E8505B"/>
<g opacity="0.2">
<path d="M60.8528 13.4716C60.8528 13.4912 60.7895 13.4912 60.678 13.4716C60.5143 13.4435 60.3536 13.3989 60.1982 13.3383C59.9498 13.235 59.7128 13.1036 59.4915 12.9462C59.1964 12.7338 58.9331 12.4761 58.7104 12.1816C58.4451 11.8189 58.239 11.4121 58.1004 10.978C57.9431 10.4811 57.8615 9.96101 57.8587 9.43715C57.8375 8.84089 57.9523 8.24797 58.1934 7.70812C58.4767 7.1398 58.8911 6.65577 59.3985 6.30058C59.8957 5.94777 60.4588 5.71116 61.0499 5.60661C61.593 5.51248 62.147 5.51248 62.6901 5.60661C63.5912 5.77352 64.4505 6.13239 65.2156 6.66128C65.7223 7.00333 66.1957 7.39731 66.629 7.8375C66.9302 8.15115 67.0753 8.34719 67.0492 8.37856C67.0232 8.40992 66.8261 8.27662 66.4839 8.02177C66.0053 7.66189 65.5087 7.32945 64.9961 7.02591C64.2568 6.58323 63.4459 6.28941 62.6046 6.15943C62.1188 6.08979 61.6256 6.10038 61.1429 6.1908C60.6317 6.28796 60.1453 6.49626 59.7146 6.80243C59.2877 7.10176 58.9355 7.50524 58.6881 7.97864C58.4838 8.43295 58.3807 8.9305 58.3868 9.43323C58.3792 9.90065 58.4356 10.3668 58.5542 10.8172C58.659 11.2085 58.8208 11.5802 59.034 11.919C59.2167 12.197 59.4344 12.4476 59.6812 12.6639C59.8705 12.83 60.0734 12.9783 60.2874 13.1069C60.4622 13.2167 60.611 13.2755 60.7077 13.3383C60.8044 13.401 60.8602 13.452 60.8528 13.4716Z" fill="black"/>
<path d="M59.3762 25.7395C59.3762 25.763 59.3092 25.7395 59.1976 25.7395C59.0341 25.7092 58.8735 25.6633 58.7178 25.6022C58.4696 25.5013 58.2337 25.3697 58.0149 25.2102C57.7174 25.0025 57.4537 24.7457 57.2338 24.4495C56.9658 24.0886 56.7594 23.6813 56.6238 23.2459C56.4665 22.7476 56.3849 22.2263 56.3821 21.7011C56.358 21.105 56.4716 20.5117 56.7131 19.9721C56.9987 19.4065 57.4127 18.9243 57.9182 18.5685C58.4162 18.2138 58.9806 17.9758 59.5733 17.8706C60.1164 17.7764 60.6704 17.7764 61.2135 17.8706C62.1139 18.0357 62.9724 18.3948 63.7353 18.9253C64.242 19.2673 64.7154 19.6613 65.1486 20.1015C65.4536 20.4151 65.5987 20.6112 65.5726 20.6425C65.5466 20.6739 65.3495 20.5367 65.0036 20.2857C64.5261 19.9242 64.0293 19.5917 63.5158 19.2899C62.7765 18.8464 61.9656 18.5513 61.1243 18.4195C60.6372 18.3498 60.1428 18.3604 59.6588 18.4508C59.1518 18.553 58.6704 18.7653 58.2455 19.0742C57.8185 19.3736 57.4664 19.7771 57.2189 20.2505C57.0136 20.7044 56.9105 21.2022 56.9177 21.705C56.9073 22.1736 56.9625 22.6413 57.0813 23.093C57.1855 23.4851 57.3488 23.8571 57.5648 24.1947C57.7442 24.4732 57.961 24.7228 58.2083 24.9357C58.3973 25.1023 58.6002 25.2506 58.8145 25.3788C58.9893 25.4925 59.1418 25.5513 59.2348 25.614C59.3278 25.6767 59.3799 25.7081 59.3762 25.7395Z" fill="black"/>
<path d="M57.8959 37.9878C57.8959 37.9878 57.8289 37.9878 57.7173 37.9878C57.555 37.9591 57.3956 37.9145 57.2412 37.8545C56.6563 37.6216 56.1421 37.226 55.7535 36.7096C55.4862 36.3468 55.2799 35.9383 55.1435 35.502C54.9862 35.0051 54.9046 34.4851 54.9018 33.9612C54.8806 33.3649 54.9954 32.772 55.2365 32.2322C55.5176 31.6645 55.931 31.1815 56.4379 30.8286C56.9365 30.4751 57.5007 30.2373 58.093 30.1307C58.6361 30.0365 59.1901 30.0365 59.7332 30.1307C60.635 30.297 61.4947 30.6574 62.2587 31.1893C62.7644 31.5311 63.2366 31.9251 63.6683 32.3655C63.9733 32.6752 64.1184 32.8712 64.0923 32.9026C64.0663 32.934 63.8692 32.8007 63.527 32.5458C63.0476 32.1884 62.551 31.8573 62.0392 31.5539C61.3009 31.1081 60.4896 30.8129 59.6477 30.6835C59.1619 30.6138 58.6687 30.6244 58.186 30.7148C57.6748 30.812 57.1884 31.0203 56.7577 31.3265C56.3308 31.6258 55.9786 32.0293 55.7312 32.5027C55.5269 32.957 55.4238 33.4545 55.4299 33.9573C55.4187 34.4249 55.4751 34.8916 55.5973 35.3413C55.7003 35.7332 55.8623 36.1052 56.0771 36.443C56.2586 36.7208 56.4751 36.9714 56.7205 37.1879C56.9112 37.3523 57.1139 37.5004 57.3268 37.631C57.5053 37.7408 57.6541 37.8035 57.7471 37.8662C57.8401 37.929 57.9033 37.9682 57.8959 37.9878Z" fill="black"/>
<path d="M56.4155 50.2479C56.4155 50.2675 56.3523 50.2675 56.2407 50.2479C56.077 50.2181 55.9164 50.1722 55.7609 50.1107C55.512 50.0113 55.2759 49.8796 55.0579 49.7186C54.7601 49.5101 54.4952 49.2534 54.2732 48.958C54.0079 48.5952 53.8018 48.1884 53.6632 47.7543C53.5091 47.2552 53.4276 46.7344 53.4214 46.2095C53.4009 45.6133 53.5156 45.0206 53.7562 44.4805C54.0418 43.915 54.4558 43.4327 54.9612 43.0769C55.4576 42.7224 56.0211 42.4857 56.6126 42.3829C57.1557 42.2888 57.7098 42.2888 58.2529 42.3829C59.1546 42.5473 60.0144 42.9064 60.7783 43.4376C61.2851 43.7796 61.7585 44.1736 62.1917 44.6138C62.493 44.9275 62.638 45.1235 62.6157 45.1549C62.5934 45.1862 62.3888 45.0529 62.0466 44.7981C61.5685 44.4374 61.0719 44.105 60.5589 43.8022C59.8189 43.3605 59.0083 43.0655 58.1673 42.9318C57.6802 42.8641 57.1861 42.8747 56.7019 42.9632C56.191 43.0635 55.7049 43.273 55.2737 43.5787C54.8523 43.8543 54.5075 44.2424 54.2743 44.7037C54.0411 45.1651 53.9278 45.6832 53.9458 46.2056C53.9385 46.6743 53.9949 47.1417 54.1132 47.5936C54.218 47.9848 54.3799 48.3565 54.593 48.6953C54.7748 48.973 54.9926 49.2224 55.2402 49.4363C55.4292 49.6029 55.6321 49.7512 55.8464 49.8793C56.0213 49.993 56.17 50.0518 56.2667 50.1146C56.3634 50.1773 56.4229 50.2243 56.4155 50.2479Z" fill="black"/>
<path d="M54.9389 62.504C54.9389 62.504 54.8719 62.504 54.7604 62.504C54.5972 62.4719 54.4368 62.426 54.2806 62.3668C54.0331 62.2642 53.7973 62.1327 53.5776 61.9747C53.2801 61.7671 53.0164 61.5103 52.7965 61.2141C52.5285 60.8518 52.3221 60.4432 52.1865 60.0065C52.0292 59.5096 51.9476 58.9896 51.9448 58.4657C51.9241 57.8699 52.0375 57.2774 52.2758 56.7367C52.5604 56.1704 52.9746 55.6879 53.4809 55.3331C53.9792 54.979 54.5435 54.7411 55.136 54.6352C55.6791 54.541 56.2332 54.541 56.7763 54.6352C57.6767 54.8003 58.5351 55.1594 59.298 55.6898C59.8047 56.0319 60.2781 56.4259 60.7114 56.8661C61.0163 57.1797 61.1614 57.3757 61.1354 57.4032C61.1093 57.4306 60.9122 57.3013 60.57 57.0503C60.0918 56.6899 59.5951 56.3575 59.0823 56.0545C58.343 55.611 57.5321 55.3159 56.6907 55.1841C56.2049 55.1144 55.7117 55.1249 55.229 55.2154C54.7178 55.3126 54.2314 55.5209 53.8008 55.8271C53.3738 56.1264 53.0217 56.5299 52.7742 57.0033C52.5681 57.4569 52.465 57.9549 52.4729 58.4579C52.4626 58.9265 52.5178 59.3941 52.6366 59.8458C52.7432 60.2358 52.9063 60.6061 53.1201 60.9436C53.2997 61.2231 53.5164 61.4739 53.7636 61.6885C53.9536 61.8538 54.1564 62.002 54.3698 62.1316C54.5446 62.2414 54.6971 62.3041 54.7901 62.3668C54.8831 62.4295 54.9426 62.4844 54.9389 62.504Z" fill="black"/>
<path d="M53.4586 74.7484C53.4586 74.768 53.3954 74.768 53.2838 74.7484C53.1206 74.7184 52.96 74.6738 52.804 74.6151C52.555 74.5132 52.318 74.3816 52.0973 74.223C51.8014 74.0133 51.538 73.7567 51.3162 73.4624C51.051 73.0996 50.8448 72.6929 50.7063 72.2587C50.5489 71.7618 50.4673 71.2418 50.4645 70.7179C50.4434 70.1216 50.5582 69.5287 50.7992 68.9889C51.0826 68.4206 51.497 67.9365 52.0043 67.5813C52.5056 67.2322 53.0729 67.0022 53.6669 66.907C54.21 66.8128 54.764 66.8128 55.3071 66.907C56.2082 67.0739 57.0675 67.4327 57.8326 67.9616C58.3393 68.3037 58.8127 68.6977 59.2459 69.1379C59.5472 69.4515 59.6923 69.6475 59.6662 69.6789C59.6402 69.7103 59.4431 69.577 59.1009 69.3221C58.6223 68.9622 58.1257 68.6298 57.6131 68.3263C56.8738 67.8836 56.0628 67.5898 55.2216 67.4598C54.736 67.3888 54.2428 67.398 53.7599 67.4872C53.2489 67.5875 52.7629 67.797 52.3316 68.1028C51.9089 68.3778 51.5631 68.7663 51.3297 69.2286C51.0964 69.6909 50.9839 70.2103 51.0038 70.7336C50.9944 71.2011 51.0508 71.6675 51.1712 72.1176C51.2742 72.5095 51.4362 72.8815 51.651 73.2193C51.8337 73.4974 52.0514 73.748 52.2982 73.9643C52.486 74.1295 52.6877 74.2765 52.9007 74.4034C53.0792 74.5171 53.228 74.5759 53.3247 74.6386C53.4214 74.7013 53.466 74.7484 53.4586 74.7484Z" fill="black"/>
<path d="M51.982 87.0202C51.982 87.0438 51.915 87.0398 51.8035 87.0202C51.6403 86.9881 51.4799 86.9422 51.3237 86.883C51.0755 86.7821 50.8395 86.6505 50.6207 86.4909C50.3225 86.2812 50.0577 86.0232 49.8359 85.7264C49.5705 85.3644 49.3655 84.9573 49.2297 84.5227C49.0727 84.0244 48.9911 83.5031 48.9879 82.978C48.9638 82.3819 49.0774 81.7885 49.3189 81.2489C49.6046 80.6834 50.0186 80.2012 50.524 79.8453C51.022 79.4906 51.5864 79.2526 52.1791 79.1474C52.7222 79.0532 53.2763 79.0532 53.8194 79.1474C54.7198 79.3126 55.5782 79.6716 56.3411 80.2021C56.8478 80.5442 57.3212 80.9381 57.7545 81.3783C58.0595 81.692 58.2045 81.888 58.1785 81.9194C58.1524 81.9508 57.9516 81.8135 57.6094 81.5626C57.1319 81.201 56.6352 80.8685 56.1217 80.5667C55.3824 80.1233 54.5715 79.8281 53.7301 79.6963C53.243 79.6267 52.7487 79.6373 52.2647 79.7277C51.7546 79.8247 51.2694 80.0331 50.8401 80.3393C50.4132 80.6387 50.0611 81.0422 49.8136 81.5156C49.6079 81.9694 49.5048 82.4672 49.5123 82.9701C49.502 83.4387 49.5572 83.9064 49.676 84.3581C49.7802 84.7502 49.9435 85.1222 50.1595 85.4598C50.3389 85.7383 50.5557 85.9878 50.803 86.2008C51.0004 86.3755 51.212 86.5316 51.4352 86.6674C51.6101 86.7771 51.7626 86.8399 51.8555 86.9026C51.9485 86.9653 51.9857 87.0006 51.982 87.0202Z" fill="black"/>
<path d="M50.5017 99.2803C50.5017 99.2999 50.4347 99.2999 50.3232 99.2803C50.1609 99.2517 50.0015 99.2071 49.8471 99.147C49.5987 99.0438 49.3617 98.9123 49.1404 98.755C48.8445 98.5437 48.5811 98.2858 48.3593 97.9904C48.0913 97.6295 47.8849 97.2222 47.7494 96.7868C47.592 96.2898 47.5104 95.7698 47.5076 95.2459C47.4865 94.6497 47.6013 94.0567 47.8423 93.5169C48.1244 92.9488 48.5375 92.4648 49.0437 92.1094C49.5426 91.7571 50.1067 91.5206 50.6988 91.4154C51.2419 91.3213 51.796 91.3213 52.3391 91.4154C53.2401 91.5823 54.0995 91.9412 54.8645 92.4701C55.3702 92.8119 55.8424 93.206 56.2742 93.6463C56.5791 93.9599 56.7242 94.156 56.6982 94.1873C56.6721 94.2187 56.475 94.0854 56.1328 93.8306C55.6537 93.4716 55.1571 93.1391 54.6451 92.8347C53.9058 92.392 53.0948 92.0982 52.2535 91.9682C51.7677 91.8985 51.2745 91.9091 50.7918 91.9996C50.2806 92.0967 49.7942 92.305 49.3636 92.6112C48.9366 92.9105 48.5845 93.314 48.337 93.7874C48.1327 94.2417 48.0297 94.7393 48.0357 95.242C48.0245 95.7096 48.0809 96.1763 48.2031 96.626C48.3061 97.0179 48.4681 97.3899 48.6829 97.7277C48.8644 98.0056 49.0809 98.2562 49.3264 98.4727C49.517 98.637 49.7197 98.7852 49.9326 98.9157C50.1074 99.0255 50.2599 99.0843 50.3529 99.147C50.4459 99.2098 50.5091 99.2607 50.5017 99.2803Z" fill="black"/>
<path d="M49.0214 111.536C49.0214 111.56 48.9582 111.556 48.8466 111.536C48.6829 111.507 48.5223 111.461 48.3668 111.399C48.117 111.299 47.8797 111.168 47.6601 111.007C47.3642 110.797 47.1008 110.541 46.879 110.247C46.6138 109.884 46.4076 109.477 46.2691 109.043C46.1153 108.544 46.0338 108.023 46.0273 107.498C46.0065 106.902 46.1212 106.309 46.362 105.769C46.6477 105.204 47.0617 104.721 47.5671 104.365C48.0642 104.011 48.6272 103.774 49.2185 103.668C49.7616 103.573 50.3157 103.573 50.8588 103.668C51.7605 103.832 52.6203 104.191 53.3842 104.722C53.8909 105.064 54.3644 105.458 54.7976 105.898C55.0989 106.212 55.2439 106.408 55.2179 106.44C55.1918 106.471 54.9947 106.334 54.6525 106.083C54.1744 105.722 53.6778 105.39 53.1648 105.087C52.4244 104.643 51.6122 104.348 50.7695 104.216C50.2837 104.147 49.7905 104.157 49.3078 104.248C48.7966 104.345 48.3102 104.553 47.8796 104.859C47.4527 105.158 47.1016 105.562 46.8567 106.036C46.6502 106.489 46.5459 106.987 46.5517 107.49C46.5444 107.959 46.6008 108.426 46.7191 108.878C46.8239 109.269 46.9858 109.641 47.1989 109.98C47.3807 110.258 47.5985 110.507 47.8461 110.721C48.0351 110.888 48.238 111.036 48.4523 111.164C48.6271 111.278 48.7759 111.336 48.8726 111.399C48.9693 111.462 49.0288 111.517 49.0214 111.536Z" fill="black"/>
</g>
<path d="M139.86 26.2298L139.178 31.8811L148.155 33.0849L148.837 27.4337L139.86 26.2298Z" fill="#E8505B"/>
<path d="M132.804 30.4875C132.755 30.4927 132.705 30.4927 132.655 30.4875L132.22 30.4444L130.554 30.2327L124.421 29.4093L104.206 26.6138L98.4444 25.8062C96.5848 25.5474 94.7883 25.2808 93.0811 25.0612C91.4685 24.8224 89.8333 24.804 88.2162 25.0063C86.7098 25.2298 85.2853 25.5709 83.9612 25.3984C83.3354 25.3239 82.7284 25.1257 82.1722 24.8142C81.6478 24.5241 81.1903 24.1908 80.7514 23.9046C80.351 23.6272 79.9262 23.3909 79.4831 23.1989C79.1076 23.0533 78.7115 22.9751 78.3115 22.9676C77.7526 22.9373 77.2029 23.1258 76.7679 23.4969C76.6268 23.6363 76.5019 23.7929 76.396 23.9634C76.4149 23.914 76.4386 23.8667 76.4667 23.8223C76.4958 23.7649 76.5307 23.711 76.5708 23.6615C76.6218 23.5894 76.6804 23.5236 76.7456 23.4655C77.1802 23.07 77.7415 22.8639 78.3152 22.8892C78.7257 22.8904 79.1331 22.9647 79.5203 23.1087C79.9722 23.2882 80.4068 23.5127 80.8183 23.7792C81.2609 24.0654 81.7221 24.3908 82.2391 24.6731C82.7845 24.9702 83.377 25.159 83.9872 25.2298C85.2816 25.3827 86.6875 25.0416 88.205 24.8064C89.8348 24.5931 91.484 24.605 93.1109 24.8417C94.8292 25.0573 96.6182 25.3239 98.4816 25.5749L104.243 26.359L124.45 29.2133L130.572 30.1033L132.239 30.3542L132.67 30.4248C132.717 30.4403 132.762 30.4614 132.804 30.4875Z" fill="#263238"/>
<path d="M131.231 36.1921H131.093L130.688 36.1451L129.126 35.9569L123.394 35.2198L104.488 32.7184L85.5866 30.1542L79.8625 29.3701L78.3078 29.1388L77.9024 29.076C77.8559 29.0707 77.8099 29.0615 77.7648 29.0486C77.8117 29.0417 77.8592 29.0417 77.9061 29.0486L78.3115 29.0917L79.8699 29.2799L85.6052 30.017L104.515 32.5223L123.413 35.0865L129.137 35.8706L130.691 36.098L131.097 36.1608C131.143 36.1647 131.188 36.1753 131.231 36.1921Z" fill="#263238"/>
<path d="M124.878 69.1104H124.748L124.376 69.0673L122.888 68.8869L117.439 68.189L99.4709 65.8131L81.4915 63.3783L76.05 62.5942L74.5623 62.3785L74.1904 62.3158L74.0602 62.2884C74.1035 62.284 74.1471 62.284 74.1904 62.2884L74.5623 62.3276L76.05 62.5079L81.4989 63.2058L99.4709 65.5857L117.436 68.0244L122.877 68.785L124.365 69.0046L124.737 69.0634C124.786 69.0706 124.834 69.0865 124.878 69.1104Z" fill="#263238"/>
<path d="M123.535 80.2374H123.405L123.033 80.1982L121.545 80.0179L116.097 79.32L98.1245 76.9401L80.1599 74.5014L74.7185 73.7408L73.2308 73.5213L72.8588 73.4624L72.7286 73.435C72.7731 73.4291 72.8181 73.4291 72.8625 73.435L73.2345 73.4781L74.7222 73.6585L80.1674 74.3564L98.1394 76.7362L116.1 79.171L121.545 79.9552L123.033 80.1708L123.405 80.2335C123.449 80.231 123.492 80.2323 123.535 80.2374Z" fill="#263238"/>
<path d="M123.163 74.423C123.12 74.4273 123.077 74.4273 123.033 74.423L122.661 74.3838L121.211 74.2073L115.873 73.5251L98.2771 71.1962L80.6882 68.8085L75.3583 68.0597L73.9115 67.8479L73.5395 67.7891L73.4131 67.7617C73.4563 67.7556 73.5001 67.7556 73.5433 67.7617L73.9152 67.8048L75.3695 67.9773L80.7031 68.6595L98.2994 70.9845L115.888 73.3761L121.214 74.1211L122.661 74.3328L123.033 74.3955L123.163 74.423Z" fill="#263238"/>
<path d="M94.952 81.4568C94.8741 81.4663 94.7955 81.4663 94.7176 81.4568L94.0519 81.3862L91.6008 81.0882L83.5298 80.0375L75.4662 78.924L73.0225 78.5672L72.3605 78.4574C72.2821 78.4493 72.2048 78.4322 72.1299 78.4065C72.2077 78.3961 72.2864 78.3961 72.3642 78.4065L73.0337 78.477L75.481 78.7711L83.5409 79.8454L91.6045 80.9392L94.0482 81.2999L94.7102 81.4058C94.7925 81.4122 94.8737 81.4293 94.952 81.4568Z" fill="#263238"/>
<path d="M84.6047 34.9257C84.6047 34.9806 82.6817 34.7689 80.3274 34.4552C77.973 34.1416 76.0724 33.8358 76.0799 33.7809C76.0873 33.726 77.9991 33.9338 80.3534 34.2514C82.7078 34.5689 84.6084 34.8669 84.6047 34.9257Z" fill="#263238"/>
<path d="M125.614 63.0176C125.571 63.0237 125.527 63.0237 125.484 63.0176L125.112 62.9784C124.785 62.9392 124.301 62.8843 123.68 62.8294C123.059 62.7746 122.293 62.7118 121.408 62.6569C120.523 62.602 119.511 62.5472 118.391 62.4962C116.16 62.3903 113.493 62.3198 110.54 62.1355C109.052 62.0414 107.512 61.9238 105.909 61.7042C104.306 61.4846 102.67 61.1984 100.981 60.9201L83.6934 58.1324L78.4565 57.262L77.0357 57.015L76.6638 56.9445C76.6216 56.9405 76.5802 56.9299 76.541 56.9131H76.6675L77.0394 56.9641L78.4676 57.1719L83.7082 57.9795L101.003 60.724C102.692 60.9867 104.351 61.2651 105.931 61.5082C107.512 61.7512 109.071 61.8493 110.547 61.9473C113.497 62.1394 116.16 62.2296 118.395 62.3394C119.511 62.4021 120.523 62.4609 121.412 62.5315C122.3 62.602 123.059 62.6687 123.684 62.7393C124.309 62.8098 124.8 62.8726 125.116 62.9275L125.488 62.9863C125.531 62.994 125.573 63.0045 125.614 63.0176Z" fill="#263238"/>
<path d="M30.6067 96.4848C30.6067 96.4848 76.1207 49.0442 81.2981 41.5282L78.1812 38.5092L26.8539 92.3171L30.6067 96.4848Z" fill="#E0E0E0"/>
<path d="M16.7372 106.506C18.7866 106.545 24.321 105.722 32.1131 97.2376L38.9902 90.6978L33.731 85.3343C33.731 85.3343 44.2159 75.0934 43.7175 74.5327C43.2191 73.9721 37.6401 79.4532 33.2363 83.4563C29.2306 87.1143 15.8594 100.006 15.547 105.122C15.5349 105.296 15.5564 105.471 15.6103 105.636C15.6643 105.802 15.7495 105.954 15.8608 106.083C15.9721 106.212 16.1071 106.317 16.2578 106.389C16.4084 106.462 16.5715 106.502 16.7372 106.506Z" fill="#E8505B"/>
<path opacity="0.2" d="M43.7176 74.5445C43.2155 73.9838 37.6401 79.4376 33.2364 83.4563C32.8905 83.7739 32.4665 84.162 31.9941 84.609L37.2198 89.8863L30.3539 96.4417C23.2871 104.15 18.0799 105.557 15.6549 105.726C15.7456 105.952 15.8957 106.146 16.0874 106.285C16.2792 106.424 16.5047 106.502 16.7372 106.51C18.7866 106.549 24.321 105.726 32.1131 97.2415L38.9903 90.7018L33.7311 85.3343C33.7311 85.3343 44.216 75.1052 43.7176 74.5445Z" fill="black"/>
<path d="M39.7229 84.0169L75.5962 46.0095L74.075 44.5353L38.2649 82.3938L39.7229 84.0169Z" fill="#263238"/>
<path d="M81.2721 41.5791C81.2721 41.5791 84.6753 35.9294 83.7232 35.6314C82.771 35.3334 78.1887 38.5092 78.1887 38.5092L79.0665 39.462L73.8594 44.7471L75.6112 46.0096L80.3497 40.7362L81.2721 41.5791Z" fill="#455A64"/>
<path d="M46.3099 67.299C46.7584 67.3347 47.209 67.2747 47.635 67.1227C48.0609 66.9708 48.4535 66.7298 48.7892 66.4144C49.1249 66.099 49.3968 65.7155 49.5888 65.2868C49.7808 64.8581 49.8889 64.393 49.9066 63.9194C49.9772 61.9982 50.0405 60.0575 50.0405 60.0575C50.0405 60.0575 52.8002 59.7869 52.9974 56.9209C53.1945 54.0548 53.109 47.3975 53.109 47.3975C51.5961 46.5929 49.9068 46.229 48.2158 46.3434C46.5248 46.4578 44.8935 47.0464 43.4907 48.0483L43.0667 48.3502L43.2191 63.837C43.2325 64.7163 43.5567 65.5587 44.1285 66.1991C44.7002 66.8394 45.4782 67.2317 46.3099 67.299Z" fill="#FFBE9D"/>
<path d="M46.1835 43.6336C44.521 43.5827 43.0146 44.7275 42.241 46.135C41.4674 47.5426 41.3037 49.1775 41.233 50.7654C41.1444 53.8854 41.214 57.0081 41.4413 60.1202C41.4308 60.3563 41.4978 60.5889 41.631 60.7789C41.8353 60.955 42.0888 61.0556 42.3526 61.0651C47.4002 61.7983 52.5189 61.8062 57.5685 61.0887C57.8996 60.4535 57.4309 59.7007 56.8953 59.2146C56.3597 58.7284 55.6902 58.2853 55.4968 57.5992C55.1881 56.521 56.2035 55.3683 55.8093 54.3176C55.5117 53.5334 54.5261 53.1414 54.1802 52.3572C53.6 51.0634 55.0989 49.499 54.4331 48.2405C54.0872 47.5857 53.2764 47.2956 52.7631 46.7506C52.3093 46.2683 52.1159 45.6136 51.7254 45.0843C51.0245 44.2581 50.0445 43.7543 48.9954 43.6807C48.0655 43.5208 47.119 43.4997 46.1835 43.6179" fill="#E8505B"/>
<path d="M42.2893 46.9113C41.5863 47.272 41.2813 48.162 41.1735 48.9815C41.0656 49.8009 41.0991 50.6634 40.7755 51.4162C40.4519 52.169 39.708 52.8355 39.5183 53.6942C39.2729 54.8155 39.9721 56.1328 39.3398 57.0699C38.9344 57.6698 38.1347 57.8227 37.6326 58.3402C36.9408 59.0577 37.0003 60.23 37.1119 61.2494L46.2318 61.1631" fill="#E8505B"/>
<path d="M44.3015 45.3979C44.2186 44.9302 44.0291 44.4907 43.7492 44.1174C43.4693 43.7441 43.1074 43.4482 42.6948 43.2553C42.2822 43.0623 41.8313 42.9781 41.3809 43.0098C40.9305 43.0416 40.4943 43.1884 40.1097 43.4376C38.6555 44.3864 38.1385 46.6486 36.5019 47.174C36.0742 47.3112 35.5498 47.3504 35.3229 47.7582C35.096 48.1659 35.3824 48.754 35.799 48.9658C36.238 49.1351 36.7127 49.1744 37.1714 49.0795C37.0377 49.0649 36.9027 49.0831 36.7767 49.1325C36.6507 49.1819 36.5373 49.2613 36.4452 49.3645C36.3531 49.4677 36.2848 49.5918 36.2456 49.7274C36.2064 49.8629 36.1974 50.0061 36.2193 50.1459C36.2934 50.4242 36.4622 50.664 36.6934 50.8195C36.9246 50.975 37.202 51.0353 37.4727 50.9888C37.7421 50.9285 37.9913 50.7936 38.1946 50.5978C38.3979 50.4021 38.548 50.1527 38.6294 49.8754C38.4286 50.4792 38.2302 51.0829 38.0343 51.6867C39.1687 51.8984 40.1358 50.8203 40.7085 49.7695C41.2813 48.7188 41.8244 47.4876 42.8695 47.025C43.3419 46.8172 43.8886 46.778 44.294 46.4487C44.6994 46.1193 44.7813 45.296 44.294 45.1391" fill="#E8505B"/>
<path d="M44.7738 45.4332C44.7738 45.4332 44.9858 45.5195 45.1718 45.8253C45.2964 46.0324 45.3732 46.2675 45.396 46.5116C45.4188 46.7557 45.387 47.0021 45.3031 47.2309C45.2191 47.4597 45.0855 47.6645 44.9128 47.829C44.7401 47.9934 44.5333 48.1129 44.3089 48.1777C44.1315 48.2481 43.9358 48.2481 43.7584 48.1777C43.7584 48.1424 43.9667 48.1542 44.2643 48.0287C44.4579 47.9559 44.6343 47.8401 44.7818 47.6892C44.9293 47.5382 45.0443 47.3556 45.119 47.1538C45.1938 46.952 45.2266 46.7356 45.2151 46.5192C45.2037 46.3029 45.1483 46.0916 45.0528 45.8998C44.9151 45.6018 44.7403 45.4607 44.7738 45.4332Z" fill="#263238"/>
<path d="M54.6637 136.798L59.3389 159.526L65.5057 159.377L62.7756 134.786L54.6637 136.798Z" fill="#FFBE9D"/>
<path d="M32.671 73.4624C32.671 73.4624 32.5669 73.6232 32.3958 73.9094C31.4064 75.5678 28.6169 81.5156 30.9675 85.4951L36.8665 80.0296L37.8595 77.5752" fill="#FFBE9D"/>
<path d="M36.0742 118.441L34.088 157.248L40.158 158.797L44.7068 119.26L36.0742 118.441Z" fill="#FFBE9D"/>
<path d="M62.8834 69.6515L54.3289 71.8275L53.8342 78.7867L55.0244 82.7545C55.0244 82.8956 56.951 89.5687 56.951 89.5687L57.5499 91.7761L37.9934 91.9917C37.9264 89.5805 39.4477 87.2045 39.4477 87.2045C40.5635 85.2167 40.2734 82.2134 39.7564 79.9355C39.5927 79.2141 39.3844 78.0222 39.2877 77.289V77.1596L38.1719 79.2337L31.3506 74.0584C33.5562 69.5731 36.792 65.0407 37.1826 64.7035C38.5963 63.457 40.3756 62.7644 42.2186 62.7432L50.6616 62.8216C50.6616 62.8216 57.3081 61.9433 61.1837 61.2533L62.8834 69.6515Z" fill="#455A64"/>
<path d="M61.3623 62.2649C61.0475 62.453 60.7521 62.675 60.4808 62.9275C60.2167 63.1705 59.9229 63.4999 59.5844 63.8841C59.2063 64.3348 58.7864 64.7446 58.331 65.1074C57.1279 66.0453 55.6982 66.6065 54.2062 66.7266C53.3307 66.7963 52.4503 66.7088 51.6026 66.4679C50.7211 66.213 49.862 65.8013 48.9507 65.5269C48.5031 65.387 48.041 65.3054 47.5745 65.2838C47.1233 65.2802 46.6734 65.3368 46.2356 65.4524C45.4043 65.7015 44.5993 66.0391 43.8329 66.46C43.1311 66.8429 42.4068 67.1782 41.6645 67.4637C40.8634 67.7642 40.0132 67.8913 39.1645 67.8374C38.3158 67.7835 37.4861 67.5497 36.7251 67.1501C36.4821 67.022 36.2484 66.8752 36.0259 66.7109C35.9468 66.6562 35.8721 66.5946 35.8027 66.5267C35.8027 66.5071 36.1226 66.7658 36.7586 67.0756C37.513 67.4507 38.3306 67.6639 39.1638 67.703C39.9971 67.742 40.8294 67.606 41.6124 67.303C42.3458 67.0131 43.0613 66.6752 43.7548 66.2914C44.5293 65.8584 45.3446 65.5116 46.1872 65.2564C46.643 65.1352 47.1119 65.0772 47.582 65.0839C48.0636 65.1019 48.5411 65.1849 49.0028 65.3309C49.9364 65.6092 50.7918 66.0248 51.6547 66.2757C52.4851 66.514 53.3477 66.6028 54.2062 66.5384C55.6688 66.4286 57.0737 65.8924 58.264 64.9898C58.7171 64.6415 59.1368 64.2476 59.5175 63.8135C59.8111 63.4851 60.1202 63.1724 60.4436 62.8765C60.6519 62.691 60.8774 62.5281 61.1168 62.3903C61.1795 62.355 61.2441 62.3236 61.3102 62.2962C61.3449 62.2727 61.3623 62.2622 61.3623 62.2649Z" fill="#263238"/>
<path d="M53.8975 73.9643C53.8501 74.0315 53.7922 74.0898 53.7264 74.1368C53.5436 74.2824 53.3308 74.3805 53.1053 74.423C52.7474 74.489 52.3799 74.4689 52.0304 74.3642C51.5726 74.2216 51.1403 74.0003 50.7509 73.7094C50.2929 73.3584 49.8091 73.0463 49.3041 72.7763C48.7181 72.5092 48.0822 72.3859 47.4444 72.4156C46.0719 72.4626 44.6474 73.0703 43.1894 73.7329C42.4746 74.0648 41.7358 74.3362 40.9801 74.5445C40.269 74.7458 39.5279 74.8017 38.7968 74.7092C38.1336 74.6134 37.4985 74.3644 36.9372 73.9799C36.4494 73.6515 36.0053 73.256 35.6168 72.8037C35.0644 72.1521 34.5747 71.4442 34.1551 70.6905C34.0063 70.4278 33.891 70.22 33.8166 70.0788C33.7755 70.0072 33.7394 69.9325 33.7087 69.8553C33.7636 69.9155 33.811 69.9827 33.8501 70.0553L34.222 70.6473C34.6599 71.3779 35.1578 72.0667 35.7098 72.7057C36.0978 73.1362 36.535 73.5142 37.0115 73.831C37.5581 74.192 38.1721 74.4247 38.8117 74.5132C39.5197 74.5978 40.2365 74.5406 40.9243 74.3446C41.669 74.1332 42.3976 73.8632 43.1039 73.5369C44.5582 72.8782 46.0124 72.2587 47.4295 72.2235C48.0981 72.1921 48.7643 72.3264 49.3747 72.6155C49.8825 72.8967 50.3687 73.2192 50.829 73.58C51.204 73.8707 51.6209 74.0958 52.0638 74.2465C52.3968 74.3559 52.7486 74.3867 53.0941 74.3367C53.3879 74.2876 53.6646 74.1593 53.8975 73.9643Z" fill="#263238"/>
<path d="M54.1839 80.6294C54.1839 80.6294 54.1578 80.6765 54.0872 80.7549C53.9878 80.8705 53.8768 80.9744 53.7561 81.0646C53.3004 81.3873 52.7744 81.5829 52.2275 81.6331C51.4187 81.7036 50.6051 81.5872 49.8434 81.292C48.9805 80.9823 48.099 80.4883 47.1468 80.0805C46.2619 79.6701 45.3013 79.4732 44.335 79.5042C43.5475 79.5473 42.7744 79.7441 42.055 80.0845C41.3964 80.4171 40.7864 80.8475 40.2437 81.3626C40.2437 81.3626 40.2697 81.3116 40.3366 81.2332C40.434 81.1165 40.5384 81.0065 40.6491 80.9039C41.0534 80.5226 41.5067 80.2032 41.9955 79.9551C42.7262 79.5853 43.5183 79.3695 44.3275 79.3199C45.3199 79.2723 46.3092 79.4683 47.2175 79.8923C48.1882 80.3079 49.0772 80.8019 49.9029 81.1156C50.6392 81.4102 51.4264 81.5372 52.2126 81.4881C52.7386 81.4525 53.2487 81.2844 53.7003 80.998C54.0388 80.7823 54.169 80.6294 54.1839 80.6294Z" fill="#263238"/>
<path d="M56.2704 87.0359C56.2704 87.0359 56.0733 86.8908 55.6902 86.683C55.1443 86.4066 54.5537 86.2416 53.9495 86.1968C53.0505 86.1351 52.1482 86.2386 51.2828 86.5027C50.3008 86.7771 49.2557 87.2201 48.125 87.5965C47.0597 87.9732 45.942 88.1588 44.8185 88.1454C43.9083 88.1298 43.005 87.9753 42.1368 87.6867C41.548 87.4892 40.9807 87.2264 40.4445 86.9026C40.2548 86.7928 40.1135 86.6948 40.0205 86.6281C39.9691 86.5965 39.9216 86.5583 39.8792 86.5144C39.8792 86.5144 40.0949 86.632 40.4817 86.832C41.8324 87.5539 43.3228 87.9376 44.8371 87.9533C45.9397 87.9553 47.0353 87.7672 48.0804 87.3966C49.1962 87.0241 50.2525 86.585 51.253 86.3145C52.1382 86.0554 53.0602 85.9651 53.9756 86.0479C54.5936 86.1047 55.1938 86.2955 55.7386 86.6085C55.8852 86.6953 56.0245 86.7949 56.1551 86.9065C56.237 86.9849 56.2704 87.028 56.2704 87.0359Z" fill="#263238"/>
<path d="M38.0231 91.2036L34.2777 136.523L43.5389 136.578L48.1175 100.26L54.0908 136.907L63.3595 135.108L57.68 91.5839L38.0231 91.2036Z" fill="#263238"/>
<path d="M54.7492 99.0568C54.7492 99.1156 51.5802 99.5587 47.6563 100.049C43.7324 100.539 40.5486 100.892 40.5412 100.833C40.5337 100.774 43.7101 100.335 47.634 99.8449C51.5579 99.3548 54.7417 99.0176 54.7492 99.0568Z" fill="#455A64"/>
<path d="M66.3462 160.04L66.3201 159.314L59.3389 159.526L59.3984 161.925H59.8298C61.7527 161.976 69.6043 162.047 70.8764 161.631C72.2934 161.177 66.3462 160.04 66.3462 160.04Z" fill="#E8505B"/>
<g opacity="0.6">
<path d="M61.9164 161.788C61.7898 161.205 61.4573 160.695 60.9866 160.361C60.5071 160.012 59.9263 159.853 59.3463 159.91L59.4021 161.816L61.9164 161.788Z" fill="white"/>
</g>
<g opacity="0.6">
<path d="M69.2547 160.698C69.2547 160.698 71.3413 161.224 71.1144 161.565C70.8875 161.906 62.9318 162.125 59.417 161.925V161.773L68.6782 161.592C68.6782 161.592 68.8493 160.726 69.2547 160.698Z" fill="white"/>
</g>
<path d="M59.2943 161.788H59.4171H59.7592L61.0238 161.808C62.0913 161.808 63.5679 161.808 65.2007 161.765C66.8335 161.722 68.3026 161.647 69.3701 161.584L70.631 161.498L70.9731 161.467H70.631L69.3664 161.526C68.2989 161.577 66.826 161.639 65.197 161.682C63.5679 161.726 62.0913 161.741 61.0238 161.749H59.7592H59.4171L59.2943 161.788Z" fill="#263238"/>
<path d="M68.6671 161.698C68.7173 161.491 68.791 161.291 68.8865 161.102C69.0007 160.922 69.1356 160.757 69.2882 160.612C69.078 160.69 68.903 160.848 68.7973 161.055C68.7364 161.148 68.6935 161.253 68.6712 161.363C68.6488 161.473 68.6474 161.587 68.6671 161.698Z" fill="#263238"/>
<path d="M66.588 160.734C66.588 160.734 66.7033 160.628 66.8 160.467C66.8967 160.306 66.9562 160.169 66.9376 160.157C66.919 160.145 66.8223 160.267 66.7256 160.424C66.6289 160.581 66.5657 160.722 66.588 160.734Z" fill="#263238"/>
<path d="M66.0152 160.459C66.0152 160.459 66.1379 160.4 66.2569 160.291C66.376 160.181 66.4541 160.083 66.4392 160.063C66.4243 160.044 66.3127 160.122 66.1974 160.232C66.0821 160.341 66.0003 160.443 66.0152 160.459Z" fill="#263238"/>
<path d="M65.6395 159.828C65.7595 159.868 65.8865 159.88 66.0115 159.863C66.1372 159.878 66.2645 159.862 66.3834 159.816C66.2634 159.776 66.1364 159.764 66.0115 159.781C65.8858 159.771 65.7594 159.787 65.6395 159.828Z" fill="#263238"/>
<path d="M65.5056 159.377C65.7664 159.5 66.0619 159.512 66.3313 159.412C66.1939 159.401 66.0559 159.401 65.9185 159.412C65.7821 159.388 65.6439 159.376 65.5056 159.377Z" fill="#263238"/>
<path d="M66.8037 160.134C66.9529 160.157 67.1046 160.157 67.2538 160.134C67.414 160.11 67.572 160.072 67.7261 160.02C67.8186 159.99 67.9083 159.95 67.9939 159.902C68.0448 159.871 68.0831 159.82 68.1018 159.761C68.1072 159.728 68.103 159.694 68.0897 159.663C68.0765 159.632 68.0548 159.606 68.0274 159.589C67.8551 159.511 67.6636 159.495 67.4817 159.542C67.2999 159.59 67.1376 159.698 67.0194 159.851C66.9553 159.94 66.9096 160.041 66.8855 160.149C66.8757 160.188 66.8757 160.228 66.8855 160.267C66.9283 160.126 66.9937 159.993 67.0789 159.875C67.1778 159.755 67.3067 159.667 67.4509 159.62C67.6249 159.559 67.8143 159.567 67.9828 159.644C68.0571 159.691 68.0311 159.773 67.953 159.824C67.8736 159.869 67.7901 159.906 67.7038 159.934C67.5557 159.989 67.4041 160.034 67.25 160.067C66.9748 160.114 66.8037 160.122 66.8037 160.134Z" fill="#263238"/>
<path d="M66.9227 160.153C66.9713 160.06 66.9859 159.951 66.9636 159.847C66.948 159.731 66.903 159.622 66.8334 159.53C66.7926 159.465 66.7373 159.412 66.6725 159.375C66.6076 159.338 66.5352 159.319 66.4615 159.318C66.4401 159.322 66.4198 159.331 66.4017 159.344C66.3836 159.356 66.368 159.372 66.3559 159.391C66.3438 159.41 66.3354 159.432 66.3311 159.454C66.3269 159.477 66.327 159.5 66.3313 159.522C66.3447 159.593 66.3727 159.66 66.4131 159.718C66.4744 159.814 66.5469 159.9 66.6288 159.977C66.7026 160.055 66.7932 160.113 66.8929 160.145C66.8929 160.145 66.7999 160.071 66.6735 159.934C66.5999 159.857 66.535 159.771 66.4801 159.679C66.4131 159.585 66.3685 159.42 66.4801 159.397C66.5391 159.402 66.5963 159.421 66.6476 159.452C66.699 159.483 66.7434 159.526 66.7776 159.577C66.8439 159.658 66.89 159.755 66.9115 159.859C66.9246 159.957 66.9283 160.055 66.9227 160.153Z" fill="#263238"/>
<path d="M59.3835 159.902C59.3835 159.902 59.5844 159.879 59.8968 159.902C60.3032 159.935 60.6944 160.08 61.0312 160.322C61.3594 160.559 61.6172 160.89 61.7751 161.275C61.8316 161.433 61.88 161.594 61.9202 161.757C61.9202 161.757 61.9202 161.706 61.9202 161.62C61.9066 161.495 61.8778 161.372 61.8346 161.255C61.6896 160.849 61.43 160.5 61.0907 160.255C60.7406 160.005 60.3309 159.862 59.908 159.844C59.7837 159.837 59.6591 159.843 59.536 159.863C59.4836 159.868 59.4322 159.881 59.3835 159.902Z" fill="#263238"/>
<path d="M62.7719 161.11C63.1075 161.178 63.4498 161.202 63.791 161.181C64.1322 161.188 64.4731 161.152 64.8063 161.075C64.8063 161.047 64.3489 161.075 63.791 161.098C63.2331 161.122 62.7756 161.086 62.7719 161.11Z" fill="#263238"/>
<path d="M61.4106 161.145C61.4106 161.165 61.4516 161.239 61.4999 161.341C61.5483 161.443 61.578 161.529 61.6003 161.529C61.6226 161.529 61.6338 161.42 61.5743 161.302C61.5148 161.184 61.4255 161.13 61.4106 161.145Z" fill="#263238"/>
<path d="M60.8787 160.534C60.8787 160.534 60.9084 160.62 60.9828 160.69C61.0572 160.761 61.1316 160.8 61.1465 160.785C61.1613 160.769 61.1167 160.698 61.0423 160.632C60.9679 160.565 60.8935 160.518 60.8787 160.534Z" fill="#263238"/>
<path d="M60.1349 160.267C60.1349 160.291 60.2353 160.287 60.3357 160.322C60.4362 160.357 60.5143 160.404 60.5329 160.389C60.5515 160.373 60.492 160.279 60.3618 160.24C60.2316 160.2 60.1275 160.247 60.1349 160.267Z" fill="#263238"/>
<path d="M59.6178 160.149C59.6178 160.169 59.6513 160.204 59.7071 160.224C59.7629 160.243 59.8186 160.243 59.8261 160.224C59.8335 160.204 59.7963 160.169 59.7368 160.149C59.6773 160.13 59.6178 160.126 59.6178 160.149Z" fill="#263238"/>
<path d="M33.9058 156.919L32.8718 161.71H39.8568L40.1581 158.589L33.9058 156.919Z" fill="#E8505B"/>
<path d="M39.9982 161.004C39.6626 161.062 39.3222 161.081 38.9828 161.063C38.3542 161.063 37.495 161.063 36.528 161.016L34.0769 160.906C33.7366 160.911 33.3967 160.882 33.0615 160.82C33.3973 160.765 33.7376 160.747 34.0769 160.765C34.7055 160.765 35.5647 160.765 36.5354 160.812L38.9828 160.922C39.323 160.915 39.663 160.942 39.9982 161.004Z" fill="#263238"/>
<path d="M37.0413 157.868C37.1062 158.388 37.1062 158.915 37.0413 159.436C37.0387 159.955 36.9737 160.471 36.8478 160.973C36.7794 160.452 36.7794 159.925 36.8478 159.404C36.8474 158.885 36.9125 158.369 37.0413 157.868Z" fill="#263238"/>
<path opacity="0.6" d="M32.8718 161.71H39.8568L39.9238 161.016L32.9983 160.832L32.8718 161.628" fill="white"/>
<path d="M77.5786 46.1272L75.0309 47.0956C74.9974 46.0213 74.287 44.9 74.287 45.4372C74.287 45.9743 74.0452 48.7541 74.0452 48.7541L68.734 58.497C67.9901 60.0653 66.6623 60.9553 65.7064 61.1161L61.3473 62.0963L62.5933 68.1616L68.667 66.5933C69.4442 66.3917 70.1656 66.0008 70.7735 65.452C71.3813 64.9032 71.8586 64.2118 72.167 63.4332L77.2179 50.6635C77.5534 49.8422 77.8379 48.9987 78.0696 48.1385C78.1294 47.7858 78.1166 47.4236 78.0319 47.0765C77.9471 46.7295 77.7926 46.4057 77.5786 46.1272Z" fill="#FFBE9D"/>
</g>
<defs>
<clipPath id="clip0_73_175">
<rect width="160" height="162" fill="white"/>
</clipPath>
</defs>
</svg>
