<svg width="186" height="126" viewBox="0 0 186 126" fill="none" xmlns="http://www.w3.org/2000/svg">
<g clip-path="url(#clip0_73_579)">
<path d="M171.92 9.31052H10.9972C8.02662 9.31052 5.61853 11.7302 5.61853 14.7151V117.984C5.61853 120.969 8.02662 123.389 10.9972 123.389H171.92C174.891 123.389 177.299 120.969 177.299 117.984V14.7151C177.299 11.7302 174.891 9.31052 171.92 9.31052Z" fill="#455A64"/>
<path d="M0 116.018H186V119.397C186 121.148 185.308 122.828 184.075 124.066C182.843 125.304 181.172 126 179.429 126H6.571C4.82826 126 3.1569 125.304 1.9246 124.066C0.6923 122.828 0 121.148 0 119.397L0 116.018Z" fill="#455A64"/>
<path d="M74.5366 114.95L76.8439 118.637H109.322L111.463 114.95H74.5366Z" fill="#263238"/>
<path d="M175.822 114.95C175.822 115.013 137.718 115.061 90.7278 115.061C43.7377 115.061 5.61853 115.013 5.61853 114.95C5.61853 114.887 43.7156 114.838 90.7278 114.838C137.74 114.838 175.822 114.887 175.822 114.95Z" fill="#263238"/>
<path d="M170.503 15.8687H11.7429C11.0762 15.8687 10.5358 16.4117 10.5358 17.0816V110.721C10.5358 111.391 11.0762 111.934 11.7429 111.934H170.503C171.169 111.934 171.71 111.391 171.71 110.721V17.0816C171.71 16.4117 171.169 15.8687 170.503 15.8687Z" fill="#EBEBEB"/>
<path d="M171.54 112.071H10.3623L10.5358 23.0463H171.54V112.071Z" fill="white"/>
<path d="M23.7553 19.5818C23.7575 19.8383 23.6838 20.0896 23.5435 20.304C23.4033 20.5183 23.2029 20.686 22.9677 20.7857C22.7324 20.8854 22.4731 20.9126 22.2224 20.8639C21.9718 20.8152 21.7412 20.6928 21.5599 20.5122C21.3786 20.3316 21.2548 20.101 21.2042 19.8496C21.1536 19.5981 21.1784 19.3373 21.2756 19.1001C21.3728 18.8629 21.5379 18.66 21.75 18.5173C21.9621 18.3745 22.2116 18.2983 22.4669 18.2983C22.807 18.2973 23.1336 18.4319 23.3751 18.6725C23.6166 18.913 23.7533 19.24 23.7553 19.5818Z" fill="#263238"/>
<path d="M15.955 19.5818C15.9572 19.8387 15.8832 20.0906 15.7425 20.3051C15.6017 20.5197 15.4006 20.6874 15.1648 20.7867C14.9289 20.8861 14.669 20.9127 14.418 20.8631C14.1671 20.8135 13.9365 20.69 13.7556 20.5082C13.5748 20.3265 13.4519 20.0948 13.4025 19.8427C13.3532 19.5905 13.3796 19.3293 13.4785 19.0923C13.5774 18.8553 13.7442 18.6533 13.9578 18.5119C14.1713 18.3705 14.4219 18.2961 14.6777 18.2983C15.0158 18.3003 15.3396 18.4361 15.5787 18.6764C15.8178 18.9167 15.953 19.242 15.955 19.5818Z" fill="#263238"/>
<path d="M19.6983 19.5818C19.6983 19.8378 19.6227 20.0881 19.4812 20.301C19.3396 20.5139 19.1384 20.6798 18.903 20.7778C18.6676 20.8758 18.4085 20.9014 18.1586 20.8515C17.9087 20.8015 17.6791 20.6782 17.4989 20.4972C17.3188 20.3161 17.196 20.0855 17.1463 19.8343C17.0966 19.5832 17.1221 19.3229 17.2197 19.0864C17.3172 18.8498 17.4823 18.6476 17.6942 18.5054C17.906 18.3631 18.1551 18.2872 18.4099 18.2872C18.5793 18.2867 18.747 18.3199 18.9036 18.3848C19.0601 18.4496 19.2023 18.545 19.322 18.6653C19.4418 18.7856 19.5366 18.9285 19.6012 19.0858C19.6658 19.2431 19.6988 19.4116 19.6983 19.5818Z" fill="#263238"/>
<path d="M171.71 103.477H10.3623V112.075H171.71V103.477Z" fill="#263238"/>
<path d="M16.4608 108.77V109.044H15.1761V108.829L15.8664 108.169C16.0362 108.006 16.0658 107.902 16.0658 107.798C16.0658 107.639 15.955 107.546 15.7409 107.546C15.6637 107.542 15.5867 107.556 15.516 107.587C15.4454 107.619 15.3833 107.667 15.3348 107.728L15.106 107.553C15.1869 107.457 15.289 107.38 15.4043 107.33C15.5196 107.28 15.645 107.257 15.7704 107.264C16.1396 107.264 16.3943 107.453 16.3943 107.765C16.3919 107.873 16.3643 107.98 16.3136 108.076C16.263 108.172 16.1908 108.254 16.1027 108.317L15.6375 108.763L16.4608 108.77Z" fill="white"/>
<path d="M16.6343 107.902C16.6343 107.861 16.6465 107.82 16.6694 107.786C16.6923 107.752 16.7248 107.725 16.7628 107.71C16.8008 107.694 16.8425 107.69 16.8827 107.699C16.9229 107.707 16.9598 107.727 16.9885 107.756C17.0173 107.786 17.0367 107.823 17.0442 107.864C17.0518 107.904 17.0471 107.946 17.0309 107.984C17.0147 108.022 16.9876 108.054 16.9532 108.076C16.9187 108.099 16.8784 108.11 16.8373 108.11C16.8102 108.11 16.7833 108.105 16.7582 108.095C16.733 108.085 16.7103 108.069 16.6913 108.05C16.6723 108.03 16.6574 108.007 16.6476 107.982C16.6378 107.956 16.6333 107.929 16.6343 107.902ZM16.6343 108.855C16.6304 108.826 16.6327 108.796 16.6412 108.768C16.6497 108.739 16.6641 108.713 16.6836 108.691C16.703 108.669 16.7269 108.651 16.7537 108.638C16.7806 108.626 16.8097 108.62 16.8392 108.62C16.8686 108.62 16.8978 108.626 16.9246 108.638C16.9515 108.651 16.9754 108.669 16.9948 108.691C17.0142 108.713 17.0286 108.739 17.0371 108.768C17.0456 108.796 17.048 108.826 17.0441 108.855C17.048 108.885 17.0456 108.914 17.0371 108.943C17.0286 108.971 17.0142 108.997 16.9948 109.02C16.9754 109.042 16.9515 109.06 16.9246 109.072C16.8978 109.084 16.8686 109.091 16.8392 109.091C16.8097 109.091 16.7806 109.084 16.7537 109.072C16.7269 109.06 16.703 109.042 16.6836 109.02C16.6641 108.997 16.6497 108.971 16.6412 108.943C16.6327 108.914 16.6304 108.885 16.6343 108.855Z" fill="white"/>
<path d="M17.8524 107.294V109.044H17.5313V107.561H17.1621V107.286L17.8524 107.294Z" fill="white"/>
<path d="M19.7536 108.648H19.4435V109.044H19.1297V108.648H18.1736V108.436L19.0337 107.323H19.3807L18.5686 108.403H19.1408V108.05H19.4435V108.403H19.7536V108.648Z" fill="white"/>
<path d="M154.847 107.946H22.5999V108.551H154.847V107.946Z" fill="white"/>
<path d="M63.8273 107.294H22.5001V108.911H63.8273V107.294Z" fill="#FF725E"/>
<path d="M65.1637 108.251C65.1637 108.65 65.0457 109.041 64.8246 109.374C64.6036 109.706 64.2894 109.965 63.9217 110.118C63.5541 110.271 63.1496 110.311 62.7593 110.233C62.369 110.155 62.0105 109.963 61.7292 109.68C61.4478 109.397 61.2562 109.037 61.1786 108.645C61.1009 108.253 61.1408 107.846 61.293 107.477C61.4453 107.108 61.7032 106.792 62.034 106.57C62.3649 106.348 62.7539 106.229 63.1518 106.229C63.6854 106.229 64.1971 106.442 64.5744 106.821C64.9517 107.2 65.1637 107.714 65.1637 108.251Z" fill="#FF725E"/>
<path d="M158.177 108.232C158.176 108.313 158.159 108.393 158.126 108.466C158.093 108.54 158.045 108.606 157.985 108.66C157.925 108.714 157.855 108.755 157.779 108.78C157.702 108.806 157.622 108.815 157.542 108.807C157.065 108.807 156.803 108.499 156.803 107.935C156.789 107.816 156.8 107.694 156.837 107.579C156.874 107.464 156.935 107.359 157.017 107.27C157.098 107.182 157.198 107.112 157.309 107.066C157.42 107.02 157.54 106.999 157.66 107.004C157.82 107 157.978 107.04 158.118 107.119L157.996 107.364C157.897 107.303 157.783 107.273 157.667 107.279C157.339 107.279 157.132 107.483 157.132 107.88C157.192 107.817 157.264 107.768 157.344 107.737C157.425 107.706 157.511 107.692 157.597 107.698C157.67 107.693 157.744 107.703 157.813 107.727C157.883 107.752 157.947 107.79 158.001 107.84C158.055 107.89 158.099 107.951 158.129 108.018C158.159 108.085 158.175 108.158 158.177 108.232ZM157.863 108.232C157.863 108.05 157.726 107.935 157.516 107.935C157.472 107.928 157.426 107.93 157.383 107.942C157.339 107.953 157.299 107.974 157.264 108.002C157.229 108.031 157.201 108.066 157.18 108.106C157.16 108.147 157.149 108.191 157.147 108.236C157.147 108.399 157.276 108.529 157.516 108.529C157.557 108.536 157.6 108.534 157.641 108.523C157.681 108.512 157.719 108.493 157.752 108.466C157.785 108.439 157.812 108.406 157.831 108.368C157.85 108.331 157.861 108.289 157.863 108.247V108.232Z" fill="white"/>
<path d="M158.335 107.631C158.331 107.602 158.334 107.572 158.342 107.544C158.351 107.515 158.365 107.489 158.385 107.467C158.404 107.444 158.428 107.427 158.455 107.414C158.482 107.402 158.511 107.396 158.54 107.396C158.57 107.396 158.599 107.402 158.626 107.414C158.653 107.427 158.676 107.444 158.696 107.467C158.715 107.489 158.73 107.515 158.738 107.544C158.747 107.572 158.749 107.602 158.745 107.631C158.749 107.661 158.747 107.69 158.738 107.719C158.73 107.747 158.715 107.773 158.696 107.796C158.676 107.818 158.653 107.836 158.626 107.848C158.599 107.86 158.57 107.867 158.54 107.867C158.511 107.867 158.482 107.86 158.455 107.848C158.428 107.836 158.404 107.818 158.385 107.796C158.365 107.773 158.351 107.747 158.342 107.719C158.334 107.69 158.331 107.661 158.335 107.631ZM158.335 108.584C158.331 108.555 158.334 108.525 158.342 108.497C158.351 108.469 158.365 108.442 158.385 108.42C158.404 108.398 158.428 108.38 158.455 108.368C158.482 108.355 158.511 108.349 158.54 108.349C158.57 108.349 158.599 108.355 158.626 108.368C158.653 108.38 158.676 108.398 158.696 108.42C158.715 108.442 158.73 108.469 158.738 108.497C158.747 108.525 158.749 108.555 158.745 108.584C158.749 108.614 158.747 108.644 158.738 108.672C158.73 108.7 158.715 108.727 158.696 108.749C158.676 108.771 158.653 108.789 158.626 108.801C158.599 108.814 158.57 108.82 158.54 108.82C158.511 108.82 158.482 108.814 158.455 108.801C158.428 108.789 158.404 108.771 158.385 108.749C158.365 108.727 158.351 108.7 158.342 108.672C158.334 108.644 158.331 108.614 158.335 108.584Z" fill="white"/>
<path d="M158.952 107.898C158.952 107.323 159.266 106.997 159.69 106.997C160.115 106.997 160.428 107.323 160.428 107.898C160.428 108.473 160.115 108.8 159.69 108.8C159.266 108.8 158.952 108.473 158.952 107.898ZM160.081 107.898C160.081 107.475 159.919 107.282 159.679 107.282C159.439 107.282 159.277 107.475 159.277 107.898C159.277 108.321 159.443 108.518 159.679 108.518C159.915 108.518 160.081 108.321 160.081 107.898Z" fill="white"/>
<path d="M160.624 107.898C160.624 107.323 160.938 106.997 161.362 106.997C161.787 106.997 162.101 107.323 162.101 107.898C162.101 108.473 161.787 108.8 161.362 108.8C160.938 108.8 160.624 108.473 160.624 107.898ZM161.757 107.898C161.757 107.475 161.591 107.282 161.351 107.282C161.111 107.282 160.953 107.475 160.953 107.898C160.953 108.321 161.115 108.518 161.351 108.518C161.588 108.518 161.757 108.321 161.757 107.898Z" fill="white"/>
<path d="M164.899 107.791H164.297V106.044H166.029V106.648H164.899V107.791Z" fill="white"/>
<path d="M166.032 110.068H164.294V108.325H164.895V109.464H166.032V110.068Z" fill="white"/>
<path d="M168.801 110.068H167.066V109.464H168.199V108.321H168.801V110.068Z" fill="white"/>
<path d="M168.801 107.787H168.199V106.648H167.062V106.044H168.801V107.787Z" fill="white"/>
<path d="M32.4674 28.3433H22.9653L18.2179 36.6078L22.9653 44.876H32.4674L37.2147 36.6078L32.4674 28.3433Z" fill="#EBEBEB"/>
<path d="M23.7405 38.2288C23.2987 37.7724 22.9099 37.2672 22.5813 36.7228C22.2501 36.1733 22.1111 35.5283 22.1863 34.8903C22.286 34.5327 22.3661 34.1699 22.4263 33.8035C22.4632 33.2916 22.2491 32.7575 22.4263 32.2789C22.7068 31.5371 23.7073 31.4147 24.3164 30.8991C24.7889 30.4947 25.0215 29.8419 25.542 29.5043C26.0254 29.2471 26.5841 29.1709 27.1183 29.2892C27.6468 29.4116 28.1898 29.459 28.7315 29.4301C29.1057 29.3496 29.4753 29.2494 29.839 29.1297C30.2047 29.0141 30.6003 29.042 30.9464 29.2076C31.1155 29.3004 31.2418 29.4559 31.2983 29.6409C31.3549 29.8259 31.3372 30.0259 31.2491 30.198C31.873 29.9087 32.663 30.3983 32.8328 31.0623C32.8979 31.4021 32.8671 31.7535 32.7438 32.0767C32.6205 32.3999 32.4096 32.682 32.1351 32.891C31.5828 33.3044 30.9349 33.57 30.2524 33.6625C28.3439 34.0335 26.2766 33.822 24.6338 32.7834" fill="#263238"/>
<path d="M32.5486 40.2689C32.4858 39.0856 32.1573 36.6597 31.8324 34.4675C31.6644 33.3318 31.0778 32.301 30.1888 31.5796C29.2999 30.8582 28.1736 30.4987 27.0334 30.5726H26.7971C24.2721 30.8916 23.1314 33.2248 23.519 35.7658L24.2573 44.8723H30.4222C30.4222 44.8723 30.2746 43.2735 30.2746 43.2587C30.2746 43.2439 32.6815 42.7171 32.5486 40.2689Z" fill="#FFBE9D"/>
<path d="M30.271 43.229C29.1473 43.324 28.0208 43.0827 27.0334 42.5354C27.0334 42.5354 27.9047 44.2454 30.3189 43.8633L30.271 43.229Z" fill="#EB996E"/>
<path d="M31.0462 36.567C31.0534 36.6574 31.0249 36.7469 30.9668 36.8163C30.9088 36.8858 30.8259 36.9294 30.7361 36.9379C30.6929 36.9436 30.649 36.9406 30.607 36.9291C30.5649 36.9176 30.5256 36.8978 30.4912 36.8709C30.4569 36.844 30.4282 36.8105 30.4068 36.7723C30.3855 36.7341 30.3719 36.6921 30.3669 36.6486C30.3607 36.5584 30.3895 36.4694 30.4474 36.4002C30.5052 36.331 30.5876 36.2871 30.677 36.2777C30.7202 36.272 30.7641 36.2749 30.8061 36.2864C30.8482 36.2979 30.8875 36.3177 30.9219 36.3447C30.9562 36.3716 30.9849 36.4051 31.0062 36.4433C31.0276 36.4814 31.0412 36.5235 31.0462 36.567Z" fill="#263238"/>
<path d="M31.3895 35.699C31.3489 35.7472 31.072 35.5692 30.6955 35.5951C30.319 35.6211 30.0605 35.8288 30.0162 35.7843C29.9719 35.7398 30.0162 35.6805 30.1491 35.584C30.3036 35.4613 30.4916 35.3888 30.6881 35.3763C30.883 35.3622 31.0772 35.4116 31.2418 35.5172C31.3637 35.5988 31.408 35.6767 31.3895 35.699Z" fill="#263238"/>
<path d="M27.5096 36.8229C27.5107 36.9118 27.4801 36.9982 27.4231 37.0663C27.3662 37.1344 27.2869 37.1797 27.1995 37.1939C27.112 37.2033 27.0244 37.1779 26.9554 37.1231C26.8863 37.0683 26.8414 36.9885 26.8304 36.9008C26.8292 36.8119 26.8599 36.7256 26.9168 36.6575C26.9737 36.5894 27.0531 36.5441 27.1404 36.5299C27.2279 36.5204 27.3156 36.5458 27.3846 36.6006C27.4536 36.6554 27.4985 36.7352 27.5096 36.8229Z" fill="#263238"/>
<path d="M27.7126 36.018C27.672 36.0662 27.3952 35.8882 27.0186 35.9141C26.6421 35.9401 26.3837 36.1441 26.3394 36.1033C26.2951 36.0625 26.3394 35.9995 26.4723 35.903C26.6269 35.7775 26.8165 35.7033 27.0148 35.6906C27.2132 35.678 27.4106 35.7276 27.5797 35.8325C27.6868 35.9141 27.7311 35.9957 27.7126 36.018Z" fill="#263238"/>
<path d="M29.2557 38.6999C29.4491 38.6238 29.6513 38.5727 29.8574 38.5478C29.9534 38.5478 30.042 38.507 30.0531 38.4402C30.0546 38.3414 30.0263 38.2444 29.9719 38.162L29.6396 37.4498C29.3372 36.8526 29.0817 36.2325 28.8755 35.5952C29.2276 36.1715 29.5325 36.7757 29.7873 37.4016C29.898 37.6501 30.0051 37.8913 30.1085 38.1175C30.1729 38.2297 30.1989 38.36 30.1823 38.4885C30.1702 38.5231 30.1507 38.5546 30.1252 38.5809C30.0997 38.6072 30.0688 38.6275 30.0346 38.6405C29.9819 38.6578 29.9274 38.669 29.8722 38.6739C29.6687 38.709 29.4615 38.7177 29.2557 38.6999Z" fill="#263238"/>
<path d="M27.709 34.5343C27.6795 34.6381 27.3029 34.6159 26.8673 34.7012C26.4317 34.7865 26.0847 34.9275 26.0183 34.8384C25.9518 34.7494 26.0478 34.6975 26.1844 34.5862C26.3662 34.4505 26.5775 34.3603 26.8009 34.3228C27.023 34.2789 27.2524 34.2904 27.4691 34.3562C27.6352 34.4118 27.7238 34.486 27.709 34.5343Z" fill="#263238"/>
<path d="M31.179 34.6196C31.1163 34.7086 30.8542 34.6381 30.5441 34.653C30.234 34.6678 29.9756 34.7494 29.9091 34.653C29.8427 34.5565 29.9091 34.5231 30.0236 34.4341C30.1697 34.3239 30.3467 34.2629 30.5293 34.2598C30.7115 34.2517 30.8917 34.2995 31.0461 34.397C31.1606 34.4897 31.2049 34.5751 31.179 34.6196Z" fill="#263238"/>
<path d="M23.8328 37.5871C23.7885 37.5871 22.1236 37.2161 22.2897 38.8742C22.4558 40.5323 24.2573 39.987 24.2536 39.9499C24.25 39.9129 23.8328 37.5871 23.8328 37.5871Z" fill="#FFBE9D"/>
<path d="M23.5153 39.3861C23.5153 39.3861 23.4894 39.4084 23.4451 39.4343C23.3787 39.4711 23.3005 39.4805 23.2273 39.4603C23.1132 39.4029 23.0164 39.3159 22.9469 39.2083C22.8775 39.1007 22.8379 38.9764 22.8323 38.8483C22.8131 38.706 22.827 38.5613 22.8729 38.4254C22.8825 38.3709 22.9054 38.3197 22.9396 38.2763C22.9737 38.2329 23.018 38.1988 23.0686 38.1769C23.1009 38.1658 23.136 38.166 23.1681 38.1774C23.2003 38.1888 23.2277 38.2109 23.2458 38.2399C23.2753 38.2844 23.2679 38.3215 23.2753 38.3215C23.2827 38.3215 23.3085 38.2919 23.2753 38.2214C23.262 38.1819 23.236 38.148 23.2015 38.1249C23.1771 38.1094 23.1497 38.099 23.1211 38.0946C23.0925 38.0901 23.0634 38.0916 23.0354 38.099C22.9688 38.1201 22.9086 38.1576 22.8602 38.2082C22.8119 38.2587 22.7769 38.3206 22.7585 38.3883C22.7031 38.54 22.6854 38.703 22.7068 38.8631C22.7109 39.0128 22.76 39.1578 22.8476 39.279C22.9353 39.4001 23.0573 39.4918 23.1978 39.5419C23.244 39.5504 23.2914 39.5484 23.3367 39.5362C23.382 39.524 23.4241 39.5019 23.4599 39.4714C23.5374 39.4418 23.5374 39.3861 23.5153 39.3861Z" fill="#EB996E"/>
<path d="M31.7106 32.1788C31.5961 32.8428 30.2524 33.4548 29.1265 33.4214C28.1002 33.3918 27.5908 32.8799 26.8488 32.5163C26.3763 32.2864 26.3763 32.2864 25.7413 32.3902C25.2245 32.4755 24.955 33.0876 24.6671 33.529C25.2208 34.742 24.9956 36.1515 24.7593 37.4647C24.7502 37.612 24.6917 37.7519 24.5932 37.8616C24.4868 37.9272 24.3608 37.9532 24.2373 37.9349C24.1138 37.9166 24.0006 37.8552 23.9177 37.7614C23.6445 37.4661 23.4624 37.0976 23.3935 36.7005C23.1609 35.8139 23.1057 34.8897 23.231 33.9815C23.3535 33.073 23.7385 32.2205 24.3385 31.5297C25.1295 30.6918 26.2136 30.1957 27.3619 30.1461C28.5053 30.1037 29.6329 30.4242 30.5846 31.0623C31.0387 31.3368 31.4189 31.7189 31.6921 32.1751" fill="#263238"/>
<path d="M29.5031 39.5605L28.654 39.1636C28.6069 39.1366 28.5531 39.1237 28.499 39.1265C28.4398 39.1397 28.3882 39.1757 28.355 39.2266C28.2554 39.3456 28.1931 39.4915 28.1761 39.646C28.159 39.8005 28.1878 39.9566 28.259 40.0946C28.3365 40.2298 28.4588 40.3333 28.6047 40.3868C28.7505 40.4404 28.9104 40.4407 29.0564 40.3877C29.1991 40.3089 29.3179 40.1928 29.4004 40.0518C29.483 39.9108 29.5261 39.75 29.5252 39.5864L29.5031 39.5605Z" fill="#EB996E"/>
<path d="M29.0749 40.4507C29.0749 40.4507 28.8977 40.588 28.5765 40.4952C28.389 40.4313 28.2322 40.2989 28.1372 40.1243C28.0769 40.0195 28.0406 39.9026 28.031 39.7819C28.0214 39.6613 28.0388 39.54 28.0819 39.4269C28.1269 39.309 28.1976 39.2025 28.2886 39.1153C28.3327 39.0745 28.3809 39.0385 28.4326 39.0078C28.4667 38.9896 28.5047 38.9801 28.5433 38.9801C28.5819 38.9801 28.6199 38.9896 28.654 39.0078C28.8497 39.1153 28.9789 39.2081 29.1081 39.2897C29.3554 39.4566 29.5031 39.5716 29.4773 39.5939C29.4514 39.6161 29.2927 39.5456 29.0269 39.4084L28.5728 39.171C28.5396 39.171 28.5433 39.171 28.5064 39.171C28.4693 39.196 28.4347 39.2246 28.403 39.2563C28.3335 39.325 28.2805 39.4087 28.248 39.5011C28.2149 39.5884 28.2005 39.6818 28.2055 39.775C28.2106 39.8683 28.2351 39.9595 28.2775 40.0427C28.3494 40.1826 28.4666 40.2938 28.6097 40.358C28.8866 40.4767 29.0749 40.4173 29.0749 40.4507Z" fill="#263238"/>
<path d="M28.8128 36.6078C28.8128 36.6078 28.8128 36.4557 28.7242 36.1924C28.6172 35.8248 28.3928 35.5028 28.0855 35.2761C27.8395 35.0923 27.5475 34.9808 27.2421 34.9541C26.9367 34.9274 26.6299 34.9865 26.356 35.1248C26.0821 35.2632 25.8519 35.4753 25.691 35.7375C25.5301 35.9996 25.4449 36.3016 25.4449 36.6097C25.4449 36.9177 25.5301 37.2197 25.691 37.4819C25.8519 37.7441 26.0821 37.9562 26.356 38.0945C26.6299 38.2328 26.9367 38.2919 27.2421 38.2652C27.5475 38.2385 27.8395 38.127 28.0855 37.9432C28.3928 37.7166 28.6172 37.3946 28.7242 37.027C28.798 36.7636 28.7943 36.6078 28.8128 36.6078C28.8312 36.6078 28.8128 36.6486 28.8128 36.7228C28.8151 36.8313 28.804 36.9397 28.7796 37.0455C28.6965 37.4442 28.4755 37.8004 28.1557 38.0507C27.9166 38.2383 27.6344 38.3624 27.3351 38.4116C27.0358 38.4609 26.7289 38.4337 26.4428 38.3327C26.0887 38.2061 25.7823 37.9726 25.5657 37.6641C25.349 37.3556 25.2327 36.9873 25.2327 36.6097C25.2327 36.2321 25.349 35.8637 25.5657 35.5552C25.7823 35.2467 26.0887 35.0132 26.4428 34.8867C26.7289 34.7856 27.0358 34.7584 27.3351 34.8077C27.6344 34.8569 27.9166 34.981 28.1557 35.1686C28.4755 35.4189 28.6965 35.7751 28.7796 36.1738C28.8041 36.2795 28.8153 36.388 28.8128 36.4965C28.8239 36.5707 28.8202 36.6078 28.8128 36.6078Z" fill="#263238"/>
<path d="M32.9583 36.4446C32.9399 36.4446 32.9583 36.2962 32.8697 36.0403C32.7663 35.6829 32.5483 35.37 32.2496 35.15C32.0101 34.9713 31.726 34.8629 31.4288 34.8371C31.1316 34.8112 30.8331 34.8688 30.5667 35.0034C30.3002 35.1381 30.0762 35.3445 29.9197 35.5996C29.7631 35.8548 29.6802 36.1486 29.6802 36.4483C29.6802 36.748 29.7631 37.0418 29.9197 37.297C30.0762 37.5521 30.3002 37.7585 30.5667 37.8932C30.8331 38.0278 31.1316 38.0854 31.4288 38.0596C31.726 38.0337 32.0101 37.9253 32.2496 37.7466C32.5483 37.5267 32.7663 37.2137 32.8697 36.8563C32.9436 36.6004 32.9399 36.4483 32.9583 36.4483C32.9768 36.4483 32.9583 36.4854 32.9583 36.5596C32.9604 36.6655 32.9505 36.7712 32.9288 36.8749C32.8464 37.263 32.6308 37.6096 32.3197 37.8542C32.0864 38.0375 31.8109 38.1588 31.5186 38.2068C31.2263 38.2548 30.9266 38.2279 30.6474 38.1287C30.3025 38.0049 30.004 37.777 29.793 37.4762C29.582 37.1754 29.4688 36.8163 29.4688 36.4483C29.4688 36.0803 29.582 35.7212 29.793 35.4204C30.004 35.1196 30.3025 34.8917 30.6474 34.768C30.9266 34.6687 31.2263 34.6418 31.5186 34.6898C31.8109 34.7378 32.0864 34.8591 32.3197 35.0425C32.631 35.2883 32.8466 35.6362 32.9288 36.0254C32.9508 36.129 32.9607 36.2348 32.9583 36.3407C32.9694 36.4075 32.9657 36.4446 32.9583 36.4446Z" fill="#263238"/>
<path d="M29.577 36.0625C29.54 36.0959 29.3739 35.9883 29.1524 35.9958C28.9309 36.0032 28.7833 36.1107 28.7316 36.0774C28.6799 36.044 28.8349 35.8103 29.1487 35.8029C29.4625 35.7955 29.6249 36.0329 29.577 36.0625Z" fill="#263238"/>
<path d="M25.446 36.363C25.4792 36.4038 25.1544 36.7005 24.7262 37.0232C24.484 37.2452 24.2004 37.4167 23.8919 37.5277C23.8586 37.4869 24.1835 37.1902 24.6117 36.8675C24.8533 36.6447 25.137 36.4731 25.446 36.363Z" fill="#263238"/>
<path d="M59.7149 36.5262C59.7149 36.5781 55.4437 36.6226 50.1759 36.6226C44.908 36.6226 40.6368 36.5781 40.6368 36.5262C40.6368 36.4743 44.908 36.4297 50.1759 36.4297C55.4437 36.4297 59.7149 36.4743 59.7149 36.5262Z" fill="#263238"/>
<path d="M50.8883 38.533C50.8883 38.5849 48.6217 38.6294 45.8235 38.6294C43.0253 38.6294 40.7587 38.5849 40.7587 38.533C40.7587 38.481 43.0253 38.4328 45.8235 38.4328C48.6217 38.4328 50.8883 38.4773 50.8883 38.533Z" fill="#263238"/>
<path d="M116.857 51.3452C118.528 52.3001 119.994 53.5787 121.17 55.1068C122.346 56.6349 123.209 58.3822 123.708 60.2477C125.491 66.6574 130.944 83.3496 130.944 83.3496C130.944 83.3496 134.06 87.033 134.392 89.7594C134.724 92.4858 134.06 99.0848 133.055 100.316C132.765 100.674 132.391 100.954 131.968 101.133C131.545 101.312 131.084 101.385 130.626 101.344L117.51 100.094L112.342 65.3443L116.857 51.3452Z" fill="#FF725E"/>
<path d="M73.4882 50.7405C73.4882 50.7405 64.1079 53.708 61.7711 56.2675L69.4496 92.1594L69.313 103.488H113.789C113.789 102.928 114.188 65.8822 114.188 65.8822L116.857 51.3451L101.061 48.552L97.9449 46.089L80.3619 46.9866L77.6892 49.6685L73.4882 50.7405Z" fill="#FF725E"/>
<g opacity="0.3">
<path d="M77.0653 81.8807C76.9287 81.5766 76.7293 81.2464 76.4045 81.1796C75.8692 81.0684 75.5111 81.7027 75.3302 82.222C73.9121 86.2909 71.9473 90.146 69.4902 93.6802L69.3757 99.1924C71.9598 97.0001 74.5218 94.6521 76.1756 91.6809C77.8294 88.7097 78.4459 84.9818 77.0653 81.8807Z" fill="black"/>
</g>
<path d="M61.7711 56.2675C61.7711 56.2675 58.6813 60.4999 57.4003 63.2634C56.1193 66.0269 45.4839 89.229 44.849 91.629C44.214 94.0289 42.5602 101.574 47.4146 103.325H57.4077L67.434 82.949L67.9471 59.3018L61.7711 56.2675Z" fill="#FF725E"/>
<path d="M58.0389 88.6058C58.0389 88.6058 57.8174 88.4092 57.356 88.1459C56.6974 87.7909 55.9911 87.5335 55.2592 87.3817C54.756 87.2709 54.245 87.199 53.7309 87.1666C53.1385 87.1218 52.5428 87.1642 51.9626 87.2927C50.6494 87.6316 49.4739 88.3732 48.5996 89.4145C47.7106 90.4441 47.06 91.659 46.6947 92.9718C46.3932 94.0447 46.193 95.1438 46.0967 96.2546C46.0007 97.2042 45.9675 97.9794 45.9343 98.5098C45.9343 98.7621 45.9047 98.9661 45.8974 99.1256C45.8976 99.1984 45.8876 99.2708 45.8678 99.3408C45.8631 99.2691 45.8631 99.1972 45.8678 99.1256C45.8678 98.9624 45.8678 98.7547 45.8678 98.5098C45.8678 97.972 45.89 97.2004 45.9675 96.2434C46.0455 95.1146 46.2347 93.9963 46.5323 92.905C46.895 91.5625 47.555 90.3198 48.463 89.2698C49.3646 88.1995 50.5787 87.4416 51.9331 87.1035C52.5252 86.9796 53.1325 86.9459 53.7346 87.0034C54.2558 87.0418 54.773 87.1225 55.2813 87.2445C56.0215 87.4098 56.7314 87.6902 57.3855 88.0754C57.5617 88.1848 57.7284 88.3088 57.8839 88.4463C57.9411 88.4938 57.993 88.5473 58.0389 88.6058Z" fill="#263238"/>
<path d="M53.3026 84.5478C53.4118 84.5157 53.5248 84.4983 53.6385 84.4958C53.9469 84.4717 54.2567 84.4717 54.5651 84.4958C55.0243 84.5229 55.4802 84.5912 55.9273 84.6998C57.0274 84.967 58.0597 85.4623 58.9581 86.1539C59.3241 86.4338 59.6639 86.7467 59.9733 87.0887C60.183 87.3206 60.3743 87.5686 60.5455 87.8306C60.6152 87.9213 60.6723 88.0211 60.7153 88.1273C60.6858 88.1496 60.4126 87.7564 59.8736 87.1925C59.5552 86.8719 59.2134 86.5755 58.851 86.306C58.4049 85.9796 57.9304 85.6941 57.4335 85.4528C56.9337 85.2186 56.415 85.0275 55.883 84.8816C55.4467 84.7686 55.0024 84.6893 54.5541 84.6442C53.7862 84.544 53.3026 84.5848 53.3026 84.5478Z" fill="#263238"/>
<path d="M62.3322 83.4312C62.1777 83.4376 62.0229 83.4264 61.8708 83.3978C61.5755 83.3608 61.1509 83.3162 60.6193 83.2754C57.8585 83.0686 55.084 83.4024 52.4499 84.2584C51.9441 84.4216 51.5381 84.5663 51.2612 84.6739C51.1199 84.7366 50.9727 84.7851 50.8219 84.8185C50.949 84.7298 51.0866 84.6576 51.2317 84.6034C51.5011 84.4736 51.9035 84.3104 52.4056 84.1286C55.0417 83.1907 57.8524 82.8536 60.6341 83.1419C61.162 83.1975 61.5902 83.2606 61.8819 83.3237C62.035 83.345 62.1859 83.381 62.3322 83.4312Z" fill="#263238"/>
<path d="M90.7906 63.6046C90.7502 63.5694 90.7153 63.5281 90.6873 63.4822L90.4141 63.1113L89.41 61.7166C88.5499 60.4925 87.3464 58.7862 85.9325 56.7831L86.0876 56.7608C85.5486 58.3485 84.9543 60.0993 84.3304 61.954L84.2898 62.069L84.1864 62.0022L83.9797 61.8686C83.1753 61.3513 82.444 60.7274 81.8053 60.014C81.2151 59.3497 80.6943 58.6263 80.2512 57.8551C79.5136 56.5501 78.9395 55.1584 78.542 53.7117C78.2751 52.7346 78.0594 51.7441 77.896 50.7442C77.8369 50.4104 77.7926 50.1396 77.7557 49.9356C77.7452 49.8664 77.7292 49.7982 77.7077 49.7316C77.7077 49.6871 77.6819 49.6648 77.6855 49.6611C77.6892 49.6574 77.8369 50.032 77.9698 50.7331C78.1027 51.4342 78.3131 52.4431 78.6749 53.6635C79.0837 55.0967 79.6651 56.4744 80.4062 57.7661C80.8481 58.5228 81.3638 59.2336 81.9456 59.8878C82.5733 60.5842 83.2909 61.193 84.0794 61.698L84.2824 61.8315L84.1421 61.8835C84.7734 60.0288 85.3714 58.2891 85.9178 56.6904L85.9731 56.5271L86.0728 56.6681C87.4608 58.6897 88.6569 60.4109 89.4949 61.6424C89.8973 62.2433 90.2332 62.7218 90.4584 63.0705L90.7057 63.4414C90.7397 63.4927 90.7681 63.5474 90.7906 63.6046Z" fill="#263238"/>
<g opacity="0.3">
<path d="M102.364 80.7382C101.966 84.9237 102.868 89.1303 104.948 92.7789C107.015 96.3918 110.05 99.6152 113.826 101.344C113.948 97.6604 113.771 93.3204 113.892 89.637L102.364 80.7382Z" fill="black"/>
</g>
<path d="M101.947 75.8901C101.947 75.8901 100.33 76.3389 101.54 79.6662C102.751 82.9935 103.157 82.7895 103.966 85.898C104.774 89.0064 105.716 91.833 107.126 93.606C108.536 95.3791 113.789 98.9476 113.789 98.9476L118.5 94.4963C118.5 94.4963 117.724 91.1579 117.909 88.91C118.093 86.6621 118.566 81.1203 118.5 80.1596C118.433 79.1988 117.422 76.9139 117.422 76.9139V75.3411L115 67.8556C115 67.8556 113.652 67.2472 113.184 69.4098L112.375 67.1137C112.375 67.1137 111.098 66.9097 110.762 69.5471C110.426 72.1844 111.031 75.8344 111.031 75.8344L110.356 80.4304L109.348 83.5425L108.473 83.6761C108.473 83.6761 107.155 83.3051 106.435 80.8235C105.716 78.342 103.763 75.3485 101.947 75.8901Z" fill="#FFBE9D"/>
<path d="M116.934 87.6636C116.934 87.6636 116.934 87.608 116.912 87.4967C116.89 87.3854 116.89 87.2037 116.879 86.9996C116.853 86.5471 116.82 85.9202 116.779 85.145C116.705 83.5314 116.606 81.2835 116.488 78.661L116.506 78.7166C116.386 78.591 116.233 78.5011 116.065 78.4566C115.897 78.4121 115.72 78.4148 115.554 78.4644C115.373 78.5084 115.203 78.5882 115.053 78.699C114.904 78.8098 114.778 78.9495 114.682 79.1098C114.269 79.7738 114.247 80.6418 114.118 81.4764C113.863 83.3719 113.619 85.1858 113.398 86.8216C113.287 87.6451 113.169 88.424 113.01 89.1474C112.861 89.8182 112.665 90.4776 112.423 91.1208C112.217 91.7106 112.032 92.2336 111.917 92.7269C111.815 93.1331 111.765 93.5506 111.766 93.9696C111.779 94.33 111.841 94.6869 111.951 95.0304C111.906 94.9472 111.869 94.8604 111.84 94.7708C111.752 94.5136 111.703 94.2449 111.692 93.9733C111.675 93.5431 111.716 93.1126 111.814 92.6935C111.944 92.1429 112.105 91.6004 112.298 91.0688C112.526 90.428 112.711 89.7724 112.851 89.1066C113.003 88.3907 113.117 87.6228 113.221 86.7919C113.435 85.145 113.675 83.3422 113.926 81.443C113.985 81.0239 114.029 80.6047 114.103 80.1892C114.163 79.7694 114.304 79.3651 114.516 78.9985C114.626 78.8185 114.771 78.6622 114.941 78.5386C115.112 78.4151 115.305 78.3268 115.509 78.2789C115.708 78.2188 115.92 78.2161 116.121 78.2712C116.321 78.3263 116.502 78.437 116.643 78.5905L116.661 78.6165V78.6461C116.753 81.2687 116.831 83.5165 116.886 85.1338C116.886 85.9165 116.92 86.5434 116.934 86.9885C116.934 87.1925 116.934 87.3595 116.934 87.4856C116.941 87.5448 116.941 87.6044 116.934 87.6636Z" fill="#EB996E"/>
<path d="M114.35 79.1321C114.266 79.0001 114.199 78.858 114.151 78.7092C113.997 78.3139 113.865 77.9102 113.756 77.5C113.598 76.8911 113.485 76.2711 113.42 75.6453C113.374 75.2761 113.367 74.9032 113.398 74.5325C113.432 74.1181 113.572 73.7195 113.804 73.3751C114.011 73.0664 114.315 72.8365 114.668 72.7223L114.738 72.7037L114.775 72.7668C115.458 73.976 116.052 75.0443 116.465 75.8122L116.949 76.721C117.015 76.8275 117.067 76.9422 117.104 77.0622C117.022 76.968 116.95 76.8647 116.89 76.7544L116.358 75.8752C115.915 75.1334 115.299 74.0688 114.612 72.8632L114.719 72.9077C114.411 73.0115 114.144 73.2149 113.963 73.4864C113.75 73.8046 113.623 74.1726 113.593 74.5547C113.556 74.9173 113.556 75.2827 113.593 75.6453C113.649 76.2694 113.746 76.889 113.885 77.5C114.003 78.0193 114.132 78.4347 114.217 78.7203C114.275 78.8528 114.32 78.9907 114.35 79.1321Z" fill="#EB996E"/>
<path d="M113.221 79.7404C113.188 79.5982 113.173 79.4524 113.176 79.3064C113.176 78.9874 113.147 78.5942 113.128 78.1305C113.099 77.1364 113.066 75.764 113.047 74.2468C112.992 72.9497 113.012 71.6505 113.106 70.3557C113.152 69.9627 113.236 69.5751 113.357 69.1984C113.393 69.0563 113.452 68.9209 113.531 68.7978C113.395 69.3141 113.298 69.8398 113.239 70.3705C113.147 71.3535 113.239 72.726 113.239 74.2431C113.239 75.7603 113.269 77.1327 113.265 78.1268C113.265 78.5942 113.265 78.9874 113.265 79.3064C113.266 79.4523 113.251 79.5978 113.221 79.7404Z" fill="#EB996E"/>
<path d="M109.237 92.2076C109.212 92.1854 109.507 91.8367 109.869 91.2024C110.081 90.8324 110.265 90.4467 110.419 90.0488C110.6 89.5592 110.741 89.0555 110.84 88.5428C110.926 88.028 110.969 87.5068 110.969 86.9848C110.963 86.5586 110.926 86.1333 110.858 85.7125C110.736 84.9892 110.581 84.5589 110.614 84.5478C110.673 84.6384 110.717 84.7372 110.747 84.8408C110.851 85.1155 110.933 85.3984 110.991 85.6865C111.081 86.1125 111.133 86.5458 111.146 86.9811C111.178 88.0541 110.986 89.122 110.581 90.1155C110.418 90.5184 110.219 90.9058 109.987 91.2729C109.833 91.5218 109.659 91.7575 109.466 91.9776C109.33 92.1334 109.248 92.215 109.237 92.2076Z" fill="#EB996E"/>
<path d="M117.506 89.8893L121.593 91.3136C121.593 91.3136 125.499 89.2846 128.19 91.3136C130.881 93.3427 133.218 98.6879 132.479 100.85C132.479 100.85 130.634 103.158 129.209 103.495C127.784 103.833 122.302 102.494 120.017 102.011C117.732 101.529 113.789 98.955 113.789 98.955L117.506 89.8893Z" fill="#FFBE9D"/>
<path d="M118.009 95.9318C117.98 95.8103 117.965 95.6858 117.964 95.5609C117.964 95.2827 117.931 94.9525 117.909 94.5668C117.865 93.7285 117.809 92.5711 117.791 91.2877C117.772 90.0042 117.809 88.8432 117.883 88.0049C117.92 87.5857 117.968 87.263 118.009 87.0145C118.018 86.8872 118.046 86.7621 118.094 86.6436C118.123 86.6436 118.06 87.1629 118.02 88.0012C117.979 88.8395 117.964 89.9931 117.983 91.2729C118.001 92.5526 118.027 93.658 118.042 94.5482C118.042 94.9674 118.042 95.3086 118.042 95.5423C118.052 95.6731 118.041 95.8046 118.009 95.9318Z" fill="#EB996E"/>
<path d="M131.487 91.143C131.063 90.701 130.609 90.2895 130.128 89.9115C128.946 89.0229 127.529 88.5054 126.055 88.4242C124.581 88.343 123.116 88.7017 121.844 89.4553C121.328 89.7784 120.835 90.1365 120.368 90.5273C120.465 90.3911 120.578 90.2667 120.703 90.1563C121.036 89.8461 121.398 89.5703 121.785 89.3328C123.069 88.5293 124.568 88.1433 126.079 88.2276C127.589 88.3119 129.037 88.8624 130.224 89.8039C130.583 90.0814 130.912 90.396 131.206 90.7424C131.315 90.8644 131.409 90.9989 131.487 91.143Z" fill="#263238"/>
<path d="M130.962 87.7193C130.434 87.3382 129.863 87.0219 129.261 86.7771C127.779 86.2487 126.171 86.2007 124.661 86.6398C123.83 86.874 123.031 87.2078 122.28 87.634C121.668 87.987 121.091 88.3968 120.556 88.858C120.098 89.2512 119.747 89.5999 119.507 89.8336C119.39 89.9688 119.26 90.0929 119.12 90.2045C119.216 90.0548 119.327 89.9156 119.452 89.7891C119.771 89.4277 120.11 89.0846 120.467 88.7616C120.998 88.2802 121.575 87.8539 122.191 87.4893C122.95 87.0438 123.763 86.6985 124.609 86.4618C126.156 86.0078 127.808 86.0768 129.312 86.6584C129.761 86.8387 130.185 87.0782 130.571 87.3706C130.708 87.4707 130.8 87.5672 130.87 87.6265C130.94 87.6859 130.962 87.7155 130.962 87.7193Z" fill="#263238"/>
<path d="M130.996 84.7518C130.996 84.7889 130.257 84.57 129.083 84.4105C128.39 84.317 127.69 84.2724 126.99 84.277C126.133 84.2864 125.277 84.3633 124.432 84.5069C123.588 84.6628 122.758 84.8835 121.947 85.1672C121.287 85.4028 120.644 85.6855 120.024 86.0129C118.965 86.5694 118.367 87.0219 118.344 86.9885C118.47 86.8662 118.607 86.7569 118.754 86.6621C118.915 86.5349 119.084 86.4184 119.26 86.3134C119.463 86.1836 119.692 86.0315 119.958 85.8905C120.578 85.5457 121.224 85.2481 121.888 85.0003C122.704 84.7012 123.544 84.4728 124.399 84.3178C125.252 84.1726 126.117 84.0994 126.983 84.0989C127.691 84.1025 128.398 84.1608 129.098 84.2733C129.397 84.3103 129.663 84.3808 129.895 84.4291C130.097 84.4701 130.297 84.5221 130.493 84.5848C130.665 84.6258 130.833 84.6816 130.996 84.7518Z" fill="#263238"/>
<path d="M99.6799 48.4296C99.8329 48.7749 99.9277 49.1435 99.9604 49.5201C100.071 50.584 100.018 51.6585 99.8054 52.7065C99.6759 53.4587 99.4996 54.202 99.2775 54.9321C98.9865 55.7816 98.6285 56.6065 98.2069 57.3988C97.3246 59.1051 96.2172 60.9635 94.9325 62.9629L94.7848 63.1966V62.9184C94.7848 61.6053 94.7848 60.2291 94.7848 58.801L94.9288 58.8715L91.4624 61.6498L91.4919 61.6053C90.6697 64.3129 90.1642 67.1076 89.9858 69.9328C89.6462 74.4471 89.9193 78.7648 90.1298 82.6819C90.3402 86.599 90.4325 90.1341 90.5543 93.1016C90.6761 96.0691 90.7758 98.4653 90.8644 100.123C90.9161 100.947 90.953 101.585 90.9788 102.03C90.9788 102.241 91.0047 102.401 91.012 102.527C91.0194 102.653 91.012 102.698 91.012 102.698C91.012 102.698 91.012 102.642 90.9862 102.531C90.9604 102.419 90.9567 102.245 90.9345 102.034C90.8939 101.6 90.8422 100.958 90.7869 100.127C90.6761 98.4727 90.5469 96.0728 90.4177 93.1053C90.2885 90.1378 90.1298 86.6101 89.9526 82.6893C89.7754 78.7685 89.4542 74.4471 89.7938 69.918C89.9805 67.0759 90.4997 64.2659 91.3406 61.5459V61.5199H91.3627L94.8181 58.7342L94.962 58.6155V58.801C94.962 60.2291 94.962 61.6053 94.962 62.9184L94.8107 62.8702C97.3468 58.9197 99.4104 55.4848 99.7279 52.7065C99.9471 51.6684 100.014 50.6037 99.9272 49.5461C99.897 49.2682 99.8465 48.993 99.7758 48.7226C99.702 48.5223 99.6799 48.4296 99.6799 48.4296Z" fill="#263238"/>
<path d="M93.0573 96.2768H92.9392C92.6703 96.2941 92.4188 96.4159 92.2377 96.6162C92.0566 96.8166 91.9602 97.0799 91.9688 97.3504C91.9774 97.6209 92.0904 97.8775 92.2839 98.0657C92.4774 98.254 92.7362 98.3593 93.0056 98.3593C93.275 98.3593 93.5338 98.254 93.7273 98.0657C93.9208 97.8775 94.0338 97.6209 94.0424 97.3504C94.051 97.0799 93.9546 96.8166 93.7735 96.6162C93.5924 96.4159 93.3409 96.2941 93.072 96.2768H93.0573Z" fill="white"/>
<path d="M93.0573 81.9809H92.9391C92.6713 81.9982 92.4207 82.1195 92.2403 82.3192C92.0599 82.5189 91.9638 82.7812 91.9725 83.0508C91.9811 83.3203 92.0937 83.5759 92.2865 83.7635C92.4793 83.9511 92.7372 84.056 93.0056 84.056C93.2739 84.056 93.5318 83.9511 93.7246 83.7635C93.9174 83.5759 94.03 83.3203 94.0387 83.0508C94.0473 82.7812 93.9513 82.5189 93.7709 82.3192C93.5905 82.1195 93.3398 81.9982 93.072 81.9809H93.0573Z" fill="white"/>
<path d="M92.9391 69.1909C93.2147 69.2091 93.4862 69.1166 93.6939 68.9336C93.9016 68.7507 94.0285 68.4923 94.0466 68.2154C94.0647 67.9384 93.9726 67.6656 93.7905 67.4569C93.6084 67.2482 93.3513 67.1208 93.0757 67.1026H92.9391C92.663 67.1026 92.3982 67.2128 92.203 67.4089C92.0078 67.6051 91.8981 67.8712 91.8981 68.1486C91.8981 68.426 92.0078 68.6921 92.203 68.8883C92.3982 69.0844 92.663 69.1947 92.9391 69.1947V69.1909Z" fill="white"/>
<path d="M76.9805 31.6781C75.6884 30.2351 74.3964 28.781 73.4403 27.0896C72.4841 25.3981 71.9341 23.421 72.2442 21.5255C72.4288 20.4127 72.9013 19.337 72.9825 18.1871C73.0859 16.6291 72.4361 15.0007 72.9825 13.5429C73.8389 11.2579 76.8993 10.9056 78.7524 9.32908C80.1958 8.10127 80.8972 6.10934 82.4846 5.07813C83.8726 4.17304 85.6557 4.1953 87.2837 4.42528C88.9116 4.65526 90.5655 5.07442 92.2045 4.85186C93.3711 4.69607 94.4712 4.22127 95.6118 3.93564C96.7525 3.65002 98.0335 3.56471 99.0487 4.17304C100.064 4.78138 100.64 6.21691 99.9716 7.19247C101.869 6.31335 104.28 7.80081 104.8 9.83355C105.321 11.8663 104.28 14.0659 102.67 15.3976C101.061 16.7293 98.9786 17.3636 96.9297 17.7531C91.1192 18.8659 84.8103 18.2316 79.8008 15.0712" fill="#263238"/>
<path d="M97.4206 51.3117C97.1364 49.0861 96.9038 47.2574 96.889 47.0274C96.889 47.0274 104.243 45.3656 103.837 37.8949C103.641 34.282 102.637 26.8781 101.647 20.1901C101.139 16.7231 99.349 13.5759 96.6342 11.3759C93.9193 9.17598 90.4791 8.08487 86.9993 8.32011L86.261 8.36462C78.5641 9.34019 75.0829 16.4548 76.2642 24.1628L80.4209 50.0061C80.4209 50.0061 82.1929 55.7222 85.9841 56.7126L90.7832 63.5824L91.5732 60.6149L95.1392 57.4916C95.8226 56.6841 96.4133 55.8019 96.9001 54.8616C97.4446 53.764 97.6269 52.5206 97.4206 51.3117Z" fill="#FFBE9D"/>
<path d="M96.8928 46.9236C96.8928 46.9236 92.2229 47.6209 87.0215 44.8055C87.0215 44.8055 89.672 50.0246 97.0404 48.8561L96.8928 46.9236Z" fill="#EB996E"/>
<path d="M99.2591 26.6147C99.2798 26.8927 99.1919 27.1679 99.0141 27.3819C98.8363 27.5958 98.5826 27.7318 98.3067 27.7609C98.1724 27.7807 98.0354 27.7732 97.9041 27.7389C97.7727 27.7046 97.6495 27.6441 97.5417 27.5611C97.434 27.4781 97.3439 27.3743 97.2769 27.2557C97.2098 27.1371 97.1671 27.0062 97.1512 26.8707C97.1266 26.5905 97.2133 26.3119 97.3924 26.0957C97.5716 25.8796 97.8286 25.7434 98.1073 25.7171C98.2419 25.6979 98.379 25.706 98.5104 25.741C98.6418 25.7761 98.7649 25.8373 98.8723 25.921C98.9797 26.0047 99.0693 26.1093 99.1357 26.2284C99.2022 26.3476 99.2441 26.479 99.2591 26.6147Z" fill="#263238"/>
<path d="M100.296 23.9663C100.175 24.1146 99.3292 23.5693 98.1885 23.651C97.0478 23.7326 96.2615 24.3594 96.1139 24.2333C96.0511 24.1777 96.1692 23.918 96.5162 23.625C96.9864 23.2473 97.5617 23.0256 98.1627 22.9907C98.7572 22.9473 99.3498 23.0968 99.8534 23.4173C100.223 23.6547 100.355 23.8995 100.296 23.9663Z" fill="#263238"/>
<path d="M88.4723 27.39C88.494 27.6678 88.4063 27.943 88.2283 28.1566C88.0502 28.3702 87.7959 28.5052 87.5199 28.5325C87.3858 28.5528 87.249 28.5458 87.1176 28.512C86.9863 28.4781 86.863 28.418 86.7552 28.3353C86.6474 28.2526 86.5573 28.1489 86.4901 28.0305C86.423 27.9121 86.3803 27.7813 86.3645 27.646C86.3437 27.3685 86.431 27.0939 86.6081 26.88C86.7851 26.6661 87.038 26.5298 87.3132 26.4998C87.4477 26.48 87.5848 26.4874 87.7164 26.5217C87.8481 26.556 87.9715 26.6164 88.0795 26.6993C88.1876 26.7823 88.278 26.8862 88.3454 27.0048C88.4129 27.1234 88.456 27.2544 88.4723 27.39Z" fill="#263238"/>
<path d="M89.0888 24.9344C88.9633 25.0828 88.1216 24.5375 86.9809 24.6191C85.8402 24.7007 85.0391 25.3276 84.9062 25.1941C84.8398 25.1384 84.9579 24.8788 85.3049 24.5857C85.7768 24.2086 86.3531 23.9871 86.9551 23.9514C87.5484 23.9086 88.1397 24.0581 88.6421 24.378C89.0113 24.6228 89.1479 24.8676 89.0888 24.9344Z" fill="#263238"/>
<path d="M93.7955 33.1655C93.7955 33.0987 94.4895 32.9281 95.6413 32.7018C95.9292 32.6536 96.2024 32.5757 96.2393 32.3754C96.243 32.0704 96.1541 31.7716 95.9846 31.5186L94.9731 29.3449C93.5666 26.2512 92.5256 23.6955 92.6511 23.6398C92.7766 23.5842 94.017 26.0472 95.4272 29.1446L96.4018 31.3331C96.6083 31.6741 96.6893 32.0771 96.6306 32.4719C96.5949 32.5777 96.5358 32.674 96.4578 32.7536C96.3798 32.8333 96.285 32.8942 96.1803 32.9318C96.0216 32.9872 95.8567 33.0221 95.6893 33.0357C94.5228 33.1766 93.8066 33.2286 93.7955 33.1655Z" fill="#263238"/>
<path d="M89.0814 20.4164C88.9891 20.7391 87.8411 20.6649 86.4973 20.9172C85.1536 21.1694 84.1089 21.6108 83.9132 21.3437C83.8246 21.2139 83.9944 20.9097 84.4116 20.5759C84.9703 20.1685 85.6136 19.8934 86.2932 19.7713C86.9728 19.6493 87.6711 19.6834 88.3357 19.8711C88.8562 20.038 89.122 20.268 89.0814 20.4164Z" fill="#263238"/>
<path d="M99.654 20.6723C99.4732 20.9468 98.6684 20.7317 97.7197 20.7799C96.7709 20.8281 95.9846 21.0729 95.7816 20.8133C95.693 20.6872 95.8037 20.4164 96.1507 20.1456C96.6017 19.8197 97.1385 19.6351 97.6937 19.6153C98.2488 19.5955 98.7973 19.7413 99.2701 20.0343C99.6097 20.2791 99.7353 20.524 99.654 20.6723Z" fill="#263238"/>
<path d="M77.2573 29.6713C77.1281 29.6268 72.0522 28.4991 72.5542 33.5921C73.0563 38.685 78.5419 37.0232 78.5419 36.8786C78.5419 36.7339 77.2573 29.6713 77.2573 29.6713Z" fill="#FFBE9D"/>
<path d="M76.2975 35.2057C76.2717 35.2057 76.2163 35.2762 76.0723 35.3578C75.8723 35.47 75.6365 35.4993 75.4152 35.4394C74.8578 35.2947 74.3077 34.4861 74.2081 33.5847C74.1529 33.1494 74.1945 32.7073 74.3299 32.2901C74.363 32.1273 74.4346 31.9749 74.5387 31.8457C74.6428 31.7166 74.7763 31.6146 74.9279 31.5482C75.0271 31.5115 75.1359 31.5106 75.2357 31.5458C75.3354 31.581 75.4198 31.6501 75.4743 31.7411C75.5555 31.8784 75.5334 31.9822 75.5592 31.9859C75.585 31.9897 75.6589 31.8932 75.5998 31.6855C75.5582 31.5618 75.4762 31.456 75.3672 31.385C75.2921 31.3344 75.2078 31.2991 75.1191 31.2813C75.0304 31.2635 74.9391 31.2634 74.8504 31.2812C74.6468 31.3439 74.4626 31.458 74.3152 31.6125C74.1679 31.767 74.0624 31.9569 74.0087 32.164C73.8357 32.6264 73.7786 33.1245 73.8426 33.6144C73.9755 34.6381 74.5809 35.5469 75.3451 35.6842C75.4855 35.711 75.6302 35.7056 75.7683 35.6683C75.9064 35.6311 76.0343 35.563 76.1425 35.469C76.3012 35.3281 76.327 35.2131 76.2975 35.2057Z" fill="#EB996E"/>
<path d="M101.275 13.235C100.928 15.2641 96.8448 17.1225 93.4412 17.0223C90.3144 16.9296 88.7676 15.3716 86.4973 14.2625C85.0576 13.5615 85.0576 13.5615 83.1048 13.8916C81.5285 14.1475 80.7089 16.0208 79.823 17.3562C81.51 21.0655 80.8271 25.3536 80.1109 29.3597C80.08 29.8115 79.8994 30.2399 79.5978 30.5764C79.0293 31.0808 78.1211 30.7804 77.5453 30.2648C76.6482 29.4376 76.2384 28.2135 75.9468 27.0265C75.2315 24.3267 75.0608 21.5105 75.4448 18.7435C75.8328 15.9629 77.0239 13.3578 78.8705 11.2505C81.2856 8.69343 84.5945 7.17863 88.0995 7.02555C91.587 6.89995 95.0252 7.88112 97.9265 9.82983C99.2702 10.7164 100.511 11.8106 101.286 13.2313" fill="#263238"/>
<path d="M94.545 35.7324L91.9609 34.5231C91.8192 34.4389 91.6564 34.3977 91.492 34.4044C91.3103 34.4456 91.1507 34.5542 91.0453 34.7086C90.7425 35.0729 90.5535 35.519 90.5023 35.9909C90.4511 36.4628 90.5398 36.9394 90.7574 37.3608C90.9939 37.7712 91.3659 38.0856 91.8088 38.2496C92.2517 38.4135 92.7378 38.4167 93.1828 38.2585C94.0983 37.8875 94.5413 36.8081 94.6151 35.814L94.545 35.7324Z" fill="#EB996E"/>
<path d="M93.2639 38.4514C93.2639 38.4736 93.1421 38.5478 92.8948 38.6035C92.5246 38.6702 92.1438 38.6422 91.7873 38.5219C91.2423 38.3374 90.7854 37.9551 90.5063 37.4498C90.3297 37.142 90.2238 36.7984 90.1964 36.4441C90.1689 36.0898 90.2206 35.7339 90.3476 35.4023C90.4775 35.0586 90.6817 34.7482 90.9456 34.4935C91.0737 34.3718 91.2148 34.2648 91.3664 34.1745C91.4573 34.1201 91.5599 34.0883 91.6655 34.0817C91.768 34.0776 91.8702 34.0966 91.9645 34.1374C92.1024 34.2072 92.2367 34.284 92.3669 34.3674L92.7176 34.5862L93.3488 34.9794C94.113 35.469 94.5744 35.7955 94.5486 35.84C94.5227 35.8845 94.0133 35.6471 93.2122 35.2168L92.5588 34.8459L92.1897 34.6418C92.0642 34.5788 91.9313 34.4935 91.8205 34.449C91.775 34.4271 91.7244 34.4182 91.6742 34.4235C91.624 34.4287 91.5763 34.4478 91.5363 34.4786C91.4137 34.5563 91.2998 34.6471 91.1966 34.7494C90.9775 34.9686 90.8065 35.2314 90.6946 35.521C90.5875 35.8019 90.5419 36.1027 90.561 36.403C90.5801 36.7032 90.6635 36.9957 90.8053 37.2607C91.0354 37.7046 91.4128 38.0537 91.8722 38.2474C92.19 38.376 92.53 38.4403 92.8726 38.4365C93.1163 38.4477 93.2528 38.4254 93.2639 38.4514Z" fill="#263238"/>
<path d="M92.4481 26.7446C92.4114 26.3099 92.3436 25.8785 92.2451 25.4537C92.0623 24.7434 91.7336 24.0795 91.2802 23.5044C90.8268 22.9294 90.2587 22.456 89.6124 22.1147C88.9661 21.7734 88.2559 21.5717 87.5275 21.5226C86.799 21.4735 86.0683 21.5781 85.3825 21.8297C84.9097 22.0001 84.4654 22.2415 84.0646 22.5456C83.6372 22.8531 83.2631 23.229 82.9571 23.6584C82.2992 24.5522 81.9441 25.6346 81.9441 26.7464C81.9441 27.8582 82.2992 28.9406 82.9571 29.8345C83.2631 30.2639 83.6372 30.6398 84.0646 30.9473C84.4654 31.2514 84.9097 31.4928 85.3825 31.6632C86.0685 31.9124 86.7986 32.0151 87.5263 31.965C88.2541 31.9148 88.9634 31.7128 89.6091 31.3718C90.2548 31.0308 90.8227 30.5583 91.2765 29.9845C91.7304 29.4107 92.0603 28.7482 92.2451 28.0391C92.3431 27.6155 92.411 27.1853 92.4481 26.752C92.4524 26.7803 92.4524 26.809 92.4481 26.8373C92.4481 26.9041 92.4481 26.9894 92.4481 27.0895C92.4514 27.2274 92.4415 27.3653 92.4186 27.5013C92.398 27.6888 92.3647 27.8747 92.3189 28.0577C92.202 28.5627 92.0091 29.0468 91.7467 29.4932C91.1162 30.5761 90.128 31.4028 88.9539 31.8297C87.7798 32.2566 86.4939 32.2568 85.3197 31.8301C84.8305 31.6543 84.3711 31.4041 83.9575 31.0882C83.5168 30.771 83.1303 30.3839 82.8131 29.942C82.1312 29.0161 81.7632 27.8946 81.7632 26.7427C81.7632 25.5908 82.1312 24.4693 82.8131 23.5434C83.128 23.1009 83.5134 22.7136 83.9538 22.3972C84.3674 22.0813 84.8268 21.8311 85.316 21.6553C86.2207 21.3289 87.1958 21.252 88.1401 21.4327C88.8876 21.5764 89.5958 21.8791 90.2173 22.3206C90.8387 22.7621 91.3589 23.332 91.743 23.9922C92.0054 24.4387 92.1983 24.9228 92.3152 25.4277C92.361 25.6107 92.3943 25.7966 92.4149 25.9841C92.4378 26.1201 92.4477 26.258 92.4444 26.3959C92.4444 26.496 92.4444 26.5814 92.4444 26.6481C92.4505 26.6799 92.4517 26.7124 92.4481 26.7446Z" fill="#263238"/>
<path d="M105.088 26.2438C105.052 25.8206 104.987 25.4004 104.892 24.9863C104.597 23.8644 103.933 22.8753 103.01 22.1783C102.38 21.6974 101.647 21.3733 100.869 21.2324C99.976 21.0678 99.0558 21.1459 98.2033 21.4587C97.7447 21.6254 97.3131 21.8591 96.9223 22.1524C96.5112 22.4548 96.1499 22.8203 95.8518 23.2355C95.2137 24.1075 94.8695 25.1615 94.8695 26.2438C94.8695 27.3261 95.2137 28.3801 95.8518 29.2521C96.1491 29.667 96.5105 30.0314 96.9223 30.3315C97.3121 30.6273 97.7439 30.8624 98.2033 31.0289C99.0562 31.3399 99.9759 31.418 100.869 31.2552C101.647 31.1143 102.38 30.7902 103.01 30.3093C103.933 29.6123 104.597 28.6232 104.892 27.5013C104.987 27.0872 105.052 26.667 105.088 26.2438C105.097 26.3537 105.097 26.4641 105.088 26.5739C105.089 26.7093 105.08 26.8445 105.059 26.9783C105.039 27.1608 105.007 27.3417 104.963 27.5198C104.727 28.4913 104.22 29.3746 103.5 30.065C102.78 30.7553 101.879 31.2237 100.902 31.4147C99.9809 31.5894 99.0302 31.5138 98.1479 31.1958C97.1723 30.8387 96.3225 30.2015 95.7041 29.3634C95.0399 28.4602 94.6814 27.3668 94.6814 26.2438C94.6814 25.1208 95.0399 24.0274 95.7041 23.1242C96.3225 22.2861 97.1723 21.6489 98.1479 21.2918C99.0302 20.9738 99.9809 20.8982 100.902 21.0729C101.879 21.2639 102.78 21.7323 103.5 22.4226C104.22 23.113 104.727 23.9963 104.963 24.9678C105.007 25.1459 105.039 25.3268 105.059 25.5093C105.08 25.6431 105.089 25.7783 105.088 25.9137C105.097 26.0235 105.097 26.1339 105.088 26.2438Z" fill="#263238"/>
<path d="M94.7849 25.0717C94.7628 25.0902 94.6409 24.9901 94.4157 24.8825C94.1254 24.7436 93.807 24.6738 93.4855 24.6785C93.1647 24.6831 92.8495 24.7645 92.5663 24.9159C92.3448 25.0309 92.2266 25.1384 92.1971 25.1162C92.1676 25.0939 92.2636 24.953 92.485 24.7972C92.7768 24.5975 93.1202 24.488 93.4731 24.482C93.826 24.4761 94.1729 24.574 94.4711 24.7638C94.6963 24.9122 94.7849 25.0568 94.7849 25.0717Z" fill="#263238"/>
<path d="M82.1782 25.9879C81.4477 26.6546 80.6758 27.274 79.8673 27.8425C79.0938 28.4606 78.2826 29.0292 77.4382 29.5451C78.1679 28.876 78.9412 28.2564 79.7528 27.6905C80.524 27.0711 81.3342 26.5024 82.1782 25.9879Z" fill="#263238"/>
<g opacity="0.3">
<path d="M77.8036 50.1285C77.2905 55.1621 79.1953 60.4776 83.2154 63.5267C83.5292 63.7678 83.9242 64.0052 84.2971 63.868C84.5457 63.747 84.7442 63.5422 84.8582 63.2893C85.984 61.3348 86.4064 59.0506 86.0543 56.8202C85.4193 58.5042 84.873 60.1586 84.2306 61.9169C80.7347 59.7803 78.5419 55.24 77.8036 50.1285Z" fill="black"/>
</g>
<path opacity="0.3" d="M91.4144 61.5756L94.3677 60.4925L94.855 65.5038C94.855 65.5038 98.0371 59.6764 99.355 57.0205C100.673 54.3646 99.9936 49.6685 99.9936 49.6685C99.9936 49.6685 100.462 53.7488 97.2767 58.9679L94.8697 62.8998V58.7825L91.4144 61.5756Z" fill="black"/>
<g opacity="0.3">
<path d="M57.1308 87.0442C55.7845 86.4695 54.3055 86.2833 52.8597 86.5063C51.319 86.6329 49.845 87.1935 48.607 88.1236C47.4109 89.0917 46.6025 90.62 46.7612 92.1557L46.9089 92.1742C47.9388 89.3774 49.984 87.352 52.6234 87.0961C55.2629 86.8401 57.8359 88.0271 59.6374 89.9746C59.4418 88.5205 58.4303 87.6636 57.1308 87.0442Z" fill="black"/>
</g>
<g opacity="0.3">
<path d="M131.679 89.8893C130.655 88.8341 129.318 88.1426 127.869 87.9196C126.607 87.7073 125.313 87.7828 124.084 88.1404C122.854 88.498 121.72 89.1287 120.766 89.9857L121.327 89.5257C122.755 88.6619 124.394 88.2149 126.06 88.2349C127.732 88.2636 129.336 88.9077 130.567 90.0451C131.675 91.0985 132.336 92.5266 132.967 93.9176C133.069 93.192 133.006 92.4525 132.783 91.7548C132.56 91.057 132.182 90.4192 131.679 89.8893Z" fill="black"/>
</g>
<path d="M112.671 66.6315C112.701 66.4924 112.745 66.3569 112.803 66.2272C112.918 65.9341 113.058 65.5743 113.221 65.1477C113.59 64.2389 114.07 62.9852 114.586 61.5867C115.103 60.1883 115.55 58.916 115.871 57.9961L116.24 56.9018C116.28 56.7651 116.334 56.6333 116.403 56.5086C116.391 56.6507 116.36 56.7905 116.31 56.9241C116.24 57.1911 116.13 57.5695 115.986 58.0369C115.698 58.9716 115.269 60.2625 114.753 61.6535C114.236 63.0445 113.723 64.3057 113.331 65.1997C113.139 65.6485 112.962 66.0083 112.855 66.2568C112.809 66.3889 112.747 66.5147 112.671 66.6315Z" fill="#263238"/>
<path d="M66.1309 66.995C66.0792 66.995 65.6768 65.2405 65.2339 63.0519C64.7909 60.8634 64.4734 59.1015 64.514 59.0718C64.5546 59.0421 64.9644 60.8263 65.4074 63.0148C65.8504 65.2034 66.1826 66.9839 66.1309 66.995Z" fill="#263238"/>
<path d="M65.4331 89.062C65.5513 89.1214 64.082 77.5036 64.082 77.5036C64.082 77.5036 65.0086 68.6865 65.5291 68.2784V65.1663C65.5291 65.1663 66.9652 64.2946 67.3491 65.7041C67.3491 65.7041 68.6227 64.5913 68.8257 67.2361C69.0287 69.8809 69.0952 72.5813 69.0952 72.5813L71.9266 79.6959L72.3918 79.9333C72.3918 79.9333 73.0009 74.3692 73.3553 73.5383C73.7097 72.7074 73.9533 70.7229 75.2934 71.0234C76.6334 71.3238 76.7478 72.4366 76.5079 74.2542C76.2679 76.0718 75.9652 77.9636 76.0796 79.1283C76.1941 80.2931 76.722 82.886 76.5596 84.9409C76.3971 86.9959 75.2749 89.1622 74.101 90.6831C72.927 92.2039 70.6789 95.3532 69.4607 96.299C69.0657 96.6329 65.4331 89.062 65.4331 89.062Z" fill="#FFBE9D"/>
<path d="M66.8655 79.6069C66.847 79.4417 66.847 79.275 66.8655 79.1098C66.8877 78.7389 66.9209 78.3012 66.9578 77.7596C67.0427 76.6208 67.1756 75.048 67.3269 73.3083C67.4082 72.4441 67.4857 71.6206 67.5558 70.8639C67.598 70.5152 67.598 70.1628 67.5558 69.8141C67.5165 69.5156 67.3878 69.2361 67.1867 69.0129C67.0391 68.853 66.8604 68.7254 66.6616 68.6379C66.4628 68.5505 66.2482 68.5052 66.0312 68.5047C65.8688 68.5124 65.7071 68.5322 65.5476 68.5641C65.5839 68.5386 65.6237 68.5186 65.6657 68.5047C65.7842 68.4601 65.9086 68.4338 66.0349 68.4268C66.2677 68.4135 66.5006 68.4506 66.7178 68.5357C66.935 68.6209 67.1314 68.752 67.2937 68.9202C67.5169 69.161 67.6601 69.4656 67.7035 69.7919C67.7498 70.1527 67.7498 70.5179 67.7035 70.8787C67.637 71.6206 67.5632 72.4626 67.4894 73.3269C67.3306 75.0629 67.1756 76.632 67.0538 77.7781L66.9024 79.1247C66.9039 79.2862 66.8915 79.4475 66.8655 79.6069Z" fill="#EB996E"/>
<path d="M68.3865 74.8552C68.1803 75.1374 68.0115 75.4454 67.8844 75.7714C67.6593 76.5927 67.5024 77.4315 67.4156 78.2789C67.2605 79.273 67.1129 80.1707 66.9947 80.8198C66.9519 81.1739 66.8752 81.5229 66.7659 81.8622C66.7673 81.5052 66.7994 81.149 66.8618 80.7976C66.9431 80.1447 67.0723 79.2434 67.231 78.2492C67.3897 77.2551 67.4931 76.3463 67.7663 75.7232C67.8634 75.479 67.9993 75.2522 68.1687 75.0518C68.2905 74.9034 68.3791 74.8478 68.3865 74.8552Z" fill="#EB996E"/>
<path d="M67.3455 65.5521C67.3969 65.67 67.4305 65.7951 67.4451 65.923C67.4968 66.1604 67.5596 66.5054 67.6297 66.9357C67.77 67.7925 67.925 68.9832 68.0247 70.3075C68.1244 71.6317 68.1428 72.8336 68.1281 73.7015C68.1281 74.1355 68.1096 74.4879 68.0912 74.729C68.0943 74.8542 68.0793 74.9791 68.0469 75.1C68.0021 74.634 67.9836 74.1659 67.9915 73.6978C67.973 72.8299 67.9287 71.6354 67.8327 70.3186C67.7368 69.0018 67.6039 67.8111 67.4968 66.9505C67.4188 66.4878 67.3683 66.0208 67.3455 65.5521Z" fill="#EB996E"/>
<path d="M75.5149 76.4428C75.3749 76.5336 75.2149 76.5885 75.0488 76.6028C74.8828 76.617 74.7158 76.5901 74.5625 76.5244C74.0198 76.3612 73.7688 75.942 73.8242 75.9235C74.0784 76.0856 74.3464 76.2247 74.6252 76.3389C74.9184 76.3983 75.216 76.433 75.5149 76.4428Z" fill="#EB996E"/>
<path d="M65.592 87.6154L58.1128 90.7758H53.6534C53.6534 90.7758 49.2457 92.1594 48.5664 96.3139C47.8872 100.468 47.7912 102.601 49.7293 103.117C51.6674 103.632 57.142 103.688 59.8553 102.783C62.5686 101.878 69.6785 96.1062 69.6785 96.1062L70.3615 91.9368L65.592 87.6154Z" fill="#FFBE9D"/>
<path d="M67.3454 92.2076C67.3454 92.2076 67.2605 92.1445 67.1313 92.011C66.9532 91.8171 66.7915 91.6086 66.6477 91.3878C66.1794 90.6542 65.827 89.8521 65.603 89.0101C65.3714 88.1755 65.217 87.3212 65.1415 86.4581C65.0918 86.1017 65.0819 85.7409 65.112 85.3824C65.192 85.7302 65.2463 86.0836 65.2744 86.4395C65.3884 87.2898 65.5598 88.1313 65.7875 88.9582C66.0104 89.7833 66.338 90.5762 66.7621 91.3174C67.0981 91.8775 67.3712 92.1816 67.3454 92.2076Z" fill="#EB996E"/>
<path d="M70.6051 93.5244C70.8031 93.0045 70.9454 92.4648 71.0296 91.9146C71.1971 90.5725 70.8368 89.2177 70.0255 88.1384C69.5714 87.5004 69.0583 86.944 68.6264 86.4024C68.233 85.9302 67.8937 85.4151 67.6149 84.8668C67.4318 84.4925 67.3073 84.0922 67.2457 83.6798C67.2231 83.5298 67.2231 83.3772 67.2457 83.2272C67.3323 83.7763 67.5042 84.3083 67.7552 84.8037C68.0459 85.3331 68.3911 85.8304 68.7851 86.2875C69.217 86.8142 69.7339 87.3706 70.199 88.0234C70.6515 88.6357 70.9698 89.3373 71.133 90.0821C71.2587 90.6926 71.275 91.3207 71.181 91.9368C71.1189 92.3479 71.0048 92.7493 70.8413 93.1312C70.7823 93.2648 70.7269 93.3649 70.69 93.4317C70.6531 93.4985 70.6088 93.5281 70.6051 93.5244Z" fill="#EB996E"/>
<path d="M59.0688 75.4227C58.4054 74.3415 57.7967 73.2272 57.2452 72.0842C56.2854 70.2296 55.5471 68.6865 55.5914 68.6605C56.2549 69.7417 56.8635 70.8559 57.415 71.9989C58.024 73.1111 58.576 74.2538 59.0688 75.4227Z" fill="white"/>
<path d="M71.1588 61.8872C71.4735 60.9362 71.8497 60.0069 72.2847 59.1051C72.6624 58.1785 73.0976 57.2765 73.5879 56.4047C73.2712 57.3549 72.8951 58.2841 72.4619 59.1868C72.0852 60.1139 71.65 61.0158 71.1588 61.8872Z" fill="white"/>
<path d="M83.0198 70.671C82.4073 70.0788 81.8397 69.4415 81.3217 68.7643C80.7571 68.1272 80.2401 67.449 79.7749 66.7353C80.3879 67.3259 80.9544 67.9634 81.4693 68.6419C82.0357 69.2785 82.554 69.9568 83.0198 70.671Z" fill="white"/>
<path d="M80.2917 82.7524C80.6663 82.0743 81.0934 81.4269 81.569 80.8161C81.9973 80.1705 82.4776 79.5614 83.0051 78.9948C82.6315 79.6735 82.2044 80.321 81.7278 80.9311C81.3019 81.5784 80.8214 82.1877 80.2917 82.7524Z" fill="white"/>
<path d="M76.6223 99.8192C76.45 99.5897 76.3051 99.3407 76.1904 99.0774C75.9468 98.6026 75.633 97.9386 75.3155 97.193C74.998 96.4474 74.7433 95.7538 74.5772 95.253C74.4668 94.9861 74.3875 94.7073 74.3409 94.4221C74.493 94.6682 74.6168 94.9307 74.7101 95.2048L75.5038 97.1151C75.8102 97.8236 76.0834 98.4653 76.3233 99.018C76.4523 99.2731 76.5526 99.5418 76.6223 99.8192Z" fill="white"/>
<path d="M87.0326 92.5637C86.2777 92.5135 85.5282 92.4006 84.7918 92.2262C84.04 92.1143 83.2989 91.9381 82.5769 91.6994C84.0751 91.8617 85.557 92.1508 87.0068 92.5637H87.0326Z" fill="white"/>
<path d="M95.1541 76.6171C95.8155 75.7562 96.528 74.9362 97.2878 74.1615C98.0022 73.3408 98.7639 72.5629 99.5692 71.832C98.9051 72.693 98.1914 73.5142 97.4318 74.2913C96.7175 75.1098 95.957 75.8863 95.1541 76.6171Z" fill="white"/>
<path d="M103.275 97.8829C103.235 97.92 102.042 96.529 100.61 94.7856C99.1778 93.0422 98.0519 91.5956 98.0925 91.5622C98.1331 91.5288 99.3255 92.9161 100.758 94.6595C102.19 96.4029 103.309 97.8496 103.275 97.8829Z" fill="white"/>
<path d="M52.7748 88.821C52.8006 88.8729 51.7116 89.4293 50.5229 90.3455C49.3342 91.2617 48.5073 92.1668 48.463 92.126C48.5972 91.8912 48.7665 91.6785 48.9651 91.4954C49.4072 91.021 49.8888 90.5854 50.4048 90.1934C50.9185 89.7994 51.4643 89.4495 52.0365 89.1474C52.2655 89.0031 52.5142 88.8931 52.7748 88.821Z" fill="white"/>
<path d="M55.8167 80.6158C55.5821 81.1406 55.2912 81.6382 54.9491 82.0996C54.6577 82.5964 54.3123 83.0592 53.9192 83.4795C54.1544 82.9549 54.4452 82.4575 54.7867 81.9957C55.0774 81.4983 55.4229 81.0354 55.8167 80.6158Z" fill="white"/>
<path d="M62.6681 88.6726C62.0771 87.7282 61.8244 86.6093 61.952 85.5011C62.0073 85.5011 62.0258 86.2429 62.2288 87.1072C62.4319 87.9715 62.7198 88.6466 62.6681 88.6726Z" fill="white"/>
<path d="M63.6833 63.1076C63.2243 63.2685 62.7467 63.3695 62.2621 63.408C61.7854 63.5087 61.2975 63.5449 60.8113 63.5156C61.2716 63.3549 61.7504 63.254 62.2362 63.2152C62.7119 63.1167 63.1984 63.0806 63.6833 63.1076Z" fill="white"/>
<path d="M68.8295 53.9343C68.0344 54.5255 67.1656 55.0093 66.2454 55.3735C66.6232 55.0516 67.0414 54.781 67.4894 54.5686C67.9076 54.301 68.3579 54.0879 68.8295 53.9343Z" fill="white"/>
<path d="M83.3041 57.8106C82.7825 57.2775 82.3059 56.7018 81.8792 56.0894C81.4055 55.5141 80.9807 54.8999 80.6093 54.2533C81.6081 55.3586 82.5097 56.5489 83.3041 57.8106Z" fill="white"/>
<path d="M101.677 67.0321C100.659 66.0244 99.8941 64.7888 99.4436 63.4266C99.499 63.4043 99.894 64.2686 100.514 65.259C101.134 66.2494 101.721 66.995 101.677 67.0321Z" fill="white"/>
<path d="M108.691 69.3542C108.246 70.6582 107.677 71.9165 106.993 73.1117C107.19 72.4507 107.446 71.8089 107.757 71.194C108.01 70.5524 108.322 69.9363 108.691 69.3542Z" fill="white"/>
<path d="M109.673 59.7357C109.002 59.081 108.378 58.3794 107.805 57.6362C107.183 56.9347 106.609 56.1911 106.089 55.4106C107.38 56.7684 108.578 58.2135 109.673 59.7357Z" fill="white"/>
<path d="M98.9601 51.9238C98.8431 51.3328 98.7874 50.7311 98.7939 50.1285C98.7383 49.5271 98.747 48.9215 98.8198 48.322C98.9368 48.9131 98.9925 49.5148 98.9859 50.1174C99.0439 50.7186 99.0352 51.3245 98.9601 51.9238Z" fill="white"/>
<path d="M107.705 51.4379C106.957 51.6349 106.194 51.7702 105.424 51.8422C104.663 51.9765 103.893 52.0472 103.12 52.0536C103.869 51.8565 104.632 51.7213 105.402 51.6493C106.163 51.5149 106.933 51.4441 107.705 51.4379Z" fill="white"/>
<path d="M121.449 61.5904C120.936 60.7451 120.478 59.868 120.076 58.9642C119.619 58.0872 119.22 57.1815 118.88 56.2527C119.394 57.0974 119.854 57.9746 120.257 58.8789C120.712 59.7561 121.11 60.6618 121.449 61.5904Z" fill="white"/>
<path d="M119.149 70.3631C119.304 68.9463 119.583 67.5461 119.984 66.1789C119.939 66.8906 119.832 67.597 119.662 68.2896C119.555 68.995 119.383 69.6891 119.149 70.3631Z" fill="white"/>
<path d="M125.514 77.2774C125.083 76.353 124.713 75.4014 124.406 74.4286C124.04 73.4774 123.736 72.5035 123.494 71.513C123.922 72.4397 124.292 73.3924 124.602 74.3655C124.966 75.3159 125.271 76.2885 125.514 77.2774Z" fill="white"/>
<path d="M124.624 81.3243C123.965 81.2246 123.332 80.9966 122.76 80.6529C122.159 80.363 121.623 79.9543 121.183 79.4511C121.22 79.4065 121.9 79.9704 122.852 80.4823C123.804 80.9942 124.642 81.2687 124.624 81.3243Z" fill="white"/>
<path d="M132.808 90.5458C132.311 89.736 131.925 88.8627 131.66 87.9492C132.157 88.759 132.543 89.6324 132.808 90.5458Z" fill="white"/>
<path d="M84.526 103.41C84.3686 102.875 84.272 102.324 84.238 101.767C84.1445 101.217 84.1123 100.658 84.1421 100.101C84.3106 100.639 84.4135 101.196 84.4484 101.759C84.5369 102.305 84.5629 102.859 84.526 103.41Z" fill="white"/>
<path d="M109.603 102.772C109.62 102.229 109.7 101.69 109.843 101.166C109.926 100.629 110.071 100.104 110.275 99.6004C110.258 100.144 110.176 100.683 110.031 101.207C109.95 101.743 109.806 102.269 109.603 102.772Z" fill="white"/>
<path d="M114.409 29.2189L117.673 23.4916C115.66 20.2273 114.936 16.3246 115.642 12.5508C116.348 8.77703 118.434 5.40517 121.488 3.09822C124.543 0.791262 128.347 -0.28388 132.151 0.0841806C135.955 0.452241 139.484 2.23687 142.045 5.08719C144.605 7.93751 146.012 11.6473 145.989 15.4871C145.965 19.327 144.513 23.0191 141.917 25.8375C139.322 28.6559 135.771 30.3967 131.963 30.7177C128.155 31.0386 124.365 29.9165 121.339 27.5719L114.409 29.2189Z" fill="#FAFAFA"/>
<path d="M114.409 29.2188L121.338 27.6311H121.408L121.364 27.5718L121.298 27.6348C122.269 28.3913 123.324 29.0312 124.443 29.5415C125.777 30.1412 127.189 30.5459 128.637 30.7433C129.439 30.8558 130.249 30.8968 131.058 30.8657C131.475 30.8435 131.896 30.8323 132.324 30.7989L133.617 30.6023C137.467 29.8437 140.885 27.6391 143.174 24.4374C144.446 22.6663 145.327 20.6429 145.758 18.5024C146.197 16.2378 146.136 13.9039 145.577 11.666C144.997 9.3328 143.873 7.17149 142.299 5.36006L141.668 4.63673C141.461 4.40304 141.217 4.21386 140.996 3.99872C140.774 3.78357 140.553 3.56843 140.302 3.39038L139.564 2.8414C139.323 2.65458 139.069 2.48596 138.803 2.33692L138.028 1.86212L137.216 1.46522C136.95 1.32566 136.676 1.2018 136.396 1.09428C134.218 0.231956 131.876 -0.129278 129.541 0.0371071C127.339 0.185898 125.197 0.819058 123.265 1.89179C119.783 3.83791 117.18 7.05645 115.997 10.8796C115.522 12.5012 115.298 14.1863 115.332 15.8761C115.37 17.3424 115.619 18.7954 116.07 20.1901C116.451 21.3492 116.965 22.4596 117.602 23.4989V23.4507C115.557 27.1341 114.557 28.9331 114.398 29.215C114.561 28.9368 115.587 27.1489 117.68 23.4952V23.4729V23.4507C117.058 22.4137 116.56 21.3069 116.196 20.153C115.747 18.7679 115.498 17.325 115.458 15.8687C115.433 14.1945 115.661 12.5262 116.133 10.9204C117.318 7.14892 119.895 3.97656 123.335 2.05501C125.248 0.98456 127.372 0.351279 129.556 0.20032C131.862 0.0369857 134.176 0.395713 136.326 1.25007C136.603 1.35757 136.873 1.48143 137.135 1.62101L137.939 2.0142L138.715 2.49642C138.972 2.64475 139.219 2.81083 139.453 2.99348L140.191 3.53876C140.439 3.71681 140.645 3.93937 140.874 4.13968C141.103 4.33998 141.336 4.54029 141.539 4.77027L142.155 5.44908C143.712 7.24321 144.822 9.38273 145.396 11.692C145.951 13.9014 146.013 16.2068 145.577 18.443C145.155 20.5607 144.287 22.563 143.03 24.315C140.77 27.4849 137.394 29.6718 133.587 30.4317L132.31 30.632C131.885 30.6654 131.468 30.6802 131.055 30.7025C130.253 30.7353 129.45 30.6981 128.655 30.5912C127.217 30.4042 125.812 30.012 124.484 29.4265C123.37 28.9259 122.318 28.296 121.349 27.5495L121.065 27.3307L121.283 27.6163L121.309 27.5421L114.409 29.2188Z" fill="#263238"/>
<path d="M134.802 14.793C134.805 15.0848 134.894 15.3691 135.058 15.6103C135.222 15.8514 135.452 16.0387 135.722 16.1487C135.991 16.2587 136.286 16.2865 136.571 16.2287C136.855 16.1708 137.117 16.0299 137.322 15.8235C137.528 15.6171 137.668 15.3545 137.725 15.0684C137.783 14.7823 137.755 14.4855 137.646 14.2152C137.536 13.9448 137.35 13.7129 137.11 13.5485C136.87 13.384 136.587 13.2944 136.297 13.2907C136.1 13.2882 135.904 13.3254 135.722 13.4C135.539 13.4746 135.373 13.5852 135.234 13.7252C135.095 13.8652 134.985 14.0318 134.91 14.2152C134.836 14.3986 134.799 14.595 134.802 14.793Z" fill="#263238"/>
<path d="M128.825 14.793C128.828 15.0856 128.918 15.3707 129.083 15.6122C129.247 15.8538 129.479 16.0411 129.749 16.1505C130.019 16.26 130.315 16.2867 130.601 16.2274C130.886 16.1681 131.147 16.0253 131.352 15.8171C131.557 15.6089 131.695 15.3445 131.751 15.0572C131.806 14.7699 131.776 14.4725 131.664 14.2025C131.552 13.9324 131.362 13.7018 131.12 13.5395C130.877 13.3773 130.593 13.2907 130.301 13.2907C130.106 13.2907 129.912 13.3297 129.732 13.4054C129.552 13.4811 129.388 13.5921 129.251 13.7318C129.113 13.8716 129.005 14.0373 128.932 14.2195C128.859 14.4017 128.822 14.5966 128.825 14.793Z" fill="#263238"/>
<path d="M122.863 14.0437C122.72 14.2982 122.656 14.5894 122.677 14.8808C122.698 15.1722 122.805 15.4507 122.983 15.6816C123.161 15.9124 123.403 16.0852 123.679 16.1784C123.954 16.2715 124.251 16.2809 124.532 16.2052C124.813 16.1296 125.065 15.9723 125.257 15.7531C125.45 15.5339 125.573 15.2626 125.612 14.9731C125.652 14.6837 125.605 14.389 125.479 14.126C125.352 13.863 125.151 13.6434 124.901 13.4947C124.732 13.3943 124.544 13.3288 124.35 13.302C124.155 13.2753 123.957 13.2878 123.767 13.3389C123.577 13.3901 123.4 13.4787 123.244 13.5998C123.089 13.7208 122.959 13.8717 122.863 14.0437Z" fill="#263238"/>
</g>
<defs>
<clipPath id="clip0_73_579">
<rect width="186" height="126" fill="white"/>
</clipPath>
</defs>
</svg>
