<svg width="201" height="152" viewBox="0 0 201 152" fill="none" xmlns="http://www.w3.org/2000/svg">
<g clip-path="url(#clip0_73_1301)">
<path d="M180.86 140.349H167.546V140.451H180.86V140.349Z" fill="#EBEBEB"/>
<path d="M133.15 141.46H129.657V141.562H133.15V141.46Z" fill="#EBEBEB"/>
<path d="M167.144 136.557H159.429V136.659H167.144V136.557Z" fill="#EBEBEB"/>
<path d="M38.4512 137.244H21.0889V137.346H38.4512V137.244Z" fill="#EBEBEB"/>
<path d="M44.5779 137.244H42.0332V137.346H44.5779V137.244Z" fill="#EBEBEB"/>
<path d="M90.5102 138.968H52.8508V139.07H90.5102V138.968Z" fill="#EBEBEB"/>
<path d="M201 133.775H0V133.877H201V133.775Z" fill="#EBEBEB"/>
<path d="M95.2739 115.554H17.6518C17.0437 115.553 16.4608 115.307 16.0312 114.87C15.6016 114.432 15.3604 113.84 15.3604 113.222V2.33273C15.3656 1.7183 15.6093 1.13081 16.0383 0.697859C16.4673 0.264908 17.0471 0.0214688 17.6518 0.0204163H95.2739C95.8827 0.0204163 96.4666 0.266187 96.897 0.703661C97.3275 1.14113 97.5694 1.73448 97.5694 2.35316V113.222C97.5694 113.84 97.3275 114.434 96.897 114.871C96.4666 115.309 95.8827 115.554 95.2739 115.554ZM17.6518 0.102124C17.0703 0.103206 16.5131 0.338693 16.1023 0.756895C15.6915 1.1751 15.4609 1.74184 15.4609 2.33273V113.222C15.4609 113.813 15.6915 114.379 16.1023 114.798C16.5131 115.216 17.0703 115.451 17.6518 115.452H96.4799C97.6859 115.452 97.4648 114.451 97.4648 113.222V2.33273C97.4638 1.74217 97.2327 1.17605 96.8222 0.758085C96.4117 0.340115 95.855 0.104282 95.2739 0.102124H17.6518Z" fill="#EBEBEB"/>
<path d="M182.231 115.554H104.604C103.996 115.553 103.413 115.307 102.983 114.87C102.552 114.433 102.31 113.84 102.309 113.222V2.33273C102.315 1.71793 102.56 1.13044 102.99 0.697603C103.419 0.264765 104 0.0214573 104.604 0.0204163H182.231C182.835 0.0225425 183.413 0.266457 183.842 0.699292C184.27 1.13213 184.513 1.71901 184.518 2.33273V113.222C184.518 113.839 184.277 114.431 183.849 114.868C183.42 115.306 182.838 115.552 182.231 115.554ZM104.604 0.102124C104.023 0.103204 103.465 0.33856 103.054 0.756646C102.642 1.17473 102.411 1.74147 102.41 2.33273V113.222C102.411 113.813 102.642 114.38 103.054 114.798C103.465 115.216 104.023 115.451 104.604 115.452H182.231C182.813 115.451 183.37 115.216 183.782 114.798C184.193 114.38 184.425 113.813 184.426 113.222V2.33273C184.425 1.74147 184.193 1.17473 183.782 0.756646C183.37 0.33856 182.813 0.103204 182.231 0.102124H104.604Z" fill="#EBEBEB"/>
<path opacity="0.2" d="M23.103 115.51H100.826L105.939 7.93787H30.9661L23.103 115.51Z" fill="black"/>
<path d="M20.7151 115.51H100.102L105.219 7.93787H30.9661L20.7151 115.51Z" fill="#E6E6E6"/>
<path opacity="0.1" d="M24.0837 113.512H96.7734L101.666 11.5575L33.0081 11.5534L24.0837 113.512Z" fill="black"/>
<path d="M101.666 11.5534C100.826 45.1542 97.9232 78.6689 92.9747 111.902H40.574C34.7852 111.726 23.9995 111.473 23.9995 111.473C23.9995 111.473 32.2606 41.2295 33.0083 11.5534H101.666Z" fill="#FAFAFA"/>
<path d="M81.5738 19.4749C81.421 23.8708 81.2334 28.2653 81.011 32.6584H93.9875C94.2127 28.2625 94.4003 23.868 94.5503 19.4749H81.5738ZM92.9142 31.5104H82.2009C82.3831 27.8771 82.5386 24.248 82.6672 20.6229H93.3805C93.2492 24.2507 93.0938 27.8799 92.9142 31.5104Z" fill="#E0E0E0"/>
<path d="M79.407 40.8128C79.257 45.2086 79.0694 49.6045 78.8442 54.0003H91.8168C92.0419 49.6018 92.2308 45.2059 92.3836 40.8128H79.407ZM90.7475 52.8523H80.0342C80.211 49.2218 80.3665 45.5913 80.5005 41.9608H91.2138C91.0798 45.594 90.9243 49.2245 90.7475 52.8523Z" fill="#E0E0E0"/>
<path d="M77.5337 61.4398C77.3837 65.8329 77.1961 70.2274 76.9709 74.6232H89.9515C90.174 70.2274 90.3616 65.8329 90.5143 61.4398H77.5337ZM88.8742 73.4752H78.1609C78.3377 69.842 78.4932 66.2128 78.6272 62.5877H89.3405C89.2092 66.2128 89.0537 69.842 88.8742 73.4752Z" fill="#E0E0E0"/>
<path d="M74.6595 83.4067C74.5094 87.8026 74.3218 92.1985 74.0967 96.5943H87.0732C87.2957 92.1957 87.4833 87.7999 87.636 83.4067H74.6595ZM85.9999 95.4463H75.2866C75.4635 91.8158 75.6189 88.1853 75.7529 84.5547H86.4662C86.3322 88.1825 86.1768 91.8131 85.9999 95.4463Z" fill="#E0E0E0"/>
<path d="M38.0816 27.2249H74.7721C74.7426 28.0419 74.7118 28.859 74.6797 29.6761H37.9851L38.0816 27.2249Z" fill="#E6E6E6"/>
<path d="M46.4271 23.307H75.1339C75.1018 24.1241 75.0616 24.9412 75.0254 25.7582H46.3105C46.3507 24.9412 46.3869 24.1241 46.4271 23.307Z" fill="#E6E6E6"/>
<path d="M34.7168 49.2695H71.4034C71.3752 50.0865 71.3431 50.9036 71.3109 51.7207H34.6204C34.6525 50.9118 34.6887 50.0865 34.7168 49.2695Z" fill="#E6E6E6"/>
<path d="M43.0623 45.3394H71.7731C71.7369 46.1564 71.6967 46.9735 71.6605 47.7906H42.9497C42.9859 46.9776 43.014 46.1564 43.0623 45.3394Z" fill="#E6E6E6"/>
<path d="M32.1601 90.3968H68.8466C68.8144 91.2139 68.7863 92.031 68.7501 92.848H32.0596C32.0971 92.0364 32.1306 91.2193 32.1601 90.3968Z" fill="#E6E6E6"/>
<path d="M40.5055 86.4667H69.2123C69.1802 87.2838 69.14 88.1009 69.1038 88.9179H40.3889C40.4291 88.1049 40.4653 87.2879 40.5055 86.4667Z" fill="#E6E6E6"/>
<path d="M34.5358 68.7648H71.2223C71.1902 69.5819 71.162 70.399 71.1258 71.216H34.4353C34.4728 70.4044 34.5063 69.5874 34.5358 68.7648Z" fill="#E6E6E6"/>
<path d="M42.8775 64.8347H71.5883C71.5561 65.6518 71.5159 66.4688 71.4757 67.2859H42.7649C42.8011 66.4729 42.8413 65.6558 42.8775 64.8347Z" fill="#E6E6E6"/>
<path d="M48.7788 13.4694H87.2341L86.8965 12.2438C86.0281 9.17164 85.6261 7.13713 82.8121 7.13713C82.8121 7.13713 73.3812 6.59377 73.1199 5.76444C72.8039 4.78183 72.1882 3.92703 71.3621 3.32396C70.5359 2.72088 69.5422 2.40089 68.5251 2.41036C67.4739 2.42316 66.4493 2.74731 65.5767 3.34306C64.7042 3.93882 64.0216 4.78032 63.6126 5.76444C63.2749 6.58152 53.0038 7.13713 53.0038 7.13713C50.1697 7.13713 50.3707 9.17981 49.229 12.2438L48.7788 13.4694Z" fill="#E0E0E0"/>
<path d="M83.0933 27.0451C83.0782 27.2606 83.106 27.4769 83.1751 27.6812C83.2442 27.8854 83.3531 28.0735 83.4953 28.2339C83.8229 28.4697 84.2292 28.5637 84.6249 28.4954C86.2329 28.3606 87.6681 27.4291 88.9585 26.4527C91.4377 24.5519 93.6669 22.3359 95.5915 19.8589C93.1447 21.5367 90.6362 23.1191 88.0661 24.6061C87.2841 25.0942 86.4473 25.4851 85.5737 25.7705C85.2199 25.8726 84.7375 25.8808 84.5968 25.5376C84.4239 25.1291 84.9425 24.5122 84.5968 24.2344C84.2511 23.9566 83.5194 24.5857 83.3546 24.8676C83.033 25.3987 83.0732 26.4364 83.0933 27.0451Z" fill="#E0E0E0"/>
<path d="M80.2191 48.2277C80.2039 48.4431 80.2317 48.6595 80.3008 48.8637C80.3699 49.068 80.4788 49.256 80.6211 49.4165C80.9487 49.6523 81.3549 49.7463 81.7507 49.678C83.3587 49.5391 84.7938 48.6117 86.0842 47.6353C88.5625 45.7334 90.7915 43.5175 92.7172 41.0415C90.2677 42.7193 87.7592 44.3003 85.1918 45.7846C84.4108 46.2757 83.5739 46.668 82.6994 46.9531C82.3456 47.0552 81.8632 47.0634 81.7225 46.7161C81.5497 46.3076 82.0683 45.6948 81.7225 45.417C81.3768 45.1391 80.6452 45.7683 80.4804 46.0461C80.1588 46.5609 80.199 47.5945 80.2191 48.2277Z" fill="#E0E0E0"/>
<path d="M78.8844 69.3654C78.8704 69.5813 78.8986 69.798 78.9677 70.0028C79.0367 70.2076 79.145 70.3964 79.2864 70.5583C79.4478 70.6751 79.6304 70.7583 79.8236 70.8032C80.0167 70.8481 80.2167 70.8537 80.412 70.8197C82.02 70.6808 83.4552 69.7535 84.7456 68.7771C87.2239 66.8751 89.4529 64.6593 91.3786 62.1833C88.9344 63.8637 86.426 65.4448 83.8532 66.9264C83.0732 67.4166 82.2376 67.8089 81.3648 68.0948C81.011 68.1969 80.5246 68.2051 80.3839 67.8579C80.211 67.4493 80.7296 66.8324 80.3839 66.5587C80.0382 66.285 79.3065 66.906 79.1417 67.1879C78.8241 67.719 78.8643 68.7566 78.8844 69.3654Z" fill="#E0E0E0"/>
<path d="M146.754 107.208C147.156 107.711 147.558 108.307 147.43 108.94C147.338 109.286 147.122 109.585 146.824 109.776C146.526 109.968 146.168 110.038 145.822 109.974C145.479 109.896 145.161 109.731 144.898 109.495C144.635 109.258 144.436 108.958 144.318 108.622C144.157 108.213 144.101 107.764 143.944 107.351C143.49 106.158 142.336 105.427 141.243 104.781C141.174 106.007 141.866 107.179 142.682 108.103C143.498 109.026 144.475 109.815 145.182 110.832C145.89 111.849 146.3 113.197 145.814 114.341C145.779 114.439 145.72 114.525 145.641 114.59C145.519 114.66 145.375 114.681 145.239 114.648C143.96 114.472 143.088 113.254 142.525 112.07C141.962 110.885 141.496 109.574 140.463 108.801C140.917 110.362 142.151 111.563 142.803 113.05C143.212 114.014 143.372 115.068 143.269 116.112C143.165 117.157 142.801 118.157 142.212 119.019C142.169 119.096 142.112 119.164 142.043 119.217C141.974 119.27 141.894 119.309 141.81 119.329C141.56 119.358 141.379 119.101 141.275 118.868C140.23 116.551 140.998 113.418 139.189 111.653C138.907 112.274 138.63 112.879 138.348 113.508C138.205 113.898 137.981 114.253 137.693 114.549C137.544 114.692 137.355 114.785 137.152 114.815C136.95 114.845 136.742 114.811 136.56 114.717C136.021 114.366 136.158 113.54 136.399 112.936C136.995 111.366 137.733 109.854 138.602 108.421C137.995 108.131 137.396 108.765 136.941 109.279C136.487 109.794 135.651 110.248 135.241 109.688C135.121 109.503 135.063 109.284 135.076 109.063C135.076 107.984 135.804 107.053 136.576 106.309C137.347 105.566 138.224 104.904 138.738 103.964C138.16 104.142 137.544 104.158 136.957 104.009C136.391 103.809 135.936 103.151 136.153 102.588C136.838 101.8 137.594 101.08 138.413 100.439C139.333 100.144 140.234 101.007 140.929 101.525C143.116 103.141 145.076 105.053 146.754 107.208Z" fill="#EBEBEB"/>
<path d="M141.673 116.335C141.673 116.02 141.673 115.714 141.673 115.407C141.572 106.608 140.065 103.323 139.663 103.229L139.623 102.82C139.689 102.814 139.756 102.822 139.819 102.846C139.881 102.869 139.938 102.906 139.984 102.955C140.788 103.658 141.994 107.551 142.095 115.399C142.095 115.706 142.095 116.012 142.095 116.323L141.673 116.335Z" fill="#E0E0E0"/>
<path d="M141.665 120.874C141.665 120.616 141.665 116.87 141.665 115.456V114.905C141.665 106.481 142.927 102.297 143.775 101.542C143.823 101.492 143.881 101.453 143.945 101.428C144.008 101.404 144.077 101.394 144.145 101.399L144.093 101.807C143.671 101.905 142.083 105.435 142.083 114.905V115.456C142.083 116.866 142.083 120.612 142.083 120.87L141.665 120.874Z" fill="#E0E0E0"/>
<path d="M147.349 134.482H136.487L135.426 121.209H148.41L147.349 134.482Z" fill="#F0F0F0"/>
<path d="M149.25 121.895H134.477L134.212 120.13H149.52L149.25 121.895Z" fill="#FAFAFA"/>
<path d="M127.378 99.8422C126.63 99.8422 125.77 99.8667 125.279 100.426C125.024 100.76 124.9 101.179 124.932 101.6C124.964 102.022 125.15 102.416 125.452 102.706C125.77 102.98 126.151 103.167 126.559 103.251C126.968 103.336 127.39 103.314 127.788 103.188C128.286 103.045 128.745 102.78 129.239 102.641C130.678 102.232 132.19 102.82 133.569 103.409C132.459 104.361 130.883 104.52 129.436 104.393C127.989 104.267 126.562 103.887 125.111 103.928C123.659 103.968 122.104 104.544 121.384 105.827C121.319 105.93 121.281 106.048 121.275 106.17C121.296 106.339 121.378 106.493 121.505 106.603C122.586 107.711 124.347 107.678 125.85 107.38C127.354 107.081 128.913 106.563 130.385 107.02C128.604 107.694 126.602 107.363 124.757 107.8C123.566 108.093 122.468 108.691 121.568 109.536C120.668 110.381 119.996 111.446 119.615 112.629C119.574 112.725 119.552 112.828 119.552 112.932C119.552 113.036 119.574 113.139 119.615 113.234C119.768 113.491 120.138 113.483 120.419 113.418C123.326 112.772 125.697 109.798 128.636 110.28L127.502 112.413C127.242 112.831 127.072 113.3 127.004 113.79C126.972 114.038 127.018 114.289 127.134 114.509C127.251 114.73 127.434 114.906 127.655 115.015C128.363 115.285 129.034 114.554 129.432 113.9C130.47 112.204 131.353 110.416 132.069 108.556C132.773 108.932 132.62 109.978 132.471 110.771C132.322 111.563 132.471 112.703 133.275 112.711C133.534 112.697 133.78 112.594 133.975 112.421C134.972 111.645 135.329 110.288 135.47 109.018C135.611 107.747 135.607 106.428 136.121 105.259C136.362 105.94 136.778 106.543 137.327 107.004C137.922 107.412 138.859 107.38 139.221 106.755C139.473 105.534 139.607 104.292 139.623 103.045C139.241 101.946 137.794 101.697 136.809 101.391C133.748 100.443 130.576 99.9226 127.378 99.8422Z" fill="#F5F5F5"/>
<path d="M146.396 114.002C146.734 114.68 147.164 115.416 147.892 115.612C148.301 115.684 148.723 115.599 149.074 115.372C149.425 115.146 149.68 114.794 149.789 114.386C149.879 113.973 149.864 113.543 149.746 113.137C149.628 112.731 149.41 112.363 149.114 112.066C148.756 111.686 148.31 111.396 147.956 111.016C146.919 109.917 146.73 108.283 146.593 106.771C147.944 107.322 148.82 108.658 149.387 110.019C149.954 111.379 150.296 112.838 151.015 114.104C151.735 115.371 152.957 116.515 154.408 116.555C154.528 116.565 154.649 116.543 154.758 116.49C154.894 116.392 154.99 116.247 155.027 116.081C155.481 114.594 154.625 113.03 153.664 111.82C152.704 110.611 151.538 109.443 151.228 107.915C152.651 109.198 153.299 111.15 154.549 112.613C155.363 113.544 156.397 114.248 157.553 114.66C158.71 115.072 159.95 115.177 161.158 114.966C161.259 114.959 161.359 114.93 161.449 114.882C161.54 114.835 161.62 114.769 161.684 114.688C161.841 114.427 161.66 114.1 161.467 113.871C159.542 111.567 155.839 110.832 154.882 107.968H157.27C157.754 108.006 158.241 107.939 158.697 107.772C158.925 107.683 159.119 107.524 159.253 107.317C159.387 107.111 159.454 106.867 159.445 106.62C159.345 105.856 158.4 105.598 157.64 105.545C155.681 105.41 153.714 105.456 151.763 105.684C151.763 104.867 152.74 104.524 153.504 104.303C154.267 104.083 155.172 103.38 154.81 102.669C154.676 102.445 154.472 102.272 154.231 102.179C153.086 101.648 151.739 101.962 150.569 102.432C149.399 102.902 148.253 103.527 146.999 103.613C147.477 103.07 147.802 102.407 147.94 101.693C148.012 100.974 147.538 100.144 146.834 100.112C145.657 100.463 144.516 100.928 143.425 101.501C142.65 102.355 143.112 103.772 143.309 104.798C143.924 107.993 144.963 111.09 146.396 114.002Z" fill="#F0F0F0"/>
<path opacity="0.2" d="M149.5 18.4046C149.5 18.5435 149.5 18.6796 149.5 18.8131V29.435H135.205L134.445 28.6997L135.205 18.4046C135.205 16.4781 135.958 14.6305 137.298 13.2683C138.638 11.9061 140.457 11.1408 142.352 11.1408C144.248 11.1408 146.066 11.9061 147.406 13.2683C148.747 14.6305 149.5 16.4781 149.5 18.4046Z" fill="black"/>
<path d="M148.74 17.6855C148.74 17.8285 148.74 17.9674 148.74 18.0941V28.667H134.445V17.6855C134.445 15.7591 135.198 13.9115 136.538 12.5493C137.879 11.187 139.697 10.4218 141.592 10.4218C143.488 10.4218 145.306 11.187 146.646 12.5493C147.987 13.9115 148.74 15.7591 148.74 17.6855Z" fill="#F5F5F5"/>
<path d="M146.789 18.6706C147.232 15.8955 145.378 13.2808 142.647 12.8303C139.917 12.3799 137.344 14.2643 136.901 17.0393C136.457 19.8143 138.312 22.4291 141.042 22.8795C143.773 23.33 146.346 21.4456 146.789 18.6706Z" fill="#E0E0E0"/>
<path d="M141.259 22.8494C144.025 22.8494 146.268 20.5704 146.268 17.7591C146.268 14.9477 144.025 12.6687 141.259 12.6687C138.492 12.6687 136.25 14.9477 136.25 17.7591C136.25 20.5704 138.492 22.8494 141.259 22.8494Z" fill="white"/>
<path d="M141.592 18.1022C141.592 18.183 141.569 18.262 141.525 18.3292C141.48 18.3964 141.418 18.4487 141.344 18.4797C141.271 18.5106 141.19 18.5187 141.112 18.5029C141.034 18.4872 140.962 18.4482 140.906 18.3911C140.85 18.334 140.812 18.2612 140.796 18.1819C140.781 18.1027 140.788 18.0205 140.819 17.9459C140.849 17.8712 140.901 17.8074 140.967 17.7625C141.033 17.7177 141.111 17.6937 141.19 17.6937C141.297 17.6937 141.399 17.7367 141.475 17.8134C141.55 17.89 141.592 17.9939 141.592 18.1022Z" fill="#E0E0E0"/>
<path d="M141.138 18.2534L139.41 16.5988L139.579 16.415L141.146 17.9143L143.956 15.3936L144.117 15.5775L141.138 18.2534Z" fill="#E0E0E0"/>
<path d="M100.5 152C143.547 152 178.444 149.929 178.444 147.375C178.444 144.821 143.547 142.751 100.5 142.751C57.4528 142.751 22.5562 144.821 22.5562 147.375C22.5562 149.929 57.4528 152 100.5 152Z" fill="#F5F5F5"/>
<path d="M99.0647 86.1685V136.149H100.343L101.951 86.1685H99.0647Z" fill="#407BFF"/>
<path d="M114.156 87.8026V134.106H115.434L117.042 87.8026H114.156Z" fill="#407BFF"/>
<path opacity="0.5" d="M114.156 87.8026V134.106H115.434L117.042 87.8026H114.156Z" fill="black"/>
<path d="M175.722 86.1685V134.106H174.444L172.836 86.1685H175.722Z" fill="#407BFF"/>
<path opacity="0.5" d="M175.722 86.1685V134.106H174.444L172.836 86.1685H175.722Z" fill="black"/>
<path d="M160.631 87.8026V135.846H159.353L157.745 87.8026H160.631Z" fill="#407BFF"/>
<path d="M184.554 84.6651H89.3042V86.7609H184.554V84.6651Z" fill="#407BFF"/>
<path d="M178.291 89.0037H96.0497L92.7131 86.7609H181.627L178.291 89.0037Z" fill="#407BFF"/>
<path opacity="0.5" d="M178.291 89.0037H96.0497L92.7131 86.7609H181.627L178.291 89.0037Z" fill="black"/>
<path d="M105.597 79.4848H125.681V74.4108H105.597V79.4848Z" fill="#407BFF"/>
<path opacity="0.6" d="M105.662 79.5052H125.746V74.4312H105.662V79.5052Z" fill="white"/>
<path opacity="0.6" d="M105.601 79.5052H121.014V74.4312H105.601V79.5052Z" fill="white"/>
<path d="M105.698 78.8393L125.681 79.4685L125.661 78.9537L105.686 78.6923L105.698 78.8393Z" fill="#407BFF"/>
<path d="M125.681 76.4943L105.73 75.3504V75.522L125.681 76.8784V76.4943Z" fill="#407BFF"/>
<path d="M125.681 74.9582L105.73 75.424V75.5915L125.681 75.3463V74.9582Z" fill="#407BFF"/>
<path d="M125.738 77.4911L105.782 78.4757V78.3286L125.738 77.1521V77.4911Z" fill="#407BFF"/>
<path d="M106.996 84.759H127.08V79.685H106.996V84.759Z" fill="#407BFF"/>
<path opacity="0.6" d="M107.065 84.7794H127.148V79.7054H107.065V84.7794Z" fill="white"/>
<path opacity="0.6" d="M122.457 79.7054H107.044V84.7794H122.457V79.7054Z" fill="white"/>
<path d="M126.996 83.9624L107.024 84.2279L107 84.7427L126.984 84.1135L126.996 83.9624Z" fill="#407BFF"/>
<path d="M107.129 79.7504L127.084 79.7667V79.9342H107.129V79.7504Z" fill="#407BFF"/>
<path d="M107 82.1526L126.956 80.7962V80.6246L107 81.7644V82.1526Z" fill="#407BFF"/>
<path d="M127.084 80.2324L107.129 80.6982V80.8657L127.084 80.6205V80.2324Z" fill="#407BFF"/>
<path d="M127.14 82.7613L107.181 83.7499V83.6028L127.14 82.4222V82.7613Z" fill="#407BFF"/>
<path d="M123.997 54.7398L103.925 54.8419L103.893 59.8138H123.997V54.7398Z" fill="#407BFF"/>
<path opacity="0.6" d="M103.913 59.8138H123.997V54.7398H103.913V59.8138Z" fill="white"/>
<path opacity="0.6" d="M119.306 54.7398H103.893V59.8138H119.306V54.7398Z" fill="white"/>
<path d="M119.913 54.8419H103.925V55.3567H119.571L119.913 54.8419Z" fill="#407BFF"/>
<path d="M123.88 56.9214L103.925 57.1093V57.2564H123.88V56.9214Z" fill="#407BFF"/>
<path d="M103.925 59.2664L123.88 58.2818V58.4289L103.925 59.6055V59.2664Z" fill="#407BFF"/>
<path d="M103.925 57.3585L123.88 57.767V57.91L103.925 57.6976V57.3585Z" fill="#407BFF"/>
<path d="M123.912 73.2914H103.957V74.5211H123.912V73.2914Z" fill="#407BFF"/>
<path opacity="0.6" d="M123.912 73.2996H103.957V74.5211H123.912V73.2996Z" fill="white"/>
<path opacity="0.6" d="M119.86 73.226H103.957V74.5252H119.86V73.226Z" fill="white"/>
<path d="M103.969 73.847L123.928 74.0962L123.924 74.1738L103.965 74.0227L103.969 73.847Z" fill="#407BFF"/>
<path d="M103.969 73.61L123.925 73.8184V73.896L103.969 73.7857V73.61Z" fill="#407BFF"/>
<path d="M124.113 60.0753V63.3027C124.194 63.3027 124.272 63.3354 124.329 63.3936C124.387 63.4519 124.419 63.5308 124.419 63.6132C124.419 63.6955 124.387 63.7745 124.329 63.8327C124.272 63.891 124.194 63.9237 124.113 63.9237C122.907 63.9237 121.701 63.9237 120.495 63.9237V59.4298H124.113C124.198 59.4298 124.278 59.4638 124.338 59.5243C124.397 59.5848 124.431 59.6669 124.431 59.7525C124.431 59.8381 124.397 59.9202 124.338 59.9807C124.278 60.0413 124.198 60.0753 124.113 60.0753Z" fill="#407BFF"/>
<path opacity="0.3" d="M124.113 60.0753V63.3027C124.194 63.3027 124.272 63.3354 124.329 63.3936C124.387 63.4519 124.419 63.5308 124.419 63.6132C124.419 63.6955 124.387 63.7745 124.329 63.8327C124.272 63.891 124.194 63.9237 124.113 63.9237C122.907 63.9237 121.701 63.9237 120.495 63.9237V59.4298H124.113C124.198 59.4298 124.278 59.4638 124.338 59.5243C124.397 59.5848 124.431 59.6669 124.431 59.7525C124.431 59.8381 124.397 59.9202 124.338 59.9807C124.278 60.0413 124.198 60.0753 124.113 60.0753Z" fill="white"/>
<path d="M124.113 60.0875H121.291V63.3109H124.113V60.0875Z" fill="#407BFF"/>
<path opacity="0.6" d="M124.113 60.0875H121.291V63.3109H124.113V60.0875Z" fill="white"/>
<path d="M121.882 59.7729H106.297C105.621 59.7729 105.091 60.635 105.091 61.6972C105.091 62.7594 105.634 63.6214 106.297 63.6214H121.882V59.7729Z" fill="#407BFF"/>
<path opacity="0.9" d="M121.882 59.7729H106.297C105.621 59.7729 105.091 60.635 105.091 61.6972C105.091 62.7594 105.634 63.6214 106.297 63.6214H121.882V59.7729Z" fill="white"/>
<path d="M121.882 63.9319C118.666 63.9319 109.67 63.9891 106.466 63.9319C104.271 63.891 104.154 59.6136 106.305 59.4666C107.808 59.3603 109.352 59.4666 110.855 59.4666H121.882C121.957 59.4753 122.025 59.5115 122.075 59.5684C122.125 59.6253 122.153 59.6988 122.153 59.775C122.153 59.8512 122.125 59.9247 122.075 59.9816C122.025 60.0385 121.957 60.0747 121.882 60.0834H106.972C106.269 60.0834 105.766 60.0834 105.497 60.9332C105.26 61.6645 105.336 63.1515 106.301 63.3109C106.41 63.3211 106.521 63.3211 106.63 63.3109H121.886C121.967 63.3109 122.045 63.3436 122.102 63.4018C122.16 63.46 122.192 63.539 122.192 63.6214C122.192 63.7037 122.16 63.7827 122.102 63.8409C122.045 63.8991 121.967 63.9319 121.886 63.9319H121.882Z" fill="#407BFF"/>
<g opacity="0.2">
<path d="M121.882 63.9319C118.666 63.9319 109.67 63.9891 106.466 63.9319C104.271 63.891 104.154 59.6136 106.305 59.4666C107.808 59.3603 109.352 59.4666 110.855 59.4666H121.882C121.957 59.4753 122.025 59.5115 122.075 59.5684C122.125 59.6253 122.153 59.6988 122.153 59.775C122.153 59.8512 122.125 59.9247 122.075 59.9816C122.025 60.0385 121.957 60.0747 121.882 60.0834H106.972C106.269 60.0834 105.766 60.0834 105.497 60.9332C105.26 61.6645 105.336 63.1515 106.301 63.3109C106.41 63.3211 106.521 63.3211 106.63 63.3109H121.886C121.967 63.3109 122.045 63.3436 122.102 63.4018C122.16 63.46 122.192 63.539 122.192 63.6214C122.192 63.7037 122.16 63.7827 122.102 63.8409C122.045 63.8991 121.967 63.9319 121.886 63.9319H121.882Z" fill="white"/>
</g>
<path d="M120.757 64.4425V67.4289C120.831 67.4289 120.903 67.459 120.956 67.5127C121.008 67.5663 121.038 67.639 121.038 67.7149C121.038 67.7907 121.008 67.8635 120.956 67.9171C120.903 67.9707 120.831 68.0008 120.757 68.0008C119.635 68.0008 118.513 68.0008 117.392 68.0008V63.8705H120.757C120.831 63.8705 120.903 63.9007 120.956 63.9543C121.008 64.0079 121.038 64.0807 121.038 64.1565C121.038 64.2324 121.008 64.3051 120.956 64.3587C120.903 64.4124 120.831 64.4425 120.757 64.4425Z" fill="#407BFF"/>
<path opacity="0.3" d="M120.757 64.4425V67.4289C120.831 67.4289 120.903 67.459 120.956 67.5127C121.008 67.5663 121.038 67.639 121.038 67.7149C121.038 67.7907 121.008 67.8635 120.956 67.9171C120.903 67.9707 120.831 68.0008 120.757 68.0008C119.635 68.0008 118.513 68.0008 117.392 68.0008V63.8705H120.757C120.831 63.8705 120.903 63.9007 120.956 63.9543C121.008 64.0079 121.038 64.0807 121.038 64.1565C121.038 64.2324 121.008 64.3051 120.956 64.3587C120.903 64.4124 120.831 64.4425 120.757 64.4425Z" fill="white"/>
<path d="M120.757 64.4466H118.144V67.433H120.757V64.4466Z" fill="#407BFF"/>
<path opacity="0.6" d="M120.757 64.4466H118.144V67.433H120.757V64.4466Z" fill="white"/>
<path d="M118.69 64.1606H104.259C103.635 64.1606 103.129 64.9573 103.129 65.9418C103.129 66.9264 103.635 67.7231 104.259 67.7231H118.69V64.1606Z" fill="#407BFF"/>
<path opacity="0.9" d="M118.69 64.1606H104.259C103.635 64.1606 103.129 64.9573 103.129 65.9418C103.129 66.9264 103.635 67.7231 104.259 67.7231H118.69V64.1606Z" fill="white"/>
<path d="M118.69 68.0049C115.724 68.0049 107.382 68.058 104.415 68.0049C102.381 67.9682 102.273 64.0094 104.267 63.8705C105.657 63.7725 107.081 63.8705 108.48 63.8705H118.69C118.765 63.8705 118.837 63.9007 118.889 63.9543C118.942 64.0079 118.972 64.0807 118.972 64.1565C118.972 64.2324 118.942 64.3051 118.889 64.3587C118.837 64.4124 118.765 64.4425 118.69 64.4425H104.882C104.23 64.4425 103.768 64.4425 103.515 65.231C103.298 65.9051 103.366 67.2736 104.259 67.433C104.359 67.4412 104.46 67.4412 104.56 67.433H118.69C118.765 67.433 118.837 67.4631 118.889 67.5167C118.942 67.5704 118.972 67.6431 118.972 67.719C118.972 67.7948 118.942 67.8675 118.889 67.9212C118.837 67.9748 118.765 68.0049 118.69 68.0049Z" fill="#407BFF"/>
<path d="M125.251 68.6545V72.2129C125.334 72.2221 125.41 72.262 125.466 72.3249C125.521 72.3879 125.552 72.4695 125.552 72.554C125.552 72.6385 125.521 72.7201 125.466 72.7831C125.41 72.846 125.334 72.8859 125.251 72.8951C123.916 72.8951 122.582 72.8951 121.231 72.8951V67.9518H125.251C125.343 67.9518 125.431 67.9889 125.495 68.0548C125.56 68.1206 125.597 68.21 125.597 68.3032C125.597 68.3964 125.56 68.4857 125.495 68.5516C125.431 68.6175 125.343 68.6545 125.251 68.6545Z" fill="#407BFF"/>
<path opacity="0.3" d="M125.251 68.6545V72.2129C125.334 72.2221 125.41 72.262 125.466 72.3249C125.521 72.3879 125.552 72.4695 125.552 72.554C125.552 72.6385 125.521 72.7201 125.466 72.7831C125.41 72.846 125.334 72.8859 125.251 72.8951C123.916 72.8951 122.582 72.8951 121.231 72.8951V67.9518H125.251C125.343 67.9518 125.431 67.9889 125.495 68.0548C125.56 68.1206 125.597 68.21 125.597 68.3032C125.597 68.3964 125.56 68.4857 125.495 68.5516C125.431 68.6175 125.343 68.6545 125.251 68.6545Z" fill="white"/>
<path d="M125.251 68.6382H122.14V72.1925H125.251V68.6382Z" fill="#407BFF"/>
<path opacity="0.6" d="M125.251 68.6382H122.14V72.1925H125.251V68.6382Z" fill="white"/>
<path d="M122.791 68.295H105.613C104.87 68.295 104.271 69.2428 104.271 70.4153C104.271 71.5878 104.87 72.5356 105.613 72.5356H122.791V68.295Z" fill="#407BFF"/>
<path opacity="0.9" d="M122.791 68.295H105.613C104.87 68.295 104.271 69.2428 104.271 70.4153C104.271 71.5878 104.87 72.5356 105.613 72.5356H122.791V68.295Z" fill="white"/>
<path d="M122.791 72.8747C119.257 72.8747 109.332 72.9401 105.798 72.8747C103.386 72.8298 103.25 68.1193 105.621 67.9518C107.278 67.8375 108.978 67.9518 110.634 67.9518H122.791C122.874 67.9611 122.95 68.001 123.006 68.0639C123.061 68.1269 123.092 68.2084 123.092 68.293C123.092 68.3775 123.061 68.4591 123.006 68.522C122.95 68.585 122.874 68.6249 122.791 68.6341H106.357C105.581 68.6341 105.031 68.6341 104.729 69.5737C104.472 70.3908 104.552 72.0249 105.613 72.1924C105.734 72.2027 105.855 72.2027 105.975 72.1924H122.791C122.874 72.2017 122.95 72.2416 123.006 72.3045C123.061 72.3675 123.092 72.449 123.092 72.5336C123.092 72.6181 123.061 72.6997 123.006 72.7626C122.95 72.8256 122.874 72.8655 122.791 72.8747Z" fill="#407BFF"/>
<g opacity="0.2">
<path d="M122.791 72.8747C119.257 72.8747 109.332 72.9401 105.798 72.8747C103.386 72.8298 103.25 68.1193 105.621 67.9518C107.278 67.8375 108.978 67.9518 110.634 67.9518H122.791C122.874 67.9611 122.95 68.001 123.006 68.0639C123.061 68.1269 123.092 68.2084 123.092 68.293C123.092 68.3775 123.061 68.4591 123.006 68.522C122.95 68.585 122.874 68.6249 122.791 68.6341H106.357C105.581 68.6341 105.031 68.6341 104.729 69.5737C104.472 70.3908 104.552 72.0249 105.613 72.1924C105.734 72.2027 105.855 72.2027 105.975 72.1924H122.791C122.874 72.2017 122.95 72.2416 123.006 72.3045C123.061 72.3675 123.092 72.449 123.092 72.5336C123.092 72.6181 123.061 72.6997 123.006 72.7626C122.95 72.8256 122.874 72.8655 122.791 72.8747Z" fill="black"/>
</g>
<path d="M152.052 83.5497L128.704 83.656C128.55 83.6593 128.396 83.6291 128.254 83.5671C128.112 83.5052 127.985 83.413 127.881 83.2969C127.777 83.1808 127.699 83.0433 127.652 82.8938C127.604 82.7444 127.589 82.5863 127.607 82.4303L128.845 67.2573C128.876 66.927 129.026 66.6198 129.265 66.3939C129.504 66.168 129.817 66.0392 130.143 66.0317L153.492 65.9255C153.646 65.9221 153.8 65.9524 153.941 66.0143C154.083 66.0763 154.211 66.1684 154.315 66.2845C154.419 66.4007 154.497 66.5381 154.544 66.6876C154.592 66.8371 154.607 66.9951 154.589 67.1511L153.351 82.3241C153.32 82.6545 153.17 82.9617 152.931 83.1876C152.691 83.4134 152.379 83.5423 152.052 83.5497Z" fill="#263238"/>
<path d="M151.992 82.3527L128.298 82.4589L129.544 67.1919L153.238 67.0857L151.992 82.3527Z" fill="#407BFF"/>
<path d="M151.67 83.55L128.322 83.6562C128.168 83.6603 128.014 83.6304 127.872 83.5687C127.729 83.507 127.602 83.4149 127.498 83.2986C127.393 83.1823 127.315 83.0446 127.268 82.8948C127.221 82.745 127.206 82.5867 127.225 82.4306L128.463 67.2576C128.494 66.9272 128.644 66.62 128.883 66.3941C129.122 66.1683 129.435 66.0394 129.761 66.0319L153.11 65.9257C153.264 65.9223 153.417 65.9526 153.559 66.0146C153.701 66.0765 153.829 66.1687 153.933 66.2848C154.037 66.4009 154.115 66.5384 154.162 66.6878C154.21 66.8373 154.225 66.9954 154.207 67.1513L152.969 82.3244C152.937 82.6547 152.788 82.9619 152.549 83.1878C152.309 83.4137 151.997 83.5425 151.67 83.55Z" fill="#407BFF"/>
<g opacity="0.7">
<path d="M151.815 82.1771L128.125 82.2833L129.371 67.0163L153.065 66.906L151.815 82.1771Z" fill="#407BFF"/>
<path opacity="0.9" d="M150.75 82.1811L129.396 82.2792C129.234 82.2798 129.074 82.2462 128.926 82.1806C128.778 82.115 128.645 82.0189 128.535 81.8983C128.426 81.7777 128.342 81.6352 128.289 81.4799C128.237 81.3247 128.216 81.16 128.23 80.9964L129.283 68.0989C129.307 67.8034 129.44 67.5278 129.654 67.3266C129.868 67.1254 130.149 67.0132 130.441 67.0122L151.791 66.9142C151.953 66.913 152.113 66.9461 152.261 67.0115C152.41 67.0768 152.543 67.173 152.653 67.2937C152.763 67.4145 152.846 67.5572 152.899 67.7127C152.951 67.8683 152.971 68.0332 152.957 68.197L151.904 81.0985C151.879 81.393 151.748 81.6675 151.534 81.8679C151.32 82.0684 151.041 82.1801 150.75 82.1811Z" fill="white"/>
</g>
<path opacity="0.1" d="M148.044 65.9336L143.494 83.5456L145.049 83.5375L149.552 65.9296L148.044 65.9336Z" fill="white"/>
<path opacity="0.1" d="M150.448 65.9255L145.898 83.5334L148.985 83.5211L153.483 65.9091L150.448 65.9255Z" fill="white"/>
<path d="M144.262 83.464L152.141 83.5334C152.245 84.4649 151.839 84.7999 151.337 84.7958L122.493 84.7508C122.189 84.7498 121.898 84.6262 121.683 84.4072C121.468 84.1882 121.348 83.8916 121.348 83.5824L144.262 83.464Z" fill="#407BFF"/>
<path opacity="0.2" d="M144.262 83.464L152.141 83.5334C152.245 84.4649 151.839 84.7999 151.337 84.7958L122.493 84.7508C122.189 84.7498 121.898 84.6262 121.683 84.4072C121.468 84.1882 121.348 83.8916 121.348 83.5824L144.262 83.464Z" fill="white"/>
<path opacity="0.2" d="M152.141 83.5334C152.245 84.4649 151.839 84.7999 151.337 84.7958H143.337C143.992 84.7958 144.828 84.1503 144.828 83.4803L152.141 83.5334Z" fill="white"/>
<path d="M153.725 69.1162C154.312 68.6365 155.05 68.3884 155.803 68.4176C156.551 68.4471 157.283 68.6512 157.942 69.014C158.003 68.0335 158.061 67.0531 158.114 66.0726C158.159 65.3576 154.85 65.2841 154.444 65.4475C153.375 65.8683 153.901 68.103 153.725 69.1162Z" fill="#407BFF"/>
<path opacity="0.9" d="M153.725 69.1162C154.312 68.6365 155.05 68.3884 155.803 68.4176C156.551 68.4471 157.283 68.6512 157.942 69.014C158.003 68.0335 158.061 67.0531 158.114 66.0726C158.159 65.3576 154.85 65.2841 154.444 65.4475C153.375 65.8683 153.901 68.103 153.725 69.1162Z" fill="white"/>
<path d="M153.323 71.3304C153.985 71.0705 154.691 70.9469 155.401 70.9668C156.124 70.9798 156.842 71.0841 157.54 71.2773C157.6 70.7707 157.656 70.2601 157.713 69.7494C157.757 69.3776 154.448 69.3409 154.042 69.4226C152.973 69.6432 153.5 70.8034 153.323 71.3304Z" fill="#407BFF"/>
<path opacity="0.9" d="M153.323 71.3304C153.985 71.0705 154.691 70.9469 155.401 70.9668C156.124 70.9798 156.842 71.0841 157.54 71.2773C157.6 70.7707 157.656 70.2601 157.713 69.7494C157.757 69.3776 154.448 69.3409 154.042 69.4226C152.973 69.6432 153.5 70.8034 153.323 71.3304Z" fill="white"/>
<path d="M153.162 73.9859C153.825 73.7237 154.533 73.6 155.244 73.6223C155.967 73.6356 156.685 73.7399 157.383 73.9328C157.439 73.4221 157.495 72.9155 157.556 72.4049C157.596 72.0331 154.291 71.9963 153.881 72.0781C152.816 72.2987 153.343 73.4589 153.162 73.9859Z" fill="#407BFF"/>
<path opacity="0.9" d="M153.162 73.9859C153.825 73.7237 154.533 73.6 155.244 73.6223C155.967 73.6356 156.685 73.7399 157.383 73.9328C157.439 73.4221 157.495 72.9155 157.556 72.4049C157.596 72.0331 154.291 71.9963 153.881 72.0781C152.816 72.2987 153.343 73.4589 153.162 73.9859Z" fill="white"/>
<path d="M149.423 63.0167C149.439 62.9758 149.462 62.9383 149.492 62.9064C149.55 62.8637 149.622 62.8447 149.693 62.8533L152.326 62.8124C151.77 64.0391 151.479 65.3719 151.47 66.7221C150.822 66.6935 148.575 66.7221 148.575 66.7221C148.141 66.0195 149.142 63.703 149.423 63.0167Z" fill="#407BFF"/>
<path opacity="0.9" d="M149.423 63.0167C149.439 62.9758 149.462 62.9383 149.492 62.9064C149.55 62.8637 149.622 62.8447 149.693 62.8533L152.326 62.8124C151.77 64.0391 151.479 65.3719 151.47 66.7221C150.822 66.6935 148.575 66.7221 148.575 66.7221C148.141 66.0195 149.142 63.703 149.423 63.0167Z" fill="white"/>
<path d="M144.925 62.6899C144.939 62.647 144.962 62.6079 144.993 62.5755C145.051 62.5354 145.12 62.5167 145.19 62.5224L147.827 62.4815C147.272 63.7082 146.98 65.041 146.971 66.3912C146.324 66.3626 144.077 66.3912 144.077 66.3912C143.642 65.6926 144.643 63.3762 144.925 62.6899Z" fill="#407BFF"/>
<path opacity="0.9" d="M144.925 62.6899C144.939 62.647 144.962 62.6079 144.993 62.5755C145.051 62.5354 145.12 62.5167 145.19 62.5224L147.827 62.4815C147.272 63.7082 146.98 65.041 146.971 66.3912C146.324 66.3626 144.077 66.3912 144.077 66.3912C143.642 65.6926 144.643 63.3762 144.925 62.6899Z" fill="white"/>
<path d="M141.226 62.6776C141.236 62.6389 141.251 62.6017 141.271 62.5673C141.286 62.5488 141.306 62.5343 141.329 62.5251C141.351 62.5158 141.375 62.5121 141.399 62.5142H143.06C142.682 63.7787 142.477 65.0903 142.453 66.4116C142.051 66.3749 140.627 66.4116 140.627 66.4116C140.366 65.664 141.038 63.3435 141.226 62.6776Z" fill="#407BFF"/>
<path opacity="0.9" d="M141.226 62.6776C141.236 62.6389 141.251 62.6017 141.271 62.5673C141.286 62.5488 141.306 62.5343 141.329 62.5251C141.351 62.5158 141.375 62.5121 141.399 62.5142H143.06C142.682 63.7787 142.477 65.0903 142.453 66.4116C142.051 66.3749 140.627 66.4116 140.627 66.4116C140.366 65.664 141.038 63.3435 141.226 62.6776Z" fill="white"/>
<g opacity="0.2">
<path d="M129.637 66.1298C129.588 66.6824 129.432 67.2197 129.179 67.7108C128.891 68.3279 128.55 68.9173 128.157 69.4716C130.135 69.5124 131.631 69.6064 132.374 69.4961C133.149 68.397 133.467 67.0321 133.259 65.6967C132.089 66.0481 130.666 65.7703 129.456 66.0685L129.637 66.1298Z" fill="black"/>
</g>
<path d="M129.661 65.6722C129.531 66.2234 129.302 66.7456 128.986 67.2124C128.614 67.8057 128.191 68.3648 127.723 68.8833C129.132 69.0215 130.549 69.0392 131.96 68.9364C132.901 67.9069 133.315 66.8937 133.259 65.6967C131.856 65.6967 129.661 65.6722 129.661 65.6722Z" fill="#407BFF"/>
<g opacity="0.9">
<path d="M129.661 65.6722C129.531 66.2234 129.302 66.7456 128.986 67.2124C128.614 67.8057 128.191 68.3648 127.723 68.8833C129.132 69.0215 130.549 69.0392 131.96 68.9364C132.901 67.9069 133.315 66.8937 133.259 65.6967C131.856 65.6967 129.661 65.6722 129.661 65.6722Z" fill="white"/>
</g>
<g opacity="0.2">
<path d="M135.072 65.7621C135.024 66.3747 134.869 66.9738 134.614 67.531C134.328 68.2168 133.987 68.8769 133.593 69.5043C135.574 69.5451 137.066 69.6513 137.81 69.5288C138.591 68.2627 138.905 66.7553 138.694 65.2759C137.524 65.6844 136.101 65.3576 134.895 65.6844L135.072 65.7621Z" fill="black"/>
</g>
<path d="M135.072 65.2514C134.947 65.8602 134.718 66.4422 134.396 66.9713C134.028 67.6304 133.607 68.2575 133.138 68.8465C134.544 68.9983 135.962 69.0174 137.371 68.9037C138.258 67.916 138.725 66.6119 138.67 65.2759C137.275 65.2759 135.072 65.2514 135.072 65.2514Z" fill="#407BFF"/>
<g opacity="0.9">
<path d="M135.072 65.2514C134.947 65.8602 134.718 66.4422 134.396 66.9713C134.028 67.6304 133.607 68.2575 133.138 68.8465C134.544 68.9983 135.962 69.0174 137.371 68.9037C138.258 67.916 138.725 66.6119 138.67 65.2759C137.275 65.2759 135.072 65.2514 135.072 65.2514Z" fill="white"/>
</g>
<path d="M173.174 84.7467H166.625L168.679 78.0304L168.977 77.0458H170.46L173.174 84.7467Z" fill="#407BFF"/>
<path opacity="0.2" d="M173.174 84.7467H166.625L168.679 78.0304L168.977 77.0458H170.46L173.174 84.7467Z" fill="black"/>
<path d="M168.976 77.0458L168.679 78.0304L166.625 84.7467L160.571 84.6569L158.625 78.0304L158.323 77.0458H168.976Z" fill="#E0E0E0"/>
<path d="M168.976 77.0458L168.679 78.0304L166.625 84.7467L154.191 84.5588L156.84 77.0458H168.976Z" fill="#407BFF"/>
<path opacity="0.8" d="M168.976 77.0458L168.679 78.0304L166.625 84.7467L154.191 84.5588L156.84 77.0458H168.976Z" fill="white"/>
<path d="M168.977 77.0458L168.679 78.0304H156.499L156.84 77.0458H168.977Z" fill="#407BFF"/>
<path d="M158.388 81.2211H155.658L156.611 78.488L159.224 78.5166L158.388 81.2211ZM155.976 80.9964H158.227L158.922 78.7413L156.768 78.7168L155.976 80.9964Z" fill="#407BFF"/>
<path d="M161.423 81.2211H158.693L159.646 78.488L162.259 78.5166L161.423 81.2211ZM159.011 80.9964H161.262L161.954 78.7413L159.803 78.7168L159.011 80.9964Z" fill="#407BFF"/>
<path d="M164.478 81.2211H161.749L162.701 78.488L165.31 78.5166L164.478 81.2211ZM162.066 80.9964H164.317L165.013 78.7413L162.862 78.7168L162.066 80.9964Z" fill="#407BFF"/>
<path d="M167.533 81.2211H164.82L165.773 78.488L168.382 78.5166L167.533 81.2211ZM165.121 80.9964H167.373L168.068 78.7413L165.917 78.7168L165.121 80.9964Z" fill="#407BFF"/>
<path d="M157.419 84.1217H154.686L155.638 81.3886L158.251 81.4172L157.419 84.1217ZM155.007 83.897H157.258L157.954 81.6419L155.799 81.6174L155.007 83.897Z" fill="#407BFF"/>
<path d="M160.47 84.1217H157.741L158.693 81.3886L161.306 81.4172L160.47 84.1217ZM158.058 83.897H160.309L161.001 81.6419L158.85 81.6174L158.058 83.897Z" fill="#407BFF"/>
<path d="M163.525 84.1217H160.8L161.753 81.3886L164.362 81.4172L163.525 84.1217ZM161.113 83.897H163.365L164.06 81.6419L161.909 81.6174L161.113 83.897Z" fill="#407BFF"/>
<path d="M166.581 84.1217H163.851L164.804 81.3886L167.413 81.4172L166.581 84.1217ZM164.169 83.897H166.428L167.123 81.6419L164.973 81.6174L164.169 83.897Z" fill="#407BFF"/>
<path d="M158.183 81.0863C158.112 80.6121 157.997 80.1457 157.841 79.6932C157.753 79.4603 156.852 78.0304 156.675 78.9047C156.623 79.1621 157.158 79.7871 157.303 79.9955C157.569 80.3806 157.863 80.7452 158.183 81.0863Z" fill="#407BFF"/>
<path d="M156.221 80.5021C156.193 80.5879 156.201 80.7186 156.289 80.7227C156.322 80.7218 156.353 80.7103 156.378 80.69C156.929 80.3223 157.343 79.7585 157.929 79.4644C158.214 79.3723 158.469 79.2028 158.665 78.9742C158.503 78.955 158.339 78.9819 158.191 79.0518C157.435 79.3378 156.514 79.6523 156.221 80.5021Z" fill="#407BFF"/>
<path d="M164.277 81.1516C164.208 80.6771 164.094 80.2105 163.935 79.7585C163.847 79.5257 162.951 78.0958 162.77 78.9701C162.717 79.2274 163.252 79.8525 163.397 80.0608C163.663 80.446 163.958 80.8106 164.277 81.1516Z" fill="#407BFF"/>
<path d="M162.316 80.5838C162.287 80.6696 162.316 80.8003 162.384 80.8044C162.416 80.8035 162.447 80.792 162.472 80.7717C163.023 80.404 163.437 79.8402 164.024 79.5461C164.308 79.4523 164.562 79.2831 164.76 79.0559C164.597 79.0347 164.433 79.0617 164.285 79.1335C163.53 79.4031 162.609 79.7177 162.316 80.5838Z" fill="#407BFF"/>
<path d="M160.056 79.7259C160.605 80.0146 161.056 80.4644 161.351 81.0168C161.214 80.29 160.941 79.5966 160.547 78.9742C159.944 78.0509 159.268 79.2765 160.056 79.7259Z" fill="#407BFF"/>
<path d="M165.821 79.7259C166.37 80.0146 166.821 80.4644 167.115 81.0168C166.978 80.29 166.705 79.5966 166.311 78.9742C165.708 78.0509 165.033 79.2765 165.821 79.7259Z" fill="#407BFF"/>
<path d="M160.458 79.4113C160.069 79.5733 159.743 79.8603 159.53 80.2283C159.457 80.355 159.417 80.5388 159.53 80.6369C159.642 80.7349 159.847 80.6124 159.968 80.4898C160.241 80.212 161.415 79.5257 161.407 79.1784C161.076 79.1658 160.747 79.2464 160.458 79.4113Z" fill="#407BFF"/>
<path d="M166.649 79.4113C166.26 79.5733 165.934 79.8603 165.72 80.2283C165.652 80.355 165.608 80.5388 165.72 80.6369C165.833 80.7349 166.034 80.6124 166.155 80.4898C166.428 80.212 167.602 79.5257 167.594 79.1784C167.264 79.167 166.937 79.2475 166.649 79.4113Z" fill="#407BFF"/>
<path d="M157.781 82.4712C157.568 81.1067 155.968 81.0332 155.3 82.0954C155.142 82.3635 155.047 82.6657 155.023 82.9778C154.997 83.1765 155.013 83.3786 155.071 83.5702C155.164 83.7902 155.324 83.9743 155.527 84.0956C155.73 84.2168 155.967 84.2689 156.201 84.2443C156.671 84.1842 157.102 83.9464 157.407 83.5783C157.591 83.3951 157.719 83.1606 157.773 82.9043C157.802 82.7616 157.804 82.6148 157.781 82.4712ZM157.294 83.419C157.192 83.5761 157.054 83.7063 156.892 83.799C156.755 83.8992 156.599 83.9706 156.434 84.0092C156.269 84.0478 156.098 84.0527 155.932 84.0236C155.747 83.9822 155.577 83.8891 155.441 83.7548C155.306 83.6206 155.209 83.4505 155.164 83.2638C155.079 82.651 155.614 81.6868 156.406 81.6868C157.524 81.6868 157.72 82.7 157.294 83.419Z" fill="#263238"/>
<path d="M103.499 73.557L113.549 104.7H91.5714L87.7725 71.886H101.231C101.734 71.8858 102.225 72.0473 102.632 72.3475C103.039 72.6476 103.343 73.071 103.499 73.557Z" fill="#263238"/>
<path d="M106.932 100.827H128.7C129.705 100.827 130.517 101.885 130.517 103.192V104.826C130.517 106.134 129.713 107.192 128.7 107.192H95.2738L93.5251 101.023L106.932 100.827Z" fill="#263238"/>
<g opacity="0.2">
<path d="M106.932 100.827H128.7C129.705 100.827 130.517 101.885 130.517 103.192V104.826C130.517 106.134 129.713 107.192 128.7 107.192H95.2738L93.5251 101.023L106.932 100.827Z" fill="white"/>
</g>
<path d="M89.6057 73.7163L92.4197 98.735C92.5292 99.6927 92.9812 100.576 93.6898 101.217C94.3984 101.858 95.3141 102.212 96.2628 102.212H111.426C111.909 102.212 112.372 102.407 112.714 102.754C113.055 103.101 113.247 103.572 113.247 104.062V105.353C113.247 105.844 113.055 106.315 112.714 106.662C112.372 107.009 111.909 107.204 111.426 107.204H93.083C92.1237 107.204 91.1987 106.841 90.4877 106.186C89.7768 105.532 89.3306 104.632 89.2359 103.662L86.2892 73.3608C86.2706 73.1753 86.2906 72.9879 86.3478 72.8107C86.4051 72.6335 86.4983 72.4705 86.6215 72.3322C86.7446 72.1939 86.895 72.0835 87.0628 72.0081C87.2306 71.9326 87.4122 71.8938 87.5957 71.8942C88.0932 71.8912 88.5741 72.0759 88.9454 72.4125C89.3167 72.7491 89.552 73.2136 89.6057 73.7163Z" fill="#263238"/>
<path opacity="0.3" d="M89.6057 73.7163L92.4197 98.735C92.5292 99.6927 92.9812 100.576 93.6898 101.217C94.3984 101.858 95.3141 102.212 96.2628 102.212H111.426C111.909 102.212 112.372 102.407 112.714 102.754C113.055 103.101 113.247 103.572 113.247 104.062V105.353C113.247 105.844 113.055 106.315 112.714 106.662C112.372 107.009 111.909 107.204 111.426 107.204H93.083C92.1237 107.204 91.1987 106.841 90.4877 106.186C89.7768 105.532 89.3306 104.632 89.2359 103.662L86.2892 73.3608C86.2706 73.1753 86.2906 72.9879 86.3478 72.8107C86.4051 72.6335 86.4983 72.4705 86.6215 72.3322C86.7446 72.1939 86.895 72.0835 87.0628 72.0081C87.2306 71.9326 87.4122 71.8938 87.5957 71.8942C88.0932 71.8912 88.5741 72.0759 88.9454 72.4125C89.3167 72.7491 89.552 73.2136 89.6057 73.7163Z" fill="white"/>
<path d="M95.274 136.929C95.274 137.281 95.1715 137.624 94.9793 137.916C94.7872 138.209 94.514 138.436 94.1945 138.571C93.875 138.705 93.5234 138.741 93.1842 138.672C92.8449 138.603 92.5334 138.434 92.2888 138.186C92.0442 137.937 91.8777 137.621 91.8102 137.276C91.7427 136.931 91.7774 136.574 91.9097 136.249C92.0421 135.924 92.2662 135.647 92.5538 135.451C92.8414 135.256 93.1794 135.152 93.5253 135.152C93.9891 135.152 94.4339 135.339 94.7618 135.672C95.0898 136.006 95.274 136.458 95.274 136.929Z" fill="#407BFF"/>
<path d="M121.36 136.929C121.36 137.281 121.462 137.624 121.654 137.916C121.846 138.209 122.12 138.436 122.439 138.571C122.759 138.705 123.11 138.741 123.449 138.672C123.789 138.603 124.1 138.434 124.345 138.186C124.589 137.937 124.756 137.621 124.823 137.276C124.891 136.931 124.856 136.574 124.724 136.249C124.592 135.924 124.367 135.647 124.08 135.451C123.792 135.256 123.454 135.152 123.108 135.152C122.645 135.152 122.2 135.339 121.872 135.672C121.544 136.006 121.36 136.458 121.36 136.929Z" fill="#407BFF"/>
<path d="M106.614 136.361C106.614 136.713 106.717 137.056 106.909 137.349C107.101 137.641 107.374 137.869 107.694 138.003C108.013 138.138 108.365 138.173 108.704 138.104C109.043 138.036 109.355 137.866 109.599 137.618C109.844 137.369 110.011 137.053 110.078 136.708C110.146 136.363 110.111 136.006 109.979 135.681C109.846 135.356 109.622 135.079 109.334 134.884C109.047 134.688 108.709 134.584 108.363 134.584C107.899 134.584 107.454 134.771 107.126 135.105C106.799 135.438 106.614 135.89 106.614 136.361Z" fill="#407BFF"/>
<path d="M125.179 133.886C125.155 134.08 125.063 134.259 124.92 134.39C124.776 134.522 124.592 134.596 124.399 134.6L107.836 134.339L92.3313 134.748C92.1386 134.743 91.9538 134.669 91.8107 134.537C91.6675 134.406 91.5755 134.227 91.5515 134.033C91.5038 133.813 91.54 133.583 91.6527 133.39C91.7654 133.197 91.9462 133.054 92.1585 132.991L100.629 131.091C101.504 130.902 102.395 130.806 103.29 130.805H112.391C113.286 130.807 114.177 130.902 115.052 131.091L124.568 132.848C124.779 132.911 124.96 133.053 125.073 133.245C125.186 133.437 125.224 133.666 125.179 133.886Z" fill="#263238"/>
<g opacity="0.3">
<path d="M125.179 133.886C125.155 134.08 125.063 134.259 124.92 134.39C124.776 134.522 124.592 134.596 124.399 134.6L107.836 134.339L92.3313 134.748C92.1386 134.743 91.9538 134.669 91.8107 134.537C91.6675 134.406 91.5755 134.227 91.5515 134.033C91.5038 133.813 91.54 133.583 91.6527 133.39C91.7654 133.197 91.9462 133.054 92.1585 132.991L100.629 131.091C101.504 130.902 102.395 130.806 103.29 130.805H112.391C113.286 130.807 114.177 130.902 115.052 131.091L124.568 132.848C124.779 132.911 124.96 133.053 125.073 133.245C125.186 133.437 125.224 133.666 125.179 133.886Z" fill="white"/>
</g>
<path d="M110.65 114.599H105.018V130.801H110.65V114.599Z" fill="#263238"/>
<path d="M109.846 107.061H105.83V114.599H109.846V107.061Z" fill="#263238"/>
<path opacity="0.3" d="M105.83 109.275L109.846 110.44V107.061H105.83V109.275Z" fill="black"/>
<path d="M95.274 136.929C95.274 137.281 95.1715 137.624 94.9793 137.916C94.7872 138.209 94.514 138.436 94.1945 138.571C93.875 138.705 93.5234 138.741 93.1842 138.672C92.8449 138.603 92.5334 138.434 92.2888 138.186C92.0442 137.937 91.8777 137.621 91.8102 137.276C91.7427 136.931 91.7774 136.574 91.9097 136.249C92.0421 135.924 92.2662 135.647 92.5538 135.451C92.8414 135.256 93.1794 135.152 93.5253 135.152C93.9891 135.152 94.4339 135.339 94.7618 135.672C95.0898 136.006 95.274 136.458 95.274 136.929Z" fill="#263238"/>
<path d="M121.36 136.929C121.36 137.281 121.462 137.624 121.654 137.916C121.846 138.209 122.12 138.436 122.439 138.571C122.759 138.705 123.11 138.741 123.449 138.672C123.789 138.603 124.1 138.434 124.345 138.186C124.589 137.937 124.756 137.621 124.823 137.276C124.891 136.931 124.856 136.574 124.724 136.249C124.592 135.924 124.367 135.647 124.08 135.451C123.792 135.256 123.454 135.152 123.108 135.152C122.645 135.152 122.2 135.339 121.872 135.672C121.544 136.006 121.36 136.458 121.36 136.929Z" fill="#263238"/>
<path d="M106.614 136.361C106.614 136.713 106.717 137.056 106.909 137.349C107.101 137.641 107.374 137.869 107.694 138.003C108.013 138.138 108.365 138.173 108.704 138.104C109.043 138.036 109.355 137.866 109.599 137.618C109.844 137.369 110.011 137.053 110.078 136.708C110.146 136.363 110.111 136.006 109.979 135.681C109.846 135.356 109.622 135.079 109.334 134.884C109.047 134.688 108.709 134.584 108.363 134.584C107.899 134.584 107.454 134.771 107.126 135.105C106.799 135.438 106.614 135.89 106.614 136.361Z" fill="#263238"/>
<path d="M37.7881 77.7853C37.7881 77.7853 34.6203 81.8707 35.1309 88.8526C35.6414 95.8344 49.2732 91.8798 49.2732 91.8798C49.2732 91.8798 55.1987 83.1412 58.877 82.1771L55.6088 78.729C53.3294 78.8679 51.637 76.3718 37.7881 77.7853Z" fill="#407BFF"/>
<path d="M50.7205 51.6267C51.633 53.8165 52.5857 55.9327 53.6028 58.0612C54.6199 60.1897 55.657 62.2895 56.8188 64.4017L57.2851 65.2187C57.5785 65.7329 57.9692 66.1828 58.4348 66.5424C59.1788 67.1007 60.0452 67.4666 60.9594 67.6087C62.3196 67.8139 63.704 67.7876 65.0558 67.5311C67.4613 67.0944 69.8014 66.3447 72.0184 65.3004L71.2144 62.8492L69.5702 63.1148C69.0155 63.2006 68.4607 63.2496 67.914 63.3313C66.8401 63.4674 65.7599 63.5465 64.6779 63.5683C63.7379 63.6103 62.7969 63.514 61.884 63.2823C61.6572 63.2332 61.4476 63.1232 61.277 62.9636C61.277 62.935 61.3132 62.9636 61.3132 62.9636L60.9755 62.2405C60.0509 60.1733 59.1263 58.0203 58.2097 55.9082C57.2932 53.7961 56.3485 51.6431 55.3957 49.535L50.7205 51.6267Z" fill="#FFB573"/>
<path d="M74.8926 64.9532C75.1819 64.8879 75.4553 64.7643 75.6966 64.5896C76.5609 63.7725 76.0504 62.3916 75.2384 61.5174C75.2062 61.4806 74.2977 60.6309 74.2615 60.5941C73.3892 59.777 72.9068 60.6554 72.1068 61.5419L70.4988 63.3108L71.4837 65.4312C72.3853 65.428 73.2841 65.328 74.165 65.1329C74.37 65.0921 74.6233 65.0308 74.8926 64.9532Z" fill="#FFB573"/>
<path d="M57.3895 50.7729C59.2468 53.6858 58.9252 57.5423 58.9252 57.5423L54.4549 58.5269C54.4549 58.5269 49.4782 53.2486 50.3867 50.6789C51.3957 47.8437 55.4237 47.6844 57.3895 50.7729Z" fill="#263238"/>
<path opacity="0.2" d="M54.455 58.5269L57.2971 57.9019C56.6245 55.9037 55.7189 53.9945 54.5997 52.215C52.9153 49.678 51.7093 48.9467 50.3707 49.6658C49.9486 53.1874 54.455 58.5269 54.455 58.5269Z" fill="black"/>
<path d="M42.0532 48.052C41.5949 48.097 36.98 49.2368 38.1417 53.6735C42.9657 71.069 39.8744 69.6064 37.792 77.7771L55.6126 78.7209C55.6126 78.7209 54.4067 66.2319 55.1865 64.0136C56.5212 60.2836 56.3724 57.5628 55.0137 53.8206C53.5142 49.6903 52.9353 48.5709 52.9353 48.5709C51.2389 48.1909 45.5345 46.7243 42.0532 48.052Z" fill="#263238"/>
<path opacity="0.2" d="M42.817 61.5011C42.5677 59.3031 38.9698 50.9731 39.6814 49.9558C40.2361 49.6576 42.7526 49.9926 44.1556 51.59C47.3515 59.1969 42.817 61.5011 42.817 61.5011Z" fill="black"/>
<path d="M34.0454 132.541L24.8918 139.527C24.518 139.348 21.8125 136.329 21.8125 136.329L29.748 129.49L34.0454 132.541Z" fill="#E29471"/>
<path d="M25.4869 140.402C25.4752 140.382 25.469 140.359 25.469 140.336C25.469 140.313 25.4752 140.291 25.4869 140.271C25.5024 140.253 25.5228 140.239 25.5457 140.233C25.5686 140.226 25.5929 140.227 25.6155 140.234C25.6919 140.259 27.525 140.88 27.8949 141.635C27.9332 141.704 27.9572 141.78 27.9655 141.859C27.9738 141.938 27.9662 142.017 27.9431 142.093C27.9247 142.182 27.8795 142.262 27.814 142.324C27.7485 142.385 27.6657 142.425 27.5773 142.436C27.2476 142.485 26.7733 142.093 26.3713 141.619C26.0408 141.241 25.7448 140.834 25.4869 140.402ZM27.5934 141.562C27.0929 141.116 26.511 140.774 25.8808 140.557C26.3793 141.313 27.1994 142.232 27.5813 142.191C27.6336 142.191 27.7019 142.158 27.7542 141.999C27.7676 141.954 27.772 141.906 27.7672 141.859C27.7624 141.812 27.7484 141.767 27.726 141.725C27.6891 141.66 27.6461 141.598 27.5974 141.541L27.5934 141.562Z" fill="#407BFF"/>
<path d="M25.4868 140.324C25.4886 140.304 25.4954 140.284 25.5066 140.267C25.5179 140.249 25.5332 140.236 25.5511 140.226C25.5994 140.197 26.6446 139.409 27.4325 139.536C27.5433 139.558 27.6487 139.602 27.7426 139.666C27.8364 139.729 27.9169 139.812 27.9792 139.907C28.0505 139.977 28.0941 140.071 28.1015 140.171C28.1089 140.271 28.0797 140.371 28.0194 140.451C27.6777 140.888 26.1381 140.724 25.5552 140.451L25.515 140.422L25.4868 140.324ZM27.3843 139.781C26.834 139.79 26.3002 139.973 25.8567 140.304C26.524 140.508 27.6777 140.561 27.8667 140.304C27.8667 140.279 27.935 140.218 27.8184 140.05L27.7581 140.009C27.6676 139.887 27.5335 139.804 27.3843 139.781Z" fill="#407BFF"/>
<path d="M25.6557 139.237L24.8517 138.853C24.414 138.642 24.0258 138.338 23.7131 137.962C23.4004 137.585 23.1705 137.146 23.0387 136.672L22.7251 135.552C22.6655 135.476 22.5809 135.423 22.4865 135.404C22.392 135.386 22.2941 135.402 22.2105 135.45L18.6327 137.186C18.287 137.383 18.4036 138.261 18.4317 138.294C20.0036 140.72 23.7462 145.647 25.0487 147.22C26.3511 148.793 28.0476 147.694 27.6536 146.93C25.8929 143.515 25.8527 141.693 25.9089 140.079C25.93 139.776 25.8397 139.476 25.6557 139.237Z" fill="#263238"/>
<path d="M35.1348 88.8525C35.0156 89.7038 34.9967 90.5665 35.0785 91.4222C35.4242 95.9488 38.2462 110.824 39.01 116.568C39.0678 117.144 38.9799 117.725 38.7548 118.257C38.5297 118.789 38.1748 119.254 37.7236 119.607C35.1428 121.866 30.5761 124.918 25.4023 132.39C25.4667 135.659 25.7802 136.067 28.6987 137.248C28.6987 137.248 43.3677 126.001 45.6471 122.704C49.0038 117.842 49.0801 97.248 49.2651 91.8798C49.3736 88.8321 49.4661 85.2002 47.1988 83.2393C45.9365 82.1362 35.987 80.5021 35.1348 88.8525Z" fill="#407BFF"/>
<path d="M90.3456 122.312L94.4379 133.203C94.1646 133.51 90.9687 136.284 90.5345 135.246C89.1999 132.112 83.2664 121.862 83.2664 121.862L90.3456 122.312Z" fill="#E29471"/>
<path d="M95.0088 132.705C94.9886 132.717 94.9658 132.723 94.9425 132.723C94.9192 132.723 94.8963 132.717 94.8761 132.705C94.8603 132.687 94.849 132.665 94.8434 132.642C94.8378 132.618 94.838 132.593 94.844 132.57C94.8761 132.492 95.5394 130.65 96.2952 130.299C96.364 130.262 96.4395 130.24 96.517 130.235C96.5944 130.229 96.6722 130.24 96.7454 130.266C96.8322 130.286 96.9104 130.334 96.9689 130.402C97.0274 130.47 97.0632 130.556 97.0711 130.646C97.1113 130.981 96.7093 131.438 96.2309 131.839C95.8513 132.166 95.4421 132.456 95.0088 132.705ZM96.2148 130.605C95.7655 131.1 95.4171 131.68 95.1897 132.313C95.9455 131.826 96.8781 131.022 96.85 130.634C96.85 130.585 96.8178 130.511 96.665 130.454C96.6211 130.439 96.5746 130.433 96.5283 130.437C96.4821 130.44 96.437 130.453 96.3957 130.474C96.3289 130.51 96.2656 130.553 96.2068 130.601L96.2148 130.605Z" fill="#407BFF"/>
<path d="M94.9324 132.705C94.9117 132.703 94.8918 132.696 94.8749 132.683C94.8579 132.671 94.8444 132.655 94.8359 132.635C94.8078 132.586 94.0721 131.5 94.2168 130.703C94.2417 130.591 94.2883 130.486 94.3539 130.392C94.4195 130.299 94.5027 130.22 94.5987 130.16C94.6694 130.09 94.7629 130.048 94.8615 130.044C94.9601 130.039 95.0569 130.072 95.1334 130.135C95.5354 130.495 95.3424 132.055 95.0651 132.639L95.0369 132.68L94.9324 132.705ZM94.4701 130.752C94.4606 131.31 94.6237 131.858 94.9364 132.317C95.1575 131.651 95.246 130.478 94.9847 130.274C94.9605 130.274 94.9002 130.205 94.7314 130.315L94.6912 130.376C94.5717 130.467 94.4922 130.602 94.4701 130.752Z" fill="#407BFF"/>
<path d="M94.3897 132.386L90.0682 134.147C89.9789 134.183 89.9051 134.25 89.8601 134.336C89.8151 134.422 89.802 134.522 89.823 134.617L90.4099 138.6C90.4944 139.009 91.3546 139.135 91.3948 139.119C94.1405 138.302 99.869 136.1 101.73 135.299C103.592 134.498 103.049 132.521 102.217 132.68C98.4861 133.391 96.7615 132.901 95.2581 132.374C94.978 132.263 94.6666 132.268 94.3897 132.386Z" fill="#263238"/>
<path d="M66.3301 104.226C67.3753 104.965 68.3642 105.676 69.2607 106.342C77.3569 112.372 81.9679 123.272 85.2522 129.22C88.2391 130.703 92.3917 127.757 93.654 126.851C93.654 126.851 84.81 107.784 81.8473 103.637C74.6676 93.6447 67.5321 87.0918 56.5213 80.8207C55.0866 80.0003 53.4624 79.5841 51.8165 79.6149C50.1706 79.6458 48.5626 80.1227 47.1587 80.9964C46.0298 81.6601 44.9837 82.4598 44.0432 83.3782C43.6412 83.8194 42.9096 86.3482 46.2944 89.7881C49.3295 92.8766 59.2026 99.2171 66.314 104.238" fill="#407BFF"/>
<path opacity="0.1" d="M49.2772 91.8798C48.5697 90.6011 49.6028 86.2788 49.6028 86.2788C49.6028 86.2788 63.4075 99.8504 64.0748 102.62L52.2158 94.4495L49.2772 91.8798Z" fill="black"/>
<path d="M77.0393 117.871C77.0061 117.871 76.9736 117.862 76.9442 117.847C76.9148 117.831 76.8896 117.808 76.8704 117.781C76.4684 117.136 76.0423 116.51 75.6323 115.922C75.617 115.9 75.6061 115.875 75.6002 115.849C75.5943 115.823 75.5936 115.796 75.5981 115.769C75.6026 115.742 75.6122 115.717 75.6263 115.694C75.6405 115.671 75.6589 115.652 75.6805 115.636C75.7022 115.621 75.7266 115.61 75.7525 115.604C75.7783 115.598 75.8051 115.597 75.8312 115.601C75.8573 115.606 75.8823 115.616 75.9048 115.63C75.9272 115.644 75.9466 115.663 75.9619 115.685C76.3639 116.282 76.7941 116.911 77.2081 117.556C77.2229 117.579 77.233 117.604 77.238 117.63C77.243 117.657 77.2426 117.684 77.237 117.71C77.2313 117.737 77.2205 117.761 77.2052 117.783C77.1899 117.805 77.1704 117.824 77.1478 117.838C77.1163 117.861 77.078 117.873 77.0393 117.871Z" fill="#407BFF"/>
<path d="M74.4786 114.198C74.4477 114.199 74.4171 114.192 74.3892 114.178C74.3614 114.165 74.3369 114.145 74.3178 114.121C72.4847 111.647 70.3197 109.447 67.8858 107.584C67.0456 106.959 66.0888 106.268 64.9592 105.472C64.9185 105.44 64.8915 105.393 64.8837 105.341C64.8759 105.29 64.8879 105.237 64.9173 105.194C64.9467 105.151 64.9912 105.121 65.0416 105.11C65.0921 105.1 65.1446 105.109 65.1883 105.137C66.322 105.954 67.2787 106.628 68.1229 107.257C70.5835 109.135 72.7729 111.355 74.6273 113.851C74.6524 113.88 74.6685 113.917 74.6735 113.955C74.6786 113.994 74.6724 114.033 74.6557 114.069C74.6391 114.104 74.6127 114.133 74.5798 114.153C74.5469 114.173 74.5089 114.183 74.4705 114.182L74.4786 114.198Z" fill="#407BFF"/>
<path d="M48.5093 121.666H48.449C48.3983 121.649 48.356 121.613 48.3313 121.565C48.3065 121.517 48.3011 121.461 48.3164 121.409C48.4329 121.045 48.5415 120.641 48.65 120.212C48.6566 120.186 48.6681 120.161 48.684 120.14C48.6999 120.118 48.7198 120.1 48.7426 120.087C48.7654 120.073 48.7906 120.064 48.8168 120.06C48.843 120.056 48.8696 120.058 48.8952 120.065C48.9207 120.071 48.9447 120.082 48.9658 120.098C48.987 120.114 49.0048 120.134 49.0183 120.156C49.0317 120.179 49.0406 120.205 49.0443 120.231C49.048 120.257 49.0466 120.284 49.04 120.31C48.9314 120.747 48.8189 121.16 48.7023 121.535C48.6869 121.574 48.6602 121.608 48.6257 121.631C48.5913 121.655 48.5507 121.667 48.5093 121.666Z" fill="#407BFF"/>
<path d="M41.1206 130.168C41.0907 130.168 41.0612 130.162 41.0341 130.149C41.0069 130.136 40.9829 130.118 40.9638 130.094C40.9303 130.052 40.9144 129.998 40.9197 129.943C40.925 129.889 40.9509 129.839 40.992 129.804C44.4009 126.924 46.4954 124.926 47.227 123.872C47.3758 123.663 47.5101 123.443 47.629 123.215C47.6546 123.167 47.6975 123.131 47.7485 123.115C47.7996 123.099 47.8548 123.104 47.9024 123.129C47.949 123.154 47.984 123.197 47.9998 123.248C48.0156 123.299 48.0109 123.355 47.9868 123.402C47.8691 123.647 47.7347 123.883 47.5848 124.109C46.8371 125.192 44.7145 127.214 41.2814 130.119C41.2595 130.138 41.2339 130.152 41.2062 130.161C41.1785 130.169 41.1493 130.172 41.1206 130.168Z" fill="#407BFF"/>
<path d="M47.1065 44.0361C47.42 45.3475 48.5939 46.2463 49.7235 46.9531C50.6039 47.5005 51.5727 48.0235 52.6018 47.9867C53.0085 47.9522 53.404 47.834 53.7644 47.6393C54.1247 47.4447 54.4424 47.1776 54.698 46.8544C54.9537 46.5311 55.142 46.1585 55.2516 45.759C55.3612 45.3595 55.3897 44.9415 55.3354 44.5305C55.4861 44.7529 55.6812 44.9406 55.908 45.0813C56.1348 45.2221 56.3882 45.3127 56.6517 45.3474C56.9152 45.3821 57.183 45.36 57.4376 45.2826C57.6921 45.2052 57.9278 45.0742 58.1293 44.8982C58.8931 44.1464 58.873 42.9045 58.6801 41.8423C58.0461 38.4579 56.3186 35.3855 53.7716 33.1119C53.1847 33.8922 52.0189 33.7451 51.4883 33.6021C51.2998 33.5569 51.1176 33.4883 50.9456 33.3979C50.4237 33.2962 49.8835 33.3693 49.4059 33.6062C48.6622 34.5908 48.3929 35.8736 48.1477 37.1033C47.8475 38.6067 47.5473 40.1115 47.2472 41.6176C47.033 42.4047 46.985 43.2289 47.1065 44.0361Z" fill="#263238"/>
<path d="M46.23 41.6339C46.3104 43.8074 46.23 46.9449 44.5738 48.146C44.5738 48.146 44.3205 50.3194 49.8521 53.5795C52.445 50.8219 51.0581 49.1755 51.0581 49.1755C48.8149 48.2441 49.0481 47.2922 49.6792 45.7111L46.23 41.6339Z" fill="#FFB573"/>
<path opacity="0.2" d="M47.645 43.2762L49.655 45.7275C49.4956 46.0937 49.3691 46.4738 49.2771 46.8632C48.4047 46.5936 47.1264 45.6049 47.0862 44.5958C47.1589 44.1148 47.3513 43.6606 47.645 43.2762Z" fill="black"/>
<path d="M44.0793 37.5772C44.4813 41.1886 44.5777 42.7247 46.4913 44.4855C49.3455 47.141 53.6227 45.8419 54.2901 42.1814C54.885 38.8845 54.1212 33.5122 50.5555 32.2785C49.7697 31.9963 48.926 31.9235 48.1047 32.067C47.2834 32.2105 46.512 32.5655 45.8641 33.0982C45.2162 33.6308 44.7135 34.3233 44.4038 35.1096C44.0942 35.8958 43.988 36.7496 44.0953 37.5894L44.0793 37.5772Z" fill="#FFB573"/>
<path d="M51.6289 42.0506C51.6289 42.353 51.7736 42.5981 51.9666 42.6063C52.1596 42.6144 52.3203 42.3652 52.3284 42.067C52.3364 41.7688 52.1837 41.5155 51.9907 41.5114C51.7977 41.5073 51.6289 41.7483 51.6289 42.0506Z" fill="#263238"/>
<path d="M49.8079 38.2227C49.8079 38.5168 49.9928 38.7497 50.1817 38.7415C50.3707 38.7333 50.5114 38.48 50.4993 38.1859C50.4872 37.8917 50.3144 37.6589 50.1295 37.667C49.9445 37.6752 49.8119 37.9408 49.8079 38.2227Z" fill="#263238"/>
<path d="M53.0882 38.0552C53.0882 38.3534 53.2731 38.5822 53.458 38.574C53.643 38.5658 53.7917 38.3125 53.7796 38.0184C53.7676 37.7242 53.5947 37.4914 53.4058 37.5036C53.2169 37.5159 53.0641 37.761 53.0882 38.0552Z" fill="#263238"/>
<path d="M53.3254 37.5241L54.0088 37.283C54.0088 37.283 53.6832 37.8591 53.3254 37.5241Z" fill="#263238"/>
<path d="M52.1033 38.6434C52.4006 39.3023 52.7832 39.9178 53.2409 40.4737C53.097 40.5877 52.9306 40.6689 52.753 40.7119C52.5755 40.7549 52.3909 40.7587 52.2118 40.7229L52.1033 38.6434Z" fill="#ED893E"/>
<path d="M48.7426 36.8541C48.7721 36.8748 48.8072 36.8859 48.8431 36.8859C48.879 36.8859 48.914 36.8748 48.9436 36.8541C49.1713 36.6919 49.4296 36.5794 49.7022 36.5239C49.9748 36.4683 50.2558 36.4708 50.5275 36.5313C50.5717 36.5411 50.6179 36.5329 50.6562 36.5085C50.6946 36.4841 50.7219 36.4453 50.7325 36.4006C50.7379 36.3786 50.7389 36.3557 50.7356 36.3333C50.7322 36.3109 50.7245 36.2894 50.7129 36.27C50.7013 36.2506 50.6861 36.2338 50.668 36.2204C50.65 36.2071 50.6295 36.1975 50.6078 36.1922C50.282 36.1169 49.9439 36.1144 49.617 36.185C49.29 36.2555 48.9821 36.3974 48.7144 36.6008C48.6833 36.6329 48.6658 36.6762 48.6658 36.7213C48.6658 36.7664 48.6833 36.8097 48.7144 36.8418L48.7426 36.8541Z" fill="#263238"/>
<path d="M53.9927 36.466C54.0235 36.4691 54.0546 36.4639 54.0828 36.451C54.111 36.4381 54.1354 36.4179 54.1535 36.3924C54.1668 36.3742 54.1764 36.3535 54.1818 36.3315C54.1872 36.3095 54.1883 36.2867 54.1849 36.2642C54.1815 36.2418 54.1738 36.2203 54.1622 36.2009C54.1506 36.1816 54.1354 36.1647 54.1173 36.1514C53.9023 35.9767 53.6479 35.8591 53.377 35.8092C53.1062 35.7593 52.8273 35.7786 52.5656 35.8654C52.5452 35.8718 52.5263 35.8824 52.51 35.8965C52.4937 35.9107 52.4805 35.928 52.4711 35.9475C52.4617 35.967 52.4563 35.9883 52.4553 36.01C52.4542 36.0317 52.4576 36.0534 52.4651 36.0738C52.4723 36.0948 52.4836 36.1142 52.4982 36.1308C52.5129 36.1474 52.5307 36.1608 52.5505 36.1704C52.5704 36.1799 52.5919 36.1853 52.6138 36.1862C52.6357 36.1872 52.6576 36.1837 52.6782 36.1759C52.884 36.1178 53.1005 36.1098 53.3099 36.1523C53.5194 36.1949 53.7161 36.287 53.8842 36.421C53.9156 36.4458 53.9532 36.4614 53.9927 36.466Z" fill="#263238"/>
<path d="M50.041 37.7202L50.7284 37.475C50.7284 37.475 50.4028 38.0143 50.041 37.7202Z" fill="#263238"/>
<path d="M54.5675 33.9289C54.5353 33.9739 53.1766 34.5867 51.4882 33.5817C51.3153 33.4796 51.1143 33.4632 50.9495 33.3733C50.4263 33.2714 49.8847 33.3445 49.4058 33.5817C49.2852 33.6511 47.842 34.2476 47.6611 36.85C47.3677 41.0334 45.5064 39.9957 45.2491 39.9058C44.622 39.673 44.2883 39.1705 43.6411 39.2563C43.5241 39.2767 43.4044 39.2767 43.2874 39.2563C43.6894 40.4573 44.1195 41.6013 44.6341 41.8586C48.3847 43.7011 47.2752 46.9653 46.2823 47.4842C45.5707 47.86 42.5839 48.1583 40.3809 45.6784C39.7055 46.3035 38.6081 46.1564 37.784 45.7234C37.1556 45.3837 36.6701 44.8235 36.4179 44.1471C36.1657 43.4706 36.164 42.7241 36.4132 42.0466C36.889 40.7002 37.7605 39.535 38.9096 38.7088C39.7136 38.1491 40.6422 37.7406 41.2211 36.948C41.3882 36.7158 41.5234 36.4615 41.6231 36.1922C41.7799 35.7837 41.9688 35.3547 42.1537 34.9421C42.1788 34.8788 42.1977 34.8131 42.21 34.746C42.5039 33.8234 43.0208 32.9904 43.7135 32.3234C44.7426 31.3021 46.9777 30.5095 48.8229 30.4646C50.9455 30.391 53.7313 31.9353 54.5675 33.9289Z" fill="#263238"/>
<path d="M41.9729 36.7601C42.0016 36.4619 42.0139 36.2045 42.018 36.0983C41.989 36.3177 41.9739 36.5388 41.9729 36.7601Z" fill="#263238"/>
<path d="M43.2512 40.4165C43.5085 41.0532 44.0025 41.5611 44.626 41.83C45.4622 42.1732 45.9848 41.4215 45.832 40.5799C45.6953 39.8078 45.1044 38.6966 44.224 38.7047C44.0718 38.7105 43.9222 38.7469 43.7838 38.8117C43.6454 38.8766 43.5211 38.9686 43.4179 39.0826C43.3148 39.1965 43.2349 39.3301 43.1828 39.4756C43.1307 39.6211 43.1075 39.7757 43.1145 39.9303C43.1228 40.1009 43.1696 40.2672 43.2512 40.4165Z" fill="#FFB573"/>
<path d="M54.1051 47.4106C55.1302 47.2227 56.1554 46.7897 56.7141 45.9031C58.3221 43.3539 55.6408 36.7601 52.3926 33.3488L52.26 33.5204C55.476 36.8786 58.1252 43.3253 56.5574 45.8214C55.476 47.5332 52.4328 47.4556 51.452 47.2676L51.4158 47.4678C52.3095 47.595 53.2175 47.5757 54.1051 47.4106Z" fill="#263238"/>
<path d="M42.1015 37.1482L42.2985 37.1114C42.0533 35.7592 42.5156 34.2762 43.5929 32.9321C44.7587 31.4818 46.4512 30.4809 47.8019 30.4809C49.3536 30.4523 51.5807 31.0202 52.8108 32.3357L52.9555 32.1968C51.6852 30.8322 49.3938 30.248 47.7979 30.2766C46.3909 30.3011 44.6381 31.3225 43.4402 32.8136C42.3186 34.1904 41.8442 35.7347 42.1015 37.1482Z" fill="#263238"/>
<path d="M36.2847 43.7338C37.2943 44.6015 38.3696 45.3869 39.5007 46.0829C40.5325 46.7941 41.7304 47.2168 42.9739 47.3085C43.2635 47.3179 43.5532 47.296 43.8382 47.2431C44.3179 47.1708 44.7767 46.9947 45.1838 46.727C45.5908 46.4592 45.9367 46.1058 46.198 45.6907C46.369 45.3833 46.478 45.0443 46.5188 44.6936C46.5595 44.3429 46.5311 43.9874 46.4352 43.648C46.3653 43.3657 46.2389 43.101 46.0639 42.8704C45.8889 42.6399 45.6691 42.4484 45.4181 42.308L45.3297 42.4837C45.5571 42.6136 45.756 42.7893 45.9143 43C46.0726 43.2108 46.1869 43.4521 46.2502 43.7093C46.3389 44.023 46.365 44.3516 46.327 44.6757C46.2891 44.9998 46.1878 45.3129 46.0291 45.5967C45.7002 46.0953 45.2492 46.4983 44.7206 46.7662C44.192 47.0341 43.6039 47.1576 43.0141 47.1247C41.8053 47.034 40.6409 46.6226 39.6373 45.9317C38.4784 45.2234 37.3774 44.4214 36.345 43.5336L36.2847 43.7338Z" fill="#263238"/>
<path d="M38.7529 51.0098C39.1067 53.7103 42.0493 65.2759 42.6483 66.5955C42.7327 66.7753 42.8171 66.9591 42.9176 67.1429C43.0181 67.3268 43.1146 67.5147 43.2392 67.7108L43.4242 68.0131C43.5126 68.1398 43.601 68.2746 43.6935 68.3849C43.8682 68.6061 44.0562 68.8163 44.2563 69.014C44.9299 69.6385 45.7017 70.1439 46.5397 70.5093C47.8952 71.103 49.3187 71.5216 50.7767 71.7553C53.4567 72.2056 56.1785 72.3427 58.8891 72.1639L59.0298 69.3041L57.1927 68.8956C56.5776 68.7567 55.9666 68.5973 55.3596 68.4543C54.1536 68.1479 52.9475 67.8252 51.8139 67.4371C50.7365 67.1062 49.02 66.62 48.0351 66.0807C47.6967 65.8883 47.3924 65.6398 47.1346 65.3454C47.1068 65.3098 47.0826 65.2715 47.0623 65.231C47.0605 65.2202 47.0605 65.2091 47.0623 65.1983L47.002 65.0798C46.9537 64.9818 46.9095 64.8797 46.8693 64.7775C46.8291 64.6754 43.8583 52.403 43.4523 49.9068L38.7529 51.0098Z" fill="#FFB573"/>
<path d="M58.5393 69.5533C59.1122 68.8213 59.768 68.1603 60.493 67.5842C60.819 67.313 61.2104 67.1353 61.6267 67.0694C62.9291 66.8651 64.304 66.6609 64.3522 69.0917C64.3522 69.1529 64.6578 70.1825 64.6618 70.2396C64.7743 71.5756 63.512 71.7798 62.1975 71.8942L58.6881 72.1393L58.5393 69.5533Z" fill="#FFB573"/>
<path d="M45.4742 50.9853C46.7124 55.0911 45.221 55.0421 45.3697 57.5464L40.4291 58.7966C40.4291 58.7966 37.7156 56.4761 37.3056 53.5387C37.2164 52.8084 37.2978 52.0671 37.5433 51.3748C37.7888 50.6825 38.1914 50.0587 38.7185 49.5542C39.2455 49.0496 39.8822 48.6783 40.5768 48.4706C41.2715 48.2629 42.0045 48.2244 42.7165 48.3585C43.3773 48.4775 43.9897 48.7892 44.4794 49.2556C44.969 49.722 45.3146 50.3229 45.4742 50.9853Z" fill="#263238"/>
<path d="M44.6431 56.4722L43.1335 56.8193L43.232 57.2616L44.7416 56.9145L44.6431 56.4722Z" fill="#407BFF"/>
<path d="M42.285 57.0687L40.699 57.6077L40.8405 58.0378L42.4265 57.4988L42.285 57.0687Z" fill="#407BFF"/>
<path d="M59.2234 56.9132L57.8652 57.2182L57.952 57.6171L59.3101 57.3121L59.2234 56.9132Z" fill="#407BFF"/>
<path d="M74.4784 63.6091C73.9541 64.2257 73.6573 65.0086 73.6389 65.8234C73.6206 66.6382 73.8819 67.434 74.3779 68.0744L74.4784 68.2051V68.916H52.0227V62.7879H74.4784V63.6091Z" fill="#407BFF"/>
<path opacity="0.1" d="M74.4785 63.6091C73.9542 64.2257 73.6574 65.0086 73.639 65.8234C73.6207 66.6382 73.882 67.434 74.378 68.0744L74.4785 68.2051V68.916H64.6335V62.7879H74.4785V63.6091Z" fill="black"/>
<path d="M74.3699 68.0744L74.4704 68.2051H65.6987V63.6091H74.4784C73.9541 64.2257 73.6572 65.0086 73.6389 65.8234C73.6206 66.6382 73.8819 67.434 74.3779 68.0744H74.3699Z" fill="#263238"/>
<path opacity="0.9" d="M74.3699 68.0744L74.4704 68.2051H65.6987V63.6091H74.4784C73.9541 64.2257 73.6572 65.0086 73.6389 65.8234C73.6206 66.6382 73.8819 67.434 74.3779 68.0744H74.3699Z" fill="white"/>
<path d="M63.8414 66.0113C63.8414 66.2537 63.7707 66.4906 63.6382 66.6922C63.5057 66.8937 63.3173 67.0508 63.097 67.1436C62.8766 67.2364 62.6341 67.2606 62.4002 67.2133C62.1662 67.1661 61.9513 67.0493 61.7827 66.8779C61.614 66.7065 61.4992 66.4881 61.4526 66.2504C61.4061 66.0126 61.43 65.7662 61.5212 65.5423C61.6125 65.3183 61.7671 65.1269 61.9654 64.9922C62.1638 64.8576 62.3969 64.7857 62.6354 64.7857C62.9553 64.7857 63.262 64.9148 63.4882 65.1446C63.7144 65.3745 63.8414 65.6862 63.8414 66.0113Z" fill="white"/>
<path d="M63.5681 66.0113C63.5681 66.2012 63.5127 66.3868 63.4089 66.5447C63.3051 66.7025 63.1576 66.8256 62.9849 66.8982C62.8123 66.9709 62.6224 66.9899 62.4391 66.9529C62.2559 66.9158 62.0875 66.8244 61.9554 66.6901C61.8233 66.5559 61.7333 66.3848 61.6969 66.1986C61.6604 66.0123 61.6791 65.8193 61.7506 65.6439C61.8221 65.4684 61.9432 65.3185 62.0986 65.213C62.2539 65.1075 62.4366 65.0512 62.6234 65.0512C62.874 65.0512 63.1142 65.1524 63.2914 65.3324C63.4686 65.5125 63.5681 65.7566 63.5681 66.0113Z" fill="#263238"/>
<path d="M57.8677 64.1361H52.6296V67.531H57.8677V64.1361Z" fill="white"/>
<path d="M60.3683 64.1361H58.113V67.531H60.3683V64.1361Z" fill="white"/>
<path d="M65.6987 67.6332V67.2246C65.8698 67.2494 66.044 67.2365 66.2097 67.1869C66.3754 67.1373 66.5287 67.0521 66.6592 66.937C66.7897 66.822 66.8943 66.6798 66.966 66.5201C67.0377 66.3604 67.0749 66.1868 67.0749 66.0113C67.0749 65.8357 67.0377 65.6622 66.966 65.5025C66.8943 65.3428 66.7897 65.2006 66.6592 65.0855C66.5287 64.9705 66.3754 64.8853 66.2097 64.8356C66.044 64.786 65.8698 64.7732 65.6987 64.7979V64.3894C65.9248 64.3611 66.1542 64.3819 66.3717 64.4505C66.5892 64.5191 66.79 64.6338 66.9606 64.7872C67.1312 64.9405 67.2678 65.1289 67.3614 65.34C67.4549 65.551 67.5033 65.7798 67.5033 66.0113C67.5033 66.2427 67.4549 66.4716 67.3614 66.6826C67.2678 66.8936 67.1312 67.082 66.9606 67.2354C66.79 67.3887 66.5892 67.5035 66.3717 67.5721C66.1542 67.6406 65.9248 67.6615 65.6987 67.6332Z" fill="#263238"/>
<path d="M73.7428 64.9491H65.6987V65.1534H73.7428V64.9491Z" fill="white"/>
<path d="M73.7428 65.186H65.6987V65.3903H73.7428V65.186Z" fill="white"/>
<path d="M73.7428 65.4271H65.6987V65.6313H73.7428V65.4271Z" fill="white"/>
<path d="M73.7428 65.6681H65.6987V65.8724H73.7428V65.6681Z" fill="white"/>
<path d="M73.7428 65.9091H65.6987V66.1134H73.7428V65.9091Z" fill="white"/>
<path d="M73.7428 66.1502H65.6987V66.3544H73.7428V66.1502Z" fill="white"/>
<path d="M73.7428 66.3871H65.6987V66.5914H73.7428V66.3871Z" fill="white"/>
<path d="M73.7428 66.6282H65.6987V66.8324H73.7428V66.6282Z" fill="white"/>
<path d="M73.7428 66.8692H65.6987V67.0735H73.7428V66.8692Z" fill="white"/>
<path d="M76.9267 57.3707C76.4023 57.9874 76.1055 58.7703 76.0872 59.585C76.0688 60.3998 76.3301 61.1957 76.8262 61.836L76.9267 61.9668V62.6776H54.4709V56.5291H76.9267V57.3707Z" fill="#407BFF"/>
<path opacity="0.1" d="M76.9265 57.3707C76.4022 57.9874 76.1054 58.7703 76.087 59.585C76.0687 60.3998 76.33 61.1957 76.826 61.836L76.9265 61.9668V62.6776H67.0815V56.5291H76.9265V57.3707Z" fill="black"/>
<path d="M76.8262 61.836L76.9267 61.9668H68.147V57.3707H76.9267C76.4023 57.9874 76.1055 58.7703 76.0872 59.585C76.0688 60.3998 76.3301 61.1957 76.8262 61.836Z" fill="#263238"/>
<path opacity="0.9" d="M76.8262 61.836L76.9267 61.9668H68.147V57.3707H76.9267C76.4023 57.9874 76.1055 58.7703 76.0872 59.585C76.0688 60.3998 76.3301 61.1957 76.8262 61.836Z" fill="white"/>
<path d="M66.2897 59.7729C66.2897 60.0153 66.219 60.2523 66.0864 60.4538C65.9539 60.6554 65.7656 60.8125 65.5452 60.9052C65.3248 60.998 65.0823 61.0223 64.8484 60.975C64.6145 60.9277 64.3996 60.811 64.2309 60.6395C64.0623 60.4681 63.9474 60.2498 63.9009 60.012C63.8543 59.7743 63.8782 59.5278 63.9695 59.3039C64.0608 59.0799 64.2153 58.8885 64.4137 58.7539C64.612 58.6192 64.8452 58.5473 65.0837 58.5473C65.4035 58.5473 65.7103 58.6764 65.9365 58.9063C66.1626 59.1361 66.2897 59.4479 66.2897 59.7729Z" fill="white"/>
<path d="M66.0164 59.7729C66.0164 59.9628 65.961 60.1484 65.8571 60.3063C65.7533 60.4642 65.6058 60.5872 65.4332 60.6599C65.2606 60.7326 65.0706 60.7516 64.8874 60.7145C64.7041 60.6775 64.5358 60.5861 64.4036 60.4518C64.2715 60.3175 64.1816 60.1465 64.1451 59.9602C64.1087 59.774 64.1274 59.581 64.1989 59.4055C64.2704 59.2301 64.3915 59.0802 64.5468 58.9747C64.7022 58.8692 64.8848 58.8129 65.0717 58.8129C65.3222 58.8129 65.5625 58.914 65.7397 59.0941C65.9168 59.2741 66.0164 59.5183 66.0164 59.7729Z" fill="#263238"/>
<path d="M60.3159 57.8977H55.0779V61.2927H60.3159V57.8977Z" fill="white"/>
<path d="M62.8165 57.8977H60.5613V61.2927H62.8165V57.8977Z" fill="white"/>
<path d="M68.147 61.3948V60.9863C68.4344 60.9446 68.6975 60.799 68.8878 60.5761C69.0781 60.3532 69.1828 60.068 69.1828 59.7729C69.1828 59.4778 69.0781 59.1926 68.8878 58.9697C68.6975 58.7468 68.4344 58.6012 68.147 58.5596V58.151C68.5365 58.1998 68.8949 58.3916 69.1549 58.6903C69.4149 58.9891 69.5584 59.3741 69.5584 59.7729C69.5584 60.1717 69.4149 60.5568 69.1549 60.8555C68.8949 61.1542 68.5365 61.3461 68.147 61.3948Z" fill="#263238"/>
<path d="M76.191 58.7107H68.147V58.915H76.191V58.7107Z" fill="white"/>
<path d="M76.191 58.9477H68.147V59.152H76.191V58.9477Z" fill="white"/>
<path d="M76.191 59.1887H68.147V59.393H76.191V59.1887Z" fill="white"/>
<path d="M76.191 59.4297H68.147V59.634H76.191V59.4297Z" fill="white"/>
<path d="M76.191 59.6708H68.147V59.875H76.191V59.6708Z" fill="white"/>
<path d="M76.191 59.9118H68.147V60.1161H76.191V59.9118Z" fill="white"/>
<path d="M76.191 60.1488H68.147V60.353H76.191V60.1488Z" fill="white"/>
<path d="M76.191 60.3898H68.147V60.5941H76.191V60.3898Z" fill="white"/>
<path d="M76.191 60.6309H68.147V60.8351H76.191V60.6309Z" fill="white"/>
<path d="M65.7229 28.0787C70.3264 28.7192 74.996 28.6917 79.5919 27.997C79.7272 27.9948 79.8604 27.9631 79.9825 27.9039C80.1046 27.8446 80.2127 27.7593 80.2994 27.6538C80.5085 27.3025 80.215 26.8776 79.9738 26.5508C79.5358 25.949 79.2256 25.2613 79.063 24.5313C78.9004 23.8013 78.8888 23.0449 79.0291 22.3102C75.6004 25.4839 71.2783 27.4844 66.6716 28.0297L65.7229 28.0787Z" fill="#407BFF"/>
<path opacity="0.4" d="M65.7229 28.0787C70.3264 28.7192 74.996 28.6917 79.5919 27.997C79.7272 27.9948 79.8604 27.9631 79.9825 27.9039C80.1046 27.8446 80.2127 27.7593 80.2994 27.6538C80.5085 27.3025 80.215 26.8776 79.9738 26.5508C79.5358 25.949 79.2256 25.2613 79.063 24.5313C78.9004 23.8013 78.8888 23.0449 79.0291 22.3102C75.6004 25.4839 71.2783 27.4844 66.6716 28.0297L65.7229 28.0787Z" fill="white"/>
<path d="M55.3192 56.5496H75.4031V51.4755H55.3192V56.5496Z" fill="#407BFF"/>
<path opacity="0.6" d="M55.3875 56.5659H75.4714V51.4919H55.3875V56.5659Z" fill="white"/>
<path opacity="0.6" d="M55.3232 56.5659H70.7358V51.4919H55.3232V56.5659Z" fill="white"/>
<path d="M55.4197 55.9L75.4071 56.5332L75.383 56.0185L55.4116 55.7529L55.4197 55.9Z" fill="#407BFF"/>
<path d="M75.4069 53.555L55.4517 52.4152V52.5868L75.4069 53.939V53.555Z" fill="#407BFF"/>
<path d="M75.4069 52.023L55.4517 52.4846V52.6521L75.4069 52.407V52.023Z" fill="#407BFF"/>
<path d="M75.4632 54.5518L55.5039 55.5405V55.3893L75.4632 54.2127V54.5518Z" fill="#407BFF"/>
<path d="M55.3713 51.5368L75.3266 51.5532V51.7207H55.3713V51.5368Z" fill="#407BFF"/>
<path d="M56.7623 41.4337H76.8462V36.3597H56.7623V41.4337Z" fill="#407BFF"/>
<path opacity="0.6" d="M56.8265 41.4583H76.9104V36.3842H56.8265V41.4583Z" fill="white"/>
<path opacity="0.6" d="M56.7663 41.4583H72.179V36.3842H56.7663V41.4583Z" fill="white"/>
<path d="M56.8589 40.7882L76.8463 41.4174L76.8222 40.9026L56.8508 40.6371L56.8589 40.7882Z" fill="#407BFF"/>
<path d="M76.8461 38.4392L56.8909 37.2993V37.4709L76.8461 38.8273V38.4392Z" fill="#407BFF"/>
<path d="M76.8461 36.9072L56.8909 37.3729V37.5404L76.8461 37.2953V36.9072Z" fill="#407BFF"/>
<path d="M76.9024 39.436L56.9431 40.4246V40.2776L76.9024 39.101V39.436Z" fill="#407BFF"/>
<path d="M56.513 51.402H76.5969V46.328H56.513V51.402Z" fill="#407BFF"/>
<path opacity="0.6" d="M56.5775 51.4225H76.6614V46.3484H56.5775V51.4225Z" fill="white"/>
<path opacity="0.6" d="M71.9701 46.3484H56.5574V51.4224H71.9701V46.3484Z" fill="white"/>
<path d="M76.5084 50.6095L56.5371 50.8709L56.5129 51.3857L76.4964 50.7565L76.5084 50.6095Z" fill="#407BFF"/>
<path d="M56.6416 46.3934L76.5969 46.4097V46.5772H56.6416V46.3934Z" fill="#407BFF"/>
<path d="M56.5129 48.7956L76.4682 47.4392V47.2676L56.5129 48.4115V48.7956Z" fill="#407BFF"/>
<path d="M76.5969 46.8754L56.6416 47.3412V47.5087L76.5969 47.2635V46.8754Z" fill="#407BFF"/>
<path d="M76.6531 49.4084L56.6938 50.3929V50.2459L76.6531 49.0693V49.4084Z" fill="#407BFF"/>
<path d="M75.9014 41.544L55.8255 41.6462L55.7974 46.6181H75.9014V41.544Z" fill="#407BFF"/>
<path opacity="0.6" d="M55.8177 46.6181H75.9016V41.5441H55.8177V46.6181Z" fill="white"/>
<path opacity="0.6" d="M71.21 41.544H55.7974V46.6181H71.21V41.544Z" fill="white"/>
<path d="M71.8172 41.6462H55.8257V42.1609H71.4715L71.8172 41.6462Z" fill="#407BFF"/>
<path d="M75.785 43.7256L55.8257 43.9135V44.0647H75.785V43.7256Z" fill="#407BFF"/>
<path d="M55.8257 46.0747L75.785 45.0861V45.2331L55.8257 46.4097V46.0747Z" fill="#407BFF"/>
<path d="M55.8257 44.1668L75.785 44.5713V44.7143L55.8257 44.5018V44.1668Z" fill="#407BFF"/>
<path d="M81.0271 30.5054H61.0718V33.0588H81.0271V30.5054Z" fill="#407BFF"/>
<path opacity="0.6" d="M81.0271 30.5054H61.0718V33.0588H81.0271V30.5054Z" fill="white"/>
<path opacity="0.6" d="M76.9709 30.5054H61.0718V33.0588H76.9709V30.5054Z" fill="white"/>
<path d="M81.039 32.3193L61.0837 32.4174V32.4909H81.039V32.3193Z" fill="#407BFF"/>
<path d="M61.0837 31.3633L81.039 30.8445V30.9221L61.0837 31.5349V31.3633Z" fill="#407BFF"/>
<path d="M61.0195 31.2203L80.9748 31.4287V31.5063L61.0195 31.396V31.2203Z" fill="#407BFF"/>
<path d="M78.237 29.3778H58.2817V30.6075H78.237V29.3778Z" fill="#407BFF"/>
<path opacity="0.6" d="M78.237 29.3901H58.2817V30.6116H78.237V29.3901Z" fill="white"/>
<path opacity="0.6" d="M74.1849 29.3125H58.2817V30.6116H74.1849V29.3125Z" fill="white"/>
<path d="M58.2898 30.3175L78.2451 29.8027V29.8803L58.2898 30.4931V30.3175Z" fill="#407BFF"/>
<path d="M58.2898 29.7006L78.2451 29.9089V29.9865L58.2898 29.8762V29.7006Z" fill="#407BFF"/>
<path d="M80.0944 28.1236H60.1392V29.3533H80.0944V28.1236Z" fill="#407BFF"/>
<path opacity="0.6" d="M80.0944 28.1318H60.1392V29.3533H80.0944V28.1318Z" fill="white"/>
<path opacity="0.6" d="M76.0383 28.0542H60.1392V29.3533H76.0383V28.0542Z" fill="white"/>
<path d="M60.1511 28.6792L80.1104 28.9244L80.1064 29.002L60.1431 28.8549L60.1511 28.6792Z" fill="#407BFF"/>
<path d="M60.1511 28.4423L80.1024 28.6506V28.7283L60.1511 28.618V28.4423Z" fill="#407BFF"/>
<path d="M79.6804 33.0587H59.7251V36.3475H79.6804V33.0587Z" fill="#407BFF"/>
<path opacity="0.6" d="M79.6804 33.0587H59.7251V36.3475H79.6804V33.0587Z" fill="white"/>
<path opacity="0.6" d="M75.1217 33.0587H59.7251V36.3475H75.1217V33.0587Z" fill="white"/>
<path d="M79.5517 34.0842L59.5964 33.9657V33.8799H79.5517V34.0842Z" fill="#407BFF"/>
<path d="M59.7332 34.5622L79.6884 35.1545V35.0647L59.7332 34.362V34.5622Z" fill="#407BFF"/>
<path d="M79.6883 33.0628H60.8667L61.2848 33.4673H79.6883V33.0628Z" fill="#407BFF"/>
<path d="M59.8015 35.8409L79.7568 35.5957V35.5099L59.8015 35.6366V35.8409Z" fill="#407BFF"/>
</g>
<defs>
<clipPath id="clip0_73_1301">
<rect width="201" height="152" fill="white"/>
</clipPath>
</defs>
</svg>
