<svg width="142" height="180" viewBox="0 0 142 180" fill="none" xmlns="http://www.w3.org/2000/svg">
<g clip-path="url(#clip0_73_84)">
<g style="mix-blend-mode:multiply" opacity="0.66">
<path d="M100.72 174.046L83.6726 180L0 164.058L37.3045 150.641L100.72 174.046Z" fill="#E8DEDC"/>
</g>
<path d="M21.2938 132.318L65.9305 113.952L142 128.395L100.183 147.54L21.2938 132.318Z" fill="#827CBB"/>
<path d="M38.8369 130.814L66.3962 118.803L124.846 129.873L98.6164 142.259L38.8369 130.814Z" fill="#5C53A2"/>
<path d="M142 128.395L141.92 130.065L140.535 130.819L141.069 153.128L141.784 152.8L141.742 154.381L100.716 174.046C100.716 174.046 96.1314 172.789 95.8605 169.139C95.4795 163.973 100.183 147.54 100.183 147.54L142 128.395Z" fill="#6F67BB"/>
<g style="mix-blend-mode:multiply" opacity="0.5">
<path d="M21.2938 132.318L65.9305 113.952L131.781 131.704L84.0239 144.423L21.2938 132.318Z" fill="#B89692"/>
</g>
<path d="M100.716 174.046L89.866 172.027L87.3853 171.571L31.2169 161.132L28.7488 160.659L21.387 159.292C21.387 159.292 19.1433 156.408 19.1433 146.177C19.1433 134.818 21.2896 132.305 21.2896 132.305L29.4008 133.872L31.763 134.328L87.6435 145.112L90.01 145.564L100.17 147.527C98.9747 151.905 98.3779 156.426 98.3963 160.965C98.4479 165.424 99.2318 169.844 100.716 174.046Z" fill="#5C53A2"/>
<path d="M141.069 153.128L102.147 171.822C102.147 171.822 100.517 167.763 100.454 159.922C100.407 151.714 101.834 148.733 101.834 148.733L140.535 130.818L141.069 153.128Z" fill="#FAEBD9"/>
<g style="mix-blend-mode:multiply" opacity="0.5">
<path d="M100.962 152.191C101.161 151.22 101.834 148.733 101.834 148.733L140.535 130.818L140.624 133.868C140.624 133.868 111.465 148.073 100.962 152.191Z" fill="#B89692"/>
</g>
<path d="M89.866 172.027L87.3853 171.571C85.7766 159.33 86.7672 150.092 87.652 145.125L90.0184 145.577C89.1675 150.479 88.1769 159.807 89.866 172.027Z" fill="#827CBB"/>
<path d="M31.2168 161.132C29.1213 148.23 30.5056 138.711 31.7629 134.341L29.4007 133.885C27.8513 138.306 26.8014 147.54 28.7488 160.672L31.2168 161.132Z" fill="#827CBB"/>
<g style="mix-blend-mode:multiply" opacity="0.5">
<g style="mix-blend-mode:multiply" opacity="0.28">
<path d="M20.8409 158.261C20.9816 158.629 21.1649 158.979 21.387 159.304L28.7489 160.659L31.2169 161.119L87.3853 171.558L89.8661 172.014L100.716 174.033C100.716 174.033 100.593 173.709 100.403 173.121C100.403 173.134 21.7046 158.35 20.8409 158.261Z" fill="#88ADC7"/>
</g>
</g>
<path d="M135.531 115.651L100.263 101.621L25.9294 115.736L58.446 130.525L135.531 115.651Z" fill="#ED604E"/>
<g style="mix-blend-mode:multiply">
<path d="M123.191 110.74L100.263 101.621L25.9294 115.736L45.4834 124.63L90.7043 125.92L123.191 110.74Z" fill="#B89692"/>
</g>
<path d="M25.9294 115.737L26.0099 117.368L27.3603 118.105L26.8396 128.91L26.1411 128.587L26.1834 130.133L57.9337 145.428C57.9337 145.428 59.263 144.78 59.5255 141.211C59.8938 136.164 58.4544 130.525 58.4544 130.525L25.9294 115.737Z" fill="#B04434"/>
<path d="M58.446 130.525L57.9253 145.428L135.438 131.027L135.531 115.651L58.446 130.525Z" fill="#D84C3A"/>
<path d="M74.2787 127.437L70.7227 128.122V143L74.2787 142.34V127.437Z" fill="#ED7566"/>
<path d="M80.7304 126.193L76.3489 127.036V141.952L80.7304 141.139V126.193Z" fill="#ED7566"/>
<path d="M41.3051 112.768L37.749 113.454L70.7228 128.05L74.2788 127.39L41.3051 112.768Z" fill="#FFA498"/>
<path d="M47.7567 111.524L43.3794 112.367L76.3489 127.006L80.7304 126.193L47.7567 111.524Z" fill="#FFA498"/>
<path d="M83.7657 104.607L80.2097 105.293L113.183 119.889L116.739 119.229L83.7657 104.607Z" fill="#FFA498"/>
<path d="M90.2216 103.363L85.8401 104.207L118.81 118.846L123.191 118.032L90.2216 103.363Z" fill="#FFA498"/>
<path d="M123.191 118.032L119.635 118.718V133.919L123.191 133.259V118.032Z" fill="#ED7566"/>
<path d="M117.734 119.071L113.353 119.919V135.163L117.734 134.349V119.071Z" fill="#ED7566"/>
<path d="M26.8439 128.91L56.5283 143.255L56.8331 131.692L27.3646 118.105L26.8439 128.91Z" fill="#F1E0CC"/>
<g style="mix-blend-mode:multiply" opacity="0.5">
<path d="M27.1698 122.151L56.723 135.883L56.833 131.692L27.3645 118.105L27.1698 122.151Z" fill="#B89692"/>
</g>
<path d="M17.8141 103.457L50.9402 87.9705L120.753 97.2556L90.2132 112.879L17.8141 103.457Z" fill="#5F9CA4"/>
<g style="mix-blend-mode:multiply" opacity="0.5">
<path d="M22.4412 101.353L50.9402 87.9705L120.753 97.2556L92.8675 111.524L22.4412 101.353Z" fill="#93BBD7"/>
</g>
<path d="M120.753 97.2513L120.676 98.7932L119.406 99.5556L119.898 108.747L120.554 108.406L120.511 109.863L90.7042 125.92C90.7042 125.92 86.4708 125.013 86.2464 121.661C85.8993 116.942 90.2131 112.866 90.2131 112.866L120.753 97.2513Z" fill="#BFD8DC"/>
<path d="M90.2132 112.879C90.2132 112.879 88.287 113.952 88.3378 119.966C88.3461 122.184 89.192 124.315 90.7042 125.929L17.8902 116.559C17.8902 116.559 15.6254 114.318 15.5873 110.114C15.5492 105.774 17.8013 103.478 17.8013 103.478L90.2132 112.879Z" fill="#49848C"/>
<path d="M34.3665 110.459L32.2413 112.355L34.3665 114.787L36.4916 112.887L34.3665 110.459Z" fill="#5F9CA4"/>
<path d="M40.869 111.273L38.748 113.172L40.869 115.604L42.9941 113.705L40.869 111.273Z" fill="#5F9CA4"/>
<path d="M47.3756 112.086L45.2505 113.986L47.3756 116.418L49.4966 114.518L47.3756 112.086Z" fill="#5F9CA4"/>
<path d="M53.8781 112.9L51.7529 114.799L53.8781 117.231L56.0032 115.332L53.8781 112.9Z" fill="#5F9CA4"/>
<path d="M60.3806 113.718L58.2596 115.617L60.3806 118.045L62.5057 116.145L60.3806 113.718Z" fill="#5F9CA4"/>
<path d="M66.8872 114.531L64.7621 116.431L66.8872 118.863L69.0082 116.963L66.8872 114.531Z" fill="#5F9CA4"/>
<path d="M119.898 108.747L92.0165 123.808L91.7329 113.892L119.406 99.5556L119.898 108.747Z" fill="#F1E0CC"/>
<g style="mix-blend-mode:multiply">
<path d="M119.898 101.915L91.8938 119.531L91.7329 113.892L119.406 99.5556L119.898 101.915Z" fill="#D8E2EC"/>
</g>
<path d="M34.7476 83.5834L68.9193 70.2988L137.911 83.2427L106.279 97.23L34.7476 83.5834Z" fill="#436A90"/>
<g style="mix-blend-mode:multiply" opacity="0.5">
<path d="M34.7476 83.5834L68.9193 70.2988L131.781 82.1012L127.505 87.8469L98.1211 95.6073L34.7476 83.5834Z" fill="#88ADC7"/>
</g>
<path d="M137.911 83.2427L137.724 84.7717L136.395 85.4703L136.467 96.8936L137.149 96.5911L137 98.0393L106.063 112.495C106.063 112.495 101.931 108.811 101.931 105.467C101.931 100.735 106.279 97.23 106.279 97.23L137.911 83.2427Z" fill="#A5BDD1"/>
<path d="M106.3 97.2301C106.3 97.2301 104.56 99.1467 104.56 103.721C104.584 106.71 105.099 109.675 106.084 112.495L34.1167 99.2915C34.1167 99.2915 31.5555 92.6514 31.8265 88.456C32.0847 84.1244 34.756 83.5664 34.756 83.5664L106.3 97.2301Z" fill="#2B4C6B"/>
<g style="mix-blend-mode:multiply" opacity="0.5">
<path d="M106.3 97.2301L34.7559 83.5664C34.7559 83.5664 32.0974 84.1116 31.818 88.4475C31.7597 90.0712 31.97 91.6934 32.4403 93.2477C45.441 93.4436 106.3 97.2301 106.3 97.2301Z" fill="#88ADC7"/>
</g>
<path d="M136.467 96.8936L107.528 110.455C107.528 110.455 106.592 106.494 106.592 103.389C106.592 99.5556 107.718 98.3162 107.718 98.3162L136.395 85.4703L136.467 96.8936Z" fill="white"/>
<g style="mix-blend-mode:multiply" opacity="0.5">
<path d="M136.404 86.2753V85.4703L107.727 98.3162C107.727 98.3162 106.601 99.5599 106.601 103.389C106.601 103.742 106.601 104.066 106.634 104.377C109.962 102.23 129.774 90.1128 136.404 86.2753Z" fill="#B89692"/>
</g>
<path d="M130.363 77.3863L97.2364 64.2124L27.4238 77.4672L57.9634 91.3566L130.363 77.3863Z" fill="#EDB446"/>
<g style="mix-blend-mode:multiply" opacity="0.5">
<path d="M124.393 76.8879L97.2363 64.2124L33.3801 76.3385L62.9968 88.2942L124.393 76.8879Z" fill="#B89692"/>
</g>
<path d="M116.938 76.8836L95.2933 67.7816L68.9236 72.8459L89.0575 82.3823L116.938 76.8836Z" fill="white"/>
<path d="M27.4238 77.4672L27.4958 79.0005L28.7658 79.6948L28.2747 85.4149L27.6143 85.1125L27.6567 86.5649L57.4681 100.927C57.4681 100.927 61.676 99.7771 61.9216 96.4293C62.2729 91.6845 57.9591 91.3566 57.9591 91.3566L27.4238 77.4672Z" fill="#F0D29B"/>
<path d="M57.9634 91.3566C57.9634 91.3566 59.6567 93.0262 59.3688 96.8169C59.2487 98.3719 58.5753 99.8312 57.4723 100.927L130.286 87.404C130.286 87.404 132.894 86.7693 132.932 82.5612C132.97 78.221 130.392 77.3862 130.392 77.3862L57.9634 91.3566Z" fill="#D08819"/>
<path d="M28.2789 85.4149L56.1599 98.8997C56.1599 98.8997 57.4723 98.8997 57.4723 95.9438C57.4504 94.71 57.0948 93.5055 56.4436 92.4597L28.77 79.682L28.2789 85.4149Z" fill="#FAEBD9"/>
<g style="mix-blend-mode:multiply" opacity="0.5">
<path d="M57.0616 93.7162C56.9034 93.2685 56.6961 92.8399 56.4435 92.4384L28.7699 79.6607L28.6429 81.1387C28.6429 81.1387 47.4222 89.9553 57.0616 93.7162Z" fill="#B89692"/>
</g>
<path d="M140.603 58.5178L105.331 44.4879L31.001 58.603L63.5175 73.3911L140.603 58.5178Z" fill="#5C9DBF"/>
<g style="mix-blend-mode:multiply" opacity="0.5">
<path d="M121.375 62.4107L86.1068 48.385L31.001 58.6029L70.3586 72.0707L121.375 62.4107Z" fill="#88ADC7"/>
</g>
<path d="M31.001 58.603L31.0772 60.2343L32.4319 60.9711L31.9111 71.7768L31.2084 71.4531L31.255 72.9992L63.0053 88.2942C63.0053 88.2942 64.3346 87.6468 64.597 84.0775C64.9696 79.0303 63.526 73.3911 63.526 73.3911L31.001 58.603Z" fill="#4581A1"/>
<path d="M63.5175 73.391L62.9968 88.2942L140.51 73.8936L140.603 58.5178L63.5175 73.391Z" fill="#5590B0"/>
<path d="M85.802 69.0594L74.9222 71.0272V85.9431L85.802 84.0051V69.0594Z" fill="#41687E"/>
<path d="M130.362 60.4515L118.424 62.7855V78.0294L130.362 75.7251V60.4515Z" fill="#41687E"/>
<path d="M85.8019 69.0594L74.9222 71.0272L40.145 56.533L51.0248 54.5993L85.8019 69.0594Z" fill="#41687E"/>
<path d="M130.362 60.4515L118.424 62.7856L83.6472 48.6193L95.5853 46.3151L130.362 60.4515Z" fill="#41687E"/>
<path d="M31.9111 71.7768L61.5998 86.122L61.9003 74.5581L32.4318 60.9711L31.9111 71.7768Z" fill="#F1E0CC"/>
<g style="mix-blend-mode:multiply" opacity="0.5">
<path d="M32.2372 65.0174L61.7904 78.7492L61.9004 74.5581L32.4319 60.9711L32.2372 65.0174Z" fill="#B89692"/>
</g>
<path d="M22.0135 43.3421L56.7568 30.0021L125.062 46.2256L92.8082 58.6882L22.0135 43.3421Z" fill="#EDB047"/>
<g style="mix-blend-mode:multiply" opacity="0.5">
<path d="M22.0135 43.3421L56.7568 30.0021L118.992 44.7945L84.9088 56.9759L22.0135 43.3421Z" fill="#DBA49E"/>
</g>
<path d="M125.062 46.2256L124.804 47.7461L123.445 48.3765L123.098 60.6474L123.068 60.2002L123.792 60.3748L123.576 61.8144L91.9954 74.7796L92.8082 58.6881L125.062 46.2256Z" fill="#FFD88E"/>
<path d="M92.8083 58.6882L91.9955 74.7796L21.5818 58.5774L22.0136 43.3421L92.8083 58.6882Z" fill="#E0A435"/>
<g opacity="0.72">
<path d="M33.6722 55.4298L34.8914 54.4587L33.651 52.9552L33.6341 51.2047L31.8899 50.8256L30.6453 49.3178L29.4261 50.2889L27.682 49.9098L27.6947 51.6604L26.4755 52.6272L27.7201 54.135L27.7328 55.8856L29.4769 56.2646L30.7215 57.7682L31.945 56.797L33.6891 57.1804L33.6722 55.4298Z" fill="white"/>
<path d="M50.6226 59.114L51.8418 58.1429L50.5972 56.6394L50.5845 54.8889L48.8404 54.5098L47.5958 53.0063L46.3723 53.9731L44.6282 53.5941L44.6451 55.3446L43.4259 56.3157L44.6663 57.8192L44.6832 59.5698L46.4274 59.9489L47.672 61.4524L48.8912 60.4855L50.6353 60.8646L50.6226 59.114Z" fill="white"/>
<path d="M67.5688 62.7983L68.7922 61.8315L67.5476 60.3237L67.5307 58.5774L65.7866 58.1941L64.5462 56.6906L63.3227 57.6617L61.5786 57.2826L61.5955 59.0289L60.3721 60L61.6167 61.5078L61.6336 63.254L63.3778 63.6331L64.6181 65.1409L65.8416 64.1698L67.5857 64.5489L67.5688 62.7983Z" fill="white"/>
<path d="M84.5192 66.4868L85.7385 65.5157L84.4981 64.0122L84.4811 62.2617L82.737 61.8826L81.4924 60.3748L80.2732 61.3459L78.529 60.9669L78.5417 62.7174L77.3225 63.6843L78.5671 65.192L78.5798 66.9426L80.324 67.3216L81.5686 68.8252L82.792 67.8583L84.5362 68.2374L84.5192 66.4868Z" fill="white"/>
</g>
<path d="M123.098 60.6474L93.5533 72.8161L94.1926 59.8424L123.445 48.3765L123.098 60.6474Z" fill="white"/>
<g style="mix-blend-mode:multiply" opacity="0.5">
<path d="M123.415 49.1815L123.445 48.3765L94.1925 59.8424L94.0443 62.053C94.0443 62.053 116.612 52.6997 123.415 49.1815Z" fill="#B89692"/>
</g>
<path d="M27.8005 27.3529L78.0634 17.0455L127.92 30.2109L78.9143 40.8292L27.8005 27.3529Z" fill="#899178"/>
<path d="M47.0963 27.9747L78.0719 21.5262L99.5901 27.3529L68.9236 33.9931L47.0963 27.9747Z" fill="#B9C3AC"/>
<path d="M127.92 30.2108L127.848 31.7101L126.62 32.383L127.099 42.2858L127.077 41.8599L127.674 42.2134L127.7 43.3932L79.4053 54.4672C79.4053 54.4672 78.1861 53.8752 77.9448 50.6041C77.6062 45.9743 78.927 40.8078 78.927 40.8078L127.92 30.2108Z" fill="#B9C3AC"/>
<path d="M78.9143 40.8292L79.3926 54.4886L27.8894 41.0592L27.8005 27.3529L78.9143 40.8292Z" fill="#798268"/>
<path d="M33.3378 31.6888L71.2307 41.9621V50.0972L33.3378 39.4534V31.6888Z" fill="#B9C3AC"/>
<g style="mix-blend-mode:multiply" opacity="0.93">
<path d="M31.2677 26.6416L78.0634 17.0455L123.204 28.9672L65.4606 37.2812L31.2677 26.6416Z" fill="#B9C3AC"/>
</g>
<path d="M127.086 42.2858L80.6712 52.4995L80.396 41.8982L126.607 32.3831L127.086 42.2858Z" fill="white"/>
<g style="mix-blend-mode:multiply" opacity="0.38">
<path d="M126.785 33.1668L80.396 45.8423V41.8982L126.607 32.3831L126.785 33.1668Z" fill="#B9C3AC"/>
</g>
<path d="M121.375 13.2846L87.2032 0L18.2119 12.9438L49.8394 26.9312L121.375 13.2846Z" fill="#DC708A"/>
<path d="M18.2078 12.9438L18.3983 14.4772L19.7233 15.1714L19.6556 24.0392L18.9698 23.7368L19.1222 25.1849L50.0554 39.6451C50.0554 39.6451 52.8621 38.7251 52.5954 34.0612C52.261 28.4858 49.848 26.9312 49.848 26.9312L18.2078 12.9438Z" fill="#CF6579"/>
<path d="M49.8395 26.9184C49.8395 26.9184 51.5836 28.8393 51.5836 33.4095C51.5836 38.2097 50.0554 39.6323 50.0554 39.6323L122.023 26.4286C122.023 26.4286 124.165 24.0477 123.89 19.8523C123.61 15.5334 121.375 13.2888 121.375 13.2888L49.8395 26.9184Z" fill="#BF4E6A"/>
<path d="M19.6555 24.0392L48.5906 37.6049C48.5906 37.6049 49.5262 36.1951 49.5262 33.0901C49.5262 29.2568 48.4001 28.0173 48.4001 28.0173L19.7232 15.1714L19.6555 24.0392Z" fill="#F1E0CC"/>
<g style="mix-blend-mode:multiply" opacity="0.5">
<path d="M19.7148 15.9764V15.1714L48.3917 28.0173C48.3917 28.0173 49.2384 28.9586 49.467 31.7144C49.4755 31.7144 26.3443 19.814 19.7148 15.9764Z" fill="#B89692"/>
</g>
<path d="M87.6328 29.7499C98.497 27.8009 107.061 24.8486 106.761 23.1558C106.461 21.463 97.4105 21.6706 86.5464 23.6196C75.6822 25.5686 67.1183 28.5209 67.4183 30.2137C67.7184 31.9066 76.7687 31.6989 87.6328 29.7499Z" fill="#CF6579"/>
<path d="M69.6797 18.2015C83.4512 16.8796 94.3922 13.4559 94.1171 10.5546C93.842 7.65323 82.4549 6.37288 68.6833 7.69483C54.9117 9.01678 43.9707 12.4404 44.2458 15.3418C44.521 18.2431 55.9081 19.5235 69.6797 18.2015Z" fill="#EB869E"/>
</g>
<defs>
<clipPath id="clip0_73_84">
<rect width="142" height="180" fill="white"/>
</clipPath>
</defs>
</svg>
