<svg width="1163" height="370" viewBox="0 0 1163 370" fill="none" xmlns="http://www.w3.org/2000/svg">
<rect width="1140" height="23" rx="10" transform="matrix(1 0 0 -1 23 58)" fill="#858585" fill-opacity="0.76"/>
<rect x="23" y="35" width="32" height="23" rx="10" fill="#3D7478"/>
<circle cx="39" cy="46" r="24" fill="#3D7478"/>
<rect width="1140" height="23" rx="10" transform="matrix(1 0 0 -1 23 197)" fill="#858585" fill-opacity="0.76"/>
<rect x="23" y="174" width="32" height="23" rx="10" fill="#E29BF4"/>
<circle cx="39" cy="185" r="24" fill="#E29BF4"/>
<rect width="1140" height="23" rx="10" transform="matrix(1 0 0 -1 23 128)" fill="#858585" fill-opacity="0.76"/>
<rect x="23" y="105" width="32" height="23" rx="10" fill="#FF8B94"/>
<circle cx="39" cy="116" r="24" fill="#FF8B94"/>
<rect width="1140" height="23" rx="10" transform="matrix(1 0 0 -1 23 278)" fill="#858585" fill-opacity="0.76"/>
<rect x="23" y="255" width="32" height="23" rx="10" fill="#CC946E"/>
<circle cx="39" cy="266" r="24" fill="#CC946E"/>
<rect width="1140" height="23" rx="10" transform="matrix(1 0 0 -1 23 346)" fill="#858585" fill-opacity="0.76"/>
<rect x="23" y="323" width="32" height="23" rx="10" fill="#5BA072"/>
<circle cx="39" cy="334" r="24" fill="#5BA072"/>
<rect width="15" height="370" fill="#A2A2A2"/>
</svg>
