<svg width="1513" height="954" viewBox="0 0 1513 954" fill="none" xmlns="http://www.w3.org/2000/svg">
<g opacity="0.5">
<path d="M0 0L718.154 834.316H1513V0H0Z" fill="url(#paint0_linear_202_75)"/>
<path d="M1220.91 833.015C1220.91 833.015 1221.66 803.846 1205.28 781.615C1188.91 759.384 1158.2 748.832 1133.52 754.701C1108.83 760.569 1116.1 773.116 1124.46 777.51C1132.82 781.904 1142.83 786.356 1135.53 793.063C1128.24 799.77 1124.71 812.924 1136.03 816.711C1147.35 820.498 1157.71 815.265 1170.02 824.921C1182.34 834.577 1203.27 837.583 1220.91 833.015Z" fill="#3DC19A"/>
<path d="M1131.35 762.998C1164.35 765.137 1199.46 786.501 1213.92 833.016" stroke="#3B55CE" stroke-width="1.05" stroke-miterlimit="10" stroke-linecap="round"/>
<path d="M1237.88 833.015C1237.88 833.015 1204.94 840.503 1188.39 819.949C1171.84 799.394 1191.77 783.061 1178.96 767.392C1166.14 751.723 1154.87 752.59 1151.86 737.702C1148.85 722.814 1164.5 722.467 1162.98 707.579C1161.46 692.691 1145.34 685.435 1152.28 671.789C1155.54 665.372 1166.56 659.763 1183.06 672.368C1191.47 678.757 1201.1 685.117 1210.58 685.117C1222.16 685.117 1230.86 688.99 1232.18 707.897C1233.5 726.803 1233.28 742.588 1246.79 753.949C1265.01 769.184 1277.07 803.557 1237.88 833.015Z" fill="#91DBAC"/>
<path d="M1164.77 674.912C1192.54 702.115 1225.54 756.291 1237.88 833.016" stroke="#3B55CE" stroke-width="1.05" stroke-miterlimit="10" stroke-linecap="round"/>
<path d="M734.801 743.658C734.801 743.658 773.645 685.146 787.207 630.507C800.769 575.869 804.626 499.26 800.296 497.526C795.966 495.791 761.029 542.074 746.546 595.036C734.104 641.001 734.801 743.658 734.801 743.658Z" fill="#40C7A7"/>
<path d="M791.562 517.299C791.562 517.299 740.873 634.034 738.509 726.341" stroke="#3B55CE" stroke-width="1.05" stroke-miterlimit="10" stroke-linecap="round"/>
<path d="M764.463 835.964C764.463 835.964 765.284 792.803 750.055 764.848C734.826 736.893 681.624 688.47 665.051 694.454C651.962 699.195 650.394 809.83 684.411 835.964H764.463Z" fill="#40C7A7"/>
<path d="M670.799 706.48C670.799 706.48 713.102 759.355 728.879 835.964" stroke="#3B55CE" stroke-width="1.05" stroke-miterlimit="10" stroke-linecap="round"/>
<path d="M756.5 836.803C756.5 836.803 750.851 724.057 737.737 675.895C727.783 639.411 710.364 608.218 676.547 586.276C654.151 571.822 632.079 573.528 638.35 586.276C644.621 599.025 664.528 617.354 690.159 665.314C713.326 708.678 734.452 793.005 734.801 836.745L756.5 836.803Z" fill="#22A482"/>
<path d="M649.872 585.727C676.025 604.576 707.255 640.654 721.04 687.053C734.826 733.453 740.4 811.912 739.878 836.803" stroke="#3B55CE" stroke-width="1.05" stroke-miterlimit="10" stroke-linecap="round"/>
<path d="M734.801 763.316C734.801 763.316 732.686 701.421 779.592 705.844C821.074 709.776 817.789 763.316 817.789 763.316C817.789 763.316 837.697 746.519 860.689 759.557C891.297 776.903 882.662 814.253 882.662 814.253H734.801V763.316Z" fill="#22A482"/>
<path d="M1371.98 840.474H345.664C345.149 840.474 344.639 840.356 344.163 840.126C343.688 839.896 343.256 839.559 342.893 839.134C342.53 838.71 342.242 838.206 342.048 837.652C341.853 837.098 341.754 836.505 341.757 835.906C341.757 834.703 342.169 833.548 342.902 832.697C343.634 831.846 344.628 831.368 345.664 831.368H1371.98C1372.5 831.364 1373.01 831.478 1373.48 831.705C1373.96 831.931 1374.4 832.265 1374.76 832.687C1375.13 833.109 1375.42 833.61 1375.61 834.163C1375.81 834.715 1375.91 835.308 1375.91 835.906C1375.91 837.118 1375.5 838.28 1374.76 839.136C1374.02 839.993 1373.02 840.474 1371.98 840.474Z" fill="#638BE2"/>
<path d="M516.966 840.503H1309.1V862.676C1309.07 886.91 1300.76 910.138 1286 927.261C1271.23 944.383 1251.23 954 1230.37 954H595.675C574.793 954 554.767 944.363 540.002 927.209C525.236 910.056 516.941 886.79 516.941 862.531V840.358L516.966 840.503Z" fill="#E5F7FF"/>
<path d="M989.34 212.597H756.027C753.24 212.597 750.48 213.235 747.905 214.475C745.329 215.714 742.989 217.53 741.018 219.82C739.047 222.11 737.484 224.828 736.417 227.82C735.35 230.812 734.801 234.019 734.801 237.257V806.766C734.801 813.306 737.038 819.578 741.018 824.203C744.999 828.827 750.398 831.425 756.027 831.425H989.34C994.97 831.425 1000.37 828.827 1004.35 824.203C1008.33 819.578 1010.57 813.306 1010.57 806.766V237.257C1010.57 234.019 1010.02 230.812 1008.95 227.82C1007.88 224.828 1006.32 222.11 1004.35 219.82C1002.38 217.53 1000.04 215.714 997.463 214.475C994.888 213.235 992.128 212.597 989.34 212.597ZM995.312 773.723C995.312 777.112 994.154 780.362 992.091 782.758C990.028 785.154 987.231 786.501 984.314 786.501H761.054C758.137 786.501 755.339 785.154 753.277 782.758C751.214 780.362 750.055 777.112 750.055 773.723V270.3C750.055 266.911 751.214 263.661 753.277 261.265C755.339 258.868 758.137 257.522 761.054 257.522H984.314C987.231 257.522 990.028 258.868 992.091 261.265C994.154 263.661 995.312 266.911 995.312 270.3V773.723Z" fill="#3B55CE"/>
<path opacity="0.3" d="M984.313 257.493H761.053C754.979 257.493 750.055 263.214 750.055 270.271V773.694C750.055 780.751 754.979 786.472 761.053 786.472H984.313C990.388 786.472 995.312 780.751 995.312 773.694V270.271C995.312 263.214 990.388 257.493 984.313 257.493Z" fill="#BCD3F9"/>
<path d="M860.341 243.27C864.258 243.27 867.433 239.581 867.433 235.031C867.433 230.481 864.258 226.792 860.341 226.792C856.424 226.792 853.249 230.481 853.249 235.031C853.249 239.581 856.424 243.27 860.341 243.27Z" fill="#000E5B"/>
<path d="M915.882 235.06C915.882 233.733 915.429 232.461 914.621 231.523C913.814 230.585 912.719 230.059 911.577 230.059H883.409C882.842 230.055 882.281 230.181 881.757 230.431C881.233 230.681 880.758 231.05 880.357 231.515C879.957 231.98 879.64 232.533 879.425 233.141C879.209 233.75 879.1 234.402 879.104 235.06C879.104 236.386 879.557 237.658 880.364 238.596C881.172 239.534 882.267 240.061 883.409 240.061H911.652C912.779 240.031 913.851 239.492 914.641 238.558C915.431 237.624 915.876 236.369 915.882 235.06Z" fill="#000E5B"/>
<g style="mix-blend-mode:multiply">
<path d="M1103.78 468.443H833.542C829.213 468.443 825.703 472.52 825.703 477.549V581.767C825.703 586.796 829.213 590.873 833.542 590.873H1103.78C1108.11 590.873 1111.62 586.796 1111.62 581.767V477.549C1111.62 472.52 1108.11 468.443 1103.78 468.443Z" fill="#85B8ED"/>
</g>
<g style="mix-blend-mode:multiply">
<path d="M1103.78 312.97H833.542C829.213 312.97 825.703 317.047 825.703 322.076V426.293C825.703 431.323 829.213 435.4 833.542 435.4H1103.78C1108.11 435.4 1111.62 431.323 1111.62 426.293V322.076C1111.62 317.047 1108.11 312.97 1103.78 312.97Z" fill="#85B8ED"/>
</g>
<g style="mix-blend-mode:multiply">
<path d="M1103.78 623.887H833.542C829.213 623.887 825.703 627.964 825.703 632.994V737.211C825.703 742.24 829.213 746.317 833.542 746.317H1103.78C1108.11 746.317 1111.62 742.24 1111.62 737.211V632.994C1111.62 627.964 1108.11 623.887 1103.78 623.887Z" fill="#85B8ED"/>
</g>
<path d="M1099.3 305.338H829.062C824.733 305.338 821.223 309.415 821.223 314.444V418.661C821.223 423.691 824.733 427.768 829.062 427.768H1099.3C1103.63 427.768 1107.14 423.691 1107.14 418.661V314.444C1107.14 309.415 1103.63 305.338 1099.3 305.338Z" fill="#FFFFF8"/>
<path d="M904.783 398.851C920.147 381.002 920.147 352.063 904.783 334.214C889.419 316.365 864.509 316.365 849.145 334.214C833.782 352.063 833.782 381.002 849.145 398.851C864.509 416.7 889.419 416.7 904.783 398.851Z" fill="#FFFFF8"/>
<path d="M1013.88 334.102H933.823C931.666 334.102 929.917 336.134 929.917 338.641V349.222C929.917 351.729 931.666 353.761 933.823 353.761H1013.88C1016.03 353.761 1017.78 351.729 1017.78 349.222V338.641C1017.78 336.134 1016.03 334.102 1013.88 334.102Z" fill="#3ED9C7"/>
<path d="M1081.83 370.239H931.21C930.496 370.239 929.917 370.912 929.917 371.742V372.696C929.917 373.526 930.496 374.199 931.21 374.199H1081.83C1082.55 374.199 1083.13 373.526 1083.13 372.696V371.742C1083.13 370.912 1082.55 370.239 1081.83 370.239Z" fill="#638BE2"/>
<path d="M1081.83 386.63H931.21C930.496 386.63 929.917 387.303 929.917 388.133V389.087C929.917 389.918 930.496 390.591 931.21 390.591H1081.83C1082.55 390.591 1083.13 389.918 1083.13 389.087V388.133C1083.13 387.303 1082.55 386.63 1081.83 386.63Z" fill="#638BE2"/>
<path d="M1081.83 403.05H931.21C930.496 403.05 929.917 403.723 929.917 404.554V405.508C929.917 406.338 930.496 407.011 931.21 407.011H1081.83C1082.55 407.011 1083.13 406.338 1083.13 405.508V404.554C1083.13 403.723 1082.55 403.05 1081.83 403.05Z" fill="#638BE2"/>
<path d="M1099.3 460.782H829.062C824.733 460.782 821.223 464.859 821.223 469.888V574.106C821.223 579.135 824.733 583.212 829.062 583.212H1099.3C1103.63 583.212 1107.14 579.135 1107.14 574.106V469.888C1107.14 464.859 1103.63 460.782 1099.3 460.782Z" fill="#FFFFF8"/>
<path d="M876.964 567.688C898.692 567.688 916.305 547.225 916.305 521.983C916.305 496.74 898.692 476.277 876.964 476.277C855.236 476.277 837.622 496.74 837.622 521.983C837.622 547.225 855.236 567.688 876.964 567.688Z" fill="#FFFFF8"/>
<path d="M1013.88 489.547H933.823C931.666 489.547 929.917 491.579 929.917 494.085V504.666C929.917 507.173 931.666 509.205 933.823 509.205H1013.88C1016.03 509.205 1017.78 507.173 1017.78 504.666V494.085C1017.78 491.579 1016.03 489.547 1013.88 489.547Z" fill="#3ED9C7"/>
<path d="M1081.83 525.683H931.21C930.496 525.683 929.917 526.356 929.917 527.186V528.14C929.917 528.97 930.496 529.643 931.21 529.643H1081.83C1082.55 529.643 1083.13 528.97 1083.13 528.14V527.186C1083.13 526.356 1082.55 525.683 1081.83 525.683Z" fill="#638BE2"/>
<path d="M1081.83 542.074H931.21C930.496 542.074 929.917 542.747 929.917 543.578V544.532C929.917 545.362 930.496 546.035 931.21 546.035H1081.83C1082.55 546.035 1083.13 545.362 1083.13 544.532V543.578C1083.13 542.747 1082.55 542.074 1081.83 542.074Z" fill="#638BE2"/>
<path d="M1081.83 558.495H931.21C930.496 558.495 929.917 559.168 929.917 559.998V560.952C929.917 561.782 930.496 562.455 931.21 562.455H1081.83C1082.55 562.455 1083.13 561.782 1083.13 560.952V559.998C1083.13 559.168 1082.55 558.495 1081.83 558.495Z" fill="#638BE2"/>
<path d="M1099.3 616.226H829.062C824.733 616.226 821.223 620.303 821.223 625.333V729.55C821.223 734.579 824.733 738.656 829.062 738.656H1099.3C1103.63 738.656 1107.14 734.579 1107.14 729.55V625.333C1107.14 620.303 1103.63 616.226 1099.3 616.226Z" fill="#FFFFF8"/>
<path d="M915.168 687.933C920.193 663.374 907.129 638.734 885.99 632.897C864.851 627.06 843.642 642.237 838.617 666.795C833.593 691.353 846.657 715.993 867.795 721.83C888.934 727.667 910.144 712.491 915.168 687.933Z" fill="#FFFFF8"/>
<path d="M1013.88 644.991H933.823C931.666 644.991 929.917 647.023 929.917 649.529V660.11C929.917 662.617 931.666 664.649 933.823 664.649H1013.88C1016.03 664.649 1017.78 662.617 1017.78 660.11V649.529C1017.78 647.023 1016.03 644.991 1013.88 644.991Z" fill="#3ED9C7"/>
<path d="M1081.83 681.127H931.21C930.496 681.127 929.917 681.8 929.917 682.63V683.584C929.917 684.415 930.496 685.088 931.21 685.088H1081.83C1082.55 685.088 1083.13 684.415 1083.13 683.584V682.63C1083.13 681.8 1082.55 681.127 1081.83 681.127Z" fill="#638BE2"/>
<path d="M1081.83 697.547H931.21C930.496 697.547 929.917 698.22 929.917 699.051V700.005C929.917 700.835 930.496 701.508 931.21 701.508H1081.83C1082.55 701.508 1083.13 700.835 1083.13 700.005V699.051C1083.13 698.22 1082.55 697.547 1081.83 697.547Z" fill="#638BE2"/>
<path d="M1081.83 713.939H931.21C930.496 713.939 929.917 714.612 929.917 715.442V716.396C929.917 717.226 930.496 717.899 931.21 717.899H1081.83C1082.55 717.899 1083.13 717.226 1083.13 716.396V715.442C1083.13 714.612 1082.55 713.939 1081.83 713.939Z" fill="#638BE2"/>
<path d="M915.168 687.933C920.193 663.374 907.129 638.734 885.99 632.897C864.851 627.06 843.642 642.237 838.617 666.795C833.593 691.353 846.657 715.993 867.795 721.83C888.934 727.667 910.144 712.491 915.168 687.933Z" fill="#E5F7FF"/>
<mask id="mask0_202_75" style="mask-type:luminance" maskUnits="userSpaceOnUse" x="837" y="631" width="80" height="93">
<path d="M915.168 687.962C920.193 663.403 907.129 638.763 885.99 632.926C864.851 627.089 843.642 642.266 838.617 666.824C833.593 691.382 846.657 716.022 867.795 721.859C888.934 727.696 910.144 712.52 915.168 687.962Z" fill="white"/>
</mask>
<g mask="url(#mask0_202_75)">
<path d="M879.253 647.101C883.334 647.109 887.246 648.997 890.129 652.353C893.012 655.708 894.632 660.255 894.632 664.996V711.25H863.85V664.996C863.85 660.25 865.473 655.698 868.362 652.342C871.25 648.986 875.168 647.101 879.253 647.101Z" fill="#001C45"/>
<path d="M872.634 712.898H859.197V669.245C859.197 665.534 860.466 661.976 862.724 659.352C864.983 656.728 868.046 655.253 871.241 655.253H872.634V712.898Z" fill="#001C45"/>
<path d="M863.228 675.374C863.228 675.374 860.541 673.871 858.948 675.952C858.59 676.627 858.355 677.379 858.257 678.164C858.16 678.948 858.203 679.747 858.382 680.512C858.562 681.276 858.875 681.99 859.302 682.608C859.729 683.226 860.261 683.735 860.864 684.105C863.477 685.434 864.672 683.844 864.672 683.844L863.228 675.374Z" fill="#FF9A8D"/>
<path d="M860.416 676.791C860.794 676.665 861.191 676.638 861.578 676.713C861.966 676.788 862.334 676.963 862.656 677.224C862.855 677.456 862.481 677.831 862.282 677.745C861.163 677.167 859.794 676.993 859.122 678.525C859.174 678.123 859.323 677.747 859.552 677.439C859.781 677.132 860.081 676.907 860.416 676.791Z" fill="#BA5964"/>
<path d="M861.014 676.964C861.014 676.964 861.412 677.282 861.387 677.369C861.129 677.501 860.906 677.711 860.74 677.976C860.478 678.415 860.355 678.946 860.392 679.479C860.373 680.091 860.532 680.692 860.844 681.185C861.155 681.678 861.601 682.034 862.109 682.197C861.594 682.198 861.094 681.996 860.691 681.622C860.288 681.249 860.007 680.728 859.894 680.144C859.763 679.545 859.802 678.912 860.003 678.34C860.205 677.768 860.559 677.285 861.014 676.964Z" fill="#BA5964"/>
<path d="M890.7 675.23C891.398 674.858 892.173 674.729 892.932 674.857C893.691 674.985 894.403 675.366 894.98 675.952C895.337 676.629 895.571 677.383 895.667 678.169C895.762 678.954 895.718 679.754 895.536 680.519C895.354 681.284 895.038 681.997 894.608 682.614C894.179 683.23 893.645 683.738 893.039 684.105C890.426 685.435 889.232 683.845 889.232 683.845L890.7 675.23Z" fill="#FF9A8D"/>
<path d="M893.512 676.791C893.131 676.664 892.73 676.638 892.338 676.713C891.947 676.788 891.574 676.962 891.248 677.224C891.049 677.456 891.422 677.831 891.621 677.745C892.766 677.167 894.109 676.993 894.806 678.525C894.746 678.127 894.594 677.755 894.366 677.449C894.138 677.144 893.843 676.916 893.512 676.791Z" fill="#BA5964"/>
<path d="M892.964 676.964C892.964 676.964 892.566 677.282 892.591 677.369C892.857 677.499 893.088 677.709 893.263 677.976C893.513 678.422 893.635 678.948 893.611 679.479C893.629 680.094 893.466 680.698 893.149 681.192C892.833 681.686 892.381 682.04 891.869 682.197C892.384 682.198 892.884 681.996 893.287 681.622C893.69 681.249 893.971 680.728 894.084 680.144C894.215 679.545 894.176 678.912 893.975 678.34C893.773 677.768 893.419 677.285 892.964 676.964Z" fill="#BA5964"/>
<path d="M849.642 723.161C849.642 716.136 850.612 711.944 853.772 710.759C855.216 710.21 863.875 707.059 866.588 706.133C869.3 705.208 870.071 703.243 870.071 701.681V694.483H883.882V701.71C883.882 703.329 884.629 705.208 887.366 706.162C890.103 707.116 898.738 710.239 900.181 710.788C903.341 711.973 904.312 716.165 904.312 723.19L849.642 723.161Z" fill="#FF9A8D"/>
<path d="M870.071 696.565C870.774 697.969 871.782 699.134 872.993 699.944C874.205 700.754 875.579 701.18 876.977 701.18C878.375 701.18 879.748 700.754 880.96 699.944C882.172 699.134 883.179 697.969 883.882 696.565V694.483H870.071V696.565Z" fill="#BA5964"/>
<path d="M883.409 657.335C881.451 655.972 879.21 655.252 876.927 655.252C874.644 655.252 872.403 655.972 870.445 657.335C868.193 658.879 866.33 661.083 865.042 663.726C863.753 666.369 863.085 669.359 863.104 672.397C863.108 674.117 863.2 675.835 863.378 677.542L863.626 679.971C863.795 681.874 864.128 683.753 864.622 685.579C866.637 692.778 872.087 697.634 877.064 697.634C882.041 697.634 887.366 692.778 889.357 685.579C889.846 683.751 890.188 681.873 890.377 679.971L890.626 677.542C890.796 675.805 890.879 674.058 890.875 672.31C890.867 669.273 890.174 666.292 888.864 663.664C887.554 661.036 885.673 658.853 883.409 657.335Z" fill="#FF9A8D"/>
<path d="M881.742 676.097C881.742 675.765 881.827 675.441 881.985 675.165C882.144 674.89 882.369 674.675 882.633 674.548C882.897 674.421 883.187 674.388 883.467 674.452C883.747 674.517 884.004 674.677 884.206 674.911C884.408 675.146 884.545 675.444 884.601 675.77C884.657 676.095 884.628 676.432 884.519 676.738C884.41 677.045 884.225 677.307 883.987 677.491C883.75 677.675 883.471 677.774 883.186 677.774C882.803 677.774 882.436 677.597 882.165 677.282C881.894 676.968 881.742 676.542 881.742 676.097Z" fill="#001C45"/>
<path d="M880.348 671.789L887.066 673.784C886.966 673.019 886.678 672.304 886.237 671.724C885.796 671.145 885.219 670.726 884.578 670.517C883.844 670.212 883.049 670.169 882.294 670.396C881.54 670.623 880.861 671.108 880.348 671.789Z" fill="#001C45"/>
<path d="M870.768 677.774C871.565 677.774 872.211 677.023 872.211 676.097C872.211 675.171 871.565 674.42 870.768 674.42C869.971 674.42 869.325 675.171 869.325 676.097C869.325 677.023 869.971 677.774 870.768 677.774Z" fill="#001C45"/>
<path d="M873.605 671.789L866.886 673.784C866.986 673.019 867.274 672.304 867.716 671.724C868.157 671.145 868.733 670.726 869.375 670.517C870.108 670.212 870.904 670.169 871.659 670.396C872.413 670.623 873.091 671.108 873.605 671.789Z" fill="#001C45"/>
<path d="M876.964 656.728C878.035 660.237 879.874 663.361 882.3 665.794C884.726 668.227 887.655 669.885 890.799 670.604C891.039 668.439 890.824 666.238 890.174 664.19C889.524 662.141 888.458 660.305 887.067 658.838C884.198 656.167 880.64 654.69 876.964 654.646V656.728Z" fill="#001C45"/>
<path d="M876.964 656.785C875.886 660.295 874.042 663.419 871.613 665.852C869.183 668.285 866.251 669.942 863.104 670.662C862.872 668.494 863.092 666.294 863.746 664.246C864.4 662.198 865.468 660.363 866.861 658.896C869.736 656.24 873.291 654.775 876.964 654.733V656.785Z" fill="#001C45"/>
<path d="M900.181 710.759C898.738 710.21 890.078 707.058 887.366 706.133C886.745 705.915 886.151 705.604 885.599 705.208C885.68 705.577 885.722 705.955 885.723 706.336C885.723 709.227 881.792 711.453 876.964 711.453C872.137 711.453 868.18 709.169 868.18 706.336C868.182 705.974 868.223 705.615 868.305 705.266C867.761 705.627 867.185 705.917 866.588 706.133C863.875 707.058 855.216 710.21 853.772 710.759C850.612 711.944 849.642 716.136 849.642 723.161H904.387C904.312 716.165 903.316 711.944 900.181 710.759Z" fill="#FABA50"/>
<path d="M856.659 709.689L853.772 710.759C850.612 711.944 849.642 716.136 849.642 723.161H856.734V709.689H856.659Z" fill="#3ED9C7"/>
<path d="M897.294 709.689L900.181 710.759C903.341 711.944 904.312 716.136 904.312 723.161H897.22V709.689H897.294Z" fill="#3ED9C7"/>
<path d="M876.964 712.58C882.414 712.58 886.694 709.834 886.694 706.336C886.686 706.172 886.686 706.008 886.694 705.844C885.942 705.525 885.267 704.999 884.728 704.312C884.728 704.948 884.728 705.931 884.728 706.336C884.728 708.215 881.518 710.325 876.939 710.325C872.36 710.325 869.126 708.215 869.126 706.336C869.126 705.96 869.126 704.977 869.126 704.37C868.583 705.047 867.909 705.562 867.16 705.873V706.336C867.234 709.834 871.489 712.58 876.964 712.58Z" fill="#228C7E"/>
<path d="M876.964 674.969C875.858 677.763 875.37 680.834 875.546 683.902C875.7 684.183 875.909 684.418 876.155 684.589C876.401 684.76 876.678 684.861 876.964 684.885C877.252 684.868 877.531 684.77 877.778 684.598C878.025 684.427 878.233 684.188 878.383 683.902C878.582 680.832 878.094 677.755 876.964 674.969Z" fill="#BA5964"/>
<path d="M859.371 654.27C859.371 654.27 864.646 654.27 866.064 657.711" stroke="#001C45" stroke-width="0.58" stroke-miterlimit="10" stroke-linecap="round"/>
<path d="M860.192 648.431C861.905 649.215 863.374 650.581 864.408 652.35C865.442 654.119 865.994 656.208 865.99 658.347" stroke="#001C45" stroke-width="0.58" stroke-miterlimit="10" stroke-linecap="round"/>
</g>
<path d="M876.964 567.688C898.692 567.688 916.305 547.225 916.305 521.983C916.305 496.74 898.692 476.277 876.964 476.277C855.236 476.277 837.622 496.74 837.622 521.983C837.622 547.225 855.236 567.688 876.964 567.688Z" fill="#E5F7FF"/>
<mask id="mask1_202_75" style="mask-type:luminance" maskUnits="userSpaceOnUse" x="837" y="476" width="80" height="92">
<path d="M876.964 567.717C898.692 567.717 916.305 547.254 916.305 522.011C916.305 496.769 898.692 476.306 876.964 476.306C855.236 476.306 837.622 496.769 837.622 522.011C837.622 547.254 855.236 567.717 876.964 567.717Z" fill="white"/>
</mask>
<g mask="url(#mask1_202_75)">
<path d="M863.227 519.583C862.508 519.282 861.732 519.215 860.982 519.388C860.232 519.561 859.537 519.968 858.972 520.566C858.615 521.242 858.381 521.997 858.285 522.782C858.19 523.568 858.234 524.368 858.416 525.133C858.598 525.897 858.914 526.61 859.344 527.227C859.773 527.844 860.307 528.352 860.913 528.718C863.526 530.019 864.72 528.458 864.72 528.458L863.227 519.583Z" fill="#FF9A8D"/>
<path d="M860.44 521.347C860.82 521.202 861.224 521.167 861.618 521.242C862.012 521.317 862.385 521.502 862.705 521.78C862.904 521.983 862.531 522.387 862.332 522.272C861.187 521.693 859.843 521.549 859.146 523.081C859.209 522.684 859.362 522.313 859.589 522.008C859.817 521.703 860.111 521.475 860.44 521.347Z" fill="#BA5964"/>
<path d="M861.013 521.491C861.137 521.491 861.411 521.838 861.386 521.925C861.119 522.052 860.887 522.262 860.714 522.532C860.461 522.976 860.339 523.503 860.366 524.035C860.378 524.638 860.553 525.222 860.865 525.704C861.178 526.186 861.612 526.543 862.108 526.724C861.112 526.955 860.067 525.712 859.893 524.671C859.762 524.072 859.801 523.439 860.002 522.867C860.204 522.294 860.558 521.812 861.013 521.491Z" fill="#BA5964"/>
<path d="M890.873 519.583C891.593 519.282 892.369 519.215 893.119 519.388C893.868 519.561 894.563 519.968 895.129 520.566C895.487 521.24 895.722 521.993 895.819 522.778C895.917 523.562 895.874 524.361 895.694 525.126C895.515 525.89 895.202 526.604 894.775 527.222C894.348 527.84 893.816 528.349 893.213 528.718C890.6 530.019 889.405 528.458 889.405 528.458L890.873 519.583Z" fill="#FF9A8D"/>
<path d="M893.537 521.346C893.16 521.207 892.761 521.174 892.372 521.249C891.982 521.325 891.614 521.507 891.297 521.78C891.098 521.982 891.471 522.387 891.67 522.271C892.79 521.693 894.159 521.549 894.83 523.081C894.779 522.679 894.63 522.302 894.401 521.995C894.172 521.688 893.872 521.463 893.537 521.346Z" fill="#BA5964"/>
<path d="M893.014 521.491C892.889 521.491 892.616 521.838 892.641 521.925C892.904 522.047 893.129 522.259 893.288 522.532C893.552 522.97 893.675 523.502 893.636 524.035C893.654 524.643 893.493 525.239 893.182 525.728C892.87 526.216 892.425 526.567 891.919 526.724C892.914 526.955 893.959 525.712 894.134 524.671C894.264 524.072 894.226 523.439 894.024 522.867C893.823 522.294 893.469 521.812 893.014 521.491Z" fill="#BA5964"/>
<path d="M844.565 567.717C844.565 560.692 847.427 556.5 850.587 555.286C852.03 554.736 862.606 551.614 865.318 550.66C868.031 549.706 868.802 547.769 868.802 546.208V537.536H885.151V546.208C885.151 547.856 885.897 549.735 888.635 550.66C891.372 551.585 901.923 554.736 903.366 555.286C906.526 556.5 909.388 560.692 909.388 567.717H844.565Z" fill="#FF9A8D"/>
<path d="M868.802 537.564V540.455C869.648 542.096 870.846 543.454 872.279 544.397C873.711 545.339 875.33 545.835 876.976 545.835C878.623 545.835 880.241 545.339 881.674 544.397C883.106 543.454 884.304 542.096 885.151 540.455V537.391L868.802 537.564Z" fill="#BA5964"/>
<path d="M903.316 555.286C901.872 554.737 891.297 551.614 888.584 550.66C888.27 550.562 887.962 550.436 887.664 550.285C887.939 551.024 888.083 551.82 888.087 552.626C888.087 557.194 883.11 560.923 876.914 560.923C870.718 560.923 865.766 557.194 865.766 552.626C865.769 551.82 865.913 551.024 866.189 550.285C865.89 550.436 865.582 550.562 865.268 550.66C862.556 551.614 851.98 554.737 850.537 555.286C847.376 556.5 844.515 560.692 844.515 567.717H909.338C909.387 560.692 906.526 556.5 903.316 555.286Z" fill="#3ED9C7"/>
<path d="M883.408 501.891C881.439 500.541 879.2 499.814 876.913 499.78C874.604 499.772 872.332 500.459 870.319 501.775C868.08 503.344 866.234 505.57 864.968 508.228C863.701 510.887 863.058 513.885 863.103 516.923C863.099 518.672 863.182 520.419 863.352 522.156L863.6 524.584C863.918 527.705 864.579 530.765 865.566 533.691C866.4 536.412 867.938 538.768 869.97 540.433C872.001 542.099 874.427 542.993 876.913 542.993C879.4 542.993 881.826 542.099 883.857 540.433C885.889 538.768 887.427 536.412 888.261 533.691C889.26 530.77 889.921 527.707 890.226 524.584L890.475 522.156C890.653 520.419 890.745 518.672 890.749 516.923C890.763 513.891 890.093 510.907 888.805 508.269C887.517 505.631 885.656 503.432 883.408 501.891Z" fill="#FF9A8D"/>
<path d="M881.791 520.682C881.791 520.237 881.943 519.81 882.213 519.496C882.484 519.182 882.851 519.005 883.234 519.005C883.617 519.005 883.984 519.182 884.254 519.496C884.525 519.81 884.677 520.237 884.677 520.682C884.677 521.126 884.525 521.553 884.254 521.867C883.984 522.182 883.617 522.358 883.234 522.358C882.851 522.358 882.484 522.182 882.213 521.867C881.943 521.553 881.791 521.126 881.791 520.682Z" fill="#001C45"/>
<path d="M880.919 515.622L887.638 517.617C887.435 516.831 887.084 516.106 886.611 515.496C886.137 514.887 885.553 514.406 884.901 514.09C884.446 513.82 883.948 513.662 883.439 513.627C882.929 513.593 882.418 513.681 881.94 513.888C881.642 514.029 881.387 514.269 881.206 514.577C881.024 514.886 880.925 515.249 880.919 515.622Z" fill="#001C45"/>
<path d="M872.982 515.622L866.263 517.617C866.459 516.831 866.804 516.106 867.274 515.495C867.743 514.885 868.325 514.405 868.976 514.09C869.43 513.82 869.928 513.662 870.438 513.627C870.948 513.593 871.458 513.681 871.937 513.888C872.239 514.025 872.499 514.263 872.685 514.571C872.871 514.88 872.975 515.246 872.982 515.622Z" fill="#001C45"/>
<path d="M872.26 520.682C872.287 520.441 872.27 520.196 872.209 519.964C872.148 519.732 872.045 519.517 871.908 519.335C871.77 519.153 871.6 519.006 871.41 518.906C871.219 518.806 871.013 518.754 870.804 518.754C870.595 518.754 870.389 518.806 870.198 518.906C870.008 519.006 869.838 519.153 869.701 519.335C869.563 519.517 869.46 519.732 869.399 519.964C869.339 520.196 869.321 520.441 869.348 520.682C869.395 521.092 869.568 521.469 869.836 521.742C870.104 522.015 870.448 522.166 870.804 522.166C871.16 522.166 871.505 522.015 871.772 521.742C872.04 521.469 872.213 521.092 872.26 520.682Z" fill="#001C45"/>
<path d="M863.178 519.901C863.467 519.788 863.731 519.6 863.949 519.352C864.297 519.005 865.019 518.109 865.019 514.842C865.019 511.575 865.765 505.649 868.428 503.596C868.428 503.596 868.428 502.035 867.856 501.688C866.953 501.524 866.03 501.614 865.164 501.952C864.298 502.289 863.514 502.863 862.879 503.625C859.395 507.47 860.814 519.294 860.814 519.294C861.637 519.206 862.463 519.419 863.178 519.901Z" fill="#001C45"/>
<path d="M891.272 519.728C890.9 519.695 890.541 519.556 890.227 519.323C889.853 518.976 888.958 518.109 888.958 514.842C888.958 511.575 888.211 505.649 885.573 503.596C886.302 502.862 887.234 502.458 888.198 502.458C889.163 502.458 890.095 502.862 890.824 503.596C893.934 506.14 893.063 519.294 893.063 519.294C892.445 519.273 891.831 519.421 891.272 519.728Z" fill="#001C45"/>
<path d="M891.272 510.361V519.728C891.827 519.408 892.444 519.258 893.063 519.294C894.905 496.167 885.598 491.31 875.644 493.276C873.593 493.649 871.694 494.759 870.213 496.449C868.731 498.139 867.742 500.324 867.383 502.7L868.478 503.481C869.772 503.481 870.419 504.464 871.414 505.36C872.422 506.3 873.496 507.141 874.624 507.875C876.48 509.181 878.601 509.889 880.77 509.927C881.314 509.971 881.851 509.763 882.264 509.349C882.429 509.005 882.516 508.616 882.516 508.222C882.516 507.827 882.429 507.439 882.264 507.094C881.977 506.149 881.566 505.261 881.044 504.464C882.501 506.092 884.384 507.109 886.394 507.354C887.688 507.499 888.509 506.574 888.037 505.013C888.061 505.128 891.272 508.424 891.272 510.361Z" fill="#001C45"/>
<path d="M876.964 519.583C875.635 522.283 875.045 525.388 875.272 528.487C875.468 528.798 875.725 529.05 876.021 529.225C876.317 529.399 876.644 529.489 876.976 529.489C877.308 529.489 877.635 529.399 877.931 529.225C878.227 529.05 878.484 528.798 878.681 528.487C878.913 525.384 878.313 522.274 876.964 519.583Z" fill="#BA5964"/>
<path d="M866.636 502.729C866.636 502.729 866.96 495.155 875.52 492.148C878.437 491.162 881.51 490.964 884.504 491.57C887.497 492.176 890.331 493.571 892.789 495.646C895.825 499.144 893.362 502.469 890.301 501.775C888.634 501.457 866.636 502.729 866.636 502.729Z" fill="#001C45"/>
<path d="M860.639 498.797C860.639 498.797 865.89 498.797 867.333 502.238" stroke="#001C45" stroke-width="0.58" stroke-miterlimit="10" stroke-linecap="round"/>
<path d="M861.436 492.958C863.155 493.727 864.636 495.078 865.687 496.835C866.739 498.592 867.312 500.676 867.334 502.816" stroke="#001C45" stroke-width="0.58" stroke-miterlimit="10" stroke-linecap="round"/>
</g>
<path d="M904.783 398.851C920.147 381.002 920.147 352.063 904.783 334.214C889.419 316.365 864.509 316.365 849.145 334.214C833.782 352.063 833.782 381.002 849.145 398.851C864.509 416.7 889.419 416.7 904.783 398.851Z" fill="#E5F7FF"/>
<mask id="mask2_202_75" style="mask-type:luminance" maskUnits="userSpaceOnUse" x="837" y="320" width="80" height="93">
<path d="M904.783 398.88C920.147 381.031 920.147 352.092 904.783 334.243C889.419 316.394 864.509 316.394 849.145 334.243C833.782 352.092 833.782 381.031 849.145 398.88C864.509 416.729 889.419 416.729 904.783 398.88Z" fill="white"/>
</mask>
<g mask="url(#mask2_202_75)">
<path d="M892.517 363.879C892.517 363.879 897.045 338.901 876.964 338.901C856.883 338.901 860.914 363.879 860.914 363.879H892.517Z" fill="#001C45"/>
<path d="M866.463 339.595C865.945 337.638 865.96 335.543 866.506 333.596C867.052 331.65 868.101 329.946 869.511 328.718C870.921 327.49 872.623 326.798 874.385 326.736C876.146 326.673 877.881 327.244 879.353 328.37C880.825 329.496 881.962 331.122 882.609 333.026C883.255 334.931 883.38 337.021 882.966 339.011C882.552 341.001 881.62 342.794 880.296 344.146C878.973 345.497 877.322 346.341 875.57 346.562C873.57 347.009 871.499 346.531 869.797 345.23C868.096 343.928 866.9 341.906 866.463 339.595Z" fill="#001C45"/>
<path d="M863.178 363.474C862.483 363.119 861.715 363.003 860.965 363.142C860.214 363.28 859.514 363.667 858.948 364.255C858.59 364.929 858.355 365.682 858.257 366.466C858.16 367.251 858.203 368.05 858.382 368.814C858.562 369.579 858.875 370.292 859.302 370.91C859.729 371.528 860.261 372.038 860.864 372.407C863.477 373.708 864.672 372.147 864.672 372.147L863.178 363.474Z" fill="#BA5964"/>
<path d="M860.416 365.151C860.792 365.012 861.192 364.978 861.581 365.054C861.97 365.129 862.339 365.311 862.656 365.584C862.855 365.816 862.481 366.192 862.282 366.076C861.163 365.527 859.794 365.353 859.122 366.885C859.174 366.483 859.323 366.107 859.552 365.799C859.781 365.492 860.081 365.267 860.416 365.151Z" fill="#893A47"/>
<path d="M861.014 365.295C861.014 365.295 861.412 365.642 861.387 365.729C861.124 365.852 860.899 366.063 860.74 366.336C860.478 366.775 860.355 367.306 860.392 367.839C860.374 368.447 860.534 369.044 860.846 369.532C861.158 370.02 861.603 370.371 862.109 370.528C861.113 370.759 860.068 369.516 859.894 368.475C859.763 367.876 859.802 367.243 860.003 366.671C860.205 366.099 860.559 365.616 861.014 365.295Z" fill="#893A47"/>
<path d="M890.725 363.474C891.424 363.116 892.197 363 892.951 363.138C893.706 363.276 894.41 363.664 894.98 364.255C895.337 364.931 895.571 365.685 895.667 366.471C895.762 367.256 895.718 368.056 895.536 368.821C895.354 369.586 895.038 370.299 894.608 370.916C894.179 371.533 893.645 372.04 893.039 372.407C890.426 373.708 889.232 372.147 889.232 372.147L890.725 363.474Z" fill="#BA5964"/>
<path d="M893.512 365.151C893.132 365.007 892.728 364.971 892.334 365.046C891.94 365.122 891.567 365.306 891.248 365.585C891.049 365.816 891.422 366.192 891.621 366.076C892.766 365.527 894.109 365.353 894.806 366.885C894.746 366.487 894.594 366.115 894.366 365.809C894.138 365.504 893.843 365.276 893.512 365.151Z" fill="#893A47"/>
<path d="M892.964 365.295C892.964 365.295 892.566 365.642 892.591 365.729C892.861 365.85 893.095 366.061 893.263 366.336C893.513 366.782 893.635 367.308 893.611 367.839C893.632 368.452 893.47 369.054 893.153 369.544C892.835 370.034 892.382 370.382 891.869 370.528C892.865 370.759 893.91 369.516 894.084 368.475C894.215 367.876 894.176 367.243 893.975 366.671C893.773 366.099 893.419 365.616 892.964 365.295Z" fill="#893A47"/>
<path d="M891.87 396.806L885.002 390.273H868.777L862.034 396.806H891.87Z" fill="#3ED9C7"/>
<path d="M868.777 390.273L868.304 394.291H885.599L885.001 390.273H868.777Z" fill="#228C7E"/>
<path d="M849.642 412.244C849.642 405.219 850.612 401.027 853.772 399.842L866.588 395.216C869.325 394.262 870.071 392.325 870.071 390.764V383.71H883.882V390.909C883.882 392.528 884.629 394.407 887.366 395.361L900.181 399.986C903.341 401.172 904.312 405.363 904.312 412.388L849.642 412.244Z" fill="#BA5964"/>
<path d="M870.071 385.676C870.779 387.073 871.788 388.231 872.999 389.035C874.211 389.84 875.581 390.263 876.977 390.263C878.372 390.263 879.743 389.84 880.954 389.035C882.165 388.231 883.174 387.073 883.882 385.676V383.71H870.071V385.676Z" fill="#893A47"/>
<path d="M870.345 403.947C872.399 405.145 874.666 405.768 876.964 405.768C879.262 405.768 881.529 405.145 883.583 403.947L881.692 412.128H872.211L870.345 403.947Z" fill="#FABA50"/>
<path d="M868.18 395.419C868.183 395.057 868.225 394.698 868.305 394.349C867.772 394.733 867.193 395.025 866.588 395.216L853.772 399.842C850.612 401.027 849.642 405.219 849.642 412.244H872.211L869.325 399.235C867.533 398.309 868.18 396.922 868.18 395.419Z" fill="#228C7E"/>
<path d="M900.181 399.842L887.365 395.216C886.74 395.012 886.144 394.7 885.599 394.291C885.677 394.66 885.718 395.039 885.723 395.419C885.723 396.922 886.37 398.309 884.554 399.235L881.692 412.244H904.311C904.311 405.219 903.316 401.056 900.181 399.842Z" fill="#228C7E"/>
<path d="M885.599 394.291L891.869 396.806L889.555 400.304L885.474 401.634L888.684 404.467L881.692 412.244L885.599 394.291Z" fill="#3ED9C7"/>
<path d="M868.304 394.291L862.034 396.806L864.348 400.304L868.429 401.634L865.219 403.86L872.211 412.244L868.304 394.291Z" fill="#3ED9C7"/>
<path d="M883.409 346.447C881.457 345.062 879.214 344.33 876.927 344.33C874.64 344.33 872.397 345.062 870.445 346.447C868.193 347.991 866.33 350.195 865.042 352.838C863.753 355.481 863.085 358.471 863.104 361.508C863.108 363.238 863.2 364.966 863.378 366.683L863.626 369.111C863.798 371.015 864.131 372.893 864.622 374.72C866.637 381.918 872.087 387.295 877.064 387.295C882.041 387.295 887.366 381.918 889.357 374.72C889.844 372.891 890.185 371.013 890.377 369.111L890.626 366.683C890.795 364.946 890.878 363.199 890.875 361.451C890.872 358.409 890.181 355.421 888.87 352.788C887.56 350.154 885.677 347.968 883.409 346.447Z" fill="#BA5964"/>
<path d="M881.742 365.613C881.742 365.282 881.827 364.958 881.985 364.682C882.144 364.406 882.369 364.191 882.633 364.064C882.897 363.937 883.187 363.904 883.467 363.969C883.747 364.034 884.004 364.193 884.206 364.428C884.408 364.662 884.545 364.961 884.601 365.286C884.657 365.612 884.628 365.949 884.519 366.255C884.41 366.561 884.225 366.823 883.987 367.008C883.75 367.192 883.471 367.29 883.186 367.29C882.996 367.29 882.808 367.247 882.633 367.162C882.458 367.078 882.299 366.955 882.165 366.799C882.031 366.643 881.925 366.458 881.852 366.255C881.78 366.052 881.742 365.834 881.742 365.613Z" fill="#001C45"/>
<path d="M880.348 361.306L887.066 363.301C886.969 362.534 886.682 361.817 886.241 361.237C885.799 360.657 885.221 360.239 884.578 360.034C883.844 359.728 883.049 359.686 882.294 359.913C881.54 360.14 880.861 360.625 880.348 361.306Z" fill="#001C45"/>
<path d="M872.211 365.613C872.211 365.282 872.127 364.958 871.968 364.682C871.809 364.406 871.584 364.191 871.32 364.064C871.057 363.937 870.766 363.904 870.486 363.969C870.206 364.034 869.949 364.193 869.747 364.428C869.546 364.662 869.408 364.961 869.352 365.286C869.297 365.612 869.325 365.949 869.435 366.255C869.544 366.561 869.729 366.823 869.966 367.008C870.204 367.192 870.483 367.29 870.768 367.29C870.958 367.29 871.145 367.247 871.32 367.162C871.495 367.078 871.654 366.955 871.789 366.799C871.923 366.643 872.029 366.458 872.101 366.255C872.174 366.052 872.211 365.834 872.211 365.613Z" fill="#001C45"/>
<path d="M873.605 361.306L866.886 363.301C866.983 362.534 867.27 361.817 867.712 361.237C868.154 360.657 868.732 360.239 869.375 360.034C870.108 359.728 870.904 359.686 871.659 359.913C872.413 360.14 873.091 360.625 873.605 361.306Z" fill="#001C45"/>
<path d="M862.98 357.374H872.211C872.47 354.269 873.23 351.249 874.451 348.47V357.374H881.319V348.47C882.334 351.308 882.964 354.312 883.185 357.374H890.875C890.546 353.333 888.932 349.58 886.348 346.849C883.764 344.117 880.396 342.603 876.902 342.603C873.408 342.603 870.04 344.117 867.456 346.849C864.872 349.58 863.258 353.333 862.93 357.374H862.98Z" fill="#001C45"/>
<path d="M876.964 363.937C875.86 366.721 875.372 369.782 875.546 372.841C875.696 373.128 875.903 373.37 876.15 373.546C876.396 373.722 876.676 373.827 876.964 373.852C877.255 373.835 877.537 373.733 877.784 373.556C878.032 373.379 878.238 373.133 878.383 372.841C878.581 369.78 878.092 366.712 876.964 363.937Z" fill="#893A47"/>
<path d="M883.533 331.674C883.533 331.674 885.425 337.456 883.16 340.173" stroke="#001C45" stroke-width="0.58" stroke-miterlimit="10" stroke-linecap="round"/>
<path d="M888.51 331.674C888.505 333.814 887.947 335.903 886.909 337.67C885.871 339.438 884.4 340.803 882.688 341.59" stroke="#001C45" stroke-width="0.58" stroke-miterlimit="10" stroke-linecap="round"/>
</g>
<path d="M580.246 534.645L598.859 528.574C599.021 524.218 599.953 519.947 601.596 516.027C604.383 510.506 604.98 506.111 606.374 507.991C607.767 509.87 607.643 511.46 606.573 514.958C605.954 517.325 606.015 519.862 606.747 522.185L616.701 508.742C615.787 514.164 614.523 519.499 612.918 524.7C611.027 530.713 609.012 534.124 602.542 538.576C596.481 542.455 590.145 545.724 583.605 548.348L580.246 534.645Z" fill="#BA5964"/>
<path d="M549.963 480.44C555.089 485.47 554.616 488.592 559.692 507.615C563.972 523.746 567.158 538.114 567.158 538.114L581.516 533.402L583.407 548.955C583.407 548.955 562.405 560.056 557.428 558.495C551.207 556.558 534.634 493.044 534.634 493.044C533.29 481.77 543.269 472.924 549.963 480.44Z" fill="#228C7E"/>
<path d="M581.715 533.864C582.961 538.761 583.557 543.849 583.482 548.955" stroke="#AAEEED" stroke-width="1.05" stroke-miterlimit="10" stroke-linecap="round"/>
<path d="M580.818 826.858C581.44 828.246 580.967 831.05 576.165 833.362C571.362 835.675 562.727 834.692 559.268 833.912C555.839 832.609 552.176 832.37 548.643 833.218C543.542 834.432 535.181 833.912 532.667 831.426C531.772 830.24 532.369 827.812 532.369 827.812L580.818 826.858Z" fill="#8FC9C6"/>
<path d="M535.032 809.541C534.335 813.589 531.474 823.158 532.295 827.812C535.878 831.339 543.542 831.57 549.291 829.893C555.039 828.217 559.095 831.628 566.311 832.119C573.528 832.611 579.301 830.298 580.744 826.858C582.187 823.418 569.944 820.209 561.509 817.173C556.269 815.501 551.398 812.544 547.225 808.501L535.032 809.541Z" fill="#228C7E"/>
<mask id="mask3_202_75" style="mask-type:luminance" maskUnits="userSpaceOnUse" x="532" y="808" width="49" height="25">
<path d="M535.032 809.541C534.335 813.589 531.474 823.158 532.295 827.812C535.878 831.339 543.542 831.57 549.291 829.893C555.039 828.217 559.095 831.628 566.311 832.119C573.528 832.611 579.301 830.298 580.744 826.858C582.187 823.418 569.944 820.209 561.509 817.173C556.269 815.501 551.398 812.544 547.225 808.501L535.032 809.541Z" fill="white"/>
</mask>
<g mask="url(#mask3_202_75)">
<path d="M550.137 817.347C550.944 814.576 552.309 812.068 554.118 810.033" stroke="#8FC9C6" stroke-width="0.53" stroke-miterlimit="10" stroke-linecap="round"/>
<path d="M556.557 820.238C557.362 817.472 558.718 814.966 560.513 812.924" stroke="#8FC9C6" stroke-width="0.53" stroke-miterlimit="10" stroke-linecap="round"/>
<path d="M562.977 823.302C563.782 820.536 565.138 818.031 566.934 815.988" stroke="#8FC9C6" stroke-width="0.53" stroke-miterlimit="10" stroke-linecap="round"/>
</g>
<path d="M534.41 794.479L535.106 809.541C535.956 809.852 536.738 810.375 537.396 811.073C538.068 811.998 538.988 815.063 540.133 815.121C544.637 815.323 547.3 808.414 547.3 808.414V792.89L534.41 794.479Z" fill="#FF9A8D"/>
<path d="M463.813 830.443C463.017 831.686 460.628 832.379 456.771 828.361C452.914 824.343 449.953 814.803 449.107 810.842C448.661 806.648 447.28 802.662 445.1 799.279C441.94 794.451 438.78 785.46 439.626 781.731C440.173 780.314 442.313 779.881 442.313 779.881L463.813 830.443Z" fill="#AAEEED"/>
<path d="M457.692 775.024C454.233 776.036 445.574 777.163 442.314 779.996C441.119 785.258 444.205 793.41 447.987 798.729C451.77 804.049 450.849 809.744 453.537 817.549C456.224 825.355 460.529 830.385 463.814 830.443C467.098 830.5 464.361 816.248 463.092 806.13C462.174 799.88 462.411 793.474 463.789 787.339L457.692 775.024Z" fill="#03AA99"/>
<mask id="mask4_202_75" style="mask-type:luminance" maskUnits="userSpaceOnUse" x="442" y="775" width="24" height="56">
<path d="M457.692 775.024C454.233 776.036 445.574 777.163 442.314 779.996C441.119 785.258 444.205 793.41 447.987 798.729C451.77 804.049 450.849 809.744 453.537 817.549C456.224 825.355 460.529 830.385 463.814 830.443C467.098 830.5 464.361 816.248 463.092 806.13C462.174 799.88 462.411 793.474 463.789 787.339L457.692 775.024Z" fill="white"/>
</mask>
<g mask="url(#mask4_202_75)">
<path d="M458.041 794.219C460.563 793.872 463.12 794.219 465.506 795.231" stroke="#AAEEED" stroke-width="0.53" stroke-miterlimit="10" stroke-linecap="round"/>
<path d="M458.488 802.198C461.011 801.835 463.571 802.182 465.953 803.21" stroke="#AAEEED" stroke-width="0.53" stroke-miterlimit="10" stroke-linecap="round"/>
<path d="M458.937 810.177C461.461 809.829 464.02 810.186 466.402 811.218" stroke="#AAEEED" stroke-width="0.53" stroke-miterlimit="10" stroke-linecap="round"/>
</g>
<path d="M465.356 765.802L457.617 775.024C457.741 776.05 457.673 777.095 457.418 778.088C456.97 779.187 454.93 781.47 455.452 782.685C457.194 787.512 463.714 787.339 463.714 787.339L474.887 777.163L465.356 765.802Z" fill="#FF9A8D"/>
<path d="M561.235 562.484C545.608 562.484 532.245 563.843 532.245 563.843C527.268 566.387 518.658 579.569 516.145 587.953C513.632 596.337 514.652 610.329 515.971 617.527C523.436 657.653 529.732 681.965 532.569 697.865C534.311 707.608 525.726 712.147 527.044 729.839C528.687 751.81 534.51 794.48 534.51 794.48C536.511 795.605 538.702 796.204 540.925 796.234C543.149 796.264 545.351 795.724 547.375 794.653C547.375 794.653 554.392 715.934 555.313 706.972C556.507 694.946 558 687.169 559.145 662.278C560.538 628.888 561.235 562.484 561.235 562.484Z" fill="#1E4174"/>
<path d="M474.962 777.163C474.962 777.163 535.182 725.907 538.815 721.224C542.448 716.541 544.563 609.086 545.533 602.176C545.533 602.176 560.787 576.968 561.235 562.484L529.334 557.714C527.293 566.618 516.519 566.734 508.332 587.982C501.19 606.513 512.139 657.769 515.797 708.678C510.744 709.253 505.933 711.466 501.912 715.066C494.944 720.848 465.382 765.802 465.382 765.802C466.154 768.402 467.414 770.77 469.071 772.735C470.728 774.7 472.74 776.213 474.962 777.163Z" fill="#85B8ED"/>
<path d="M529.334 557.714C527.293 566.618 516.519 566.734 508.332 587.982C501.19 606.513 512.139 657.769 515.797 708.678C510.744 709.253 505.933 711.466 501.912 715.066C494.944 720.848 465.382 765.802 465.382 765.802C465.974 767.703 466.813 769.487 467.87 771.092C473.967 762.188 490.266 740.824 499.846 729.261C512.487 713.968 520.6 713.476 521.222 710.239C521.844 707.001 521.222 658.954 519.007 628.946C516.792 598.939 519.007 586.826 526.472 575.956C529.693 571.245 532.34 566.041 534.336 560.489C546.28 571.764 557.627 568.902 560.414 567.948C560.827 566.162 561.077 564.331 561.161 562.484L529.334 557.714Z" fill="#4E7EAC"/>
<mask id="mask5_202_75" style="mask-type:luminance" maskUnits="userSpaceOnUse" x="465" y="557" width="97" height="221">
<path d="M474.962 777.163C474.962 777.163 535.182 725.907 538.815 721.224C542.448 716.541 544.563 609.086 545.533 602.176C545.533 602.176 560.787 576.968 561.235 562.484L529.334 557.714C527.293 566.618 516.519 566.734 508.332 587.982C501.19 606.513 512.139 657.769 515.797 708.678C510.744 709.253 505.933 711.466 501.912 715.066C494.944 720.848 465.382 765.802 465.382 765.802C466.154 768.402 467.414 770.77 469.071 772.735C470.728 774.7 472.74 776.213 474.962 777.163Z" fill="white"/>
</mask>
<g mask="url(#mask5_202_75)">
<path d="M546.877 552.857C539.884 568.208 529.582 578.876 526.173 589.023C522.764 599.17 524.083 620.013 524.73 657.855C525.352 695.061 526.123 712.002 524.73 714.546C523.336 717.09 514.03 719.547 499.423 735.881C484.816 752.215 466.65 777.163 466.65 777.163" stroke="#274D79" stroke-width="0.53" stroke-miterlimit="10"/>
<path d="M556.208 555.922C556.208 555.922 554.317 582.836 532.344 577.199" stroke="#274D79" stroke-width="0.53" stroke-miterlimit="10"/>
<path d="M467.844 757.91C468.768 761.9 470.486 765.582 472.859 768.66C475.232 771.738 478.193 774.126 481.506 775.631" stroke="#274D79" stroke-width="0.53" stroke-miterlimit="10"/>
</g>
<path d="M533.365 473.531C529.834 475.715 526.693 478.658 524.108 482.204C520.525 487.985 518.857 505.071 520.948 518.311C522.242 526.377 531.2 550.4 527.467 560.75C527.467 560.75 548.644 569.018 562.579 562.542C563.425 557.685 563.251 548.839 563.798 533.98C566.743 530.094 568.691 525.326 569.422 520.219C570.343 505.129 558.572 499.029 549.017 490.154C545.16 486.569 542.248 479.255 538.391 475.699C536.942 474.405 535.19 473.649 533.365 473.531Z" fill="#FFB852"/>
<path d="M541.974 456.937L536.002 463.124L533.364 473.531C535.32 475.033 537.073 476.864 538.565 478.966C540.307 482.059 544.263 489.46 549.016 490.096C548.759 486.666 548.834 483.214 549.24 479.804C549.962 476.22 552.127 469.079 552.127 469.079L541.974 456.937Z" fill="#FF9A8D"/>
<path d="M541.975 456.937C541.321 459.768 540.962 462.68 540.905 465.61C541.984 471.393 544.978 476.45 549.241 479.689C549.963 476.104 552.128 468.963 552.128 468.963L541.975 456.937Z" fill="#BA5964"/>
<path d="M567.157 443.841C568.277 448.525 572.88 455.087 571.885 456.243C570.89 457.4 567.107 456.995 567.107 456.995C566.268 455.977 565.655 454.737 565.321 453.382C564.987 452.027 564.943 450.598 565.191 449.218C566.186 444.68 567.157 443.841 567.157 443.841Z" fill="#BA5964"/>
<path d="M557.129 414.614C562.703 415.221 568.277 424.183 568.178 432.335C568.078 440.488 566.436 444.911 566.884 450.693C567.577 456.546 567.004 462.507 565.217 468.038C563.848 472.056 560.24 472.953 555.437 471.594C551.104 469.95 547.088 467.338 543.617 463.904C542.249 462.343 541.975 456.937 541.975 456.937C539.961 456.5 538.055 455.546 536.398 454.146C534.741 452.746 533.373 450.934 532.395 448.842C529.384 441.846 530.055 411.752 557.129 414.614Z" fill="#FF9A8D"/>
<path d="M541.975 456.937C540.234 456.081 538.77 454.608 537.792 452.729C536.813 450.85 536.37 448.661 536.525 446.472C537.073 438.522 546.28 438.233 545.906 445.229C545.906 445.229 551.256 444.68 552.799 441.962C554.342 439.245 555.835 425.657 555.835 425.657C557.107 428.196 558.038 430.945 558.597 433.81C559.543 438.609 562.628 439.187 568.003 436.209C570.531 434.807 572.757 432.765 574.518 430.234C576.279 427.703 577.531 424.747 578.181 421.581C575.76 421.504 573.376 420.875 571.164 419.731C571.164 419.731 577.235 419.5 579.774 414.99C579.774 414.99 573.702 418.054 569.82 415.655C565.938 413.255 560.115 407.242 552.774 408.283C548.449 408.834 544.405 411.041 541.278 414.556C541.278 414.556 534.41 411.232 529.284 415.973C524.158 420.714 520.5 432.856 524.929 445.489C527.126 452.471 530.983 458.586 536.052 463.124L541.975 456.937Z" fill="#001C45"/>
<path d="M527.791 418.401C527.791 418.401 521.67 409.729 513.035 412.215C505.047 414.585 499.996 421.813 500.145 435.718C500.294 449.623 516.12 470.409 502.633 482.869C502.633 482.869 522.814 483.187 517.862 454.74C514.08 433 520.674 424.357 526.373 427.045L527.791 418.401Z" fill="#001C45"/>
<path d="M562.404 445.894C562.417 445.63 562.382 445.366 562.301 445.118C562.22 444.871 562.096 444.647 561.935 444.459C561.774 444.272 561.581 444.126 561.369 444.031C561.156 443.937 560.929 443.895 560.702 443.909C560.474 443.924 560.252 443.994 560.05 444.115C559.847 444.236 559.669 444.405 559.527 444.611C559.385 444.817 559.281 445.056 559.224 445.312C559.167 445.568 559.156 445.835 559.194 446.096C559.181 446.36 559.216 446.624 559.297 446.872C559.378 447.119 559.503 447.343 559.663 447.531C559.824 447.718 560.017 447.864 560.229 447.958C560.442 448.053 560.669 448.095 560.897 448.08C561.124 448.066 561.346 447.996 561.548 447.875C561.751 447.754 561.929 447.585 562.071 447.379C562.214 447.172 562.317 446.934 562.374 446.678C562.431 446.422 562.442 446.155 562.404 445.894Z" fill="#001C45"/>
<path d="M563.623 440.979L556.158 443.697C556.236 442.818 556.535 441.984 557.017 441.301C557.499 440.617 558.144 440.113 558.871 439.852C559.669 439.463 560.549 439.363 561.397 439.564C562.245 439.765 563.021 440.258 563.623 440.979Z" fill="#001C45"/>
<path d="M540.307 444.795C540.856 444.567 541.443 444.489 542.021 444.57C542.6 444.65 543.155 444.886 543.642 445.258C543.965 445.547 543.418 446.125 543.119 446.009C541.427 445.287 539.362 445.171 538.516 447.484C538.573 446.888 538.771 446.322 539.087 445.847C539.403 445.373 539.825 445.009 540.307 444.795Z" fill="#BA5964"/>
<path d="M541.103 444.998C541.277 444.998 541.725 445.431 541.675 445.576C541.305 445.799 540.988 446.127 540.755 446.53C540.403 447.195 540.262 447.983 540.357 448.756C540.365 449.661 540.642 450.534 541.141 451.23C541.639 451.925 542.329 452.399 543.094 452.572C543.094 452.572 543.094 452.572 543.094 452.716C542.328 452.77 541.57 452.51 540.952 451.982C540.334 451.453 539.894 450.691 539.71 449.825C539.436 448.956 539.424 448.005 539.678 447.128C539.931 446.25 540.434 445.499 541.103 444.998Z" fill="#BA5964"/>
<path d="M530.329 474.08L533.813 471.767C533.813 471.767 547.897 490.876 549.564 505.562C550.759 516.027 544.762 555.199 544.762 555.199C544.762 555.199 528.264 556.731 519.728 549.648C522.892 542.519 523.681 534.284 521.943 526.521C520.172 518.76 519.186 510.785 519.007 502.758C518.79 497.275 519.705 491.812 521.674 486.824C523.644 481.835 526.611 477.466 530.329 474.08Z" fill="#3ED9C7"/>
<path d="M546.877 540.08L526.173 515.42C526.173 515.68 536.923 545.746 540.283 555.315C542.97 555.315 544.762 555.17 544.762 555.17C544.762 555.17 545.757 548.492 546.877 540.08Z" fill="#03AA99"/>
<path d="M535.355 481.77C528.188 484.661 519.155 497.323 523.833 509.899C527.691 520.393 544.363 555.777 547.249 558.235C549.564 560.229 572.756 549.995 578.927 548.261C578.103 543.422 577.006 538.651 575.642 533.98L555.735 538.75C555.735 538.75 552.525 530.771 549.091 521.057C544.288 507.615 538.54 490.327 535.355 481.77Z" fill="#3ED9C7"/>
<path d="M602.219 521.52L626.78 502.989C627.093 502.745 627.361 502.431 627.569 502.065C627.777 501.7 627.919 501.289 627.989 500.859C628.058 500.428 628.053 499.985 627.974 499.557C627.894 499.129 627.742 498.723 627.526 498.364C627.097 497.685 626.459 497.225 625.745 497.079C625.031 496.934 624.296 497.114 623.694 497.583L602.02 514.293C602.02 514.293 595.674 521.52 602.219 521.52Z" fill="#001C45"/>
<path d="M575.643 534.038L594.256 527.938C594.422 523.592 595.354 519.331 596.994 515.42C599.781 509.899 600.378 505.504 601.771 507.355C603.165 509.205 603.04 510.824 601.946 514.351C601.345 516.722 601.415 519.255 602.145 521.578L616.627 510.65C615.491 514.992 613.939 519.171 611.999 523.11C609.13 529.379 604.674 534.475 599.233 537.709C592.671 541.582 585.886 544.924 578.928 547.712L575.643 534.038Z" fill="#FF9A8D"/>
<path d="M549.042 521.057C549.042 520.364 549.166 519.699 549.216 519.005L542.497 503.712L549.042 521.057Z" fill="#03AA99"/>
<path d="M575.643 533.026C575.643 533.026 578.928 537.304 579.251 548.955" stroke="#AAEEED" stroke-width="1.05" stroke-miterlimit="10" stroke-linecap="round"/>
<path d="M661.791 387.671H540.382C536.614 387.671 533 385.932 530.335 382.836C527.67 379.74 526.173 375.542 526.173 371.164C526.173 366.786 527.67 362.587 530.335 359.492C533 356.396 536.614 354.657 540.382 354.657H661.791C665.56 354.657 669.174 356.396 671.839 359.492C674.503 362.587 676 366.786 676 371.164C676.003 373.333 675.638 375.481 674.925 377.485C674.212 379.49 673.166 381.311 671.846 382.845C670.526 384.378 668.958 385.594 667.233 386.422C665.507 387.25 663.658 387.675 661.791 387.671Z" fill="white"/>
<path d="M553.098 360.41L555.835 366.885L561.957 367.926L557.527 372.927L558.572 380.039L553.098 376.685L547.599 380.039L548.644 372.927L544.214 367.926L550.336 366.885L553.098 360.41Z" fill="#FABA50"/>
<path d="M577.385 360.41L580.122 366.885L586.243 367.926L581.814 372.927L582.859 380.039L577.385 376.685L571.91 380.039L572.955 372.927L568.526 367.926L574.647 366.885L577.385 360.41Z" fill="#FABA50"/>
<path d="M601.672 360.41L604.409 366.885L610.555 367.926L606.101 372.927L607.171 380.039L601.672 376.685L596.197 380.039L597.242 372.927L592.813 367.926L598.934 366.885L601.672 360.41Z" fill="#FABA50"/>
<path d="M625.983 360.41L628.72 366.885L634.842 367.926L630.413 372.927L631.458 380.039L625.983 376.685L620.484 380.039L621.529 372.927L617.1 367.926L623.221 366.885L625.983 360.41Z" fill="#FABA50"/>
<path d="M650.27 360.41L653.008 366.885L659.129 367.926L654.7 372.927L655.745 380.039L650.27 376.685L644.771 380.039L645.841 372.927L641.387 367.926L647.533 366.885L650.27 360.41Z" fill="#FABA50"/>
<path d="M625.983 384.924V408.138L638.475 384.924H625.983Z" fill="white"/>
<path d="M1229.45 512.789L1213.87 505.707C1213.72 502.13 1212.87 498.64 1211.38 495.502C1207.77 489.229 1206.55 482.551 1205.04 484.256C1203.52 485.962 1203.87 489.2 1204.69 492.929C1205.1 495.35 1204.84 497.862 1203.94 500.098L1190.35 487.725C1190.09 492.548 1190.72 497.381 1192.22 501.891C1194.71 507.673 1197.82 511.807 1205.18 517.617C1212.55 523.428 1224.59 531.233 1224.59 531.233L1229.45 512.789Z" fill="#BA5964"/>
<path d="M1229.45 512.76L1252.34 521.78V542.479L1224.52 531.089L1229.45 512.76Z" fill="#228C7E"/>
<path d="M1229.62 511.633L1224.64 530.569" stroke="#AAEEED" stroke-width="1.05" stroke-miterlimit="10" stroke-linecap="round"/>
<path d="M1233.4 826.858C1232.76 828.246 1233.25 831.05 1238.03 833.362C1242.81 835.675 1251.49 834.692 1254.93 833.912C1258.37 832.609 1262.04 832.37 1265.58 833.218C1270.56 834.432 1279.02 833.912 1281.55 831.426C1282.42 830.24 1281.83 827.812 1281.83 827.812L1233.4 826.858Z" fill="#8FC9C6"/>
<path d="M1279.06 809.541C1279.79 813.589 1282.62 823.158 1281.8 827.812C1278.22 831.339 1270.55 831.57 1264.81 829.893C1259.06 828.217 1255 831.628 1247.81 832.119C1240.62 832.611 1234.82 830.298 1233.38 826.858C1231.93 823.418 1244.15 820.209 1252.59 817.173C1257.83 815.497 1262.71 812.54 1266.9 808.501L1279.06 809.541Z" fill="#228C7E"/>
<mask id="mask6_202_75" style="mask-type:luminance" maskUnits="userSpaceOnUse" x="1233" y="808" width="49" height="25">
<path d="M1279.06 809.541C1279.79 813.589 1282.62 823.158 1281.8 827.812C1278.22 831.339 1270.55 831.57 1264.81 829.893C1259.06 828.217 1255 831.628 1247.81 832.119C1240.62 832.611 1234.82 830.298 1233.38 826.858C1231.93 823.418 1244.15 820.209 1252.59 817.173C1257.83 815.497 1262.71 812.54 1266.9 808.501L1279.06 809.541Z" fill="white"/>
</mask>
<g mask="url(#mask6_202_75)">
<path d="M1264.13 817.347C1263.33 814.581 1261.97 812.075 1260.18 810.033" stroke="#8FC9C6" stroke-width="0.53" stroke-miterlimit="10" stroke-linecap="round"/>
<path d="M1257.64 820.238C1256.83 817.472 1255.48 814.966 1253.68 812.924" stroke="#8FC9C6" stroke-width="0.53" stroke-miterlimit="10" stroke-linecap="round"/>
<path d="M1251.22 823.302C1250.41 820.536 1249.06 818.031 1247.26 815.988" stroke="#8FC9C6" stroke-width="0.53" stroke-miterlimit="10" stroke-linecap="round"/>
</g>
<path d="M1279.07 793.323V809.541C1278.22 809.859 1277.44 810.381 1276.78 811.073C1276.1 811.998 1275.18 815.063 1274.06 815.121C1269.56 815.323 1266.9 808.414 1266.9 808.414L1265.2 793.699L1279.07 793.323Z" fill="#FF9A8D"/>
<path d="M1347.82 830.443C1348.64 831.686 1351.03 832.379 1354.89 828.361C1358.74 824.343 1361.68 814.803 1362.55 810.842C1362.98 806.644 1364.37 802.654 1366.56 799.279C1369.69 794.451 1372.85 785.46 1372.01 781.731C1371.48 780.314 1369.32 779.881 1369.32 779.881L1347.82 830.443Z" fill="#AAEEED"/>
<path d="M1353.94 775.024C1357.4 776.036 1366.06 777.163 1369.32 779.996C1370.54 785.258 1367.43 793.41 1363.65 798.729C1359.86 804.049 1360.81 809.744 1358.1 817.549C1355.38 825.355 1351.13 830.385 1347.82 830.443C1344.51 830.5 1347.27 816.248 1348.54 806.13C1349.46 799.881 1349.23 793.478 1347.87 787.339L1353.94 775.024Z" fill="#03AA99"/>
<mask id="mask7_202_75" style="mask-type:luminance" maskUnits="userSpaceOnUse" x="1346" y="775" width="24" height="56">
<path d="M1353.94 775.024C1357.4 776.036 1366.06 777.163 1369.32 779.996C1370.54 785.258 1367.43 793.41 1363.65 798.729C1359.86 804.049 1360.81 809.744 1358.1 817.549C1355.38 825.355 1351.13 830.385 1347.82 830.443C1344.51 830.5 1347.27 816.248 1348.54 806.13C1349.46 799.881 1349.23 793.478 1347.87 787.339L1353.94 775.024Z" fill="white"/>
</mask>
<g mask="url(#mask7_202_75)">
<path d="M1353.72 794.219C1351.19 793.872 1348.64 794.219 1346.25 795.231" stroke="#AAEEED" stroke-width="0.53" stroke-miterlimit="10" stroke-linecap="round"/>
<path d="M1353.14 802.199C1350.62 801.831 1348.06 802.178 1345.68 803.21" stroke="#AAEEED" stroke-width="0.53" stroke-miterlimit="10" stroke-linecap="round"/>
<path d="M1352.7 810.177C1350.17 809.825 1347.61 810.182 1345.23 811.218" stroke="#AAEEED" stroke-width="0.53" stroke-miterlimit="10" stroke-linecap="round"/>
</g>
<path d="M1346.25 765.802L1353.99 775.024C1353.88 776.052 1353.96 777.096 1354.21 778.088C1354.64 779.187 1356.7 781.47 1356.18 782.685C1354.41 787.512 1347.92 787.339 1347.92 787.339L1336.75 777.163L1346.25 765.802Z" fill="#FF9A8D"/>
<path d="M1252.17 562.484C1267.79 562.484 1279.41 563.843 1279.41 563.843C1284.39 566.387 1292.98 579.569 1295.51 587.953C1298.05 596.337 1297.01 610.329 1295.69 617.527C1288.35 657.653 1276.1 680.78 1273.29 696.709C1271.55 706.422 1279.86 701.19 1279.86 725.878C1279.86 747.936 1279.14 795 1279.14 795C1274.93 797.439 1270.07 797.885 1265.58 796.243C1265.58 796.243 1253.83 718.651 1252.56 709.747C1250.47 695.293 1249.75 689.308 1249.53 664.389C1249.2 629.438 1252.17 562.484 1252.17 562.484Z" fill="#1E4174"/>
<path d="M1336.7 777.163C1336.7 777.163 1276.48 725.907 1272.82 721.224C1269.16 716.541 1267.59 620.302 1266.65 613.393C1266.65 613.393 1251.89 596.048 1251.44 581.449L1299.35 553.58C1301.39 562.455 1300.14 567.746 1305.12 590.324C1310.69 615.532 1299.49 657.769 1295.81 708.677C1300.86 709.257 1305.67 711.47 1309.7 715.066C1316.66 720.848 1346.2 765.802 1346.2 765.802C1345.44 768.393 1344.19 770.756 1342.55 772.72C1340.9 774.684 1338.9 776.202 1336.7 777.163Z" fill="#85B8ED"/>
<path d="M1346.25 765.802C1345.66 767.7 1344.82 769.483 1343.76 771.092C1337.67 762.188 1321.37 740.824 1311.79 729.261C1299.12 713.939 1291.01 713.476 1290.41 710.21C1289.82 706.943 1290.41 658.954 1292.63 628.946C1294.84 598.938 1292.63 586.826 1285.16 575.956C1282.89 572.639 1280.9 569.077 1279.21 565.317L1299.4 553.551C1301.44 562.484 1300.17 567.746 1305.17 590.324C1310.77 615.532 1299.55 657.769 1295.86 708.677C1296.7 708.724 1297.53 708.839 1298.35 709.024C1299.63 709.349 1300.9 709.764 1302.13 710.267C1303.85 711.017 1305.52 711.926 1307.11 712.985C1308.07 713.623 1309 714.318 1309.9 715.066C1312.53 717.649 1314.95 720.504 1317.14 723.595C1323.01 731.284 1330.65 742.385 1336.7 751.289L1339.33 755.192C1343.32 761.437 1346.25 765.802 1346.25 765.802Z" fill="#4E7EAC"/>
<path d="M1254.6 593.995C1261.58 600.436 1270.25 603.905 1279.16 603.824C1288.03 603.941 1296.75 601.306 1304.45 596.192L1300.22 584.368L1254.6 593.995Z" fill="#4E7EAC"/>
<mask id="mask8_202_75" style="mask-type:luminance" maskUnits="userSpaceOnUse" x="1251" y="553" width="96" height="225">
<path d="M1336.7 777.163C1336.7 777.163 1276.48 725.907 1272.82 721.224C1269.16 716.541 1267.59 620.302 1266.65 613.393C1266.65 613.393 1251.89 596.048 1251.44 581.449L1298.33 553.58C1300.37 562.455 1299.49 568.035 1305.12 590.324C1310.49 611.659 1299.49 657.769 1295.81 708.677C1300.86 709.257 1305.67 711.47 1309.7 715.066C1316.66 720.848 1346.2 765.802 1346.2 765.802C1345.44 768.393 1344.19 770.756 1342.55 772.72C1340.9 774.684 1338.9 776.202 1336.7 777.163Z" fill="white"/>
</mask>
<g mask="url(#mask8_202_75)">
<path d="M1264.78 552.857C1271.77 568.208 1282.2 578.876 1285.46 589.023C1288.72 599.17 1287.57 620.013 1286.93 657.855C1286.28 695.061 1285.53 712.002 1286.93 714.546C1288.32 717.09 1297.63 719.547 1312.24 735.881C1326.84 752.215 1345.01 777.163 1345.01 777.163" stroke="#274D79" stroke-width="0.53" stroke-miterlimit="10"/>
<path d="M1273.14 593.677C1273.14 593.677 1273.14 614.463 1287.7 615.648" stroke="#274D79" stroke-width="0.53" stroke-miterlimit="10"/>
<path d="M1343.89 757.91C1342.96 761.9 1341.25 765.582 1338.87 768.66C1336.5 771.738 1333.54 774.126 1330.23 775.631" stroke="#274D79" stroke-width="0.53" stroke-miterlimit="10"/>
</g>
<path d="M1253.19 468.848C1252.17 470.091 1251.84 472.519 1253.63 479.949L1276.03 458.151L1253.19 468.848Z" fill="#10A297"/>
<path d="M1234.7 427.623C1234.25 429.705 1231.39 438.898 1230.42 441.615C1229.45 444.333 1235.64 442.945 1235.64 442.945L1234.7 427.623Z" fill="#BA5964"/>
<path d="M1271.55 458.122L1255.3 475.208L1249.48 457.486L1265.35 437.944L1271.55 458.122Z" fill="#FF9A8D"/>
<path d="M1252.04 465.292C1252.04 465.292 1267.74 451.329 1265.35 437.973L1249.48 457.486L1252.04 465.292Z" fill="#BA5964"/>
<path d="M1265.3 437.973C1265.09 439.735 1264.79 441.482 1264.41 443.205C1263.86 445.518 1251.2 456.908 1247.56 458.672C1243.93 460.435 1238.7 461.187 1236.17 446.241C1233.63 431.295 1233.68 417.592 1240.57 408.225C1247.46 398.859 1260.92 402.241 1268.27 409.96C1275.61 417.678 1274.64 437.828 1265.3 437.973Z" fill="#FF9A8D"/>
<path d="M1265.3 437.973L1267.79 445.691C1267.79 445.691 1270.51 444.419 1272.77 437.973C1275.26 430.919 1280.23 418.719 1278.05 412.706C1275.13 404.814 1266.35 404.496 1266.35 404.496C1263.23 399.852 1259.33 395.99 1254.89 393.143C1250.45 390.296 1245.56 388.523 1240.52 387.931C1222.45 385.04 1218.62 400.998 1233.4 406.953C1233.4 406.953 1225.94 414.759 1232.36 416.782C1238.78 418.806 1254.16 413.255 1254.16 413.255C1254.16 413.255 1247.34 419.037 1250.2 420.887C1253.06 422.738 1262.64 418.401 1262.64 418.401L1262.79 424.588C1263.75 423.845 1264.87 423.414 1266.03 423.337C1267.18 423.261 1268.33 423.543 1269.36 424.154C1272.92 427.074 1271.3 438.059 1265.3 437.973Z" fill="#001C45"/>
<path d="M1263.69 386.37C1263.69 386.37 1271.4 396.893 1264.36 407.936C1264.36 407.936 1273.27 404.669 1272.77 394.147" stroke="#001C45" stroke-width="0.79" stroke-miterlimit="10" stroke-linecap="round"/>
<path d="M1207.5 504.088L1184.51 483.1C1184.21 482.83 1183.96 482.492 1183.77 482.107C1183.59 481.721 1183.48 481.296 1183.44 480.858C1183.4 480.419 1183.44 479.977 1183.56 479.557C1183.67 479.137 1183.86 478.749 1184.11 478.417C1184.59 477.794 1185.25 477.406 1185.97 477.331C1186.68 477.255 1187.4 477.499 1187.96 478.012L1208.27 496.918C1208.27 496.918 1213.94 504.782 1207.5 504.088Z" fill="#001C45"/>
<path d="M1255.45 478.156C1255.45 478.156 1253.14 471.739 1254.16 470.033C1257.47 464.251 1268.34 447.802 1269.86 449.392C1271.38 450.982 1275.93 458.065 1275.93 458.065L1255.45 478.156Z" fill="#3ED9C7"/>
<path d="M1253.63 479.949C1252.24 487.378 1252.36 499.665 1251.49 525.712C1250.92 542.479 1249.48 591.104 1249.48 591.104C1249.48 591.104 1260.53 599.517 1279.07 597.811C1296.78 596.163 1304.45 586.016 1304.45 586.016C1304.45 586.016 1302.58 517.646 1296.76 490.616C1288.17 462.863 1275.93 458.036 1275.93 458.036L1253.63 479.949Z" fill="#3ED9C7"/>
<path d="M1282.03 489.547L1265.6 538.692L1251.19 534.182C1250.97 541.699 1250.8 548.637 1250.52 557.57C1254.65 559.604 1258.89 561.304 1263.21 562.658C1267.72 564.103 1268.94 563.12 1270.68 559.564C1275.26 550.574 1289.81 507.528 1289.81 507.528L1282.03 489.547Z" fill="#03AA99"/>
<path d="M1271.6 475.237C1268.66 478.127 1267.29 481.018 1264.53 490.24C1261.47 500.561 1254.85 527.244 1254.85 527.244L1255.92 527.707L1271.6 475.237Z" fill="#03AA99"/>
<path d="M1286.78 468.963C1278.44 464.049 1271.23 470.582 1265.98 489.807C1261 508.048 1256.02 527.706 1256.02 527.706L1233.2 517.415L1228.23 535.223C1228.23 535.223 1249.5 550.66 1258.98 554.592C1268.46 558.523 1270.08 555.748 1284.24 522.185C1294.74 497.15 1300.46 477.058 1286.78 468.963Z" fill="#3ED9C7"/>
<path d="M1233.08 517.415L1217.5 509.841C1217.36 506.261 1216.51 502.768 1215.01 499.636C1211.43 493.363 1210.19 486.656 1208.67 488.39C1207.15 490.125 1207.52 493.305 1208.32 496.918C1208.75 499.339 1208.49 501.858 1207.57 504.088L1193.99 491.744C1193.74 496.566 1194.37 501.395 1195.85 505.909C1198.34 511.691 1201.48 515.825 1208.84 521.636C1216.21 527.446 1228.23 535.223 1228.23 535.223L1233.08 517.415Z" fill="#FF9A8D"/>
<path d="M1275.93 458.151L1255.45 478.156L1253.63 479.949C1253.08 481.027 1252.9 482.305 1253.11 483.533L1275.93 458.151Z" fill="#03AA99"/>
<path d="M1233.18 516.259L1228.05 536.466" stroke="#AAEEED" stroke-width="1.05" stroke-miterlimit="10" stroke-linecap="round"/>
<path d="M1241.74 428.462C1241.75 428.089 1241.86 427.731 1242.06 427.432C1242.25 427.133 1242.51 426.906 1242.81 426.781C1243.12 426.656 1243.44 426.639 1243.75 426.731C1244.06 426.823 1244.34 427.02 1244.56 427.297C1244.77 427.574 1244.91 427.92 1244.96 428.288C1245 428.657 1244.95 429.034 1244.81 429.369C1244.67 429.705 1244.45 429.984 1244.17 430.173C1243.9 430.361 1243.58 430.45 1243.26 430.427C1243.05 430.416 1242.84 430.357 1242.65 430.251C1242.46 430.146 1242.28 429.998 1242.14 429.815C1242 429.632 1241.89 429.418 1241.82 429.185C1241.75 428.953 1241.73 428.707 1241.74 428.462Z" fill="#001C45"/>
<path d="M1240.4 423.547L1247.86 426.264C1247.78 425.389 1247.48 424.561 1247 423.882C1246.52 423.203 1245.87 422.705 1245.15 422.448C1244.35 422.068 1243.47 421.969 1242.63 422.164C1241.78 422.36 1241.01 422.841 1240.4 423.547Z" fill="#001C45"/>
<path d="M1267.92 426.583C1267.37 426.356 1266.78 426.277 1266.19 426.352C1265.61 426.427 1265.05 426.654 1264.56 427.016C1264.26 427.305 1264.81 427.912 1265.11 427.797C1266.8 427.045 1268.86 426.958 1269.71 429.242C1269.65 428.65 1269.45 428.089 1269.13 427.619C1268.82 427.15 1268.4 426.791 1267.92 426.583Z" fill="#BA5964"/>
<path d="M1267.12 426.756C1266.92 426.756 1266.5 427.219 1266.55 427.363C1266.93 427.572 1267.25 427.903 1267.47 428.317C1267.81 428.986 1267.95 429.77 1267.87 430.543C1267.86 431.448 1267.58 432.322 1267.08 433.017C1266.58 433.712 1265.89 434.186 1265.13 434.359C1266.57 434.793 1268.19 433.058 1268.51 431.468C1268.76 430.614 1268.76 429.689 1268.51 428.836C1268.26 427.983 1267.77 427.252 1267.12 426.756Z" fill="#BA5964"/>
<path d="M1169.92 371.106H1291.31C1293.17 371.11 1295.02 370.685 1296.75 369.857C1298.47 369.029 1300.04 367.813 1301.36 366.28C1302.68 364.746 1303.73 362.925 1304.44 360.92C1305.15 358.916 1305.52 356.768 1305.52 354.599C1305.52 350.221 1304.02 346.022 1301.35 342.927C1298.69 339.831 1295.08 338.092 1291.31 338.092H1169.92C1166.15 338.092 1162.54 339.83 1159.87 342.925C1157.2 346.02 1155.7 350.218 1155.69 354.599C1155.69 356.769 1156.06 358.918 1156.77 360.923C1157.49 362.927 1158.54 364.748 1159.86 366.281C1161.18 367.815 1162.75 369.03 1164.48 369.858C1166.2 370.686 1168.06 371.11 1169.92 371.106Z" fill="white"/>
<path d="M1278.62 347.314L1280.18 350.985L1280.48 351.708H1281.18L1284.69 352.315L1282.2 355.206L1281.7 355.755L1281.83 356.536L1282.42 360.612L1279.29 358.704L1278.67 358.328L1278.07 358.704L1274.93 360.612L1275.53 356.536V355.755L1275.06 355.206L1272.57 352.315L1276.08 351.708H1276.75L1277.05 350.985L1278.62 347.314ZM1278.62 343.874L1275.88 350.32L1269.76 351.361L1274.19 356.391L1273.14 363.474L1278.62 360.121L1284.04 363.474L1283 356.391L1287.45 351.361L1281.3 350.32L1278.57 343.874H1278.62Z" fill="#FABA50"/>
<path d="M1254.33 343.845L1251.59 350.32L1245.45 351.332L1249.9 356.362L1248.86 363.445L1254.33 360.121L1259.8 363.445L1258.76 356.362L1263.19 351.332L1257.07 350.32L1254.33 343.845Z" fill="#FABA50"/>
<path d="M1230.04 343.845L1227.28 350.32L1221.16 351.332L1225.59 356.362L1224.54 363.445L1230.04 360.121L1235.52 363.445L1234.47 356.362L1238.9 351.332L1232.78 350.32L1230.04 343.845Z" fill="#FABA50"/>
<path d="M1205.73 343.845L1202.99 350.32L1196.87 351.332L1201.3 356.362L1200.26 363.445L1205.73 360.121L1211.23 363.445L1210.16 356.362L1214.62 351.332L1208.47 350.32L1205.73 343.845Z" fill="#FABA50"/>
<path d="M1181.44 343.845L1178.71 350.32L1172.59 351.332L1177.02 356.362L1175.97 363.445L1181.44 360.121L1186.92 363.445L1185.87 356.362L1190.33 351.332L1184.18 350.32L1181.44 343.845Z" fill="#FABA50"/>
<path d="M1205.73 368.36V391.574L1193.24 368.36H1205.73Z" fill="white"/>
</g>
<defs>
<linearGradient id="paint0_linear_202_75" x1="756.5" y1="-2.544" x2="756.5" y2="831.772" gradientUnits="userSpaceOnUse">
<stop stop-color="#638BE3"/>
<stop offset="0.15" stop-color="#79A2E4" stop-opacity="0.8"/>
<stop offset="0.35" stop-color="#94C0E5" stop-opacity="0.55"/>
<stop offset="0.53" stop-color="#A9D6E5" stop-opacity="0.36"/>
<stop offset="0.67" stop-color="#B5E3E6" stop-opacity="0.24"/>
<stop offset="0.75" stop-color="#BAE8E6" stop-opacity="0.2"/>
</linearGradient>
</defs>
</svg>
