<svg width="756" height="490" viewBox="0 0 756 490" fill="none" xmlns="http://www.w3.org/2000/svg">
<path d="M742.963 288.665C745.838 288.483 748.53 287.211 750.473 285.115C752.416 283.019 753.457 280.263 753.379 277.426C753.301 274.589 752.109 271.893 750.053 269.904C747.998 267.915 745.24 266.789 742.358 266.761C741.27 266.756 740.188 266.918 739.151 267.242C738.221 263.452 736.029 260.078 732.925 257.657C729.821 255.236 725.984 253.908 722.024 253.885C718.065 253.861 714.212 255.143 711.078 257.526C707.945 259.91 705.711 263.258 704.734 267.036C703.926 266.852 703.1 266.76 702.27 266.761C699.417 266.793 696.684 267.903 694.637 269.862C692.591 271.821 691.386 274.48 691.273 277.288C691.16 280.097 692.146 282.841 694.028 284.954C695.911 287.067 698.545 288.387 701.387 288.642" fill="#F5EDC9"/>
<path d="M197.256 54.9864C199.735 54.8476 202.157 54.1933 204.361 53.0666C206.566 51.9399 208.503 50.3662 210.045 48.4493C211.588 46.5323 212.701 44.3153 213.311 41.9443C213.921 39.5734 214.014 37.102 213.585 34.693C213.155 32.2839 212.213 29.9917 210.819 27.9671C209.425 25.9425 207.612 24.2315 205.499 22.9465C203.386 21.6616 201.02 20.8319 198.558 20.512C196.096 20.1921 193.593 20.3893 191.213 21.0905C189.734 15.1037 186.264 9.77596 181.356 5.95453C176.448 2.13309 170.384 0.0373267 164.127 0.00049391C157.871 -0.0363389 151.782 1.98786 146.828 5.75124C141.874 9.51462 138.339 14.8011 136.787 20.7701C134.429 20.2438 131.986 20.2019 129.611 20.6469C127.236 21.0919 124.979 22.0143 122.982 23.3565C120.985 24.6988 119.29 26.432 118.004 28.4481C116.717 30.4642 115.866 32.7198 115.505 35.0741C115.143 37.4285 115.277 39.831 115.901 42.1317C116.524 44.4325 117.621 46.5821 119.126 48.4463C120.63 50.3105 122.508 51.8493 124.643 52.9667C126.778 54.0841 129.124 54.7561 131.535 54.9407" fill="white"/>
<path d="M473.642 475.081C564.05 475.081 637.34 470.439 637.34 464.713C637.34 458.987 564.05 454.345 473.642 454.345C383.234 454.345 309.943 458.987 309.943 464.713C309.943 470.439 383.234 475.081 473.642 475.081Z" fill="#E6E6E6"/>
<path d="M159.655 407.289C189.611 407.289 213.895 404.379 213.895 400.789C213.895 397.199 189.611 394.289 159.655 394.289C129.698 394.289 105.414 397.199 105.414 400.789C105.414 404.379 129.698 407.289 159.655 407.289Z" fill="#E6E6E6"/>
<path d="M183.881 151.109L150.638 148.222L128.867 391.347L162.109 394.234L183.881 151.109Z" fill="#FF7882"/>
<path d="M179.338 159.009L164.604 157.727" stroke="white" stroke-width="0.5" stroke-miterlimit="10" stroke-linecap="round"/>
<path d="M178.734 165.646L170.74 164.936" stroke="white" stroke-width="0.5" stroke-miterlimit="10" stroke-linecap="round"/>
<path d="M178.153 172.26L170.135 171.574" stroke="white" stroke-width="0.5" stroke-miterlimit="10" stroke-linecap="round"/>
<path d="M177.549 178.898L169.554 178.188" stroke="white" stroke-width="0.5" stroke-miterlimit="10" stroke-linecap="round"/>
<path d="M176.968 185.512L168.95 184.825" stroke="white" stroke-width="0.5" stroke-miterlimit="10" stroke-linecap="round"/>
<path d="M176.364 192.287L161.63 191.005" stroke="white" stroke-width="0.5" stroke-miterlimit="10" stroke-linecap="round"/>
<path d="M175.759 198.924L167.742 198.214" stroke="white" stroke-width="0.5" stroke-miterlimit="10" stroke-linecap="round"/>
<path d="M175.178 205.538L167.161 204.852" stroke="white" stroke-width="0.5" stroke-miterlimit="10" stroke-linecap="round"/>
<path d="M174.574 212.176L166.557 211.466" stroke="white" stroke-width="0.5" stroke-miterlimit="10" stroke-linecap="round"/>
<path d="M173.97 218.79L165.976 218.103" stroke="white" stroke-width="0.5" stroke-miterlimit="10" stroke-linecap="round"/>
<path d="M173.366 225.587L158.632 224.306" stroke="white" stroke-width="0.5" stroke-miterlimit="10" stroke-linecap="round"/>
<path d="M172.785 232.202L164.767 231.515" stroke="white" stroke-width="0.5" stroke-miterlimit="10" stroke-linecap="round"/>
<path d="M172.18 238.816L164.186 238.13" stroke="white" stroke-width="0.5" stroke-miterlimit="10" stroke-linecap="round"/>
<path d="M171.599 245.454L163.582 244.767" stroke="white" stroke-width="0.5" stroke-miterlimit="10" stroke-linecap="round"/>
<path d="M170.995 252.068L162.978 251.381" stroke="white" stroke-width="0.5" stroke-miterlimit="10" stroke-linecap="round"/>
<path d="M170.391 258.865L155.657 257.584" stroke="white" stroke-width="0.5" stroke-miterlimit="10" stroke-linecap="round"/>
<path d="M169.787 265.48L161.792 264.793" stroke="white" stroke-width="0.5" stroke-miterlimit="10" stroke-linecap="round"/>
<path d="M169.206 272.117L161.188 271.408" stroke="white" stroke-width="0.5" stroke-miterlimit="10" stroke-linecap="round"/>
<path d="M168.602 278.732L160.607 278.045" stroke="white" stroke-width="0.5" stroke-miterlimit="10" stroke-linecap="round"/>
<path d="M168.021 285.369L160.003 284.659" stroke="white" stroke-width="0.5" stroke-miterlimit="10" stroke-linecap="round"/>
<path d="M167.416 292.143L152.659 290.862" stroke="white" stroke-width="0.5" stroke-miterlimit="10" stroke-linecap="round"/>
<path d="M166.812 298.758L158.795 298.071" stroke="white" stroke-width="0.5" stroke-miterlimit="10" stroke-linecap="round"/>
<path d="M166.208 305.395L158.214 304.686" stroke="white" stroke-width="0.5" stroke-miterlimit="10" stroke-linecap="round"/>
<path d="M165.627 312.009L157.609 311.323" stroke="white" stroke-width="0.5" stroke-miterlimit="10" stroke-linecap="round"/>
<path d="M165.023 318.647L157.028 317.937" stroke="white" stroke-width="0.5" stroke-miterlimit="10" stroke-linecap="round"/>
<path d="M108.295 236.894L114.245 224.306L125.121 233.163L122.797 242.707L115.29 244.378L108.295 236.894Z" fill="url(#paint0_linear_53_5)"/>
<path d="M131.163 292.876C130.798 292.998 130.425 293.097 130.048 293.173L128.886 293.379C127.416 293.75 125.87 293.711 124.421 293.267C122.972 292.822 121.678 291.989 120.682 290.862L134.44 350.963C135.441 352.091 136.74 352.923 138.192 353.368C139.644 353.812 141.193 353.851 142.667 353.481C143.05 353.437 143.431 353.368 143.805 353.275C144.185 353.206 144.558 353.106 144.921 352.977C146.415 352.694 147.8 352.006 148.921 350.992C150.041 349.977 150.853 348.676 151.265 347.233L137.484 287.131C137.071 288.57 136.262 289.868 135.147 290.882C134.031 291.896 132.652 292.586 131.163 292.876Z" fill="#FF7882"/>
<path d="M113.85 227.67C114.012 227.67 114.431 227.67 114.988 227.441L116.104 227.167L117.266 226.755L114.245 224.306L112.595 227.785L113.85 227.67Z" fill="#2E2E2E"/>
<path d="M113.891 235.731L108.292 236.975L133.928 348.919L139.528 347.675L113.891 235.731Z" fill="#FFA02B"/>
<path d="M119.492 234.457L113.892 235.701L139.529 347.645L145.128 346.401L119.492 234.457Z" fill="#FFA02B"/>
<path d="M125.097 233.228L119.498 234.471L145.134 346.416L150.734 345.172L125.097 233.228Z" fill="#FFA02B"/>
<path d="M134.003 348.901L134.483 351L151.304 347.264L150.824 345.165L134.003 348.901Z" fill="#E6E6E6"/>
<path d="M143.821 346.713L144.302 348.812L149.017 347.765L148.537 345.666L143.821 346.713Z" fill="#B3B3B3"/>
<path d="M147.149 345.985L147.63 348.083L148.265 347.942L147.784 345.844L147.149 345.985Z" fill="#999999"/>
<path d="M149.061 345.542L149.542 347.641L150.426 347.444L149.945 345.345L149.061 345.542Z" fill="#999999"/>
<path d="M108.295 236.894L125.097 233.163C125.097 233.163 117.707 241.403 108.295 236.894Z" fill="url(#paint1_linear_53_5)"/>
<path d="M198.534 400.377H120.798L105.693 300.909H213.617L198.534 400.377Z" fill="#99CFFF"/>
<path d="M388.586 330.937H325.584V404.931H388.586V330.937Z" fill="#CCCCCC"/>
<path d="M435.204 425.988H278.965V423.699C278.965 421.24 279.457 418.806 280.412 416.534C281.368 414.263 282.768 412.199 284.533 410.461C286.299 408.722 288.394 407.343 290.701 406.402C293.007 405.461 295.479 404.977 297.975 404.977H416.194C418.69 404.977 421.162 405.461 423.469 406.402C425.775 407.343 427.871 408.722 429.636 410.461C431.401 412.199 432.801 414.263 433.757 416.534C434.712 418.806 435.204 421.24 435.204 423.699V425.988Z" fill="#CCCCCC"/>
<path d="M583.912 400.812H539.525V459.449H583.912V452.857C583.912 452.857 573.338 437.088 583.912 402.505V400.812Z" fill="#E6E6E6"/>
<path d="M555.189 401.658H356.329C347.448 401.658 338.93 405.133 332.65 411.318C326.369 417.503 322.841 425.892 322.841 434.639C322.841 443.386 326.369 451.775 332.65 457.96C338.93 464.145 347.448 467.619 356.329 467.619H555.189V458.876C555.189 458.876 538.27 440.063 555.189 410.813V401.658Z" fill="#284C4F"/>
<path d="M555.189 410.79H358.165C351.878 411.061 345.939 413.711 341.587 418.188C337.235 422.665 334.806 428.624 334.806 434.822C334.806 441.02 337.235 446.979 341.587 451.456C345.939 455.933 351.878 458.583 358.165 458.854H555.189C555.189 458.854 538.224 440.063 555.189 410.79Z" fill="white"/>
<path d="M555.165 424.683H348.312" stroke="#E6E6E6" stroke-width="0.5" stroke-miterlimit="10" stroke-linecap="round"/>
<path d="M555.165 434.639H348.312" stroke="#E6E6E6" stroke-width="0.5" stroke-miterlimit="10" stroke-linecap="round"/>
<path d="M555.165 444.595H348.312" stroke="#E6E6E6" stroke-width="0.5" stroke-miterlimit="10" stroke-linecap="round"/>
<path d="M534.784 454.208L523.444 445.785L512.103 454.208V423.63H534.784V454.208Z" fill="url(#paint2_linear_53_5)"/>
<path d="M583.912 395.982H379.359L350.636 402.185H555.189L583.912 395.982Z" fill="#284C4F"/>
<path d="M555.189 410.79V402.185L583.913 395.982V402.597L555.189 410.79Z" fill="#3D7478"/>
<path d="M555.189 467.619V459.014L583.913 452.834V459.426L555.189 467.619Z" fill="#3D7478"/>
<path d="M521.654 96.9158H193.677C186.567 96.9158 180.802 102.593 180.802 109.595V338.673C180.802 345.676 186.567 351.353 193.677 351.353H521.654C528.765 351.353 534.529 345.676 534.529 338.673V109.595C534.529 102.593 528.765 96.9158 521.654 96.9158Z" fill="#E6E6E6"/>
<path d="M524.582 96.9158H190.749C188.455 96.9969 186.257 97.8392 184.51 99.3058C182.764 100.772 181.572 102.777 181.128 104.995V316.564H534.529V107.673C534.649 104.95 533.67 102.29 531.807 100.275C529.944 98.2598 527.346 97.0522 524.582 96.9158Z" fill="#2E2E2E"/>
<path d="M521.677 109.183H193.142V302.42H521.677V109.183Z" fill="white"/>
<path d="M364.812 336.728H349.357C348.186 336.728 347.063 336.269 346.235 335.454C345.407 334.638 344.942 333.532 344.942 332.379C344.942 331.226 345.407 330.12 346.235 329.304C347.063 328.489 348.186 328.031 349.357 328.031H364.812C365.983 328.031 367.106 328.489 367.934 329.304C368.762 330.12 369.227 331.226 369.227 332.379C369.227 333.532 368.762 334.638 367.934 335.454C367.106 336.269 365.983 336.728 364.812 336.728Z" fill="#B3B3B3"/>
<path d="M350.333 136.854H222.122C217.989 136.854 214.639 140.153 214.639 144.224V274.131C214.639 278.201 217.989 281.501 222.122 281.501H350.333C354.466 281.501 357.817 278.201 357.817 274.131V144.224C357.817 140.153 354.466 136.854 350.333 136.854Z" fill="#AAD162"/>
<path d="M357.84 140.836H228.722V271.27H357.84V140.836Z" fill="#86A34C"/>
<path d="M224.33 271.408C267.737 257.652 314.432 257.652 357.84 271.408V136.533C314.432 122.778 267.737 122.778 224.33 136.533V271.408Z" fill="#F2F2F2"/>
<path d="M344.756 153.218C311.278 142.598 275.26 142.598 241.782 153.218" stroke="#CCCCCC" stroke-miterlimit="10" stroke-linecap="round"/>
<path d="M344.756 165.898C311.278 155.278 275.26 155.278 241.782 165.898" stroke="#CCCCCC" stroke-miterlimit="10" stroke-linecap="round"/>
<path d="M344.756 178.577C311.278 167.957 275.26 167.957 241.782 178.577" stroke="#CCCCCC" stroke-miterlimit="10" stroke-linecap="round"/>
<path d="M344.756 191.257C311.278 180.636 275.26 180.636 241.782 191.257" stroke="#CCCCCC" stroke-miterlimit="10" stroke-linecap="round"/>
<path d="M344.756 203.982C311.278 193.362 275.26 193.362 241.782 203.982" stroke="#CCCCCC" stroke-miterlimit="10" stroke-linecap="round"/>
<path d="M344.756 216.616C311.278 205.995 275.26 205.995 241.782 216.616" stroke="#CCCCCC" stroke-miterlimit="10" stroke-linecap="round"/>
<path d="M344.756 229.295C311.278 218.675 275.26 218.675 241.782 229.295" stroke="#CCCCCC" stroke-miterlimit="10" stroke-linecap="round"/>
<path d="M344.756 241.975C311.278 231.354 275.26 231.354 241.782 241.975" stroke="#CCCCCC" stroke-miterlimit="10" stroke-linecap="round"/>
<path d="M365.3 281.501H493.511C497.644 281.501 500.994 278.201 500.994 274.131V144.224C500.994 140.153 497.644 136.854 493.511 136.854L365.3 136.854C361.167 136.854 357.817 140.153 357.817 144.224V274.131C357.817 278.201 361.167 281.501 365.3 281.501Z" fill="#AAD162"/>
<path d="M357.817 271.27H486.935V140.836L357.817 140.836V271.27Z" fill="#86A34C"/>
<path d="M491.327 271.408C447.927 257.652 401.239 257.652 357.84 271.408V136.533C401.239 122.778 447.927 122.778 491.327 136.533V271.408Z" fill="#F2F2F2"/>
<path d="M370.9 153.218C404.378 142.598 440.396 142.598 473.874 153.218" stroke="#CCCCCC" stroke-miterlimit="10" stroke-linecap="round"/>
<path d="M370.9 165.898C404.378 155.278 440.396 155.278 473.874 165.898" stroke="#CCCCCC" stroke-miterlimit="10" stroke-linecap="round"/>
<path d="M370.9 178.577C404.378 167.957 440.396 167.957 473.874 178.577" stroke="#CCCCCC" stroke-miterlimit="10" stroke-linecap="round"/>
<path d="M370.9 191.257C404.378 180.636 440.396 180.636 473.874 191.257" stroke="#CCCCCC" stroke-miterlimit="10" stroke-linecap="round"/>
<path d="M370.9 203.982C404.378 193.362 440.396 193.362 473.874 203.982" stroke="#CCCCCC" stroke-miterlimit="10" stroke-linecap="round"/>
<path d="M370.9 216.616C404.378 205.995 440.396 205.995 473.874 216.616" stroke="#CCCCCC" stroke-miterlimit="10" stroke-linecap="round"/>
<path d="M370.9 229.295C404.378 218.675 440.396 218.675 473.874 229.295" stroke="#CCCCCC" stroke-miterlimit="10" stroke-linecap="round"/>
<path d="M370.9 241.975C404.378 231.354 440.396 231.354 473.874 241.975" stroke="#CCCCCC" stroke-miterlimit="10" stroke-linecap="round"/>
<path d="M446.707 127.356L445.266 152.738L453.377 147.313L460.767 153.653L462.185 129.461C457.025 128.592 451.866 127.882 446.707 127.356Z" fill="#FF9B38"/>
<path opacity="0.4" d="M289.865 316.335L481.497 96.9158H390.631L198.999 316.335H289.865Z" fill="white"/>
<path d="M235.787 489.591C273.226 489.591 303.576 485.318 303.576 480.047C303.576 474.776 273.226 470.503 235.787 470.503C198.348 470.503 167.998 474.776 167.998 480.047C167.998 485.318 198.348 489.591 235.787 489.591Z" fill="#E6E6E6"/>
<path d="M244.478 233.735C236.646 236.322 233.021 242.89 231.139 252.709C229.628 260.765 229.907 271.797 224.399 278.068C217.706 285.689 208.434 290.61 204.413 300.085C201.439 307.112 200.811 316.862 204.692 324.163C212.64 339.108 234.415 343.456 256.098 339.611C262.396 338.513 279.779 328.648 280.546 302.122C280.964 287.383 271.901 277.221 270.832 267.196C269.321 253.075 270.065 244.309 266.486 237.947C261.489 228.929 253.216 230.714 244.478 233.735Z" fill="#A35233"/>
<path d="M254.703 276.168C254.703 276.168 257.027 282.645 246.314 293.196C240.497 298.803 235.063 304.782 230.047 311.094L261.28 335.743L251.241 343.228C251.241 343.228 210.154 319.356 210.572 310.041C210.99 300.726 248.638 256.462 254.703 276.168Z" fill="#FAD161"/>
<path d="M272.714 473.639C272.714 473.639 291.306 482.954 297.232 482.794C303.158 482.633 298.882 485.334 292.375 486.135C287.683 486.617 282.942 486.165 278.431 484.808C273.923 483.856 269.646 482.053 265.835 479.498H265.719C263.279 477.735 263.232 473.913 266.254 473.845L272.714 473.639Z" fill="#3D7478"/>
<path d="M272.691 473.639L272.296 468.855L265.835 469.359L266.207 473.799L272.691 473.639Z" fill="#F2AF83"/>
<path d="M272.714 473.639C272.714 473.639 276.293 475.378 284.148 478.88C291.538 482.176 285.984 481.97 281.94 481.031C276.301 479.561 270.973 477.112 266.207 473.799L272.714 473.639Z" fill="#F2AF83"/>
<path d="M261.884 329.312L240.62 334.439C240.62 334.439 247.801 391.291 262.489 408.593C262.489 408.593 262.279 464.232 266.207 473.753L272.714 473.593C272.714 473.593 278.942 417.382 280.313 409.051C281.94 399.095 274.991 379.572 261.884 329.312Z" fill="#F2AF83"/>
<path d="M277.943 389.162C273.435 389.162 263.79 389.299 252.961 389.666C254.169 393.099 255.471 396.349 256.842 399.278C264.297 397.172 271.485 394.239 278.268 390.535C278.059 390.101 277.943 389.62 277.943 389.162Z" fill="#CC946E"/>
<path d="M262.163 238.015C266.811 242.318 268.972 250.557 265.417 255.959C261.861 261.36 253.797 261.291 248.824 256.92C244.292 253.052 242.015 246.003 244.176 240.899C246.918 234.124 256.214 232.66 262.163 238.015Z" fill="#F2AF83"/>
<path d="M254.704 245.042L243.665 244.446L242.224 270.767C242.135 272.573 242.774 274.341 244.001 275.687C245.228 277.032 246.944 277.847 248.777 277.953C249.748 277.999 250.718 277.844 251.624 277.499C252.53 277.155 253.354 276.627 254.041 275.95C254.728 275.273 255.264 274.463 255.614 273.57C255.964 272.677 256.121 271.723 256.075 270.767L254.704 245.042Z" fill="#F2AF83"/>
<path d="M255.006 235.635C255.006 235.635 257.004 252.526 241.782 253.006C231.139 253.327 237.134 226.846 251.427 229.295C271.645 232.728 265.672 242.844 265.672 242.844C265.672 242.844 262.512 235.383 255.006 235.635Z" fill="#A35233"/>
<path d="M244.083 253.372C244.238 253.73 244.496 254.035 244.826 254.248C245.156 254.461 245.543 254.574 245.938 254.571C246.332 254.568 246.717 254.45 247.044 254.231C247.371 254.013 247.625 253.705 247.774 253.345C247.922 252.985 247.96 252.589 247.88 252.208C247.801 251.827 247.61 251.478 247.329 251.204C247.049 250.931 246.692 250.745 246.305 250.671C245.918 250.596 245.516 250.636 245.152 250.786C244.909 250.886 244.688 251.033 244.503 251.217C244.317 251.401 244.171 251.62 244.071 251.86C243.972 252.101 243.922 252.358 243.924 252.618C243.926 252.877 243.98 253.134 244.083 253.372Z" fill="white"/>
<path d="M255.494 262.321L248.127 257.103L255.401 260.399L255.494 262.321Z" fill="#CC946E"/>
<path d="M236.507 243.531C236.115 241.607 236.33 239.611 237.123 237.81C237.917 236.01 239.251 234.492 240.946 233.461" fill="#FFA02B"/>
<path d="M189.633 462.767C189.633 462.767 200.695 480.116 205.901 483.045C211.106 485.975 205.901 486.089 199.975 483.48C195.681 481.518 191.838 478.714 188.68 475.241C185.302 472.154 182.57 468.445 180.64 464.324V464.209C179.454 461.44 181.407 458.144 184.033 459.632L189.633 462.767Z" fill="#3D7478"/>
<path d="M189.703 462.767L194.304 456.542L186.054 455.626L184.056 459.609L189.703 462.767Z" fill="#F2AF83"/>
<path d="M189.633 462.767C189.633 462.767 191.818 466.086 196.721 473.044C201.369 479.612 196.721 476.614 193.723 473.776C189.648 469.662 186.35 464.864 183.986 459.609L189.633 462.767Z" fill="#F2AF83"/>
<path d="M263.116 337.78L232.905 329.678C232.905 329.678 221.471 380.717 223.935 403.123C223.935 403.123 190.609 440.086 185.566 456.862L190.911 460.181C190.911 460.181 232.626 423.859 238.436 417.657C245.408 410.241 258.98 385.5 263.116 337.78Z" fill="#F2AF83"/>
<path d="M252.984 389.643C243.247 389.963 232.58 390.467 223.795 391.291C223.615 394.914 223.661 398.545 223.935 402.162C232.115 403.111 240.395 402.794 248.475 401.224C250.056 397.836 251.497 393.946 252.984 389.643Z" fill="#CC946E"/>
<g opacity="0.36">
<path d="M267.834 351.719L234.09 364.513L226.351 354.374L267.834 351.719Z" fill="black"/>
</g>
<path d="M262.117 295.416L270.832 351.49L239.551 354.03L246.779 286.17L262.117 295.416Z" fill="white"/>
<path d="M258.608 268.066C258.608 268.066 238.599 253.784 233.672 282.874C229.442 307.913 212.571 394.312 212.571 394.312C212.571 394.312 259.793 401.361 284.357 385.821L258.608 268.066Z" fill="#FFA02B"/>
<path d="M266.765 304.457L268.903 314.504L251.032 289.511L266.765 304.457Z" fill="#D4812E"/>
<path d="M248.429 265.457C248.429 265.457 256.168 263.031 268.089 275.871C274.411 282.859 281.196 289.427 288.401 295.531L318.96 261.017L327.303 272.849C327.303 272.849 297.092 318.624 286.216 317.731C275.34 316.839 224.934 271.385 248.429 265.457Z" fill="#99CFFF"/>
<path d="M326.583 271.728C326.583 271.728 336.32 263.626 334.763 257.607C333.206 251.587 327.466 251.519 326.42 252.594C325.374 253.67 322.214 257.95 322.214 257.95L318.96 260.925L326.583 271.728Z" fill="#F2AF83"/>
<path d="M318.96 260.925C318.96 260.925 328.442 245.568 331.649 242.616C334.856 239.663 330.929 249.939 330.929 249.939L324.213 264.519L318.96 260.925Z" fill="#F2AF83"/>
<path d="M248.429 265.457C248.429 265.457 256.168 263.031 268.089 275.871C274.411 282.859 281.196 289.427 288.401 295.531L318.96 261.017L327.303 272.849C327.303 272.849 297.092 318.624 286.216 317.731C275.34 316.839 224.934 271.385 248.429 265.457Z" fill="#FAD161"/>
<path d="M326.583 271.728C326.583 271.728 336.32 263.626 334.763 257.607C333.206 251.587 327.466 251.519 326.42 252.594C325.374 253.67 322.214 257.95 322.214 257.95L318.96 260.925L326.583 271.728Z" fill="#F2AF83"/>
<path d="M318.96 260.925C318.96 260.925 328.442 245.568 331.649 242.616C334.856 239.663 330.929 249.939 330.929 249.939L324.213 264.519L318.96 260.925Z" fill="#F2AF83"/>
<path d="M242.828 274.2C246.64 264.724 247.011 258.179 243.874 254.517C242.237 252.962 240.165 251.926 237.925 251.541C235.403 251.026 233.025 249.98 230.953 248.475C227.026 245.339 226.933 241.082 230.628 234.742L229.977 234.376C226.073 241.105 226.235 245.614 230.488 249.024C232.612 250.577 235.042 251.677 237.623 252.251C239.724 252.587 241.675 253.535 243.223 254.975C246.152 258.339 245.756 264.724 242.061 273.925L242.828 274.2Z" fill="#2E2E2E"/>
<path d="M236.676 243.639L255.483 230.078L248.001 220.013L229.194 233.574L236.676 243.639Z" fill="#2E2E2E"/>
<path d="M227.801 236.511L251.277 219.583L249.836 217.644L226.36 234.572L227.801 236.511Z" fill="#2E2E2E"/>
<path d="M248.708 221.697C248.727 221.682 248.743 221.663 248.753 221.641C248.764 221.619 248.77 221.595 248.77 221.571C248.77 221.546 248.764 221.523 248.753 221.501C248.743 221.479 248.727 221.46 248.708 221.445C248.673 221.413 248.627 221.395 248.58 221.395C248.532 221.395 248.487 221.413 248.452 221.445L230.302 234.513C230.269 234.547 230.251 234.592 230.251 234.639C230.251 234.686 230.269 234.731 230.302 234.765C230.317 234.784 230.337 234.8 230.359 234.81C230.381 234.821 230.405 234.826 230.43 234.826C230.455 234.826 230.479 234.821 230.501 234.81C230.523 234.8 230.543 234.784 230.558 234.765L248.684 221.674L248.708 221.697Z" fill="#1A1A1A"/>
<path d="M243.293 272.323C243.041 272.249 242.777 272.225 242.516 272.252C242.255 272.279 242.001 272.356 241.77 272.479C241.539 272.602 241.335 272.769 241.17 272.97C241.004 273.171 240.881 273.402 240.806 273.651C240.688 274.029 240.686 274.433 240.802 274.812C240.918 275.191 241.146 275.527 241.456 275.778C241.767 276.028 242.147 276.182 242.546 276.22C242.946 276.258 243.349 276.177 243.702 275.988C244.055 275.8 244.343 275.512 244.529 275.161C244.716 274.811 244.792 274.414 244.748 274.02C244.704 273.627 244.542 273.256 244.283 272.953C244.024 272.651 243.679 272.432 243.293 272.323Z" fill="#3D7478"/>
<path d="M239.389 277.038L237.878 282.119C237.867 282.153 237.864 282.19 237.867 282.226C237.871 282.262 237.881 282.297 237.899 282.328C237.916 282.36 237.939 282.389 237.968 282.411C237.996 282.434 238.029 282.452 238.064 282.462L241.759 283.515C241.794 283.526 241.831 283.529 241.868 283.526C241.904 283.522 241.94 283.512 241.972 283.495C242.004 283.478 242.033 283.455 242.056 283.427C242.08 283.399 242.097 283.366 242.108 283.332L243.618 278.251C243.757 277.759 243.696 277.234 243.449 276.786C243.202 276.338 242.788 276.001 242.294 275.848H241.829C241.345 275.694 240.819 275.732 240.363 275.955C239.907 276.177 239.558 276.566 239.389 277.038Z" fill="#3D7478"/>
<path d="M388.586 351.353H325.584V367.694H388.586V351.353Z" fill="#B3B3B3"/>
<g opacity="0.15">
<path d="M514.357 259.346L523.653 351.353C526.548 351.346 529.322 350.211 531.369 348.195C533.417 346.179 534.569 343.447 534.575 340.596V239.572L514.357 259.346Z" fill="black"/>
</g>
<path d="M510.197 250.42L518.215 224.26L541.919 238.564L540.083 257.813L525.884 263.122L510.197 250.42Z" fill="url(#paint3_linear_53_5)"/>
<path d="M570.457 353.344C570.131 353.481 569.388 353.824 568.342 354.213C567.296 354.602 566.529 354.831 566.181 354.946C561.533 356.296 554.259 357.234 549.448 352.268L593.162 465.674C597.972 470.686 605.246 469.702 609.894 468.329C610.626 468.129 611.348 467.892 612.055 467.619C613.101 467.23 613.845 466.887 614.17 466.75C618.562 464.736 624.674 460.707 624.883 453.795L581.17 340.39C580.961 347.301 574.849 351.33 570.457 353.344Z" fill="#FF7882"/>
<path d="M518.401 230.92C518.726 230.92 519.516 230.6 520.562 230.211C521.608 229.822 522.328 229.478 522.654 229.341C523.351 229.021 524.071 228.654 524.792 228.242L518.215 224.26L516.007 231.515C516.815 231.36 517.615 231.162 518.401 230.92Z" fill="#2E2E2E"/>
<path d="M541.965 238.633L531.368 242.593L520.794 246.552L510.22 250.489L591.628 461.714L602.202 457.755L612.799 453.818L623.373 449.859L541.965 238.633Z" fill="#3D7478"/>
<path d="M591.714 461.753L593.231 465.69L624.975 453.827L623.458 449.889L591.714 461.753Z" fill="#E6E6E6"/>
<path d="M610.161 454.768L611.679 458.705L620.587 455.375L619.069 451.438L610.161 454.768Z" fill="#B3B3B3"/>
<path d="M616.4 452.427L617.918 456.365L619.135 455.91L617.617 451.973L616.4 452.427Z" fill="#999999"/>
<path d="M620 451.079L621.517 455.016L623.169 454.398L621.651 450.461L620 451.079Z" fill="#999999"/>
<path d="M510.197 250.42L541.942 238.565C541.942 238.565 529.811 256.622 510.197 250.42Z" fill="url(#paint4_linear_53_5)"/>
<path d="M126.329 467.802C126.329 473.318 103.09 477.987 74.3892 478.239C45.6886 478.491 22.3098 474.188 22.3098 468.672C22.3098 463.156 45.5492 458.487 74.2498 458.236C102.95 457.984 126.283 462.287 126.329 467.802Z" fill="#E6E6E6"/>
<path d="M84.1729 443.794C77.2011 422.966 72.0652 390.696 88.6813 356.342" stroke="#86A34C" stroke-miterlimit="10"/>
<path d="M72.9716 416.558C69.2494 407.113 64.2378 398.212 58.0752 390.1" stroke="#86A34C" stroke-miterlimit="10"/>
<path d="M71.3217 459.792C73.895 427.488 73.3269 395.016 69.6252 362.819" stroke="#86A34C" stroke-miterlimit="10"/>
<path d="M61.8168 393.74C61.8168 393.74 43.2253 354.969 8.36621 348.972C8.36621 348.972 16.2444 380.419 61.8168 393.74Z" fill="#AAD162"/>
<path d="M8.36621 348.972C8.36621 348.972 48.9189 374.308 61.8168 393.74C61.8168 393.74 19.5908 384.356 8.36621 348.972Z" fill="#86A34C"/>
<path d="M70.8568 368.77C70.8568 368.77 84.9166 316.335 55.9139 282.485C55.9139 282.462 37.5315 319.288 70.8568 368.77Z" fill="#AAD162"/>
<path d="M55.9139 282.462C55.9139 282.462 74.3659 339.566 70.8568 368.747C70.8568 368.77 37.5315 325.788 55.9139 282.462Z" fill="#86A34C"/>
<path d="M83.4293 368.77C83.4293 368.77 122.936 330.937 115.755 287.223C115.755 287.291 80.7568 309.538 83.4293 368.77Z" fill="#AAD162"/>
<path d="M115.755 287.291C115.755 287.291 101.812 345.585 83.4293 368.838C83.4293 368.77 77.3638 315.122 115.755 287.291Z" fill="#86A34C"/>
<path d="M75.2954 428.917C76.4227 406.08 86.6027 384.59 103.647 369.067" stroke="#86A34C" stroke-miterlimit="10"/>
<path d="M96.4202 376.345C96.4202 376.345 134.951 360.988 142.574 328.42C142.574 328.42 111.688 334.164 96.4202 376.345Z" fill="#AAD162"/>
<path d="M142.574 328.42C142.574 328.42 115.918 365.222 96.4202 376.345C96.4202 376.345 107.715 337.094 142.574 328.42Z" fill="#86A34C"/>
<path d="M54.9612 432.854C65.0137 412.236 82.8791 396.326 104.717 388.544" stroke="#86A34C" stroke-miterlimit="10"/>
<path d="M95.1653 392.389C95.1653 392.389 136.717 392.938 156.564 365.84C156.564 365.84 125.841 359.34 95.1653 392.389Z" fill="#AAD162"/>
<path d="M156.564 365.84C156.564 365.84 117.498 389.574 95.1653 392.389C95.1653 392.389 121.007 360.53 156.564 365.84Z" fill="#86A34C"/>
<path d="M67.5568 422.715C69.5089 400.857 66.8596 368.289 42.5977 338.673" stroke="#86A34C" stroke-miterlimit="10"/>
<path d="M50.6386 349.636C50.6386 349.636 3.32323 321.851 0 277.679C0 277.679 39.2978 291.342 50.6386 349.636Z" fill="#AAD162"/>
<path d="M0 277.679C0 277.679 27.3992 331.189 50.6386 349.636C50.6386 349.636 43.8992 295.988 0 277.679Z" fill="#86A34C"/>
<path d="M118.962 401.475H116.662H31.9542H30.3042V416.215H34.8824L45.3401 468.558H103.276L113.71 416.215H118.962V401.475Z" fill="#FF7882"/>
<path d="M34.8823 416.215L36.8112 425.804L113.71 416.215H34.8823Z" fill="#C45C61"/>
<path d="M427.697 366.458H406.34V393.854H427.697V366.458Z" fill="#CCCCCC"/>
<path d="M418.471 384.516H414.823V388.109H418.471V384.516Z" fill="#808080"/>
<path d="M418.471 371.882H414.823V375.476H418.471V371.882Z" fill="#808080"/>
<path d="M495.394 361.492H427.698V398.821H495.394C500.423 398.821 505.247 396.853 508.803 393.351C512.359 389.848 514.357 385.098 514.357 380.145C514.357 377.693 513.866 375.266 512.913 373.001C511.96 370.737 510.563 368.679 508.801 366.947C507.04 365.214 504.95 363.841 502.649 362.905C500.348 361.969 497.883 361.489 495.394 361.492ZM495.789 388.659C494.001 388.659 492.253 388.137 490.766 387.158C489.28 386.18 488.121 384.789 487.437 383.163C486.753 381.536 486.574 379.746 486.922 378.019C487.271 376.292 488.132 374.705 489.397 373.46C490.661 372.215 492.272 371.367 494.025 371.023C495.779 370.68 497.596 370.856 499.248 371.53C500.9 372.204 502.312 373.345 503.305 374.809C504.299 376.273 504.829 377.995 504.829 379.756C504.829 382.117 503.877 384.381 502.181 386.051C500.486 387.721 498.186 388.659 495.789 388.659Z" fill="#99CFFF"/>
<g opacity="0.15">
<path d="M427.697 366.458V393.854H425.071L427.697 366.458Z" fill="black"/>
</g>
<path d="M656.931 265.205C656.931 265.205 657.907 250.878 641.523 255.799C613.938 264.084 601.086 267.242 601.086 267.242L557.908 264.313L557.303 273.582C557.303 273.582 592.162 282.874 602.76 282.21C615.797 281.409 657.465 278.983 656.931 265.205Z" fill="#8ABAE6"/>
<path d="M557.908 264.312C557.908 264.312 545.707 247.147 547.729 255.753C550.053 265.205 551.215 264.564 550.889 266.349C550.564 268.135 548.124 266.349 545.591 267.219C543.058 268.089 557.21 273.582 557.21 273.582L557.908 264.312Z" fill="#F2AF83"/>
<g style="mix-blend-mode:multiply">
<path d="M756 464.186C756 467.734 725.115 471.052 686.933 471.625C648.75 472.197 617.726 469.771 617.679 466.223C617.633 462.676 648.541 459.357 686.747 458.785C724.952 458.213 755.93 460.639 756 464.186Z" fill="#E6E6E6"/>
</g>
<path d="M644.683 453.864C644.683 453.864 625.976 464.553 619.724 464.781C613.473 465.01 618.19 467.528 624.976 467.986C630.391 468.352 653.026 464.736 653.026 464.736C652.796 461.007 652.26 457.302 651.423 453.658L644.683 453.864Z" fill="#86A34C"/>
<path d="M566.646 284.293C566.646 284.293 552.423 268.501 555.839 276.649C559.581 285.643 560.092 285.621 560.069 287.429C560.046 289.237 557.327 287.795 554.979 289.122C552.632 290.45 567.691 294.684 567.691 294.684L566.646 284.293Z" fill="#F2AF83"/>
<path d="M566.646 284.293C566.646 284.293 552.423 268.501 555.839 276.649C559.581 285.643 560.092 285.621 560.069 287.429C560.046 289.237 557.327 287.795 554.979 289.122C552.632 290.45 567.691 294.684 567.691 294.684L566.646 284.293Z" fill="#F2AF83"/>
<path d="M644.66 453.864L644.8 448.852L651.539 449.035L651.4 453.658L644.66 453.864Z" fill="#F2AF83"/>
<path d="M640.896 304.342L663.414 307.615C663.414 307.615 657.976 366.824 651.446 390.009C651.446 390.009 657.024 429.466 652.562 450.98L643.684 451.598C643.684 451.598 634.923 401.247 632.669 392.71C629.95 382.502 632.413 357.669 640.896 304.342Z" fill="#3D7478"/>
<path d="M651.051 331.578C651.023 331.471 650.976 331.37 650.911 331.28L651.051 331.578Z" fill="black"/>
<path d="M652.864 384.379C655.833 370.652 658.052 356.777 659.51 342.816L657.442 341.076C658.883 345.493 654.862 351.604 652.864 384.379Z" fill="#284C4F"/>
<path d="M742.056 426.216C742.056 426.216 739.988 447.41 736.525 452.514C733.063 457.618 737.897 455.375 742.242 450.225C745.682 446.128 755.884 425.896 755.884 425.896C752.686 423.892 749.319 422.161 745.821 420.724L742.056 426.216Z" fill="#86A34C"/>
<path d="M742.056 426.194L738.013 423.173L742.08 417.908L745.821 420.701L742.056 426.194Z" fill="#F2AF83"/>
<path d="M637.038 318.761L667.249 319.036C667.249 319.036 680.472 323.384 703.921 372.935C721.333 385.183 735.517 401.357 745.287 420.106L739.105 426.422C739.105 426.422 697.042 389.551 689.582 384.791C680.658 378.932 661.392 358.676 637.038 318.761Z" fill="#3D7478"/>
<path d="M633.505 212.061C629.644 212.432 625.765 212.593 621.886 212.542C617.61 212.359 622.35 229.249 622.35 229.249L633.505 212.061Z" fill="#A35233"/>
<path d="M637.154 328.191L636.41 333.684L674.825 324.781" fill="#284C4F"/>
<path d="M633.645 254.013C633.645 254.013 627.928 260.582 625.767 277.175C624.024 290.61 629.462 297.774 630.414 306.654C632.39 325.421 634.598 331.166 634.598 331.166L675.057 324.758C675.057 324.758 672.571 295.348 666.087 261.703C663.716 249.413 648.657 247.696 633.645 254.013Z" fill="#99CFFF"/>
<path d="M624.535 221.33C620.538 228.769 623.21 237.1 626.673 242.158C631.112 248.635 640.617 245.476 645.148 239.091C649.145 233.438 649.796 224.786 645.799 219.499C644.482 217.871 642.776 216.589 640.834 215.768C638.892 214.947 636.773 214.612 634.668 214.794C632.562 214.975 630.535 215.667 628.767 216.807C626.999 217.948 625.545 219.502 624.535 221.33Z" fill="#F2AF83"/>
<path d="M632.227 225.153L643.661 223.94L646.566 250.809C647.077 255.524 635.992 261.543 635.992 261.543C633.227 262.276 633.831 255.959 633.831 251.725L632.227 225.153Z" fill="#F2AF83"/>
<path d="M628.671 219.477C628.671 219.477 642.197 215.242 641.918 236.756C641.755 249.024 669.573 213.869 635.969 211.992C617.377 210.94 622.281 228.494 622.281 228.494C622.281 228.494 621.583 219.568 628.671 219.477Z" fill="#A35233"/>
<g opacity="0.1">
<path d="M633.645 248.841L639.919 243.668L633.482 246.049L633.645 248.841Z" fill="black"/>
</g>
<path d="M623.257 222.04C623.257 222.04 637.944 218.859 638.269 228.219C638.432 232.66 645.52 230.508 644.59 227.396C637.921 205.103 623.257 222.04 623.257 222.04Z" fill="#A35233"/>
<path d="M644.242 233.094C644.117 233.418 643.919 233.71 643.663 233.948C643.407 234.185 643.1 234.362 642.764 234.466C642.429 234.57 642.073 234.597 641.726 234.545C641.378 234.494 641.046 234.366 640.756 234.17C640.212 233.652 639.872 232.961 639.796 232.22C639.719 231.479 639.911 230.734 640.338 230.119C640.462 229.792 640.66 229.497 640.918 229.257C641.176 229.016 641.486 228.838 641.824 228.734C642.163 228.63 642.522 228.604 642.872 228.657C643.223 228.711 643.556 228.843 643.847 229.043C644.379 229.569 644.709 230.26 644.781 230.999C644.853 231.738 644.663 232.479 644.242 233.094Z" fill="#F2AF83"/>
<path d="M664.483 268.959C664.483 268.959 663.066 254.677 647.704 262.093C621.862 274.703 609.708 279.853 609.708 279.853L566.646 284.224L567.691 294.615C567.691 294.615 603.41 296.721 613.821 294.363C626.533 291.548 667.272 282.485 664.483 268.959Z" fill="#99CFFF"/>
<path d="M566.646 284.293C566.646 284.293 552.423 268.501 555.839 276.649C559.581 285.643 560.092 285.621 560.069 287.429C560.046 289.237 557.327 287.795 554.979 289.122C552.632 290.45 567.691 294.684 567.691 294.684L566.646 284.293Z" fill="#F2AF83"/>
<defs>
<linearGradient id="paint0_linear_53_5" x1="111.892" y1="239.101" x2="128.387" y2="233.96" gradientUnits="userSpaceOnUse">
<stop offset="0.24" stop-color="#F2AF83"/>
<stop offset="0.73" stop-color="#F2AF83"/>
</linearGradient>
<linearGradient id="paint1_linear_53_5" x1="120.944" y1="233.637" x2="120.318" y2="230.807" gradientUnits="userSpaceOnUse">
<stop offset="0.24" stop-color="#F2AF83"/>
<stop offset="0.73" stop-color="#F2AF83"/>
</linearGradient>
<linearGradient id="paint2_linear_53_5" x1="512.103" y1="438.919" x2="534.784" y2="438.919" gradientUnits="userSpaceOnUse">
<stop offset="0.24" stop-color="#FF9B38"/>
<stop offset="0.73" stop-color="#FF9B38"/>
</linearGradient>
<linearGradient id="paint3_linear_53_5" x1="510.125" y1="249.804" x2="540.663" y2="235.221" gradientUnits="userSpaceOnUse">
<stop offset="0.24" stop-color="#F2AF83"/>
<stop offset="0.73" stop-color="#F2AF83"/>
</linearGradient>
<linearGradient id="paint4_linear_53_5" x1="528.055" y1="249.73" x2="526.079" y2="244.446" gradientUnits="userSpaceOnUse">
<stop offset="0.24" stop-color="#F2AF83"/>
<stop offset="0.73" stop-color="#F2AF83"/>
</linearGradient>
</defs>
</svg>
