<svg width="169" height="163" viewBox="0 0 169 163" fill="none" xmlns="http://www.w3.org/2000/svg">
<g clip-path="url(#clip0_73_22)">
<path d="M115.892 8.56659H62.7798V155.507H115.892H169V8.56659H115.892Z" fill="#00576B"/>
<path d="M146.854 148.109H70.1616V15.9641H161.618V133.314L146.854 148.109Z" fill="white"/>
<path d="M146.854 133.314H161.618L146.854 148.109V133.314Z" fill="#EBEBEB"/>
<path d="M100.861 62.3713H84.9303V78.3354H100.861V62.3713Z" stroke="#858585" stroke-width="2.12" stroke-miterlimit="10"/>
<path d="M100.861 85.733H84.9303V101.697H100.861V85.733Z" stroke="#858585" stroke-width="2.12" stroke-miterlimit="10"/>
<path d="M100.861 39.0096H84.9303V54.9738H100.861V39.0096Z" stroke="#858585" stroke-width="2.12" stroke-miterlimit="10"/>
<path d="M88.1096 46.5222L92.5321 50.954L104.451 39.0096" stroke="#B51F2B" stroke-width="4.24" stroke-miterlimit="10" stroke-linecap="round"/>
<path d="M88.1096 69.8838L92.5321 74.3156L104.451 62.3713" stroke="#B51F2B" stroke-width="4.24" stroke-miterlimit="10" stroke-linecap="round"/>
<path d="M88.1096 93.2455L92.5321 97.6773L104.451 85.733" stroke="#B51F2B" stroke-width="4.24" stroke-miterlimit="10" stroke-linecap="round"/>
<path d="M146.854 41.0219H110.681V42.7276H146.854V41.0219Z" fill="#858585"/>
<path d="M146.854 44.4332H110.681V46.1389H146.854V44.4332Z" fill="#858585"/>
<path d="M146.854 47.8445H110.681V49.5501H146.854V47.8445Z" fill="#858585"/>
<path d="M128.768 51.2558H110.681V52.9614H128.768V51.2558Z" fill="#858585"/>
<path d="M146.854 64.3836H110.681V66.0893H146.854V64.3836Z" fill="#858585"/>
<path d="M146.854 67.7949H110.681V69.5006H146.854V67.7949Z" fill="#858585"/>
<path d="M146.854 71.2062H110.681V72.9118H146.854V71.2062Z" fill="#858585"/>
<path d="M138.392 74.6175H110.681V76.3231H138.392V74.6175Z" fill="#858585"/>
<path d="M146.854 87.7453H110.681V89.451H146.854V87.7453Z" fill="#858585"/>
<path d="M146.854 91.1566H110.681V92.8622H146.854V91.1566Z" fill="#858585"/>
<path d="M146.854 94.5679H110.681V96.2735H146.854V94.5679Z" fill="#858585"/>
<path d="M128.768 97.9792H110.681V99.6848H128.768V97.9792Z" fill="#858585"/>
<path d="M100.861 109.095H84.9303V125.059H100.861V109.095Z" stroke="#858585" stroke-width="2.12" stroke-miterlimit="10"/>
<path d="M88.1096 116.607L92.5321 121.039L104.451 109.095" stroke="#B51F2B" stroke-width="4.24" stroke-miterlimit="10" stroke-linecap="round"/>
<path d="M146.854 111.107H110.681V112.813H146.854V111.107Z" fill="#858585"/>
<path d="M146.854 114.518H110.681V116.224H146.854V114.518Z" fill="#858585"/>
<path d="M146.854 117.93H110.681V119.635H146.854V117.93Z" fill="#858585"/>
<path d="M138.392 121.341H110.681V123.047H138.392V121.341Z" fill="#858585"/>
<path d="M111.565 3.22921C111.341 3.21272 111.132 3.11193 110.979 2.94707C110.826 2.78221 110.741 2.5655 110.741 2.34045C110.741 2.11541 110.826 1.8987 110.979 1.73384C111.132 1.56898 111.341 1.46818 111.565 1.45169H115.892V0.0143433H108.883C107.985 0.0168718 107.124 0.375574 106.489 1.01207C105.854 1.64858 105.496 2.51113 105.494 3.41128V4.28327H98.7379C96.6254 4.28327 94.5994 5.12423 93.1057 6.62116C91.6119 8.11809 90.7727 10.1484 90.7727 12.2653V20.2474H115.892V3.22921H111.565Z" fill="#AEBDD2"/>
<path d="M141.007 12.2606C141.006 10.1444 140.166 8.11539 138.672 6.6195C137.179 5.12361 135.154 4.2833 133.042 4.2833H126.31V3.39693C126.308 2.49679 125.95 1.63423 125.315 0.997732C124.679 0.361231 123.819 0.00252851 122.92 0H115.892V1.43735H120.195C120.419 1.45384 120.629 1.55464 120.782 1.71949C120.934 1.88435 121.019 2.10106 121.019 2.32611C121.019 2.55115 120.934 2.76787 120.782 2.93272C120.629 3.09758 120.419 3.19838 120.195 3.21487H115.892V20.2283H141.007V12.2606Z" fill="#BECADB"/>
<path d="M35.1131 48.0432L28.0168 49.0818L29.772 61.1236L36.8682 60.0849L35.1131 48.0432Z" fill="#FFA581"/>
<path d="M39.7638 42.5694C39.7638 51.3085 36.0299 54.5857 31.4305 54.5857C26.8312 54.5857 23.0972 50.7096 23.0972 42.5694C23.0972 35.9337 26.8264 32.508 31.4305 32.508C36.0346 32.508 39.7638 35.9337 39.7638 42.5694Z" fill="#FFA581"/>
<path d="M28.3945 48.9513C28.5475 50.2497 29.9197 51.1935 31.5118 51.0833C33.1039 50.9731 34.3278 49.8376 34.3039 48.5344C32.3739 49.0205 30.3735 49.1616 28.3945 48.9513Z" fill="white"/>
<path d="M36.8092 34.5251C35.8099 29.2548 28.232 30.8503 25.8462 32.0768C23.4605 33.3033 20.654 31.4156 20.654 31.4156C15.5431 38.358 23.1115 41.9083 23.1115 41.9083C23.1489 40.7909 23.3223 39.6824 23.6278 38.6072C24.5684 37.7322 25.6026 36.9641 26.7116 36.317C26.9076 36.2068 27.1037 36.1014 27.2997 36.0104C31.507 34.0316 36.8617 36.1828 36.8617 40.1403C36.8617 42.8425 38.6068 43.7816 39.7304 44.1026C39.7352 43.8391 44.0955 34.0987 36.8092 34.5251Z" fill="#004150"/>
<path d="M49.7131 94.4481L52.4192 91.1949L55.3882 93.854L52.2566 96.7814L49.7131 94.4481Z" fill="#FFA581"/>
<path d="M53.1062 147.313L50.7211 149.97L53.0352 152.056L55.4203 149.398L53.1062 147.313Z" fill="#FFA581"/>
<path d="M55.3835 149.058L52.0368 152.632C51.8566 152.823 51.7397 153.066 51.7021 153.327C51.5252 154.544 50.8846 158.266 49.4694 160.557C49.293 160.835 49.2281 161.17 49.2874 161.494C49.3468 161.818 49.5262 162.108 49.7897 162.305C50.0578 162.501 50.3908 162.587 50.72 162.544C51.0491 162.501 51.3493 162.333 51.5587 162.075L59.2514 152.584C59.458 152.331 59.5606 152.008 59.5384 151.681C59.5162 151.355 59.3709 151.049 59.1318 150.826L57.2194 149C57.0953 148.883 56.9493 148.791 56.7897 148.73C56.6301 148.67 56.4601 148.641 56.2895 148.647C56.119 148.652 55.9511 148.691 55.7956 148.762C55.6401 148.832 55.5001 148.933 55.3835 149.058Z" fill="#3F2D1F"/>
<path d="M40.305 156.315L40.2648 159.434L43.8311 159.48L43.8713 156.362L40.305 156.315Z" fill="#FFA581"/>
<path d="M41.9488 158.971C36.8091 158.971 37.0195 162.128 37.0195 162.128C37.0195 162.765 41.9488 162.995 41.9488 162.995C41.9488 162.995 46.878 162.765 46.878 162.128C46.878 162.128 47.0884 158.971 41.9488 158.971Z" fill="#3F2D1F"/>
<path d="M48.7139 93.2503C46.4095 94.0457 39.3335 94.7691 33.8593 95.3632C34.9685 100.154 40.8252 125.998 40.1893 131.819C39.4913 138.239 39.3527 157.054 39.3527 157.054H44.76C44.76 157.054 49.5028 132.82 49.302 126.391C49.1442 121.283 49.7132 101.362 50.0383 93.7678C50.0367 93.6796 50.0108 93.5936 49.9636 93.5192C49.9164 93.4448 49.8496 93.3849 49.7705 93.3461C49.6133 93.2508 49.4364 93.1926 49.2533 93.176C49.0702 93.1594 48.8857 93.1848 48.7139 93.2503Z" fill="#004150"/>
<path d="M35.4658 123.444C33.1135 119.975 40.2038 97.9648 41.3177 94.5295C34.6625 95.4159 27.3667 96.0627 25.416 96.0627C25.2948 96.067 25.1757 96.0953 25.0654 96.1458C24.955 96.1963 24.8558 96.2681 24.7732 96.3571C24.6906 96.4461 24.6263 96.5505 24.584 96.6644C24.5417 96.7784 24.5223 96.8995 24.5268 97.0209V123.804C24.5268 130.128 49.4837 152.924 49.4837 152.924L55.0106 145.143C55.0106 145.143 38.0188 127.205 35.4658 123.444Z" fill="#00576B"/>
<path d="M28.7866 56.2722C28.7866 56.2722 30.0488 57.882 32.9748 57.4221C36.2402 56.9046 36.1016 54.8348 36.1016 54.8348C36.1016 54.8348 45.5393 55.2181 46.8684 56.6363C46.8684 56.6363 50.4925 81.2581 50.067 96.7431C50.067 96.7431 38.7837 100.576 23.9673 99.3447C23.9673 99.3447 24.5171 86.6817 19.2771 58.8642C19.2771 58.8642 26.6495 56.507 28.7866 56.2722Z" fill="#AEBDD2"/>
<path d="M22.509 60.2728C22.509 60.2728 20.96 58.0209 17.6993 59.4151C14.4387 60.8094 -0.392105 66.2761 0.439795 70.2479C1.2717 74.2198 6.60733 72.8208 9.57635 72.4998C12.5454 72.1788 28.8774 67.4307 22.509 60.2728Z" fill="#AEBDD2"/>
<path d="M42.336 63.6553L60.8291 75.3218L51.5825 91.7315L55.0105 94.8889C55.0105 94.8889 70.7449 78.0671 69.6788 72.9981C68.6126 67.929 48.078 52.6261 42.1065 56.7081C36.135 60.7902 42.336 63.6553 42.336 63.6553Z" fill="#AEBDD2"/>
<path d="M14.2255 53.2721L20.3124 53.8583C21.0942 53.9324 21.8148 54.3143 22.3159 54.9203C22.8171 55.5262 23.0577 56.3067 22.9851 57.0903L22.337 63.8483L10.3535 62.6941L11.0017 55.9361C11.0769 55.1519 11.4599 54.4298 12.0664 53.9285C12.673 53.4273 13.4534 53.1881 14.2359 53.2634L14.2255 53.2721Z" fill="#B51F2B"/>
<path d="M14.1423 147.347L2.50525 146.226L5.25434 157.045L9.38994 157.442L14.1423 147.347Z" fill="#FFE5CF"/>
<path d="M9.38999 157.442L5.25439 157.045L6.76998 163L9.38999 157.442Z" fill="#B51F2B"/>
<path d="M9.96681 68.4296L2.50598 146.22L6.25616 146.581L13.717 68.7908L9.96681 68.4296Z" fill="#BF9662"/>
<path d="M13.7194 68.7901L6.25854 146.58L14.1444 147.34L21.6052 69.5496L13.7194 68.7901Z" fill="#FFC882"/>
<path d="M13.908 66.8941L9.978 66.5156C9.75774 66.4983 9.53952 66.5685 9.37046 66.711C9.20139 66.8536 9.09505 67.057 9.07438 67.2774V67.5026C9.05164 67.7224 9.11693 67.9423 9.25589 68.1139C9.39485 68.2855 9.59611 68.3948 9.81544 68.4177H9.99234L13.7455 68.7771L13.908 66.8941Z" fill="#D8D8D8"/>
<path d="M13.7407 68.7963L21.6246 69.5581H21.7968C22.0173 69.5767 22.2362 69.5069 22.4056 69.3642C22.5749 69.2214 22.6809 69.0172 22.7004 68.7963L22.7243 68.5711C22.7471 68.3507 22.6819 68.1303 22.5431 67.958C22.4042 67.7856 22.203 67.6753 21.9832 67.6512L13.9224 66.875L13.7407 68.7963Z" fill="#EBEBEB"/>
<path d="M13.9081 66.8942L21.9689 67.6704C22.1892 67.6877 22.4074 67.6175 22.5764 67.475C22.7455 67.3324 22.8519 67.129 22.8725 66.9086V66.6834C22.8953 66.463 22.8302 66.2426 22.6913 66.0703C22.5525 65.8979 22.3512 65.7876 22.1315 65.7635L14.0706 64.9873L13.9081 66.8942Z" fill="#EBEBEB"/>
<path d="M14.0897 64.9873L10.1645 64.6088C9.94393 64.5902 9.72502 64.6599 9.55567 64.8027C9.38631 64.9455 9.2803 65.1497 9.26085 65.3706V65.5958C9.23933 65.8159 9.30495 66.0356 9.44356 66.2077C9.58218 66.3797 9.78269 66.4903 10.0019 66.5157L13.9319 66.8942L14.0897 64.9873Z" fill="#D8D8D8"/>
<path d="M14.2714 63.0852L10.3462 62.7067C10.2368 62.6962 10.1265 62.7074 10.0215 62.7398C9.91656 62.7723 9.81904 62.8252 9.73458 62.8956C9.65013 62.9659 9.58042 63.0524 9.52948 63.1499C9.47853 63.2474 9.44737 63.3541 9.43777 63.4637V63.6937C9.41638 63.914 9.48279 64.1338 9.62251 64.3053C9.76223 64.4767 9.96393 64.5858 10.1836 64.6088L14.1088 64.9873L14.2714 63.0852Z" fill="#D8D8D8"/>
<path d="M23.0541 65.0065V64.7813C23.066 64.6721 23.0563 64.5616 23.0255 64.4561C22.9946 64.3507 22.9433 64.2524 22.8745 64.1669C22.8056 64.0814 22.7205 64.0104 22.6242 63.958C22.5278 63.9056 22.4221 63.8727 22.3131 63.8614L14.2522 63.0852L14.0706 65.0017L22.1314 65.7778C22.243 65.7904 22.3559 65.7802 22.4634 65.7478C22.571 65.7155 22.6709 65.6616 22.7571 65.5895C22.8433 65.5175 22.914 65.4287 22.9651 65.3284C23.0161 65.2282 23.0464 65.1187 23.0541 65.0065Z" fill="#EBEBEB"/>
<path d="M45.0947 97.5623C44.9704 98.5733 46.051 103.705 49.8328 101.002C53.6146 98.3002 52.1181 97.1359 52.7014 96.3789C53.2847 95.6219 50.789 93.1497 49.7324 94.4625C47.6048 96.7814 45.2956 95.8423 45.0947 97.5623Z" fill="#FFA581"/>
<path d="M14.3862 91.5111L11.8427 87.3332L15.8539 85.067L17.8811 89.5947L14.3862 91.5111Z" fill="#FFA581"/>
<path d="M13.932 90.7685C13.4539 91.5063 13.9798 93.6432 14.7113 94.8889C15.4428 96.1346 16.0643 98.3529 17.3169 98.5781C18.5696 98.8032 20.5919 97.9696 20.7736 96.4172C20.9553 94.8649 19.4684 88.9047 17.3791 89.2305C15.3854 89.5659 14.4674 89.9109 13.932 90.7685Z" fill="#FFA581"/>
<path d="M17.9241 89.1826C17.9241 89.1826 21.6629 90.1408 21.3426 91.4345C21.0222 92.7281 17.6659 91.3865 17.2548 90.9266C16.8436 90.4666 16.834 89.2162 17.9241 89.1826Z" fill="#FFA581"/>
<path d="M12.0577 89.7097L17.6659 86.8637L7.52533 68.0297C7.52533 68.0297 6.46872 65.476 2.3905 67.3254C-1.68772 69.1748 0.688447 72.9598 0.688447 72.9598L12.0577 89.7097Z" fill="#AEBDD2"/>
</g>
<defs>
<clipPath id="clip0_73_22">
<rect width="169" height="163" fill="white"/>
</clipPath>
</defs>
</svg>
