<svg width="540" height="521" viewBox="0 0 540 521" fill="none" xmlns="http://www.w3.org/2000/svg">
<g opacity="0.3" clip-path="url(#clip0_238_32)">
<path d="M370.307 27.3815H200.598V497.049H370.307H540V27.3815H370.307Z" fill="#00576B"/>
<path d="M469.238 473.404H224.185V51.0265H516.413V426.114L469.238 473.404Z" fill="white"/>
<path d="M469.238 426.114H516.413L469.238 473.404V426.114Z" fill="#EBEBEB"/>
<path d="M322.277 199.359H271.375V250.385H322.277V199.359Z" stroke="#858585" stroke-width="2.12" stroke-miterlimit="10"/>
<path d="M322.277 274.03H271.375V325.056H322.277V274.03Z" stroke="#858585" stroke-width="2.12" stroke-miterlimit="10"/>
<path d="M322.277 124.687H271.375V175.714H322.277V124.687Z" stroke="#858585" stroke-width="2.12" stroke-miterlimit="10"/>
<path d="M281.534 148.7L295.665 162.865L333.749 124.687" stroke="#B51F2B" stroke-width="4.24" stroke-miterlimit="10" stroke-linecap="round"/>
<path d="M281.534 223.371L295.665 237.537L333.749 199.359" stroke="#B51F2B" stroke-width="4.24" stroke-miterlimit="10" stroke-linecap="round"/>
<path d="M281.534 298.042L295.665 312.208L333.749 274.03" stroke="#B51F2B" stroke-width="4.24" stroke-miterlimit="10" stroke-linecap="round"/>
<path d="M469.239 131.119H353.655V136.571H469.239V131.119Z" fill="#858585"/>
<path d="M469.239 142.023H353.655V147.475H469.239V142.023Z" fill="#858585"/>
<path d="M469.239 152.926H353.655V158.378H469.239V152.926Z" fill="#858585"/>
<path d="M411.447 163.83H353.655V169.282H411.447V163.83Z" fill="#858585"/>
<path d="M469.239 205.79H353.655V211.242H469.239V205.79Z" fill="#858585"/>
<path d="M469.239 216.694H353.655V222.146H469.239V216.694Z" fill="#858585"/>
<path d="M469.239 227.598H353.655V233.05H469.239V227.598Z" fill="#858585"/>
<path d="M442.199 238.501H353.655V243.953H442.199V238.501Z" fill="#858585"/>
<path d="M469.239 280.462H353.655V285.914H469.239V280.462Z" fill="#858585"/>
<path d="M469.239 291.366H353.655V296.817H469.239V291.366Z" fill="#858585"/>
<path d="M469.239 302.269H353.655V307.721H469.239V302.269Z" fill="#858585"/>
<path d="M411.447 313.173H353.655V318.625H411.447V313.173Z" fill="#858585"/>
<path d="M322.277 348.701H271.375V399.728H322.277V348.701Z" stroke="#858585" stroke-width="2.12" stroke-miterlimit="10"/>
<path d="M281.534 372.714L295.665 386.879L333.749 348.701" stroke="#B51F2B" stroke-width="4.24" stroke-miterlimit="10" stroke-linecap="round"/>
<path d="M469.239 355.133H353.655V360.585H469.239V355.133Z" fill="#858585"/>
<path d="M469.239 366.037H353.655V371.489H469.239V366.037Z" fill="#858585"/>
<path d="M469.239 376.941H353.655V382.392H469.239V376.941Z" fill="#858585"/>
<path d="M442.199 387.844H353.655V393.296H442.199V387.844Z" fill="#858585"/>
<path d="M356.481 10.3217C355.766 10.269 355.096 9.94682 354.608 9.41988C354.119 8.89294 353.848 8.20026 353.848 7.48095C353.848 6.76163 354.119 6.06895 354.608 5.54201C355.096 5.01507 355.766 4.69289 356.481 4.64018H370.307V0.0459595H347.911C345.041 0.0540414 342.291 1.20057 340.261 3.23503C338.232 5.26949 337.088 8.02649 337.08 10.9036V13.6908H315.494C308.744 13.6908 302.27 16.3788 297.497 21.1635C292.724 25.9481 290.043 32.4375 290.043 39.2041V64.7173H370.307V10.3217H356.481Z" fill="#AEBDD2"/>
<path d="M450.555 39.1887C450.551 32.4248 447.868 25.9394 443.095 21.158C438.323 16.3767 431.851 13.6908 425.104 13.6908H403.595V10.8577C403.586 7.98053 402.443 5.22353 400.413 3.18907C398.384 1.15461 395.633 0.00808193 392.763 0H370.307V4.59422H384.056C384.771 4.64693 385.441 4.96911 385.929 5.49605C386.417 6.02299 386.689 6.71567 386.689 7.43499C386.689 8.1543 386.417 8.84698 385.929 9.37392C385.441 9.90086 384.771 10.223 384.056 10.2757H370.307V64.656H450.555V39.1887Z" fill="#BECADB"/>
<path d="M112.196 153.561L89.5215 156.881L95.1296 195.371L117.804 192.051L112.196 153.561Z" fill="#FFA581"/>
<path d="M127.056 136.066C127.056 163.998 115.125 174.473 100.429 174.473C85.7328 174.473 73.8018 162.084 73.8018 136.066C73.8018 114.856 85.7176 103.906 100.429 103.906C115.14 103.906 127.056 114.856 127.056 136.066Z" fill="#FFA581"/>
<path d="M90.728 156.464C91.2169 160.614 95.6013 163.631 100.688 163.279C105.776 162.926 109.686 159.297 109.61 155.132C103.443 156.685 97.0512 157.136 90.728 156.464Z" fill="white"/>
<path d="M117.615 110.353C114.422 93.5077 90.2086 98.6073 82.5856 102.528C74.9625 106.448 65.9951 100.414 65.9951 100.414C49.6643 122.604 73.8473 133.952 73.8473 133.952C73.9667 130.381 74.5208 126.837 75.4972 123.401C78.5024 120.604 81.807 118.149 85.3507 116.081C85.977 115.728 86.6033 115.392 87.2297 115.101C100.673 108.776 117.783 115.652 117.783 128.301C117.783 136.938 123.359 139.94 126.949 140.966C126.964 140.124 140.897 108.99 117.615 110.353Z" fill="#004150"/>
<path d="M158.847 301.886L167.493 291.488L176.98 299.987L166.974 309.344L158.847 301.886Z" fill="#FFA581"/>
<path d="M169.689 470.858L162.067 479.352L169.462 486.019L177.083 477.525L169.689 470.858Z" fill="#FFA581"/>
<path d="M176.965 476.436L166.271 487.86C165.696 488.473 165.322 489.248 165.202 490.081C164.637 493.971 162.59 505.87 158.068 513.19C157.504 514.079 157.297 515.149 157.487 516.186C157.676 517.222 158.249 518.149 159.091 518.779C159.948 519.406 161.012 519.679 162.064 519.542C163.116 519.406 164.075 518.869 164.744 518.044L189.324 487.707C189.984 486.897 190.312 485.865 190.241 484.821C190.17 483.778 189.706 482.8 188.942 482.087L182.831 476.252C182.435 475.877 181.968 475.584 181.458 475.39C180.948 475.196 180.405 475.105 179.86 475.122C179.315 475.139 178.779 475.264 178.282 475.49C177.785 475.715 177.338 476.037 176.965 476.436Z" fill="#3F2D1F"/>
<path d="M128.785 499.634L128.657 509.603L140.052 509.75L140.181 499.782L128.785 499.634Z" fill="#FFA581"/>
<path d="M134.038 508.121C117.615 508.121 118.288 518.213 118.288 518.213C118.288 520.25 134.038 520.985 134.038 520.985C134.038 520.985 149.788 520.25 149.788 518.213C149.788 518.213 150.46 508.121 134.038 508.121Z" fill="#3F2D1F"/>
<path d="M155.654 298.058C148.291 300.6 125.681 302.912 108.189 304.811C111.734 320.125 130.448 402.729 128.416 421.336C126.185 441.857 125.742 501.995 125.742 501.995H143.02C143.02 501.995 158.175 424.537 157.533 403.985C157.029 387.66 158.847 323.984 159.886 299.712C159.881 299.43 159.798 299.155 159.647 298.917C159.496 298.679 159.283 298.488 159.03 298.364C158.528 298.059 157.962 297.873 157.377 297.82C156.792 297.767 156.203 297.848 155.654 298.058Z" fill="#004150"/>
<path d="M113.322 394.567C105.806 383.48 128.461 313.127 132.021 302.147C110.756 304.98 87.4435 307.047 81.2107 307.047C80.8234 307.061 80.4426 307.151 80.0902 307.313C79.7377 307.474 79.4205 307.704 79.1566 307.988C78.8927 308.273 78.6873 308.606 78.5522 308.97C78.4171 309.335 78.3549 309.722 78.3692 310.11V395.716C78.3692 415.93 158.113 488.795 158.113 488.795L175.773 463.924C175.773 463.924 121.48 406.589 113.322 394.567Z" fill="#00576B"/>
<path d="M91.981 179.864C91.981 179.864 96.014 185.009 105.363 183.539C115.797 181.885 115.354 175.27 115.354 175.27C115.354 175.27 145.51 176.495 149.757 181.028C149.757 181.028 161.337 259.727 159.977 309.222C159.977 309.222 123.925 321.473 76.5821 317.537C76.5821 317.537 78.3389 277.062 61.5957 188.149C61.5957 188.149 85.1523 180.614 91.981 179.864Z" fill="#AEBDD2"/>
<path d="M71.9226 192.651C71.9226 192.651 66.9729 185.453 56.5542 189.91C46.1355 194.366 -1.25271 211.84 1.40543 224.535C4.06357 237.23 21.1123 232.759 30.5992 231.733C40.086 230.706 92.2711 215.53 71.9226 192.651Z" fill="#AEBDD2"/>
<path d="M135.275 203.463L194.365 240.753L164.82 293.203L175.774 303.295C175.774 303.295 226.049 249.527 222.642 233.325C219.236 217.123 153.622 168.21 134.542 181.257C115.461 194.305 135.275 203.463 135.275 203.463Z" fill="#AEBDD2"/>
<path d="M45.4543 170.275L64.9036 172.148C67.4018 172.385 69.7043 173.606 71.3055 175.543C72.9067 177.48 73.6757 179.974 73.4436 182.479L71.3726 204.079L33.0824 200.39L35.1534 178.79C35.3937 176.283 36.6175 173.975 38.5556 172.373C40.4936 170.771 42.9872 170.006 45.4877 170.247L45.4543 170.275Z" fill="#B51F2B"/>
<path d="M45.1883 470.969L8.00488 467.385L16.789 501.965L30.0033 503.236L45.1883 470.969Z" fill="#FFE5CF"/>
<path d="M30.0034 503.236L16.7891 501.965L21.6318 521L30.0034 503.236Z" fill="#B51F2B"/>
<path d="M31.8467 218.723L8.00732 467.365L19.9901 468.519L43.8295 219.877L31.8467 218.723Z" fill="#BF9662"/>
<path d="M43.8374 219.875L19.998 468.517L45.1954 470.945L69.0347 222.303L43.8374 219.875Z" fill="#FFC882"/>
<path d="M44.4399 213.815L31.8824 212.605C31.1786 212.55 30.4814 212.774 29.9412 213.23C29.401 213.685 29.0612 214.336 28.9951 215.04V215.76C28.9225 216.463 29.1311 217.165 29.5751 217.714C30.0191 218.262 30.6622 218.612 31.363 218.685H31.9283L43.9205 219.833L44.4399 213.815Z" fill="#D8D8D8"/>
<path d="M43.9053 219.895L69.0965 222.33H69.6465C70.3511 222.389 71.0506 222.166 71.5917 221.71C72.1329 221.254 72.4716 220.601 72.5338 219.895L72.6101 219.175C72.683 218.471 72.4748 217.766 72.0311 217.215C71.5875 216.664 70.9444 216.312 70.2423 216.235L44.4858 213.754L43.9053 219.895Z" fill="#EBEBEB"/>
<path d="M44.4399 213.815L70.1964 216.296C70.9002 216.351 71.5975 216.127 72.1377 215.671C72.6779 215.216 73.0177 214.566 73.0837 213.861V213.141C73.1565 212.437 72.9484 211.732 72.5047 211.182C72.061 210.631 71.4179 210.278 70.7158 210.201L44.9594 207.72L44.4399 213.815Z" fill="#EBEBEB"/>
<path d="M45.0204 207.72L32.4782 206.51C31.7736 206.451 31.0741 206.674 30.533 207.13C29.9918 207.586 29.6531 208.239 29.5909 208.945V209.665C29.5222 210.368 29.7319 211.071 30.1748 211.621C30.6177 212.171 31.2584 212.524 31.9588 212.605L44.5163 213.815L45.0204 207.72Z" fill="#D8D8D8"/>
<path d="M45.6009 201.64L33.0587 200.431C32.7093 200.397 32.3568 200.433 32.0214 200.536C31.686 200.64 31.3744 200.809 31.1045 201.034C30.8347 201.259 30.6119 201.535 30.4492 201.847C30.2864 202.159 30.1868 202.5 30.1561 202.85V203.585C30.0878 204.289 30.3 204.992 30.7464 205.54C31.1929 206.088 31.8373 206.437 32.5393 206.51L45.0814 207.72L45.6009 201.64Z" fill="#D8D8D8"/>
<path d="M73.6644 207.781V207.062C73.7025 206.712 73.6714 206.359 73.5728 206.022C73.4743 205.685 73.3103 205.371 73.0903 205.098C72.8702 204.825 72.5985 204.598 72.2906 204.43C71.9828 204.262 71.6449 204.158 71.2965 204.121L45.54 201.64L44.9595 207.766L70.716 210.247C71.0725 210.287 71.4334 210.254 71.777 210.151C72.1206 210.047 72.4397 209.875 72.7152 209.645C72.9907 209.415 73.2168 209.131 73.3799 208.81C73.543 208.49 73.6398 208.14 73.6644 207.781Z" fill="#EBEBEB"/>
<path d="M144.09 311.84C143.692 315.072 147.145 331.473 159.229 322.836C171.313 314.199 166.531 310.477 168.395 308.058C170.259 305.638 162.284 297.736 158.908 301.932C152.11 309.344 144.731 306.343 144.09 311.84Z" fill="#FFA581"/>
<path d="M45.9675 292.499L37.8403 279.145L50.6575 271.901L57.1348 286.373L45.9675 292.499Z" fill="#FFA581"/>
<path d="M44.5163 290.125C42.9886 292.483 44.6691 299.314 47.0064 303.295C49.3437 307.277 51.3297 314.367 55.3322 315.087C59.3347 315.807 65.7967 313.142 66.3772 308.18C66.9577 303.219 62.2067 284.168 55.5308 285.209C49.1604 286.281 46.2273 287.384 44.5163 290.125Z" fill="#FFA581"/>
<path d="M57.2722 285.056C57.2722 285.056 69.2186 288.119 68.1951 292.254C67.1715 296.389 56.4473 292.101 55.1335 290.63C53.8197 289.16 53.7892 285.163 57.2722 285.056Z" fill="#FFA581"/>
<path d="M38.5279 286.741L56.4475 277.644L24.0456 217.445C24.0456 217.445 20.6695 209.282 7.63847 215.193C-5.39253 221.105 2.19997 233.203 2.19997 233.203L38.5279 286.741Z" fill="#AEBDD2"/>
</g>
<defs>
<clipPath id="clip0_238_32">
<rect width="540" height="521" fill="white"/>
</clipPath>
</defs>
</svg>
